<svg xmlns="http://www.w3.org/2000/svg" viewBox="0 0 1069.61 336.29"><defs><style>.cls-1{fill:#231f20;}.cls-1,.cls-2{fill-rule:evenodd;}.cls-2{fill:#3b6ba1;}</style></defs><title>BAAI</title><g id="Layer_2" data-name="Layer 2"><g id="Text"><path class="cls-1" d="M469.61,3V131a26.61,26.61,0,0,1-26,27h-46V137h35c7.79-.15,10.91-5.33,11-12V54h-46V31h46V3Z"/><path class="cls-1" d="M506.61,3V31h46V54h-46v69c.37,9.63,4.37,14,12,14h34v21H509c-20.81,0-28.37-13.94-28.37-29V3Z"/><path class="cls-1" d="M660.61,3V13h65V31h-158V13h66V3Z"/><path class="cls-1" d="M916.61,3h23l13,44h-23Z"/><path class="cls-1" d="M785.61,3l-2,7h42V29h-24v7h24V54h-23l7,7h16V80h-26l-12-12-11,12h-30V62h19l8-8h-27V36h28V29h-28V10h9l2-7Z"/><path class="cls-1" d="M900.61,6h-70c-.34,24.66.33,49.34,0,74,15.19.17,38,0,38,0,19.54,0,32.54-10,32-31C900.61,49,900.81,24,900.61,6Zm-34,55h-11V26h21V51C876.63,58.75,870.61,61,866.61,61Z"/><path class="cls-1" d="M1068.61,28h-29l2-6h27V3h-109V129c-.17,6.44-3.88,9.75-9,10,.06,6.18,0,19.67,0,20,15.33,0,21.36-4.11,27-11,3.37-4.12,5-9.17,5-20V22h33l-2,6h-27v78h30v24c.12,8.31-4.88,10-6,10v19c17,0,27.93-12.87,28-22V106h10c8.62.13,20-11.25,20-23Zm-33,60s-17,.07-28,0V78h40S1043.11,88,1035.61,88Zm12-29h-40V49h40Z"/><path class="cls-1" d="M914.61,55h22l15,41h-23Z"/><path class="cls-1" d="M717.61,41h-143v65h60v21c-.25,6.29-3.34,10.92-13,11v20h14c4.54-.17,14.3-2.07,19.38-7,4.17-4.07,6.62-12.63,6.62-17,0,0,.23-15.17,0-28,10.92.14,32,0,32,0,11.87-.12,24-12.23,24-22.81Zm-25,36a9,9,0,0,1-9,9h-85V62h94Z"/><path class="cls-1" d="M951.61,103l-4,31c-2.19,14.66-11.28,20.15-11.28,20.15-2.59,1.94-7.94,3.85-9.72,3.85h-12V139c11.62-2.37,10.71-12.8,15-36Z"/><path class="cls-1" d="M568.61,158l23-45h26l-23,45Z"/><path class="cls-1" d="M670.61,113h28l25,45h-28Z"/><path class="cls-1" d="M992.61,113h20l-10,44h-20Z"/><path class="cls-1" d="M1041.61,113h20l7,44h-20Z"/><path class="cls-1" d="M897.61,85h-148l1,73h121c8.83,0,26-8.58,26-24Zm-39,56h-84V131h97S869.86,141,858.61,141Zm13-27h-97v-9h97Z"/><path class="cls-1" d="M397.61,190h96c15.62-.08,40.33,9.5,40.5,36.33,0,2.29,1.76,21.06-21.5,29.67,16.83,5.5,28.06,16.06,28,37,0,12.09,0,38.38-57,40h-86V302h79c14.5-.08,16.91-8.83,17-13,.1-5.25-3-12.87-16-13h-80V245h81c5.56-.06,8.75-5.12,8.69-12.76,0-5.85-4.07-11.24-12.69-11.24h-77Z"/><path class="cls-1" d="M756.61,334h-49l-35-95-35,95h-49l58-144h52Z"/><path class="cls-1" d="M1020.61,190h49V334h-49Z"/><path class="cls-1" d="M972.61,334h-49l-35-95-35,95h-49l58-144h52Z"/></g><g id="Logo"><path class="cls-2" d="M323.61,206.52c-20.57-49.1-41.22-97.65-68-140-14.83-23.46-36.48-49.37-54-59C194.17,3.42,177.1,0,168.61,0s-25.56,3.42-33,7.52c-17.52,9.63-39.17,35.54-54,59-26.78,42.35-47.44,90.9-68,140-16.95,40.45-24.91,95.66,18,114,6.48,2.76,83.46,23,109,13,5.87-2.31,13-14.77,14-21,1.75-11-2.82-33.68-7-44-3.87-9.54-13.51-23.54-18-37-7.35-22-1.54-45.31,6.91-56.84,7.45-10.15,15.38-15.34,32.09-15.16h0c16.71-.18,24.64,5,32.08,15.16,8.45,11.53,14.26,34.84,6.92,56.84-4.5,13.46-14.14,27.46-18,37-4.19,10.32-8.75,33-7,44,1,6.23,8.13,18.69,14,21,25.54,10,102.52-10.24,109-13C348.52,302.18,340.55,247,323.61,206.52ZM168.61,141h0a33,33,0,1,1,0-66h0a33,33,0,0,1,0,66Z"/></g></g></svg>