<svg xmlns="http://www.w3.org/2000/svg" viewBox="0 0 1123.99 178.26"><defs><style>.cls-1{fill:#4babdd;}.cls-2{fill:#2a619f;}.cls-2,.cls-5{stroke:#fff;}.cls-2,.cls-3,.cls-5{stroke-miterlimit:10;stroke-width:2.5px;}.cls-3,.cls-4{fill:#fff;}.cls-3{stroke:#2a619f;}.cls-5{fill:none;}</style></defs><title>SHIC</title><g id="Layer_2" data-name="Layer 2"><g id="Layer_1-2" data-name="Layer 1"><path class="cls-1" d="M72,0S40.84,37.27,36.88,64C29.3,115.15,72.54,174.5,72.54,174.5s43.68-60.26,35.17-112C103.41,36.36,72,0,72,0Z"/><path class="cls-2" d="M141.71,46.15S152,89.26,129.62,130.42c-14.69,27-56.57,46-56.57,46S70.39,133.64,84.38,101C108,46,141.71,46.15,141.71,46.15Z"/><path class="cls-2" d="M3.62,46.15S-6.7,89.26,15.71,130.42c14.7,27,56.58,46,56.58,46s2.58-43.57-11.41-76.2C37.31,45.17,3.62,46.15,3.62,46.15Z"/><circle class="cls-3" cx="39.51" cy="64.73" r="7.06"/><circle class="cls-4" cx="33.9" cy="125.23" r="5.81"/><path class="cls-5" d="M73.5,153.42a143.36,143.36,0,0,1-22.79-31.25C39.5,100.79,39.39,75.32,39.51,64.73"/><path class="cls-5" d="M72.1,172.28c-7.29-6.52-29.32-29.63-38.2-47"/><circle class="cls-3" cx="105.26" cy="64.73" r="7.06"/><circle class="cls-4" cx="120.7" cy="103.33" r="5.81"/><path class="cls-5" d="M72.15,152.7c32.08-36.28,33.11-61.68,33.11-88"/><path class="cls-5" d="M72.67,172.28c7.29-6.52,35-34.45,48-68.95"/><circle class="cls-4" cx="65" cy="43.29" r="5.81"/><path class="cls-5" d="M79.11,116.3c3.08-20,2-23.63.91-46.76"/><circle class="cls-4" cx="80.02" cy="69.54" r="5.81"/><path class="cls-5" d="M68.58,125.94c-2.12-9.25-9.4-38-3.58-82.65"/><path d="M263.3,105.34v8.6c-9.29-.6-20.38-.86-37.49-.86s-28.55.26-37.76.86v-8.6c7.92.52,17.2.77,30.27.86V64.58c0-13.85-.25-19.18-.68-21.67a60.79,60.79,0,0,0,10,.77c1.55,0,1.81.77.35,1.81-1,.68-1.64,3.95-1.64,7.82V64.66h11.35c7.74,0,13.59-.25,18.24-.68v8.51a170.77,170.77,0,0,0-18.24-.69H226.32v34.4C243.18,106.2,254.1,105.94,263.3,105.34Z"/><path d="M286.18,102.67a128.15,128.15,0,0,0-4.64,15.74,36,36,0,0,0-8.26-5.76c2.32-3.61,3.35-5.85,6.28-13.85A115.43,115.43,0,0,0,284,85a14.16,14.16,0,0,0,6.54,5.25C289.36,93.3,288.24,96.4,286.18,102.67Zm.95-24.33a54.14,54.14,0,0,0-13.33-8.26l4.12-6.1c3.79,2.23,9.81,5.84,13.68,8.08ZM290.74,58A56,56,0,0,0,278.1,47.55l5.33-5.16c4.13,3.27,9,7.31,12.72,10.49Zm7.48,11.87a12.88,12.88,0,0,0-6.36-2.75c6-6,14-18.41,16.94-27.09a49.94,49.94,0,0,0,8.77,2.84c1.12.17,1.29,1.29-.26,1.54-1.2.26-2,.86-4.9,5.34H336a64.69,64.69,0,0,0,12.56-.95v7c-3-.26-7.57-.43-12.56-.43H308.71c-1.55,2.41-3.44,5.16-5.25,7.66h20.39c7.31,0,14.44-.26,18.83-.69l-1.46,19.95a61.43,61.43,0,0,0,8.77-.52v6.45a85.76,85.76,0,0,0-9.2-.6l-1,14.71a60.4,60.4,0,0,0,7.05-.52v7a44.76,44.76,0,0,0-7.4-.69c-.51,8.43-1.29,10.5-13.33,12.56a13,13,0,0,0-3.87-7.31c8.26.17,9.89-1.38,10.49-5.42H312.07a122.22,122.22,0,0,0-13.85.61l2.15-20.9c-2.84.08-5.85.26-7.91.51V81.86c2.23.26,5.5.43,8.51.61l2-18.67C301.4,65.87,299.77,68,298.22,69.91Zm8.86,17.8-1.72,14.79h27.77l1.12-14.79Zm27.6-5.24,1-14.19h-26.4l-1.63,14.19ZM318.34,101c0-2.23-2-7.65-3.18-9.63l6.45-1.63c1.12,2.84,2.84,7.4,3.53,9.72ZM320,80.57a26.35,26.35,0,0,0-3-8.08l6.45-1.63A36.7,36.7,0,0,1,327,79.37Z"/><path d="M389,57.35c5.77,0,8.6-.08,11.1-.17-3,20-8.17,33.71-14.28,42,8.17,8.77,20.81,11.09,50.48,9.46-1.89,2.58-2.4,4.9-3.18,8.94-29.32.26-42.4-3.52-51.34-13.76a159.06,159.06,0,0,1-16.25,14.54c-1.21-1.9-4.82-5.08-7.57-6.8,5.76-1.29,11.7-4.56,20.12-12.73-3.18-5.24-5.5-12.12-8.25-22.27a98.61,98.61,0,0,1-6,10.92,37.14,37.14,0,0,0-6.54-4c8.86-9.8,15.22-29.24,16.77-41.62a62.58,62.58,0,0,0,7.74,2.75c1.55.26,1.72,1,.52,1.63-.95.52-2.33,3-3.27,6.63-.43,1.63-.95,3.09-1.46,4.55Zm3.27,6.11H375.45a125.66,125.66,0,0,1-4.9,11.61l6.7-.43a46.84,46.84,0,0,0,4.82,19.26C386.88,86.42,391.53,73.69,392.3,63.46Zm20.38-16.6V93.13a93.79,93.79,0,0,0,.78,13.24H405.2a112.5,112.5,0,0,0,.6-13.24V52.45c0-4.81-.25-8.77-.77-10.66a45.49,45.49,0,0,0,8.34.77c1.64-.08,1.89.69.35,1.46C412.77,44.45,412.68,45.49,412.68,46.86Zm16.86,35.69A168.67,168.67,0,0,0,414.06,65.7l5.16-4.39c5.59,5.25,10.41,10.15,16.6,16.68Z"/><path d="M446.14,55.29V48.07c3.1.34,7.74.51,13.5.51a134.08,134.08,0,0,0,13.5-.51v7.22c-2.41-.26-6-.52-10.32-.69V73a80.65,80.65,0,0,0,9.38-.61v7.31c-2.32-.25-5.51-.51-9.38-.6V99.58a65.77,65.77,0,0,0,9.38-4,25.09,25.09,0,0,0-.18,7.56c-10.66,3.19-19.43,7.14-25.62,11.27a27.49,27.49,0,0,0-2.32-10.49,62,62,0,0,0,12-2.15V79.11a92.46,92.46,0,0,0-9.89.6V72.4a84.23,84.23,0,0,0,9.89.69V54.69C452,54.77,448.55,55,446.14,55.29Zm53.32,54c9.8-.09,17-.35,22.7-.69v7.31c-6.36-.52-14.62-.78-26.23-.78s-21.07.26-27.34.78v-7.31c5.84.34,14,.6,24.33.69V99.84a132.47,132.47,0,0,0-16.51.86V93.3a151.65,151.65,0,0,0,16.51,1v-8.6c-12.47.08-15.82.25-17.63.51.26-4.81.52-12.72.52-20.21,0-7.91-.26-16.16-.52-19.86,2.15.43,6.19.69,21.24.69,14.8,0,19.18-.18,21.16-.69-.26,3.78-.43,11.95-.43,19.86,0,7.23.34,15.31.6,20.21-2.23-.43-5.42-.51-18.4-.51v8.6a163.7,163.7,0,0,0,17.54-1v7.4a166.86,166.86,0,0,0-17.54-.86Zm-6.54-56.85H482.17V63.2h10.75Zm0,16.17H482.17V80.06h10.75Zm6.54-5.42h11.18V52.45H499.46Zm0,16.86h11.18V68.62H499.46Z"/><path d="M604.81,72.15v7c-6.71-.34-16.34-.6-28-.77,6.71,4.9,15.65,7.22,30.27,6.88a14.45,14.45,0,0,0-2.23,6.88c-19.27-1.47-29.5-5.68-34.4-13.76H569.2c-3.52,7.74-12.89,11.69-33.62,14.27a17.11,17.11,0,0,0-3.18-5.67c15.48-.52,25.45-3.79,29.75-8.6-11.95.08-20,.34-27.17.77v-7c7.74.43,16.34.68,29.75.68a34,34,0,0,0,.86-6.36,27.91,27.91,0,0,0,7.91.6c1.38-.08,1.47.69.26,1.38-.94.51-1.55,1.37-2.66,4.38C585.37,72.83,597.07,72.58,604.81,72.15ZM553,65a128.74,128.74,0,0,0-13.5.43,75,75,0,0,0,.6-10.15,66.28,66.28,0,0,0-.6-9.89,86,86,0,0,0,13.5.69,81.5,81.5,0,0,0,13.33-.69,87,87,0,0,0-.43,10,91.89,91.89,0,0,0,.43,10.14A99.52,99.52,0,0,0,553,65Zm-6.19,48.07v5.25h-7a39.41,39.41,0,0,0,.43-6.37V99.15a33.65,33.65,0,0,0-.43-6.54c2.23.35,5,.61,13.15.61s10.84-.18,13.08-.61a29.92,29.92,0,0,0-.43,6.54v12.3a45.51,45.51,0,0,0,.51,6.36h-7.13v-4.73Zm12.38-61.83H546.67v8.43h12.47ZM558.89,108V98.37H546.76V108Zm19.86,4.73v4.9h-7a37.73,37.73,0,0,0,.43-6.37V98.72a41.64,41.64,0,0,0-.43-6.54c2.58.35,5.59.6,14.19.6,9.29,0,11.79-.17,14.19-.6a36.66,36.66,0,0,0-.43,6.54V111a46.73,46.73,0,0,0,.52,6.36h-7.14v-4.64Zm8.34-48.08c-6.88,0-10.66.18-14.1.43a98.39,98.39,0,0,0,.51-10.49A67.18,67.18,0,0,0,573,45a95.82,95.82,0,0,0,14.1.69A89.52,89.52,0,0,0,601,45c-.25,2.67-.43,6.11-.43,9.63A99.36,99.36,0,0,0,601,65.18,131.38,131.38,0,0,0,587.09,64.66Zm6,43.09v-10H578.75v10ZM594,51H580V59.5h14ZM585.8,72.58a19.11,19.11,0,0,0-4.9-4.13l6.28-3.27c1.89,1.29,3.18,2.41,5.16,4Z"/><path d="M629,66a78.49,78.49,0,0,0-11.87.86V59.07a71.32,71.32,0,0,0,11.87.69c0-10.92-.18-13.84-.87-17.8a40.18,40.18,0,0,0,8.09.43c2.92-.26,3.1.86,1.29,2.32A3.57,3.57,0,0,0,635.94,48v11.7a55.4,55.4,0,0,0,7.48-.61v7.74a54.12,54.12,0,0,0-7.48-.68V80.66c2.92-1,5.85-1.89,8.86-3a14.84,14.84,0,0,0,.69,6.88c-3.27.77-6.37,1.63-9.55,2.67v23.64c0,5.16-1.2,6.11-14,8.35a28.42,28.42,0,0,0-4.21-9c8,.86,11.27-.09,11.27-2.41V89.69c-3.44,1.38-7,2.92-10.75,4.82a62.49,62.49,0,0,0-1.81-9c4.3-.86,8.43-1.8,12.56-2.84Zm18,13.67V72.32c4,.43,12.9.6,18.14.69V60.19c-7.56.09-14.19.26-18.91.69V53.23c4.72.34,11.43.6,18.91.68a89.09,89.09,0,0,0-.86-12,51,51,0,0,0,8.69.69c1.89,0,1.89.6.34,1.55-.77.43-.94,1.46-.94,2.92v6.88c9.37,0,14.62-.25,19.69-.68v7.65a190.14,190.14,0,0,0-19.69-.69V73c6-.09,11-.52,15.31-1-3.79,13.5-8.09,21.5-15.48,29.76,5.93,4,13.67,7,22.87,8.34a34.36,34.36,0,0,0-4.47,9.11c-9.89-2.66-17.29-7.57-23.39-12.55a144.78,144.78,0,0,1-19.69,13.15,14,14,0,0,0-6.63-6.1c7.83-2.24,15.4-6,21.33-12-3.7-4.65-7.65-12.9-10.15-22.54C650.3,79.46,648.5,79.54,647,79.71Zm20.29,17.38c4.91-5.77,9.38-12,10.58-18H659.16A49.05,49.05,0,0,0,667.24,97.09Z"/><path d="M737.51,69.74c-7.23,19.69-14.28,29.75-27.18,40.93a34.06,34.06,0,0,0-7.57-5.76c12-7.22,21.16-18.14,28.9-35.17-8.6,0-18.06.34-25.63.86V62.69c7.74.51,17.72.77,31.65.86,0-12.56-.35-18.67-1.12-22.36a47.11,47.11,0,0,0,9.72.25c2.23-.17,2.58.86.86,1.9a5.82,5.82,0,0,0-2.07,4.21v16c14.28-.09,25.12-.43,31.65-.86V70.6c-6.79-.43-16.42-.78-26-.86,7.14,18.83,14.62,26.83,29.84,30a33.63,33.63,0,0,0-7.05,9.2c-16.77-9.71-22.79-19.52-27.69-39.21h-.78v35.08a104,104,0,0,0,.69,14.19h-8.94a102.42,102.42,0,0,0,.86-14.19V69.74Zm25-10.75a34.82,34.82,0,0,0-7.74-10L761,44.54c3.1,3.35,5.16,5.76,8.35,9.63Z"/><path d="M798.91,70.43c2.84.25,7.91.43,12.13.43,4.81,0,13.84-.18,16.51-.52L826,91.67c-.26,3.44-3.87,5.5-13.5,6.62a13.15,13.15,0,0,0-2.41-7.14c7.74.34,10-.86,10.15-3.09l.86-11.44H804.85v29.84c0,1.89,1.46,2.32,10.57,2.32,8,0,11.27-1.38,12.39-10.15a11.87,11.87,0,0,0,6.79,4.82c-4,10.4-7.83,12-18.4,12-11.61,0-17.72-.69-17.72-7.39V80.14a69.17,69.17,0,0,0-.43-8.77q-2.7,2.72-6.19,6.19c-.34-2.4-2.06-6.19-3.78-7.65,6.27-3.87,10.74-8.34,16.51-17,3.18-4.81,5.07-8.94,5.42-11a65.46,65.46,0,0,0,8.17,3.62c.85.34.94,1,0,1.54a24.59,24.59,0,0,0-3.36,3.19,83,83,0,0,1,19.09,11.09l-4.81,6.11C822.56,61,820,59.33,811.55,55,807.86,60.79,804.85,64.41,798.91,70.43Zm38.61,30.7a63.81,63.81,0,0,0,.69-10.41V62.17a52.88,52.88,0,0,0-.69-9.2,36.87,36.87,0,0,0,7.49.69c1.37-.09,1.63.68.34,1.63-.34.26-.69,2.49-.69,3.7V90.72a64.3,64.3,0,0,0,.69,10.41Zm22.79-53.92v63c0,6.11-1,7.31-14,9a15.35,15.35,0,0,0-3.79-8.52c9.46.6,11.18-.34,11.18-2.75V56.41a94.37,94.37,0,0,0-.77-14.11,44.61,44.61,0,0,0,7.57.43c1.63-.08,1.8.43.68,1.38C860.49,44.71,860.31,45.74,860.31,47.21Z"/><path d="M887.32,100.78c-2.84,4.39-4,6.28-6.54,10.92a12.66,12.66,0,0,0-7-2.75c5.24-5.07,8.6-9.8,10.83-16.42a51.94,51.94,0,0,0,5.85,2.41c1.89.42,1.89.77.17,1.71A19.41,19.41,0,0,0,887.32,100.78Zm29.07-31v6.88a132.51,132.51,0,0,0-15.57-.86v8.6c6.62-.09,10.32-.35,14.45-.78v7.14A93.27,93.27,0,0,0,900.82,90v19.43c0,6.28-1,7.4-12.13,9.2a14,14,0,0,0-3-8.17c7.82,1.38,8.77,1,8.77-6.62V89.86a152.55,152.55,0,0,0-16.51.86V83.58a133.26,133.26,0,0,0,16.51.78v-8.6a174.46,174.46,0,0,0-18.06.86V69.74a195,195,0,0,0,22.7.77,95.81,95.81,0,0,0,5.33-12,20.86,20.86,0,0,0,6.71,3.1c1,.26,1.2.86-.17,1.46-1,.43-2.41,2.15-6.71,7.4C909.25,70.34,913.12,70.08,916.39,69.74ZM893.17,43.42l7.74-1.55c.69,3,1.2,5.34,2.15,9,5.33-.17,9.28-.43,12.64-.86v7.31a129.5,129.5,0,0,0-17.8-.94,142.71,142.71,0,0,0-18.58.94V50a147.19,147.19,0,0,0,16.43.86C895,48.32,894.11,45.74,893.17,43.42ZM887.4,69.48c-.94-4-1.89-6.28-3.61-8.6l6.45-2.49a61.76,61.76,0,0,0,4,8.6Zm22.11,38.44a35.26,35.26,0,0,0-7.14-11.09l5.07-3.44c3.1,3.7,5.08,6.36,8,10.23Zm29.41-37.75c6.1,0,9.11-.17,12.73-1v8.08a42.93,42.93,0,0,0-9.12-1.12v30.36a113.62,113.62,0,0,0,.69,13.67h-8.34a118.6,118.6,0,0,0,.68-13.67V76.1h-7.82c-.35,20.9-3.18,32.42-10.32,43.17-2.15-1.72-3.44-2.32-7.83-3.52,8-8.17,10.84-17.8,11.53-43.52a218.7,218.7,0,0,0-.61-23.65c7.49.43,18.67-2.06,25.63-4.9a27.85,27.85,0,0,0,4.39,6.79c1.72,1.64,1.2,2.07-.95,1.64-1.8-.35-3.27-.17-10.92.77a108.4,108.4,0,0,1-10.92,1V70.17Z"/><path d="M1003.16,91.07v12.55c0,3.87.34,10.75.86,15.48h-9.2c.43-4.13.86-11.61.86-15.48V91.07H975.73v6.1h-7.91c.34-3.61.6-9.2.6-12.81V65.78a65.9,65.9,0,0,0-.6-8.86c4.21.61,13.5.86,27.86.95v-4c0-8.09-.26-10.92-.86-12.82a80.71,80.71,0,0,0,9.12.52c1.37,0,1.63.34.25,1.55-.69.6-1,2.15-1,4.73V57.87c15.05-.09,24.51-.43,28.72-.95-.17,2.24-.43,7.57-.43,10.58V84c0,3.44.26,8.69.43,12.3h-8.17V91.07Zm-7.48-6.46V64.32H975.73V84.61Zm28,0V64.32h-20.55V84.61Z"/><path d="M1060.09,79.8c-1,5.16-3,14.1-4.55,20.81-2-1-5.59-1.72-9.21-1.89a58.11,58.11,0,0,0,7.23-28.81,21.42,21.42,0,0,0,7.57,1.12c2.14-.09,2.32.43.94,1.72C1061.64,73.18,1060.78,75.93,1060.09,79.8Zm38.27,35.43c-5.24.6-18.49.52-22-.26s-5.08-3.09-5.08-10.4V78.94a70.84,70.84,0,0,0-.77-11.52,41,41,0,0,0,8.69.43c1.8-.09,2.14.43.77,1.54a2.9,2.9,0,0,0-1,2.67v31.3c0,2.5.51,4.22,3,4.56a101.44,101.44,0,0,0,15.22-.17c3.61-.52,4.73-2.07,6-12a12.59,12.59,0,0,0,8.25,6.11C1107.48,113.85,1106.53,114.37,1098.36,115.23Zm-8.17-49.62a96.82,96.82,0,0,0-15.3-17.54l6.79-5.34a228.58,228.58,0,0,0,16.08,17Zm24.86,28.12c-2.5-6.79-8.17-15.48-13.33-21.24l6.62-4.47c4.47,6.28,11.18,15.39,15.65,21.32Z"/><path d="M188.32,147.31l3.54-.35a4.58,4.58,0,0,0,1.3,2.7,3.86,3.86,0,0,0,2.65.86,4,4,0,0,0,2.65-.76,2.32,2.32,0,0,0,.89-1.8,1.7,1.7,0,0,0-.37-1.12,3,3,0,0,0-1.31-.81c-.43-.15-1.4-.42-2.92-.81a9.88,9.88,0,0,1-4.12-1.84,5,5,0,0,1,1.38-8.29,8.63,8.63,0,0,1,3.55-.65,7.49,7.49,0,0,1,5.12,1.53,5.54,5.54,0,0,1,1.8,4.1l-3.64.17a3.2,3.2,0,0,0-1-2.06,3.58,3.58,0,0,0-2.31-.63,4.07,4.07,0,0,0-2.49.67,1.38,1.38,0,0,0-.57,1.16,1.46,1.46,0,0,0,.54,1.13,9.5,9.5,0,0,0,3.35,1.24,17.3,17.3,0,0,1,3.93,1.34,5.13,5.13,0,0,1,2,1.89,6,6,0,0,1-.14,6A5.24,5.24,0,0,1,199.7,153a10,10,0,0,1-3.93.68,7.7,7.7,0,0,1-5.26-1.63A7.23,7.23,0,0,1,188.32,147.31Z"/><path d="M208.4,153.37V134.76h3.65v7.32h7.14v-7.32h3.64v18.61h-3.64v-8.14h-7.14v8.14Z"/><path d="M245.21,153.37h-4l-1.57-4.23h-7.22L231,153.37h-3.87l7-18.61H238ZM238.5,146,236,139.1l-2.44,6.9Z"/><path d="M249.5,153.37V134.76h3.55l7.39,12.42V134.76h3.38v18.61h-3.65l-7.28-12.14v12.14Z"/><path d="M278.4,146.52v-3.13h7.86v7.41a9.67,9.67,0,0,1-3.32,2,11.77,11.77,0,0,1-4.4.87,9.6,9.6,0,0,1-4.94-1.22,7.75,7.75,0,0,1-3.17-3.5,11.74,11.74,0,0,1-1.06-5,11.1,11.1,0,0,1,1.18-5.17,8.13,8.13,0,0,1,3.47-3.47,9.15,9.15,0,0,1,4.32-.92,8.42,8.42,0,0,1,5.25,1.45,6.59,6.59,0,0,1,2.43,4l-3.62.7a3.92,3.92,0,0,0-1.43-2.17,4.24,4.24,0,0,0-2.63-.79,4.87,4.87,0,0,0-3.8,1.56,6.72,6.72,0,0,0-1.41,4.64,7.43,7.43,0,0,0,1.43,5,4.71,4.71,0,0,0,3.74,1.65,6.09,6.09,0,0,0,2.3-.46,7.82,7.82,0,0,0,2-1.12v-2.37Z"/><path d="M292,153.37V134.76h3.65v7.32h7.14v-7.32h3.65v18.61h-3.65v-8.14H295.6v8.14Z"/><path d="M328.76,153.37h-4l-1.58-4.23H316l-1.49,4.23h-3.86l7-18.61h3.85ZM322.05,146l-2.49-6.9-2.44,6.9Z"/><path d="M332.91,153.37V134.76h3.64v18.61Z"/><path d="M353.55,153.37V134.76h3.65v18.61Z"/><path d="M364,153.37V134.76h3.55L375,147.18V134.76h3.39v18.61h-3.66l-7.28-12.14v12.14Z"/><path d="M384.56,153.37V134.76h3.55l7.39,12.42V134.76h3.38v18.61h-3.65L388,141.23v12.14Z"/><path d="M431.51,153.37l-6.45-18.61H429l4.57,13.77L438,134.76h3.87l-6.47,18.61Z"/><path d="M460.46,153.37h-4l-1.58-4.23H447.7l-1.49,4.23h-3.87l7-18.61h3.85ZM453.75,146l-2.49-6.9-2.44,6.9Z"/><path d="M466.91,153.37V137.9h-5.36v-3.14H475.9v3.14h-5.35v15.47Z"/><path d="M480.46,153.37V134.76h3.65v18.61Z"/><path d="M489.16,144.18a12.19,12.19,0,0,1,.83-4.78,8.69,8.69,0,0,1,1.68-2.55,7.22,7.22,0,0,1,2.33-1.68,9.72,9.72,0,0,1,3.9-.73,8.32,8.32,0,0,1,6.38,2.55,11.67,11.67,0,0,1,0,14.15,8.25,8.25,0,0,1-6.35,2.54,8.35,8.35,0,0,1-6.41-2.53A9.8,9.8,0,0,1,489.16,144.18Zm3.76-.13a7.08,7.08,0,0,0,1.42,4.79,4.77,4.77,0,0,0,7.17,0,7.25,7.25,0,0,0,1.4-4.85,7.14,7.14,0,0,0-1.36-4.78,4.95,4.95,0,0,0-7.25,0A7.21,7.21,0,0,0,492.92,144.05Z"/><path d="M511.88,153.37V134.76h3.55l7.39,12.42V134.76h3.39v18.61h-3.66l-7.28-12.14v12.14Z"/><path d="M555.25,146.52l3.54,1.16a8.3,8.3,0,0,1-2.71,4.53,7.59,7.59,0,0,1-4.8,1.47,7.66,7.66,0,0,1-5.91-2.53,9.89,9.89,0,0,1-2.31-6.92q0-4.65,2.32-7.22a7.91,7.91,0,0,1,6.13-2.57,6.89,6.89,0,0,1,7.23,5.44l-3.61.89a4,4,0,0,0-1.34-2.28,3.75,3.75,0,0,0-2.47-.84,4.07,4.07,0,0,0-3.26,1.49q-1.24,1.49-1.25,4.81c0,2.35.41,4,1.24,5a3.93,3.93,0,0,0,3.2,1.5,3.61,3.61,0,0,0,2.5-.95A5.51,5.51,0,0,0,555.25,146.52Z"/><path d="M564.23,153.37V134.76h13.39v3.14h-9.74V142H577v3.14h-9.07v5.06H578v3.14Z"/><path d="M583.42,153.37V134.76H587l7.39,12.42V134.76h3.38v18.61h-3.65l-7.28-12.14v12.14Z"/><path d="M608,153.37V137.9h-5.35v-3.14H617v3.14h-5.35v15.47Z"/><path d="M621.65,153.37V134.76H635v3.14h-9.75V142h9.07v3.14h-9.07v5.06h10.09v3.14Z"/><path d="M640.81,153.37V134.76h7.67a12.67,12.67,0,0,1,4.21.5,4.21,4.21,0,0,1,2.1,1.78,5.54,5.54,0,0,1,.79,2.93,5,5,0,0,1-1.2,3.46,5.65,5.65,0,0,1-3.57,1.72,8.78,8.78,0,0,1,2,1.56,21.61,21.61,0,0,1,2.08,3l2.2,3.63h-4.36L650,149.32a24.89,24.89,0,0,0-1.92-2.74,2.74,2.74,0,0,0-1.09-.77,5.87,5.87,0,0,0-1.84-.21h-.74v7.77Zm3.64-10.74h2.7a13.68,13.68,0,0,0,3.28-.23,2,2,0,0,0,1-.79,2.45,2.45,0,0,0,.37-1.4,2.23,2.23,0,0,0-.49-1.51A2.16,2.16,0,0,0,650,138a25.94,25.94,0,0,0-2.66-.07h-2.85Z"/><path d="M670.69,153.37V134.76h12.38v3.14h-8.74v4.41h7.54v3.15h-7.54v7.91Z"/><path d="M687.65,144.18a12.19,12.19,0,0,1,.83-4.78,8.69,8.69,0,0,1,1.68-2.55,7.22,7.22,0,0,1,2.33-1.68,9.71,9.71,0,0,1,3.89-.73,8.35,8.35,0,0,1,6.39,2.55,11.67,11.67,0,0,1,0,14.15,9.3,9.3,0,0,1-12.76,0A9.76,9.76,0,0,1,687.65,144.18Zm3.76-.13a7.08,7.08,0,0,0,1.42,4.79,4.77,4.77,0,0,0,7.17,0,9.09,9.09,0,0,0,0-9.63,4.95,4.95,0,0,0-7.25,0A7.21,7.21,0,0,0,691.41,144.05Z"/><path d="M710.35,153.37V134.76H718a12.56,12.56,0,0,1,4.2.5,4.19,4.19,0,0,1,2.11,1.78,5.53,5.53,0,0,1,.78,2.93,5,5,0,0,1-1.19,3.46,5.65,5.65,0,0,1-3.57,1.72,9,9,0,0,1,1.95,1.56,21.77,21.77,0,0,1,2.07,3l2.21,3.63h-4.36l-2.64-4.05a24.89,24.89,0,0,0-1.92-2.74,2.74,2.74,0,0,0-1.09-.77,5.87,5.87,0,0,0-1.84-.21H714v7.77ZM714,142.63h2.7a13.52,13.52,0,0,0,3.27-.23,2,2,0,0,0,1-.79,2.53,2.53,0,0,0,.37-1.4,2.28,2.28,0,0,0-.49-1.51,2.16,2.16,0,0,0-1.37-.73,26.07,26.07,0,0,0-2.66-.07H714Z"/><path d="M751.75,146.52l3.54,1.16a8.18,8.18,0,0,1-2.71,4.53,7.56,7.56,0,0,1-4.79,1.47,7.63,7.63,0,0,1-5.91-2.53,9.85,9.85,0,0,1-2.32-6.92q0-4.65,2.33-7.22a7.87,7.87,0,0,1,6.12-2.57,6.89,6.89,0,0,1,7.23,5.44l-3.61.89a4,4,0,0,0-1.34-2.28,3.73,3.73,0,0,0-2.47-.84,4.05,4.05,0,0,0-3.25,1.49c-.84,1-1.25,2.59-1.25,4.81s.41,4,1.23,5a4,4,0,0,0,3.2,1.5,3.61,3.61,0,0,0,2.5-.95A5.51,5.51,0,0,0,751.75,146.52Z"/><path d="M760,144.18a12.2,12.2,0,0,1,.82-4.78,8.72,8.72,0,0,1,1.69-2.55,7.12,7.12,0,0,1,2.33-1.68,9.64,9.64,0,0,1,3.89-.73,8.36,8.36,0,0,1,6.39,2.55,11.71,11.71,0,0,1,0,14.15,9.3,9.3,0,0,1-12.76,0A9.76,9.76,0,0,1,760,144.18Zm3.76-.13a7.13,7.13,0,0,0,1.41,4.79,4.57,4.57,0,0,0,3.6,1.63,4.52,4.52,0,0,0,3.58-1.62,7.25,7.25,0,0,0,1.4-4.85,7.14,7.14,0,0,0-1.37-4.78,4.52,4.52,0,0,0-3.61-1.57,4.57,4.57,0,0,0-3.63,1.59A7.21,7.21,0,0,0,763.76,144.05Z"/><path d="M782.63,153.37V134.76h5.46l3.27,12.69,3.24-12.69h5.47v18.61h-3.39V138.72l-3.58,14.65h-3.51L786,138.72v14.65Z"/><path d="M806,153.37V134.76h5.85a21.3,21.3,0,0,1,4.34.27,4.75,4.75,0,0,1,2.6,1.83,5.87,5.87,0,0,1,1.05,3.62,6.13,6.13,0,0,1-.61,2.88,5.09,5.09,0,0,1-1.53,1.84,5.21,5.21,0,0,1-1.89.88,19.94,19.94,0,0,1-3.78.27h-2.38v7Zm3.65-15.47v5.29h2a9,9,0,0,0,2.89-.3,2.45,2.45,0,0,0,1.14-.91,2.62,2.62,0,0,0,.41-1.45,2.41,2.41,0,0,0-.58-1.67A2.5,2.5,0,0,0,814,138a17.34,17.34,0,0,0-2.62-.13Z"/><path d="M825.14,134.76h3.64v10.08a21.4,21.4,0,0,0,.14,3.11,3,3,0,0,0,1.11,1.83,3.82,3.82,0,0,0,2.41.69,3.65,3.65,0,0,0,2.34-.65,2.6,2.6,0,0,0,1-1.61,21.08,21.08,0,0,0,.16-3.16V134.76h3.64v9.77a25.82,25.82,0,0,1-.29,4.74,5.3,5.3,0,0,1-1.09,2.33,5.49,5.49,0,0,1-2.13,1.52,8.89,8.89,0,0,1-3.47.56,9.75,9.75,0,0,1-3.92-.61,5.62,5.62,0,0,1-2.11-1.6,5.26,5.26,0,0,1-1-2.06,24.06,24.06,0,0,1-.35-4.73Z"/><path d="M849.76,153.37V137.9H844.4v-3.14h14.35v3.14h-5.34v15.47Z"/><path d="M863.32,153.37V134.76H867v18.61Z"/><path d="M872.79,153.37V134.76h3.55l7.39,12.42V134.76h3.39v18.61h-3.66l-7.28-12.14v12.14Z"/><path d="M901.7,146.52v-3.13h7.85v7.41a9.67,9.67,0,0,1-3.32,2,11.69,11.69,0,0,1-4.4.87,9.63,9.63,0,0,1-4.94-1.22,7.73,7.73,0,0,1-3.16-3.5,11.59,11.59,0,0,1-1.06-5,11,11,0,0,1,1.18-5.17,8.11,8.11,0,0,1,3.46-3.47,9.21,9.21,0,0,1,4.32-.92,8.43,8.43,0,0,1,5.26,1.45,6.59,6.59,0,0,1,2.43,4l-3.62.7a3.94,3.94,0,0,0-1.44-2.17,4.24,4.24,0,0,0-2.63-.79,4.87,4.87,0,0,0-3.8,1.56,6.72,6.72,0,0,0-1.41,4.64,7.48,7.48,0,0,0,1.43,5,4.71,4.71,0,0,0,3.75,1.65,6,6,0,0,0,2.29-.46,7.82,7.82,0,0,0,2-1.12v-2.37Z"/><path d="M928.63,153.37V137.9h-5.36v-3.14h14.35v3.14h-5.34v15.47Z"/><path d="M942.3,153.37V134.76h13.38v3.14h-9.74V142H955v3.14h-9.07v5.06H956v3.14Z"/><path d="M973,146.52l3.54,1.16a8.23,8.23,0,0,1-2.7,4.53,8.34,8.34,0,0,1-10.71-1.06,9.85,9.85,0,0,1-2.32-6.92q0-4.65,2.33-7.22a7.87,7.87,0,0,1,6.12-2.57,6.89,6.89,0,0,1,7.23,5.44l-3.61.89a4,4,0,0,0-1.34-2.28,3.71,3.71,0,0,0-2.46-.84,4.06,4.06,0,0,0-3.26,1.49c-.84,1-1.25,2.59-1.25,4.81s.41,4,1.23,5a4,4,0,0,0,3.2,1.5,3.61,3.61,0,0,0,2.5-.95A5.51,5.51,0,0,0,973,146.52Z"/><path d="M982,153.37V134.76h3.65v7.32h7.14v-7.32h3.65v18.61h-3.65v-8.14h-7.14v8.14Z"/><path d="M1002.55,153.37V134.76h3.55l7.39,12.42V134.76h3.39v18.61h-3.66l-7.28-12.14v12.14Z"/><path d="M1022.32,144.18a12.2,12.2,0,0,1,.82-4.78,8.69,8.69,0,0,1,1.68-2.55,7.15,7.15,0,0,1,2.34-1.68,9.64,9.64,0,0,1,3.89-.73,8.32,8.32,0,0,1,6.38,2.55,11.67,11.67,0,0,1,0,14.15,8.25,8.25,0,0,1-6.35,2.54,8.37,8.37,0,0,1-6.41-2.53A9.8,9.8,0,0,1,1022.32,144.18Zm3.75-.13a7.08,7.08,0,0,0,1.42,4.79,4.77,4.77,0,0,0,7.17,0,9.09,9.09,0,0,0,0-9.63,4.53,4.53,0,0,0-3.61-1.57,4.58,4.58,0,0,0-3.64,1.59A7.21,7.21,0,0,0,1026.07,144.05Z"/><path d="M1045.1,153.37V134.91h3.64v15.32h9.07v3.14Z"/><path d="M1062,144.18a12.2,12.2,0,0,1,.82-4.78,8.69,8.69,0,0,1,1.68-2.55,7.15,7.15,0,0,1,2.34-1.68,9.64,9.64,0,0,1,3.89-.73,8.36,8.36,0,0,1,6.39,2.55,11.71,11.71,0,0,1,0,14.15,9.31,9.31,0,0,1-12.77,0A9.8,9.8,0,0,1,1062,144.18Zm3.75-.13a7.13,7.13,0,0,0,1.42,4.79,4.78,4.78,0,0,0,7.18,0,7.25,7.25,0,0,0,1.39-4.85,7.14,7.14,0,0,0-1.36-4.78,4.52,4.52,0,0,0-3.61-1.57,4.58,4.58,0,0,0-3.64,1.59A7.21,7.21,0,0,0,1065.74,144.05Z"/><path d="M1093.07,146.52v-3.13h7.86v7.41a9.77,9.77,0,0,1-3.32,2,11.78,11.78,0,0,1-4.41.87,9.65,9.65,0,0,1-4.94-1.22,7.79,7.79,0,0,1-3.16-3.5,11.59,11.59,0,0,1-1.06-5,11,11,0,0,1,1.18-5.17,8.11,8.11,0,0,1,3.46-3.47,9.22,9.22,0,0,1,4.33-.92,8.42,8.42,0,0,1,5.25,1.45,6.59,6.59,0,0,1,2.43,4l-3.62.7a3.92,3.92,0,0,0-1.43-2.17,4.26,4.26,0,0,0-2.63-.79,4.86,4.86,0,0,0-3.8,1.56,6.72,6.72,0,0,0-1.41,4.64,7.43,7.43,0,0,0,1.43,5,4.71,4.71,0,0,0,3.74,1.65,6.13,6.13,0,0,0,2.3-.46,7.75,7.75,0,0,0,2-1.12v-2.37Z"/><path d="M1111.35,153.37v-7.84l-6.61-10.77H1109l4.25,7.36,4.17-7.36h4.2l-6.64,10.8v7.81Z"/><path d="M403.77,144.18a12.19,12.19,0,0,1,.83-4.78,8.69,8.69,0,0,1,1.68-2.55,7.15,7.15,0,0,1,2.34-1.68,9.64,9.64,0,0,1,3.89-.73,8.32,8.32,0,0,1,6.38,2.55,11.67,11.67,0,0,1,0,14.15,8.25,8.25,0,0,1-6.35,2.54,8.37,8.37,0,0,1-6.41-2.53A9.8,9.8,0,0,1,403.77,144.18Zm3.76-.13a7.08,7.08,0,0,0,1.42,4.79,4.77,4.77,0,0,0,7.17,0,7.25,7.25,0,0,0,1.4-4.85,7.14,7.14,0,0,0-1.36-4.78,4.95,4.95,0,0,0-7.25,0A7.21,7.21,0,0,0,407.53,144.05Z"/></g></g></svg>