<svg xmlns="http://www.w3.org/2000/svg" xmlns:xlink="http://www.w3.org/1999/xlink" viewBox="0 0 3018 647"><defs><style>.cls-1{fill:none;clip-rule:evenodd;}.cls-2{clip-path:url(#clip-path);}.cls-3,.cls-4{fill:#01378c;}.cls-4,.cls-5{fill-rule:evenodd;}.cls-5{fill:#1d4a90;}</style><clipPath id="clip-path"><path class="cls-1" d="M2703.86,535.35a13.88,13.88,0,0,1,7.07-7.14c6.18-.9,12.37,3.57,12.37,9.82,0,7.15-9.72,12.51-15.9,7.15C2704.75,543.39,2703,538.93,2703.86,535.35Zm-1096.1-2.68c4.42-6.25,15-5.36,17.67,1.79,1.76,6.25-2.65,13.4-9.72,13.4-2.65,0-3.53-.9-6.18-3.57C1606,540.71,1605.11,537.14,1607.76,532.67Zm-458.4-3.57c9.71,2.68,7.06,18.76-2.65,18.76-2.65,0-4.42-.9-7.07-2.68C1132.58,538,1138.76,525.53,1149.36,529.1ZM880,531.78c5.3-6.25,16.78-2.68,16.78,5.36,0,6.25-4.42,10.72-10.6,10.72-2.65,0-3.53-.9-6.18-2.68A9.8,9.8,0,0,1,880,531.78Zm1913.1,79.5c1.77,0,2.65-1.79,3.54-2.68,0-3.57.88-40.2,0-44.66-.89-2.68-.89-3.58-3.54-4.47-.88,0-1.76-1.79-1.76-1.79,0-.89,2.65-.89,11.48-.89h11.48v2.68c0,3.57,0,3.57,2.65.89s9.72-5.36,14.13-5.36c5.3-.89,10.6,2.68,13.25,7.15,1.77,3.57,1.77,4.47,2.65,25,0,11.61,0,22.33.88,22.33,0,.89,1.77,1.79,2.65,2.68,5.3,1.79,1.77,2.68-12.36,2.68A110.21,110.21,0,0,1,2824,614c0-.9.88-1.79,2.65-2.68l2.65-2.68v-42l-2.65-1.79c-3.54-2.68-5.3-1.79-9.72,2.68l-2.65,2.68V608.6c.88.89,1.77,2.68,3.53,2.68.89.89,2.65,1.78,2.65,2.68a116.47,116.47,0,0,1-15,.89,94.3,94.3,0,0,1-14.13-.89C2791.31,613.06,2792.19,612.17,2793.07,611.28Zm-93.62.89c4.41-1.79,5.3-1.79,5.3-25.9,0-19.65-.89-23.23-1.77-25a4.54,4.54,0,0,0-3.53-1.79c-.88,0-.88-.89-.88-1.79s1.76-.89,11.48-.89h12.36v25c0,27.69,0,29.48,4.42,30.37.88,0,2.65.89,2.65,1.79a123.26,123.26,0,0,1-15.9.89,116.47,116.47,0,0,1-15-.89C2698.57,613.06,2698.57,612.17,2699.45,612.17Zm-197,0c5.29-.89,5.29-.89,5.29-26.8V563h-4.41c-3.53,0-3.53-.89-3.53-3.57s0-2.68,3.53-2.68h3.53l.88-7.15c.89-10.71,4.42-16.07,13.25-19.65,4.42-1.78,15.9-1.78,20.32,0,7.06,3.58,7.06,10.72.88,13.4s-12.36-.89-10.6-6.25c.89-2.68,0-4.47-2.65-4.47-3.53,0-3.53.9-3.53,12.51v11.61H2529c3.54,0,4.42,0,4.42,2.68s-.88,3.57-4.42,3.57h-3.53v22.33c0,25,0,25.91,5.3,26.8,6.18,1.79.88,2.68-14.13,2.68a148.65,148.65,0,0,1-16.78-.89C2499.84,613.06,2500.72,612.17,2502.49,612.17Zm-263.21,0c.88-.89,2.65-1.79,2.65-2.68,1.77-2.68,1.77-43.77.88-47.34-.88-.89-2.65-2.68-3.53-2.68a1.91,1.91,0,0,1-1.77-1.79c0-.89,1.77-.89,11.49-.89h12.36V563l2.65-2.68c7.07-5.36,15-7.14,21.2-4.46,2.65.89,7.06,5.36,7.95,8,0,.89,1.76,0,3.53-2.68,9.72-8.94,23.85-8.94,29.15.89,1.76,3.57,1.76,5.36,2.65,25,0,11.61,0,22.33.88,22.33,0,.89,1.77,1.79,2.65,2.68,5.3,1.79,1.77,2.68-12.36,2.68a116.54,116.54,0,0,1-15-.89c0-.9.88-1.79,2.65-2.68,1.77-1.79,2.65-2.68,3.53-7.15.89-6.25,0-36.62-.88-38.41-2.65-4.46-7.07-3.57-12.37,1.79l-2.65,2.68V589c0,19.65,0,19.65,1.77,21.43l2.65,2.68c.88,0,1.77,0,1.77.9a127.1,127.1,0,0,1-30,0c0-.9.88-1.79,2.65-2.68l2.65-1.79V589c0-17.87,0-21.44-.89-23.23-1.76-3.57-5.3-3.57-8.83-1.78-5.3,3.57-5.3,4.46-5.3,25.9,0,20.54,0,20.54,4.42,22.33s0,2.68-13.25,2.68c-9.72,0-15-.89-15-1.79A3.1,3.1,0,0,1,2239.28,612.17Zm-304.72-53.59c-.88,0-13.25,25-13.25,26.79.88.9,24.73.9,24.73,0S1934.56,559.47,1934.56,558.58Zm-34.45,52.7a16.68,16.68,0,0,0,6.19-5.36c.88-2.68,9.71-20.55,18.54-40.2,8.84-20.54,15.9-36.62,16.79-36.62s7.95,16.08,16.78,35.73c17.66,41.09,20.31,45.55,23.85,46.45,1.76,0,3.53.89,3.53,1.78s-4.42,1.79-20.32,1.79c-19.43,0-25.61-.89-16.78-2.68,7.07-.89,7.07-3.57,2.65-14.29l-3.53-7.15h-28.26l-2.65,4.47c-5.3,11.61-3.54,16.08,4.41,17a3.84,3.84,0,0,1,2.65.89c.88.9-2.65,1.79-13.25,1.79s-13.25-.89-13.25-1.79S1898.35,611.28,1900.11,611.28Zm-260.55.89c.88-.89,2.65-1.79,2.65-2.68,1.76-2.68,1.76-43.77.88-47.34-.88-.89-2.65-2.68-3.53-2.68a1.91,1.91,0,0,1-1.77-1.79c0-.89,1.77-.89,11.48-.89h11.49V563a16.58,16.58,0,0,1,3.53-2.68c8.83-8,20.31-7.14,25.61.9,2.65,3.57,2.65,3.57,3.54,25,0,12.5,0,23.22.88,23.22,0,.89,1.76,1.79,2.65,2.68,5.3,1.79,1.76,2.68-12.37,2.68a94.3,94.3,0,0,1-14.13-.89c0-.9.88-1.79,1.77-2.68,3.53-1.79,4.41-5.36,3.53-25.91,0-18.75-.88-21.43-3.53-22.33s-8,1.79-9.72,6.26c-2.65,2.68-2.65,2.68-1.76,20.54,0,9.83.88,18.76.88,19.65s1.77,1.79,2.65,2.68c5.3,1.79,1.77,2.68-12.37,2.68-9.71,0-14.13-.89-14.13-1.79A3.07,3.07,0,0,1,1639.56,612.17Zm-37.1,0c4.42-.89,5.3-2.68,5.3-25.9,0-12.51-.88-23.23-.88-24.12-.89-1.79-1.77-2.68-3.54-2.68s-2.65-.89-2.65-1.79,1.77-.89,12.37-.89h12.37v52.7c0,.89,1.76,1.79,3.53,2.68,6.18,1.79,2.65,2.68-12.37,2.68a107.43,107.43,0,0,1-15.9-.89A1.91,1.91,0,0,1,1602.46,612.17Zm-68-.89c1.77,0,2.65-1.79,3.53-2.68V537.14c-.88-1.79-1.76-3.57-3.53-3.57-4.41-2.68-2.65-2.68,9.72-2.68h11.48V563c.88,0,1.77-.89,2.65-2.68,2.65-2.68,9.72-5.36,14.13-5.36,7.07-.89,12.37,4.47,14.13,10.72.89,1.79.89,11.61.89,22.33,0,9.83.88,19.66.88,20.55.88.89,2.65,2.68,3.53,2.68,5.3,2.68,1.77,3.57-12.36,3.57s-16.78-.89-12.37-3.57a4,4,0,0,0,2.65-2.68c.89-3.57.89-38.41,0-42-.88-5.36-7.06-4.47-12.36,1.78l-1.77,2.68V608.6c.88.89,1.77,2.68,3.53,2.68.89.89,2.65,1.78,2.65,2.68a116.47,116.47,0,0,1-15,.89,94.14,94.14,0,0,1-14.13-.89C1532.69,613.06,1533.57,612.17,1534.45,611.28Zm-164.28.89c5.3-.89,5.3-.89,5.3-26.8V563h-4.42c-3.53,0-3.53-.89-3.53-3.57s0-2.68,3.53-2.68h3.53l.89-7.15c.88-14.29,8.83-21.43,23-21.43,10.6,0,15.9,2.68,15.9,9.82,0,3.58-3.53,6.26-8.83,6.26-4.42,0-7.07-2.68-6.18-6.26.88-4.46,0-5.36-2.65-5.36-3.54,0-3.54.9-3.54,12.51v11.61h3.54c3.53,0,4.41,0,4.41,2.68s-.88,3.57-4.41,3.57h-3.54v22.33c0,25.91-.88,25.91,4.42,26.8,7.06,1.79,1.77,2.68-13.25,2.68a148.65,148.65,0,0,1-16.78-.89C1367.52,613.06,1368.4,612.17,1370.17,612.17Zm-237.59,0c4.41-.89,5.3-2.68,5.3-26.8,0-21.43-.89-23.22-1.77-24.11-1.77-1.79-2.65-1.79-3.53-1.79-1.77,0-1.77-.89-1.77-1.79s1.77-.89,12.37-.89h12.36v52.7c0,.89,1.77,1.79,3.53,2.68,6.19,1.79,2.65,2.68-12.36,2.68a107.43,107.43,0,0,1-15.9-.89A1.91,1.91,0,0,1,1132.58,612.17Zm-102.46-.89a7,7,0,0,0,3.53-3.57c.89-4.47.89-42-.88-44.67a3.25,3.25,0,0,0-3.53-3.57,1.91,1.91,0,0,1-1.77-1.79c0-.89,1.77-.89,11.48-.89h12.37V563c0,6.26,0,6.26.88,4.47,7.07-11.61,17.67-16.08,22.08-10.72,2.65,1.79,2.65,3.57,2.65,8-.88,6.25-8,8.93-12.36,4.47-3.54-2.68-6.19-2.68-8.84.89-3.53,3.57-4.41,8-4.41,23.22-.88,15.19,0,17,4.41,18.76,6.19,1.79,2.65,2.68-12.36,2.68a141.9,141.9,0,0,1-15.9-.89C1027.47,613.06,1028.35,612.17,1030.12,611.28Zm-157.22.89c4.42-1.79,5.3-1.79,5.3-26.8,0-21.43-.88-23.22-1.76-25-.89-.89-2.65-.89-3.54-.89s-.88-.89-.88-1.79,1.77-.89,11.48-.89h12.37V608.6c.88,1.78,2.65,2.68,3.53,3.57,6.18,1.79,2.65,2.68-12.37,2.68a116.47,116.47,0,0,1-15-.89C872,613.06,872,612.17,872.9,612.17Zm-68.89,0c5.3-1.79,5.3-1.79,5.3-26.8,0-21.43-.88-23.22-1.77-24.11-1.76-1.79-2.65-1.79-3.53-1.79s-.88-.89-.88-1.79,1.76-.89,11.48-.89H827V563l3.54-3.57c5.3-3.57,9.71-5.36,15-4.47,5.3,0,8,2.68,10.6,8,1.77,3.58,2.65,4.47,2.65,21.44,0,22.33,0,25.9,3.53,26.8.89.89,2.65,1.78,2.65,2.68a116.47,116.47,0,0,1-15,.89c-14.13,0-17.67-.89-12.37-3.57.89,0,2.65-1.79,3.54-2.68.88-2.68.88-38.41,0-41.09-1.77-5.36-8-5.36-12.37,0-1.77,2.68-1.77,2.68-1.77,22.33v19.65c.89.89,1.77,1.79,2.65,1.79,4.42,2.68,1.77,3.57-12.36,3.57-9.72,0-14.13-.89-14.13-1.79A.87.87,0,0,1,804,612.17Zm1275.4-10.72v-9.82c0-10.72,0-10.72-7.06-4.47-6.19,5.36-7.95,11.61-4.42,15.19,1.77,2.68,4.42,2.68,8.83.89Zm-28.26-5.36c1.77-3.57,7.07-8,18.55-14.29l9.71-4.47v-6.25c0-5.36-.88-7.14-2.65-8.93-1.76-2.68-2.65-2.68-6.18-2.68-5.3,0-8.83,2.68-7.07,5.36a16.77,16.77,0,0,1,3.54,9.83c-3.54,8-16.78,5.35-16.78-3.58,0-7.14,7.06-13.4,16.78-15.18,9.71-2.68,17.66-1.79,23,2.68s6.18,6.25,6.18,27.69c.89,10.72.89,20.54,1.77,20.54,0,.9.88,0,2.65,0,3.53-2.68,4.42,0,0,3.57-3.53,4.47-6.18,5.36-10.6,5.36-5.3,0-8.83-2.68-9.71-6.25l-1.77-2.68-2.65,1.79c-7.07,6.25-16.78,8-22.08,5.36C2049.38,611.28,2047.62,603.24,2051.15,596.09ZM1173.21,605V563h-3.54c-2.65,0-3.53-.89-3.53-1.78a33.86,33.86,0,0,1,7.07-8c4.41-4.47,9.71-9.83,11.48-12.51a14.81,14.81,0,0,1,4.41-5.36c.89,0,1.77,2.68,1.77,10.72v10.72h13.25V563h-13.25v20.55c0,19.65,0,21.44.88,23.22,2.65,1.79,4.42,1.79,8-1.78,2.65-2.68,3.54-3.58,3.54-1.79.88,1.79-3.54,8-8,9.82-4.42,2.68-10.6,2.68-14.13.9A15.89,15.89,0,0,1,1173.21,605ZM2975,595.2c.88,0,1.77.89,2.65,3.57,4.42,8.94,12.37,14.29,17.66,12.51,6.19-2.68,5.31-8.93-1.76-15.19-2.65-1.78-7.07-5.36-9.72-7.14-7.06-5.36-9.71-9.83-9.71-16.08,0-14.29,11.48-22.33,24.73-17,5.3,1.78,5.3,1.78,7.06,0s2.65-1.79,3.54,3.57c1.76,13.4,0,18.76-3.54,10.72s-12.36-13.4-16.78-9.83c-5.3,3.58-3.53,7.15,5.3,13.4,15.9,11.61,18.55,15.19,18.55,24.12a18.76,18.76,0,0,1-18.55,18.76,38.74,38.74,0,0,1-8.83-1.79c-5.3-1.79-6.18-1.79-7.07,0-.88.89-1.76,1.79-2.65,1.79a18.41,18.41,0,0,1-.88-4.47C2974.14,605.92,2974.14,595.2,2975,595.2Zm-27.38-33.05c-2.65-3.57-7.95-4.47-9.72-.89-2.65,3.57-3.53,8-3.53,13.4V580h7.07a51.31,51.31,0,0,0,8.83-.89C2951.17,577.33,2949.41,563.94,2947.64,562.15Zm-27.38,39.3c-2.65-4.46-2.65-6.25-2.65-15.18s0-10.72,2.65-15.19c3.53-8.93,11.48-15.18,19.43-16.08,6.18-.89,9.72,0,14.13,2.68,7.07,4.47,9.72,10.72,11.48,21.44l.89,4.47h-32.68l.88,3.57c2.65,17.87,16.78,25,26.5,13.4,1.77-2.68,3.53-3.57,3.53-2.68,1.77,1.79-5.3,11.61-10.6,15.18-3.53,1.79-5.3,2.68-10.6,2.68-6.18.9-7.95,0-11.48-1.78C2926.44,611.28,2922.91,608.6,2920.26,601.45Zm-58.29-17c.88-17,10.59-28.58,24.73-29.48,8-.89,12.36.9,16.78,5.36,3.53,3.58,4.41,4.47,4.41,8,0,6.26-2.65,8.93-7.06,8.93-5.3,0-7.95-3.57-9.72-9.82-.88-6.25-2.65-8-5.3-8-8.83,0-10.6,25-2.65,38.41,4.42,7.15,11.49,9.83,17.67,7.15a27.89,27.89,0,0,0,5.3-3.58c.88-1.78,1.76-1.78,2.65-1.78,2.65,1.78-4.42,9.82-11.49,13.39-6.18,3.58-13.24,4.47-19.43,1.79C2867.26,611.28,2861.08,599.67,2862,584.48Zm-94.51-11.61c0-8.93-2.65-13.4-6.18-13.4-3.54-.89-5.3.89-8,5.36-1.77,3.57-2.65,12.5-1.77,13.4,0,.89,3.53,1.78,8.83,1.78h8Zm-30.92,25c-2.64-8-1.76-20.55,1.77-27.69,3.53-8.93,11.48-14.29,21.2-15.19,6.18-.89,9.72.9,15,5.36,4.42,3.58,7.95,9.83,7.95,17.87l.89,5.36h-31.8l.88,4.46c.89,10.72,7.95,18.76,15.9,18.76,3.54,0,4.42-.89,8.83-5.36,5.3-5.36,7.07-4.46,3.54,1.79-2.65,5.36-9.72,10.72-13.25,11.61-4.42,1.79-12.37,1.79-16.78,0C2744.49,612.17,2739.2,605.92,2736.54,597.88Zm-88.32,4.47c-3.53-5.36-3.53-5.36-3.53-16.08,0-9.83,0-10.72,2.65-15.19,5.3-10.72,12.36-15.18,22.08-16.08,7.95-.89,12.36.9,16.78,5.36,3.53,3.58,4.42,4.47,4.42,8,0,6.26-2.65,8.93-7.07,8.93-5.3,0-8-3.57-9.72-9.82-.88-6.25-2.64-8-5.3-8-4.41,0-7.06,6.25-7.06,17,0,24.12,13.25,36.62,26.5,25,2.65-1.78,3.53-1.78,3.53-.89.88,1.79-2.65,6.25-6.18,9.82a19,19,0,0,1-6.19,3.58c-5.3,2.68-13.24,2.68-18.54.89S2650.87,609.49,2648.22,602.35Zm-71.54-17c.88,0,1.77.9,1.77,3.58,4.41,13.4,15,23.22,26.49,23.22,13.25,0,19.43-12.5,10.6-21.44-.88-1.78-7.95-6.25-15-9.82-6.19-3.58-14.14-8-15.9-9.83-10.6-8.93-12.37-22.33-4.42-33.05,7.95-9.82,22.08-12.5,36.21-6.25,6.19,2.68,7.07,2.68,8.84-.89,2.65-5.36,2.65-3.58,3.53,8v14.29c.88,2.68,0,3.57-.88,3.57a1.91,1.91,0,0,1-1.77-1.79c-1.77-5.36-3.53-9.82-7.07-13.39-8.83-10.72-23.84-11.62-29.14-1.79-3.54,7.14,0,12.5,17.66,21.44,21.2,10.72,26.5,17,26.5,29.47,0,10.72-6.18,19.65-16.78,23.23-7.07,2.68-17.67,2.68-25.62,0s-9.71-2.68-11.48,0c-4.42,4.46-4.42,3.57-4.42-13.4C2575.79,588.05,2575.79,585.37,2576.68,585.37Zm-106,20.55c1.77-3.57,1.77-7.15,1.77-20.55,0-15.18,0-17-1.77-20.54-3.53-7.15-9.72-7.15-13.25-.89-1.77,2.68-1.77,4.46-1.77,18.75-.88,8.94,0,17.87,0,19.66.89,7.14,7.07,11.61,11.49,8.93A27.93,27.93,0,0,0,2470.69,605.92Zm-33.56-23.23c.88-10.71,7.06-21.43,15-25.9,2.65-1.79,5.3-1.79,11.48-1.79,7.07,0,8.84,0,12.37,2.68,6.18,2.68,8.83,6.26,11.48,13.4,2.65,3.58,2.65,5.36,2.65,15.19,0,10.72-.88,15.18-7.07,21.44-4.41,5.35-9.71,8-17.66,8-4.42,0-8.83,0-10.6-.89C2443.31,611.28,2436.24,597.88,2437.13,582.69Zm-223.46-9.82c0-8.93-2.65-13.4-6.19-13.4-1.76,0-3.53,0-4.41.89-1.77,1.79-4.42,7.15-5.3,12.51-.89,6.25-.89,7.14,8.83,7.14h8Zm-29.15,30.37c-2.65-6.25-2.65-6.25-2.65-17,0-9.83,0-11.61,2.65-16.08,7.06-16.08,27.38-20.55,38-8.93,3.53,4.46,5.3,9.82,6.18,16.07l.88,6.26h-31.79l.88,4.46c0,5.36,4.42,13.4,7.95,16.08,2.65,1.79,4.42,2.68,8,2.68s4.42-.89,8.83-5.36c5.3-5.36,7.07-4.46,3.53,1.79-2.65,5.36-8.83,10.72-13.24,11.61-4.42,1.79-12.37,1.79-16.79,0C2191.58,613.06,2188.05,609.49,2184.52,603.24Zm-35.33-1.79v-17c0-14.29-.89-16.08-2.65-18.76-3.53-5.36-9.72-6.25-12.37-2.68-3.53,3.58-4.41,9.83-4.41,20.55,0,12.5.88,18.76,5.3,23.22,2.65,3.57,6.18,2.68,10.6-1.78Zm-38-21.44c.88-3.57,1.77-8.93,2.65-10.71,6.18-14.3,23-19.66,32.68-9.83l2.65,1.79V548.75c0-13.4-.89-15.18-5.3-16.08a3.84,3.84,0,0,1-2.65-.89c-.88-.89,2.65-.89,12.36-.89h13.25v75c.89,1.79,1.77,2.68,3.54,2.68,6.18.89,3.53,2.68-8.84,5.36-6.18.89-11.48,2.68-12.36,2.68v-8.93l-3.53,3.57c-1.77,1.78-4.42,3.57-6.19,3.57a17,17,0,0,1-13.25,0C2115.63,610.38,2109.44,595.2,2111.21,580ZM1992,586.27c0-18.76,9.72-30.37,25.62-31.27,6.18-.89,8,0,11.48,1.79,8.83,4.47,11.48,12.51,7.06,17.87-1.76,2.67-8,3.57-10.59.89-1.77-1.79-3.54-7.15-3.54-10.72-.88-2.68-2.65-5.36-5.3-5.36s-6.18,3.57-7.06,8c-1.77,6.25-.89,17,.88,23.22,4.42,14.3,14.13,19.65,23.85,12.51,3.53-2.68,6.18-3.57,6.18-2.68,0,1.79-3.53,6.25-6.18,8.93-5.3,4.47-8.83,6.25-15.9,6.25-6.18.9-8,0-11.48-1.78C1997.27,609.49,1992,599.67,1992,586.27Zm-145.73-12.51c0-9.82-2.65-14.29-8-14.29-3.54,0-5.3.89-7.07,5.36-.88,3.57-2.65,12.5-1.77,14.29a51.35,51.35,0,0,0,8.84.89h8Zm-30.92,25.91c-2.65-6.26-2.65-20.55,0-26.8,1.77-5.36,8-13.4,13.25-16.08,4.42-1.79,12.37-2.68,16.78-1.79,8,2.68,14.13,12.51,15,22.33l.88,6.26h-15.9c-17.66,0-16.78-.9-14.13,8.93,1.77,6.25,7.07,12.51,12.37,13.4,4.41,1.79,8.83-.89,13.24-5.36,1.77-2.68,3.54-3.57,3.54-2.68,1.77,1.79-5.3,11.61-10.6,15.18-3.53,1.79-5.3,2.68-10.6,2.68-4.42,0-8.83,0-9.72-.89C1824.16,613.06,1817.09,605.92,1815.32,599.67ZM1765,604.13c0-10.72.88-11.61,3.53-5.36,3.53,6.26,10.6,13.4,15,13.4,3.53,0,7.06-3.57,7.06-7.14s-1.76-5.36-10.6-11.62c-8.83-7.14-11.48-8.93-14.13-13.4-2.65-6.25-.88-17,3.53-21.43,5.3-4.47,14.14-5.36,20.32-2.68,3.53,1.78,5.3,1.78,7.07,0,.88-2.68,3.53-1.79,3.53,1.78v9.83c.88,5.36.88,7.15-.88,7.15a16.55,16.55,0,0,1-2.65-3.58c-1.77-5.36-7.07-9.82-11.49-11.61-2.65-.89-3.53-.89-5.3.89-5.3,3.58-3.53,7.15,5.3,13.4,10.6,8,14.14,10.72,15.9,14.29s2.65,4.47,1.77,9.83c0,5.36-.89,7.15-2.65,10.72-5.3,7.14-13.25,8.93-23.85,6.25-5.3-1.79-5.3-1.79-7.07,0s-2.65,1.79-3.53,0A75.85,75.85,0,0,1,1765,604.13Zm-23.85-30.37a21.41,21.41,0,0,0-2.65-10.72c-1.77-3.57-1.77-3.57-5.3-3.57-2.65,0-3.53,0-5.3,2.68-1.77,3.57-4.41,15.18-3.53,16.08,0,.89,3.53,1.78,8.83,1.78h8Zm-30,28.59c-3.53-7.15-4.42-19.66-1.77-27.69,2.65-7.15,8-14.3,14.14-17.87,4.41-1.79,12.36-2.68,16.78-1.79,8,2.68,14.13,12.51,15,22.33l.89,6.26h-30.92v2.68c0,4.46,2.65,12.5,7.07,16.08,3.53,3.57,5.3,4.46,10.6,4.46,2.65-.89,7.06-3.57,8.83-6.25a6.58,6.58,0,0,1,2.65-2.68c4.42-.89-4.42,12.5-11.48,16.08-3.54,1.78-15,2.68-19.43.89S1713.75,607.71,1711.1,602.35Zm-269.39-21.44c-2.65-17,5.3-35.73,19.43-44.66,13.25-8.94,28.27-10.72,44.17-4.47,7.94,2.68,10.59,2.68,12.36-.89a3.29,3.29,0,0,1,1.77-2.68c.88,0,1.76,2.68,1.76,14.29,0,12.5-.88,15.18-1.76,15.18s-1.77-2.68-2.65-5.36c-6.19-17.86-28.27-24.11-42.4-11.61-7.07,7.15-9.71,16.08-9.71,31.27-.89,27.69,11.48,42,31.79,37.51,7.07-.89,11.48-3.57,17.67-8.93l5.3-5.36v4.47c0,3.57-.89,4.46-5.3,7.14a29.73,29.73,0,0,1-9.72,6.25c-4.41,2.68-6.18,2.68-15.9,2.68-7.06,0-12.36,0-15.89-.89C1456.73,610.38,1445.24,597.88,1441.71,580.91Zm-101.57,2.68c0-16.08-.88-19.65-4.42-22.33-5.3-4.47-10.6-1.79-11.48,6.25-1.77,5.36-1.77,29.48-.88,34.84,1.76,8.93,8.83,12.5,13.24,6.25C1339.26,605.92,1340.14,601.45,1340.14,583.59Zm-32.68,17c-2.65-4.47-2.65-6.25-2.65-14.29,0-8.94,0-9.83,2.65-15.19,5.3-10.72,11.48-15.18,21.2-16.08,11.48-.89,21.19,3.58,26.49,14.3,2.65,6.25,2.65,6.25,2.65,16.07,0,8.94,0,9.83-2.65,16.08-3.53,6.26-8.83,11.61-14.13,13.4s-15,1.79-19.43,0C1316.29,613.06,1311,606.81,1307.46,600.56Zm-222.58-2.68c-.88-4.47,1.77-4.47,3.53,0,.89,5.36,8.84,12.5,13.25,13.4s7.95-1.79,7.95-5.36c.88-3.57-2.65-7.15-9.71-12.51-14.13-8.93-17.67-16.08-15-25.9,2.65-10.72,14.13-16.08,24.73-11.61,3.54,1.78,3.54,1.78,6.19,0,3.53-2.68,4.41-1.79,4.41,4.46v9.83c.88,5.36-1.77,5.36-4.41,0-4.42-8.93-11.49-13.4-15.9-9.83-5.3,3.58-3.54,8,7.06,15.19,7.07,4.46,14.13,10.72,15,14.29,3.53,8,0,18.76-7.07,23.22-4.42,3.58-12.36,3.58-19.43,1.79-5.3-1.79-5.3-1.79-6.18,0-3.53,2.68-3.53,1.79-4.42-6.25Zm-83-35.73a7.09,7.09,0,0,0-8-2.68c-2.65,1.79-5.3,9.83-5.3,16.08V580h7.95c6.18,0,8-.89,8-1.78C1005.39,575.55,1003.62,563.94,1001.86,562.15Zm-30,31.26C969.18,572,980.66,555,998.32,555c5.3,0,12.37,3.58,15.9,8.94,3.54,4.46,4.42,8,5.3,15.18l.89,4.47H987.72l.89,3.57c2.65,17.87,15.9,25,26.49,13.4,3.54-3.57,5.31-3.57,3.54.89-2.65,5.36-7.95,10.72-12.37,12.51A26.66,26.66,0,0,1,986,614C978,610.38,973.59,603.24,971.83,593.41Zm-64.48-33.94a1.91,1.91,0,0,1-1.77-1.79c0-.89,2.65-.89,15-.89s15,0,15,.89a1.91,1.91,0,0,1-1.76,1.79c-2.65,0-4.42,2.68-3.54,4.47.89,3.57,11.49,28.58,12.37,28.58s10.6-25.9,10.6-28.58c0-3.58-1.77-4.47-4.42-4.47-1.76,0-1.76-.89-1.76-1.79s.88-.89,9.71-.89c8,0,9.72,0,9.72.89a1.91,1.91,0,0,1-1.77,1.79c-2.65,0-5.3,3.57-15.9,29.48-8.83,20.54-12.36,26.79-13.25,26.79-1.76.9-3.53-2.68-9.71-18.75C912.65,567.51,910,561.26,907.35,559.47ZM739.53,615.74c-6.18-2.68-12.36-7.14-15.89-13.39-1.77-3.58-1.77-5.36-1.77-34.84-.88-34.84-.88-33.94-8-34.84-8.83-1.78-2.65-1.78,17.66-1.78h22.09c0,.89-2.65.89-4.42,1.78-2.65,0-5.3.9-6.18,1.79-1.77,1.79-1.77,3.57-1.77,26.8-.88,27.69,0,38.41,2.65,42,5.3,7.14,17.66,8.93,25.61,3.57,8.84-5.36,10.6-15.18,9.72-48.23,0-21.44-.88-24.12-6.18-25a11.65,11.65,0,0,0-4.42-.9.87.87,0,0,1-.88-.89c0-.89,5.3-.89,14.13-.89s15,0,15,.89a3.06,3.06,0,0,1-1.76.89c-3.54,0-7.95,1.79-8.83,4.47-1.77,2.68-1.77,6.25-2.65,31.26,0,32.16,0,34-7.07,40.2s-10.6,7.14-23,7.14Zm1603.09,21.44c-1.77-2.68-1.77-8.93,0-10.72,4.41-5.36,13.25-2.68,13.25,4.47,0,3.57.88,5.36,3.53,3.57,1.77-.89,4.42-6.25,7.07-13.4l1.76-4.46-11.48-25c-11.48-26.8-13.25-30.37-15.9-32.16a1.91,1.91,0,0,1-1.76-1.79c0-.89,2.65-.89,15-.89,13.25,0,15.9,0,15.9.89a1.91,1.91,0,0,1-1.77,1.79c-3.53,0-4.41,1.79-3.53,5.36s11.48,28.58,11.48,28.58c.88,0,9.72-24.11,10.6-27.69,0-2.68,0-3.57-.88-4.46-1.77-1.79-2.65-1.79-3.54-1.79-1.76,0-1.76-.89-1.76-1.79s.88-.89,9.71-.89c7.07,0,9.72,0,9.72.89s-1.77,1.79-2.65,1.79c-2.65.89-4.42,3.57-16.78,36.62-12.37,32.16-15.9,41.09-20.32,43.77-3.53,2.68-10.59,2.68-14.13.89C2344.39,639.86,2342.62,638.08,2342.62,637.18ZM1210.3,626.46c5.3-5.36,13.25-2.68,13.25,5.36,0,3.58,1.77,4.47,4.42,1.79.88-1.79,3.53-5.36,5.3-9.83l2.65-7.14-9.72-21.44c-12.37-27.69-14.13-32.16-16.78-34.84a6.59,6.59,0,0,1-2.65-2.68c0-.89,4.42-.89,15-.89,11.49,0,15,0,15,.89s-1.77,1.79-2.65,1.79c-4.42.89-3.53,2.68,5.3,24.12,4.41,10.72,4.41,10.72,5.3,8a80.71,80.71,0,0,0,5.3-13.4c4.41-11.61,5.3-16.08,2.65-17.87-.89-.89-2.65-.89-3.54-.89s-.88-.89-.88-1.79.88-.89,9.72-.89c7.06,0,9.71,0,9.71.89,0,0-1.76,1.79-2.65,1.79-3.53.89-4.41,2.68-17.66,37.52-11.48,32.15-15.9,40.19-19.43,42.87-2.65,1.79-10.6,2.68-13.25,1.79C1209.42,639,1206.77,630,1210.3,626.46Z"/></clipPath></defs><title>UCAS</title><g id="Layer_2" data-name="Layer 2"><g id="Layer_1-2" data-name="Layer 1"><g class="cls-2"><rect class="cls-3" x="705" y="523" width="2313" height="124"/></g><path class="cls-4" d="M299.91,334.92c-2.28-3.41-3.41-5.69-3.41-11.37-1.14-6.81,0-9.09,2.27-12.5,6.82-12.49,25-13.63,34.11-3.4,9.1,11.36,5.69,26.13-6.82,33-6.82,3.41-12.51,3.41-18.19,1.13C305.59,340.6,301,337.19,299.91,334.92Zm19.33-88.63c-6.82-10.23-20.47-5.68-20.47,5.68a14.4,14.4,0,0,0,1.14,6.82c2.27,5.68,13.64,6.81,18.19,1.13C322.65,256.51,322.65,250.83,319.24,246.29Zm50,25q-6.82,5.1-3.41,13.63c3.41,7.95,13.64,9.09,19.33,2.27C394.29,277,380.64,262.19,369.27,271.29ZM260.11,283.78c-3.41-3.4-11.37-3.4-14.78-1.13-5.69,3.41-6.83,13.63-2.28,18.18,5.69,4.54,11.37,4.54,15.92,1.13C264.66,297.42,265.79,289.47,260.11,283.78Zm128.49,58c-5.68-2.27-10.23-1.13-13.64,2.28-10.24,10.22,4.54,26.13,15.91,17C397.7,355.37,396.56,345.14,388.6,341.73ZM342,348.55a14,14,0,0,1,2.27,3.41c2.28,2.27,2.28,4.54,3.42,4.54,0-1.13,1.13-10.22,2.27-21.58l2.27-20.46h5.69a12,12,0,0,0,6.82,0s-11.37-9.09-35.25-26.13c-1.14,0,1.14-2.27,2.28-5.68,2.27-3.41,2.27-5.68,1.13-4.55a166.32,166.32,0,0,1-19.33,8c-10.23,4.54-19.33,9.09-19.33,9.09-1.14,0-2.27-2.28-3.41-5.68-3.41-5.69-3.41-4.55-5.68,18.18-2.28,23.86-2.28,22.72-8,21.58-2.28,0-4.55-1.13-4.55,0,0,0,6.82,5.69,17.05,13.64,9.1,6.82,17.06,12.5,17.06,13.63a19.64,19.64,0,0,1-3.41,4.55L301,365.59l3.42-1.13c1.13-1.14,10.23-4.55,19.33-9.09A100,100,0,0,1,342,348.55Zm-73.91,6.82c-10.23-9.09-25,2.27-19.33,13.63,3.41,8,13.64,9.09,19.33,3.41C272.62,366.73,272.62,359.91,268.07,355.37Zm68.22,37.49c0-2.27-2.27-4.54-4.54-6.81-3.42-3.41-4.55-4.55-9.1-3.41-6.82,1.13-10.23,4.54-10.23,11.36,0,4.55,0,5.68,3.41,9.09,4.55,3.41,9.09,3.41,13.64,1.14S336.29,398.55,336.29,392.86Zm-66,115.9c-5.68-10.22-12.5-22.72-15.92-28.4s-5.68-10.23-5.68-11.37,4.55-13.63,9.1-28.4c5.68-14.77,10.23-27.27,9.09-27.27,0,0-21.6,3.41-46.62,9.09l-46.62,9.09-25-19.32C135,403.09,122.52,394,122.52,392.86c-2.27-1.13,0-5.68,14.78-29.54,9.1-14.77,18.2-27.27,19.33-28.4,1.14,0,13.65-2.28,27.29-5.69,13.65-2.27,26.16-4.54,27.29-4.54,1.14-1.14-3.41-7.95-29.56-37.5-27.29-31.81-30.7-36.36-30.7-38.63s2.27-17,3.41-32.95c2.27-15.91,4.55-29.54,4.55-29.54,0-1.14,66,2.27,67.09,2.27,28.42,34.09,37.52,44.31,37.52,44.31s6.82-20.45,15.92-45.45c10.23-31.81,15.92-45.45,17.06-46.58,1.13,0,14.78-5.69,30.7-12.5l28.42-12.5L371.54,144c8,15.91,14.79,29.55,15.92,29.55,0,1.13-4.54,13.63-10.23,29.54-5.69,14.77-9.1,27.27-9.1,27.27s20.47-3.41,46.62-9.09c25-4.55,46.62-7.95,47.76-7.95s12.51,9.09,27.29,19.31c21.61,15.91,25,19.32,25,20.46-1.14,2.27-34.12,54.54-34.12,54.54a278,278,0,0,1-27.29,5.68C438.63,316.74,425,319,423.85,319c-1.14,1.13,3.41,6.82,28.43,36.36,26.15,29.54,31.84,36.36,31.84,39.77s-6.83,62.49-8,62.49c0,0-14.79,0-33-1.14-22.74,0-33-1.13-34.11-2.27-1.14,0-9.1-10.22-19.33-21.59L371.54,411l-14.78,45.45-15.92,44.32L334,504.22c-3.41,1.13-17.06,6.81-30.7,12.5l-22.74,10.22Zm58-468.13c1.14-2.28,1.14-2.28,1.14,1.13,1.14,4.55-1.14,5.68-2.27,2.27A4.17,4.17,0,0,1,328.33,40.63Zm-4.54,15.9c0-1.13,1.13-2.27,2.27-4.54l3.41-3.41L328.33,52c0,2.27-1.13,3.41-2.27,4.54ZM168,102c1.13,1.14,1.13,5.68-1.14,5.68a3.94,3.94,0,0,1-1.14-2.27C164.59,103.12,165.73,100.85,168,102Zm-3.42,9.09a1.12,1.12,0,0,1,1.14,1.14l-1.14,1.14a1.11,1.11,0,0,1-1.13-1.14C163.46,111.07,163.46,111.07,164.59,111.07Zm12.51,2.28a4,4,0,0,1-1.14,2.27c-1.13,0-1.13,0-1.13-1.14C176,111.07,178.24,109.94,177.1,113.35Zm-20.47,2.27c-4.54-5.68-4.54-6.82-5.68-13.64V95.17c0-1.14,1.14,0,1.14,2.27,0,1.13,0,2.27,2.27,3.41,1.14,1.13,2.27,2.27,2.27,4.54a8.62,8.62,0,0,0,2.28,4.55c1.14,0,2.27,2.27,2.27,3.41s0,3.4,1.14,3.4c2.27,2.28,5.69,1.14,6.82-2.27a4,4,0,0,1,1.14-2.27c1.14-1.14,2.27,0,1.14,3.41,0,1.13-1.14,4.54-1.14,5.68v2.27a5.64,5.64,0,0,1-3.41-1.13C164.59,121.3,160.05,117.89,156.63,115.62ZM168,86.08c-3.42-1.14-4.55,0-3.42,3.4,0,2.28,1.14,3.41,3.42,2.28,2.27,0,3.41-1.14,3.41-2.28S170.28,87.21,168,86.08Zm11.37,33,4.54-4.55c0-1.13-2.27-3.41-3.41-5.68-2.27-4.54-2.27-4.54,0-9.09,2.28-3.41,1.14-5.68-2.27-4.54s-4.55,3.4-4.55,9.09a4.94,4.94,0,0,1-1.14,3.4c-1.13,1.14-1.13,0-1.13-2.27,1.13-3.41,0-4.54-4.55-9.09-5.69-5.68-6.82-5.68-10.24-5.68-3.41,1.14-4.54,0-4.54,0,0-2.27,2.27-8,4.54-12.5,4.55-5.68,8-5.68,13.65-2.27a43.1,43.1,0,0,1,6.82,5.68c1.14,2.27,5.69,9.09,10.24,17,4.54,6.82,8,12.5,8,13.64,1.13,1.14-6.83,9.09-10.24,10.23-4.55,2.27-9.1,3.4-9.1,1.13A6.08,6.08,0,0,1,179.38,119Zm-116,81.81c1.14-3.41,3.41-2.28,4.55,2.27s0,4.54-2.27,2.27S62.26,202,63.39,200.84Zm500.32,2.27c0-1.14,0-1.14,3.41,0,2.28,0,5.69,2.27,9.1,4.54,4.55,3.41,4.55,4.55,3.41,5.69-1.14,2.27-1.14,2.27-6.82-1.14S564.85,206.52,563.71,203.11ZM527.33,344c5.68-44.32-5.69-92-28.43-130.67-17.06-27.27-44.35-54.54-71.64-71.59a209.4,209.4,0,0,0-236.51,11.36C130.48,197.43,98.64,271.29,106.6,344a210.37,210.37,0,0,0,108,163.62c20.46,12.5,48.89,21.59,70.5,23.86,5.68,1.13,11.37,2.27,12.5,2.27,4.55,1.14,46.62,0,55.72-2.27C447.73,514.44,517.09,439.45,527.33,344Zm-390,100C93,377,88.41,290.6,125.93,220.15c21.61-39.77,53.45-70.44,94.38-90.9a213.27,213.27,0,0,1,191-1.13q66.53,32.38,98.93,98.85a211.71,211.71,0,0,1,0,192c-11.37,22.72-22.74,38.63-40.94,56.81-35.25,35.22-79.59,56.81-129.62,61.36-12.51,2.27-35.25,2.27-46.63,0C229.41,530.35,172.55,496.26,137.3,444Zm47.76,107.94c2.28-1.14,4.55-3.41,4.55-2.27l-2.27,10.22c-1.14,0-2.28-1.13-3.42-2.27C181.65,556.49,181.65,556.49,185.06,551.94Zm207,10.23c4.55-4.55,10.24,3.41,13.65,15.9,1.13,10.23-1.14,15.91-8,11.37C393.15,587.16,387.46,564.44,392,562.17ZM234,573.53l2.27-3.41v10.23a3.5,3.5,0,0,1-2.27-1.14C230.54,578.07,230.54,578.07,234,573.53Zm26.15,13.63a56.72,56.72,0,0,0,2.27-13.63c2.28-6.82,3.41-7.95,6.83-3.41s0,22.73-5.69,26.13c-2.27,1.14-3.41,1.14-4.55,0A36.49,36.49,0,0,1,260.11,587.16ZM312.42,57.67c3.41-4.55,3.41-5.68,1.13-4.55-3.41,1.14-3.41-1.13,0-3.4s3.41-3.41,1.14-4.55c-3.41-2.27-4.55-2.27-6.82,1.14-1.14,2.27-2.28,3.41-5.69,3.41a5,5,0,0,1-3.41-1.14c0-1.14,14.78-17,15.92-17,2.27-1.14,2.27-2.28,0-4.55-3.41-2.27-5.69-1.14-6.82,1.14,0,1.13-3.41,6.81-8,11.36s-8,10.23-8,11.36c0,2.27,0,2.27,5.68,2.27,8-1.13,9.1,0,8,5.69-1.13,3.4-3.41,3.4-3.41,1.13,0-5.68-6.82,0-8,5.68-1.14,6.82,1.14,6.82,5.69,3.41,3.41-3.41,5.68-3.41,6.82,1.14,0,3.41,1.14,4.54,3.41,4.54s2.28-1.13,1.14-7.95C310.14,61.08,311.28,59.94,312.42,57.67ZM476.16,69V63.35l-4.55,4.55c-4.55,3.4-4.55,6.81-2.28,9.09,1.14,2.27,3.42,2.27,5.69,0C476.16,74.71,477.29,72.44,476.16,69Zm14.78,11.36c-1.14-1.13-3.41-2.27-3.41-3.4-1.14-4.55-4.55-2.28-5.69,3.4V83.8h6.82a24.58,24.58,0,0,1,6.83-1.13C495.49,81.53,493.21,80.39,490.94,80.39Zm-154.65-17c0-4.54,1.14-6.82,3.42-6.82,3.41-2.27,3.41-2.27,1.13-6.81-2.27-2.28-2.27-3.41-2.27-10.23,1.14-5.68,0-8,0-8-1.14,0-1.14-1.14-1.14-2.28,0-2.27-3.41-2.27-6.82,1.14-2.28,2.27-3.41,2.27-5.69,2.27-3.41-1.13-3.41,1.14-2.27,3.41a3.45,3.45,0,0,1,0,4.55,14.34,14.34,0,0,0-1.14,6.81,14.47,14.47,0,0,1-1.13,6.82c-3.42,3.41-4.55,11.36-2.28,11.36,0-1.13,2.28-1.13,2.28-2.27a8.65,8.65,0,0,1,5.68-2.27h2.27V75.85c-1.13,6.82,0,13.63,0,12.5a45.46,45.46,0,0,0,3.42-10.23C334,73.58,335.16,66.76,336.29,63.35ZM486.39,96.3V90.62l6.82,1.14c6.83,0,6.83,0,6.83-3.41,1.13-4.55-1.14-5.68-4.55-3.41s-3.41,3.41-17.06,1.14c-10.23,0-13.64-1.14-13.64-2.28s-2.28-1.13-3.42-1.13c-3.41,0-4.54,1.13-6.82,4.54C450,92.89,450,96.3,452.28,96.3c1.13,0,4.55-2.27,8-4.54,5.68-2.28,8-3.41,11.37-2.28,3.41,0,6.82,1.14,8,2.28,2.27,1.13,3.41,2.27,2.27,5.68-1.14,4.54-2.27,6.82-5.68,6.82-2.28,0-2.28,1.13,0,2.27s4.54,0,6.82-2.27A10.35,10.35,0,0,0,486.39,96.3Zm-22.74,28.41L468.2,127c1.13-1.14-3.41-5.68-5.69-5.68-3.41,0,0-10.23,4.55-13.64,3.41-1.13,4.55-5.68,2.27-8-1.13-2.27-9.09-4.54-11.37-3.41-1.13,1.14,0,2.27,2.28,4.55,4.55,3.41,4.55,4.54,0,6.81-2.28,1.14-3.41,2.28-2.28,4.55,0,2.27,0,3.41-1.13,3.41-3.42,0-12.51-6.82-13.65-10.23-1.14-2.27-4.55-2.27-4.55,0s4.55,8,11.37,11.36c4.55,2.28,4.55,5.69,0,5.69-2.27,1.13-4.54,0-8-4.55-4.54-3.41-4.54-4.54-4.54-2.27s1.13,4.54,4.54,7.95c4.55,4.55,6.83,4.55,13.65,1.14C458,122.44,459.1,122.44,463.65,124.71Zm-299.06,5.68a24.48,24.48,0,0,1-1.13-6.82,11.33,11.33,0,0,1,4.55,1.14c2.27,2.27,5.68,2.27,10.23,2.27s6.82,0,13.64-3.41c3.42-3.41,8-5.68,8-7.95,2.28-2.27,2.28-3.41-3.41-9.09-2.27-3.41-8-12.5-12.51-18.18C174.83,74.71,170.28,69,164.59,69c-6.82,0-14.78,11.36-18.19,25-1.14,8-1.14,9.09,6.82,20.45,6.83,9.09,9.1,15.91,8,18.18a106.06,106.06,0,0,1-5.68-10.22c-5.69-11.37-10.24-18.18-11.37-19.32-2.28-1.14-1.14,2.27,2.27,7.95,1.14,2.28,4.55,9.09,8,14.77s5.69,11.37,6.82,12.5c2.28,2.28,5.69,2.28,5.69,0A28.85,28.85,0,0,0,164.59,130.39ZM533,196.29c4.55-1.13,10.23-3.41,13.65-6.82s4.54-3.4,3.41-1.13c0,5.68,5.68,6.82,10.23,1.13,1.14-1.13,3.41-3.4,3.41-4.54a14,14,0,0,1,3.41-2.27c4.55-2.28,4.55-2.28,1.14-8-2.27-4.54-2.27-4.54-5.68-2.27-1.14,0-2.28,1.14-1.14,4.55,0,3.4,0,4.54-3.41,6.81-3.41,3.41-3.41,3.41-3.41,1.14a8.62,8.62,0,0,1-2.28-4.55c-1.14-2.27-1.14-2.27-10.23,0-17.06,3.41-17.06,3.41-20.47,10.23-1.14,3.41-1.14,3.41,0,5.68,2.27,3.41,2.27,3.41,5.69,1.14A12.3,12.3,0,0,1,533,196.29ZM585.32,194c-1.14,1.14-2.28,3.41-3.41,3.41-2.28,0-2.28,2.27,1.13,4.54,4.55,2.28,5.69,1.14,5.69-4.54S586.45,190.61,585.32,194Zm-514,37.5c-3.41-1.14-3.41-2.28-3.41-5.69-1.14-5.68,0-5.68,5.69-3.4C77,223.56,77,224.7,74.76,227a2.14,2.14,0,0,0,0,3.41A3.84,3.84,0,0,0,80.45,227c0-1.14,0-2.27,1.14-1.14,14.78,5.69,23.88,6.82,17,2.28-2.27-1.14-6.82-5.68-11.37-9.09-6.82-5.68-6.82-6.82-8-12.5,0-6.82-2.27-9.09-3.41-4.55-1.14,5.68-3.41,4.55-5.68-5.68-1.14-6.82-2.28-7.95-4.55-7.95s-4.55,4.54-4.55,7.95c0,5.68-1.14,6.82-5.69,4.55-3.41-2.28-4.55-2.28-5.68-1.14A8.59,8.59,0,0,1,45.2,202c-1.14,0-2.27,2.28-2.27,3.41-1.14,2.27,1.13,5.68,3.41,4.55s11.37,3.41,12.5,5.68c2.28,2.27,5.69,17,5.69,18.18H58.84q-8.52-1.71-3.41,3.41c3.41,2.27,14.79,3.41,17.06,1.13S74.76,232.65,71.35,231.52Zm481,3.4a2.44,2.44,0,0,0,2.28-2.27c0-1.13-1.14-2.27-3.42-1.13-2.27,0-3.41,0-4.54-3.41-3.42-3.41-2.28-4.55,3.41-6.82,2.27,0,5.68-1.14,6.82-2.27s2.27-2.28,3.41-1.14c1.14,2.27,5.69,2.27,5.69,0,0-1.14-2.28-2.27-4.55-4.54-5.69-4.55-6.82-6.82-2.28-4.55,2.28,1.14,4.55,2.27,4.55,3.41a2.44,2.44,0,0,0,2.28,2.27,7.35,7.35,0,0,1,5.68,2.27,23.64,23.64,0,0,0,6.82,2.28c3.42,0,8-3.41,8-5.68s-6.82-9.09-14.78-12.5l-3.41-2.28,3.41-1.13c3.41-2.27,3.41-3.41,1.14-4.55q-10.23,0-13.65,3.41c-3.41,3.41-3.41,3.41-1.13,4.55a4.18,4.18,0,0,0,3.41,1.13s1.14,0,1.14,2.28c0,1.13-1.14,2.27-4.55,1.13-3.41,0-4.55,0-5.69,2.27a10.21,10.21,0,0,1-5.68,1.14,12.34,12.34,0,0,0-5.69,1.14l-3.41,1.13,3.41,2.28c2.27,1.13,5.69,3.4,8,3.4l3.41,1.14L547.79,219c-3.41,1.13-6.82,2.27-8,4.54L537.56,227l3.41,2.27a35.58,35.58,0,0,1,4.55,6.82c2.27,5.68,4.55,5.68,4.55,2.27C551.2,237.2,551.2,236.06,552.34,234.92ZM70.22,412.18c6.82-2.27,10.23-2.27,13.64,0s3.41,6.82,0,11.36c-3.41,2.28-3.41,3.41-1.14,2.28,4.55-1.14,9.1-3.41,8-3.41s-1.13-2.28-1.13-5.68c0-8-10.24-13.64-20.47-11.37-6.82,2.28-10.24,4.55-13.65,9.09-3.41,6.82,0,17.05,6.83,15.91,3.41,0,3.41,0,0-1.14C53.16,425.82,56.57,415.59,70.22,412.18Zm510.55,22.73c5.68-3.41,4.55-10.23-2.28-13.64-4.54-3.41-6.82-3.41-14.78,1.14-5.68,2.27-8,3.41-9.09,2.27-5.69-3.41-2.28-7.95,4.54-9.09h4.55l-4.55-1.14c-5.68-3.41-6.82-3.41-5.68-1.13a5.61,5.61,0,0,1-1.14,3.41,7,7,0,0,0-2.27,4.54c0,3.41,2.27,6.82,8,9.09,3.41,1.14,4.55,1.14,11.37-3.41,6.82-3.41,6.82-3.41,10.23-1.13s3.41,3.4,1.14,6.81c-1.14,1.14-3.41,2.28-6.82,2.28h-5.69l4.55,2.27c4.55,2.27,8,2.27,6.82,1.13A4.15,4.15,0,0,1,580.77,434.91Zm-10.24,6.81-3.41-2.27,2.28,3.41c3.41,3.41,3.41,5.68,1.13,9.09l-2.27,2.27L562.58,452c-5.69-3.41-6.83-5.68,0-5.68,3.41,0,3.41,0-3.42-3.41-9.09-4.55-10.23-4.55-6.82-1.14,2.28,1.14,3.41,5.68,2.28,5.68a33.65,33.65,0,0,0-6.83-3.4c-4.55-2.28-4.55-3.41-4.55-4.55,2.28-3.41,4.55-5.68,8-4.54,1.14,0,2.28,0,2.28-1.14-1.14,0-6.82-3.41-8-2.27-1.14,0-8,15.9-8,15.9h1.14C541,446.27,566,459.9,566,462.18c1.13,1.13,2.27,0,5.68-6.82,2.28-4.55,3.41-9.09,3.41-10.23A21.19,21.19,0,0,0,570.53,441.72Zm-11.37,25C558,464.45,558,464.45,558,469c2.27,10.23-8,11.37-20.47,2.28A13.58,13.58,0,0,1,531.87,461c0-3.41,4.55-6.82,9.1-5.68h3.41A60.21,60.21,0,0,1,538.7,452a14.06,14.06,0,0,1-3.41-2.27c0,1.13-1.14,3.41-3.42,5.68-3.41,3.41-3.41,4.54-3.41,7.95,0,14.77,20.47,26.14,29.57,15.91C561.44,474.67,561.44,470.13,559.16,466.72Zm-23.87,38.63c-2.28,0-5.69-2.27-11.38-6.81s-9.09-8-9.09-8,6.82,1.14,14.78,2.27c9.1,1.14,15.92,2.28,15.92,2.28s-4.55-4.55-11.37-10.23c-8-6.82-11.37-10.23-11.37-12.5,0-1.13-1.14-2.27-2.28,0-1.13,0-2.27,2.27-3.41,3.41,0,1.14,0,1.14,2.28,1.14,1.13,0,4.54,1.13,8,4.54A40.44,40.44,0,0,1,533,486a58.19,58.19,0,0,1-11.37-1.14c-10.23-1.14-10.23-1.14-12.51,1.14-3.41,2.27-3.41,4.54,0,4.54s21.61,14.77,21.61,18.18c1.13,3.41,1.13,3.41,3.41,0S536.42,505.35,535.29,505.35ZM119.11,516.72l4.55-2.28h-4.55c-4.55,1.14-5.69,0-8-1.13-2.27-3.41-2.27-4.55,3.41-9.09,4.55-3.41,5.69-3.41,5.69-2.28a8.68,8.68,0,0,1-2.28,5.69c0,1.13,1.14,0,5.69-3.41,6.82-5.68,8-6.82,4.55-5.68-3.41,2.27-6.83,2.27-6.83,1.13s1.14-3.41,4.55-5.68c4.55-3.41,4.55-3.41,6.83-2.27,2.27,2.27,2.27,7.95,0,9.09v2.27c1.13,0,2.27-2.27,3.41-3.41,3.41-3.41,4.54-2.27-6.83-14.77-4.54-4.54-6.82-7.95-6.82-9.09h-1.14c-1.13,0-1.13,0-1.13,1.14,1.13,1.13-3.41,5.68-11.37,10.22l-2.28,2.28,4.55-11.37,4.55-10.22L110,458.77c-3.41-4.55-6.82-11.37-9.09-14.77s-3.41-5.69-3.41-4.55-2.28,2.27-6.83,4.55L85,446.27l-2.28-3.41-1.13-3.41,4.54-2.27a14.06,14.06,0,0,1,8-2.27L97.51,436l-3.42-5.68c-2.27-5.68-4.54-7.95-3.41-4.54,1.14,1.13-2.27,3.4-12.51,7.95-8,3.41-13.64,6.82-15.91,5.68-1.14,0-1.14,0,0,3.41a54.54,54.54,0,0,1,2.27,5.68c1.14,1.14,1.14,1.14,2.27,0,0-2.27,3.42-4.54,6.83-5.68l5.68-2.27L80.45,444a16,16,0,0,1,2.27,3.4,33.2,33.2,0,0,1-6.82,3.41c-4.55,2.28-5.68,3.41-8,2.28C66.8,452,66.8,452,69.08,457.63c2.27,4.55,3.41,4.55,3.41,3.41,1.14-1.14,5.68-4.55,13.64-8,6.83-3.41,12.51-5.69,13.65-5.69s2.27,0,2.27,2.28c2.28,2.27,1.14,3.41-12.5,12.5C79.31,467.86,77,469,75.9,466.72c-1.14,0-1.14,1.14,1.14,4.55,3.41,6.81,4.55,8,4.55,4.54,0-2.27,21.6-15.91,25-15.91,2.28,0,3.41,0,3.41,2.28,0,3.4-2.27,4.54-12.5,11.36-6.83,5.68-11.38,7.95-12.51,7.95s-1.14,0-1.14,1.14c2.27,3.41,4.55,4.54,4.55,2.27,0-1.14,17.06-15.91,18.19-14.77L104.33,477a160.54,160.54,0,0,0-9.1,22.72s5.69-4.54,12.51-9.09c6.82-5.68,13.64-9.09,14.78-9.09a4.16,4.16,0,0,1,3.41,1.14c1.14,2.27,0,3.41-10.23,12.5-8,7.95-10.23,10.22-12.51,9.09-3.41,0-3.41,0,0,3.41,8,8,11.37,12.5,12.51,12.5Zm405.94-4.55c-3.41-4.54-4.55-4.54-3.41-1.14,2.27,3.41,1.14,6.82-2.27,9.1-2.28,2.27-2.28,2.27-6.83-2.28-2.27-2.27-3.41-4.54-3.41-5.68s4.55-1.14,5.69,1.14c1.13,0,0-2.28-3.41-5.68l-5.69-5.69c-1.14,0,0,1.14,0,2.28C508,505.35,508,511,506.86,511s-3.41-2.27-5.69-4.54c-4.55-4.55-4.55-4.55-2.27-6.82,2.27-3.41,5.68-3.41,9.09-1.13,1.14,0,1.14,0-1.13-3.41l-3.41-3.41-6.83,6.82c-8,6.81-9.09,9.09-5.68,7.95,1.14,0,5.68,2.27,12.51,9.09,8,9.09,10.23,11.36,9.09,13.64,0,1.13,2.28,0,6.83-5.69l8-7.95Zm-384.34,1.14c0-2.28,0-4.55,1.14-5.68,2.28-2.28,2.28-3.41,4.55-2.28,3.41,2.28,3.41,5.68,1.14,10.23-1.14,3.41,0,2.27,3.41-2.27,2.27-2.28,3.41-3.41,2.27-3.41s-2.27,0-2.27-1.14c-2.28-6.82-9.1-7.95-14.78-2.27-2.28,2.27-2.28,3.41-2.28,12.5,1.14,9.09,0,12.5-4.55,12.5s-5.68-6.82-2.27-12.5c2.27-3.41,1.14-3.41-2.27,1.14-4.55,3.4-6.83,8-4.55,5.68,1.13,0,2.27,1.13,3.41,3.41,2.27,3.4,3.41,4.54,6.82,4.54s5.69-1.14,8-4.54C141.85,525.81,143,521.26,140.71,513.31ZM508,532.62c-2.27,1.14-4.54-2.27-11.37-10.22-4.54-5.68-9.09-12.5-9.09-13.64s0-1.13-4.55,2.27c-3.41,3.41-4.55,3.41-2.28,4.55,1.14,0,6.83,4.55,11.38,10.23,6.82,8,9.09,11.36,8,13.63,0,1.14,0,1.14,2.27,0A24.69,24.69,0,0,0,508,534.9C510.27,532.62,510.27,532.62,508,532.62ZM539.83,344c1.14-14.78,0-43.18-2.27-59.09C520.5,191.75,448.87,119,355.62,102c-19.33-3.41-58-3.41-76.18,0-45.48,9.09-84.14,28.41-117.12,59.09-95.52,92-91,244.29,10.23,331.78,28.43,25,64.82,42,103.48,48.86,18.19,3.41,18.19,3.41,45.48,3.41,19.33,0,26.16-1.13,36.39-2.27C456.83,522.4,528.46,445.13,539.83,344ZM158.91,545.12l-3.41,1.14c-3.41,2.27-8,1.14-9.1-2.27-1.14-2.28,5.69-10.23,8-10.23,1.14,0,1.14,3.41-1.14,6.82,0,2.27,0,2.27,1.14,0,2.27-2.27,4.55-5.68,6.82-8l3.41-5.68-3.41,3.41c-5.68,3.41-6.82,1.14-2.27-5.68,4.55-4.54,4.55-5.68,6.82-3.41a8.84,8.84,0,0,1,2.28,9.09l1.13-1.13,3.41-4.55-8-5.68a35,35,0,0,0-8-5.68v1.13c1.14,2.28-2.27,5.69-8,13.64-8,10.23-9.09,11.36-11.37,11.36h-1.13c0,1.14,17.05,13.64,17.05,13.64a19.64,19.64,0,0,1,3.41-4.55Zm334.3-5.68c-1.13-1.13-1.13,0-1.13,2.27,0,3.41-3.42,8-6.83,6.82-9.09,0-20.46-19.31-14.78-25,1.14-2.27,6.82-2.27,9.1,0,3.41,2.28,3.41,1.14-1.14-3.4a14.06,14.06,0,0,0-2.27-3.41q0,1.69-3.41,3.41c-11.38,2.27-12.51,17-2.28,27.27,6.82,6.81,14.78,6.81,20.47,2.27C493.21,547.4,494.35,541.71,493.21,539.44Zm-26.15,10.23c-3.41-2.27-4.55-3.41-10.23-3.41-8-1.14-10.24-3.41-9.1-6.82,0-3.41,5.68-3.41,9.1-1.13q5.12,5.1,0-3.41c-2.28-2.28-2.28-3.41-2.28-2.28s-1.14,2.28-3.41,2.28q-6.83,0-6.82,6.81c0,8,4.55,10.23,17.05,12.5,4.55,1.14,6.83,3.41,5.69,8-1.14,2.27-6.82,2.27-11.37-1.14-3.41-3.41-3.41-3.41,0,3.41,2.27,4.54,3.41,4.54,4.55,3.41,0-1.14,2.27-1.14,3.41-1.14C470.47,566.71,472.75,556.49,467.06,549.67ZM191.88,572.39c0-3.41,4.55-27.27,5.69-31.81,1.14-1.14-4.55,2.27-10.23,9.09-6.83,5.68-13.65,11.36-14.79,12.5l-2.27,1.13,3.41,2.28c2.27,1.13,3.41,1.13,2.27-1.14,0-1.14,0-3.41,1.14-4.55,2.28-2.27,3.41-2.27,5.69,0,3.41,2.28,4.55,4.55,3.41,8a2.45,2.45,0,0,1-2.28,2.27c-2.27,0,5.69,4.55,8,4.55Zm20.47,8c-5.68,1.13-8-1.14-8-8,1.14-9.09,8-19.31,13.65-19.31,4.55,0,5.68,2.27,6.82,7.95v3.41l1.14-2.27c2.27-4.55,3.41-9.09,2.27-8-1.14,0-3.41-1.13-5.68-2.27-4.55-4.54-11.38-3.41-17.06,3.41-8,7.95-9.1,20.45-2.28,25,3.42,3.41,11.38,3.41,12.51,1.13C216.9,580.35,216.9,580.35,212.35,580.35Zm217.19,0c-1.14,0-3.42-2.28-4.55-5.68-2.28-5.69-2.28-6.82-1.14-6.82,1.14-1.14,3.41,0,4.55,2.27a16.23,16.23,0,0,0,3.41,2.27,28.41,28.41,0,0,1-3.41-7.95l-3.41-8L423.85,561c0,6.82-2.27,5.68-4.55-1.14-2.27-5.68-2.27-5.68-1.14-6.81,3.42-2.28,5.69-2.28,9.1,1.13l3.41,3.41-2.27-4.54c-1.14-3.41-2.28-4.55-3.41-4.55-2.28,0-18.2,6.82-15.92,6.82,1.14,0,3.41,4.54,5.68,9.09,6.83,17,6.83,19.32,5.69,20.45-1.14,2.27,0,2.27,5.68-1.13Q432.95,582.05,429.54,580.35Zm-20.47-12.5c-3.41-5.68-8-9.09-13.65-9.09s-10.23,4.54-10.23,11.36c-2.27,14.77,11.37,28.41,20.47,21.59C412.48,587.16,413.62,576.94,409.07,567.85Zm-166-3.41v-6.82L234,571.26c-5.69,8-11.37,14.77-12.51,14.77-2.28,1.13-2.28,1.13,2.27,2.27,3.41,1.14,3.41,1.14,2.28,0a8.6,8.6,0,0,1,1.13-4.54c2.28-3.41,3.41-3.41,6.83-2.28,2.27,1.14,3.41,1.14,3.41,5.68,0,2.28-1.14,4.55-2.28,4.55s5.69,2.27,8,2.27c1.14,0,1.14-1.13,1.14-11.36C244.19,575.8,243.05,567.85,243.05,564.44Zm31.84,6.82c-1.14-3.41-4.55-5.68-12.51-6.82-6.82-2.27-8-2.27-5.68,0,1.14,1.14,1.14,2.27-1.14,15.91-2.27,7.95-3.41,13.63-4.55,14.77s0,1.13,3.41,2.27c8,2.27,12.51,1.14,17.06-2.27C276,589.44,278.3,576.94,274.89,571.26Zm23.88,25a8.4,8.4,0,0,1-10.23,4.55c-1.14,0-2.28-2.27-1.14-6.82a24.71,24.71,0,0,1,1.14-6.82c1.13-1.13,4.54,2.28,4.54,4.55,0,4.54,1.14-5.68,1.14-10.23v-2.27c-1.14,3.41-2.27,5.68-4.55,5.68-1.13,0-1.13-12.5,1.14-13.63h3.41c2.28,1.13,3.41,2.27,4.55,5.68l1.14,3.41L301,575.8c0-3.41,0-5.68-1.13-5.68S295.36,569,289.67,569c-6.82-1.13-8-1.13-6.82,0,1.14,2.28-1.14,29.55-3.41,30.68-3.41,1.14-1.14,2.28,4.55,3.41,14.78,1.14,13.64,1.14,14.78-3.41C301,592.85,301,592.85,298.77,596.25Zm11.37-6.81V575.8l4.55,14.77,4.55,14.77,4.55-15.9,4.54-14.77V588.3c1.14,11.36,0,13.64-1.13,14.77-2.28,1.14-1.14,2.27,4.55,2.27s6.82-1.13,4.54-2.27c-1.13-1.13-2.27-3.41-1.13-15.91,0-13.63,0-14.77,2.27-14.77,2.28-1.13,3.41,1.14,8,9.09,5.69,10.23,6.82,18.18,3.41,20.46-1.13,2.27-1.13,2.27,2.28,1.13h5.68c3.41,0,4.55-1.13,2.28-2.27-3.42-2.27-3.42-12.5,0-21.59,1.13-5.68,2.27-10.23,3.41-10.23,1.13-1.13,0-1.13-2.28-1.13s-3.41,0-3.41,1.13a1.12,1.12,0,0,0,1.14,1.14c1.14,0,0,6.82-2.28,12.5L354.49,586l-3.41-6.82c-2.28-4.54-3.41-8-3.41-9.09s-1.14-1.14-9.1,0l-10.24,1.14-2.27,5.68c-1.14,3.41-2.27,9.09-3.41,11.36l-1.14,4.55-3.41-11.37-3.41-10.22h-9.1c1.14,1.13,2.28,4.54,2.28,17,0,11.36-1.14,14.77-2.28,15.91H309c3.42,0,4.55,0,2.28-1.14C310.14,603.07,310.14,600.8,310.14,589.44ZM12.22,350.82c-1.13-17,0-61.35,2.28-77.26a331.15,331.15,0,0,1,28.43-89.77C80.45,106.53,146.4,50.85,228.27,24.72c54.58-17,120.53-18.18,176.25-1.14,51.17,13.64,94.38,39.77,133,78.4,59.13,59.09,91,134.08,91,217,0,79.54-28.43,151.12-81.87,210.21C508,572.39,450,606.48,392,620.12c-26.15,5.68-67.09,9.09-92.1,8A310,310,0,0,1,12.22,350.82ZM411.34,622.39C522.78,588.3,606.92,496.26,629.66,382.64c4.55-25,5.69-34.09,5.69-63.63,0-31.82-2.28-47.72-8-73.86A318.78,318.78,0,0,0,475,45.17C410.21,7.67,329.47-3.69,254.42,11.08,144.13,33.81,54.3,114.48,19.05,220.15,10,250.83,5.4,277,4.26,311.05,2,364.46,12.22,411,36.1,459.9c27.29,53.41,68.23,98.86,120.53,130.67,58,35.23,125.08,50,195.58,43.18C368.13,632.61,394.29,628.07,411.34,622.39ZM44.06,483.76C21.32,444,6.54,403.09.85,357.64c-1.13-15.91-1.13-60.22,0-75,6.83-47.73,21.61-93.18,46.62-131.81,23.88-39.77,63.68-79.54,102.34-103.4C240.78-7.1,351.08-15,447.73,25.85c37.52,15.91,68.22,37.5,98.93,67,26.15,27.27,43.21,51.13,60.26,85.22,17.06,32.95,26.15,67,31.84,104.54,2.27,17,1.14,60.22-1.14,78.4-10.23,71.58-40.93,135.21-91,185.21a319.57,319.57,0,0,1-191,92c-18.19,2.27-55.71,2.27-72.77,0C182.79,625.8,95.23,569,44.06,483.76Z"/><path class="cls-5" d="M1840.52,64.79l3.71-3.28c-8.33,0-36.74,18.92-36.74,21.95V85.6C1830.21,72,1838.48,66.6,1840.52,64.79ZM1735,123.7l-2.62-4.24c5.23-5.1,16.25-10.31,27.87-14.86s29.58-15.88,39.91-25.17,33-24.28,50.32-33.3c29.8-15.5,46.65-18.9,49.58-10l1.3,4c-34.86,16.2-59.93,30.58-78.2,42.4C1752.58,128.13,1741,133.52,1735,123.7Zm996.24,9.1c-7.85-5.09-10.23-22.5-3.8-27.84l5.8-4.82c14.27,8.82,16.24,13.45,15.42,21.92l-1.12,11.69C2738.42,135.31,2733.72,134.43,2731.21,132.8ZM1691.74,160.14c-2.4-1.58-5.52-6.58-6.93-11.11l-2.57-8.25c14.68-12.18,30.89-6.65,33.71,4.6,1.31,5.22,1.23,11.35-.17,13.62C1712.86,163.72,1698.23,164.41,1691.74,160.14Zm-525.23,62.6,0-16.61c9,0,17,4.84,23.64,10.75l12,10.76-4.93,12.85-30.7-1.14Zm218.86,94c-9.79-3.5-15.64-13.72-15.64-27.35V276.48c-5.12,0-9.65,3.36-13.36,7.47-12.91,14.26-45.27,4.2-45.27-14.08v-5.12c6.82,1.52,15-6.48,22.49-16.8l13.7-18.76c-45.68,3.27-53.25,2.31-57.73-2.18l-5.89-5.88c3.44-5.57,8.67-7.19,13.84-7.19,13,0,48.19-14.32,63.17-25.71,6.84-5.21,14.14-9.46,16.23-9.46h3.78l8.18-23.46c-10.74-4-21.34-1.54-36.59,8.13l-18.63,11.82-3.53-3.53c29.19-37.19,41.53-53.64,46.26-60.54s12-16.63,16.28-21.61,9.75-17.64,12.27-28.14,6.83-21,9.59-23.25l5-4.16c17.94,15.7,24.47,35.63,24.47,57.56,0,13.72-2.17,19.2-10.71,27.12l-10.72,9.93c25.74,18.74,24.1,27.34,4.29,41.56-14.71,10.57-17.51,14.85-19.83,30.34-1.49,9.91-1.52,19.19-.08,20.6l2.63,2.57c18-21.2,29.39-38.35,37-51.78s14.45-24.43,15.28-24.43h1.52c-10.82,28.47-35.15,69.64-50.09,88.18-8.64,10.73-9.09,13.72-6.88,45.69l2.36,34.2a40.63,40.63,0,0,0-12.29,1.64A20.48,20.48,0,0,1,1385.37,316.76ZM2153.43,135l29.24-20.33c-24.28-25.35-31.81-24.74-46.45-8.07-13.52,15.4-12.91,13.91-14.07,34.07l-.85,14.65C2123.54,155.31,2137.35,146.17,2153.43,135ZM2003.07,341.15c-3.72-4.48-3.89-10.31-.74-24.52,2.28-10.26,5.16-28.33,6.4-40.15,4.75-45.22,15.68-98.71,20.55-100.58,7.53-2.89,16.64,6.5,16.64,17.15,0,5.18,2.6,15.64,5.78,23.25l5.78,13.84c11.16-6.9,8.38-51.28-.81-79.21l-8.8-26.71c-11.12-.23-30,21.84-56.67,61.37-14,20.69-27.61,38.32-30.29,39.18l-4.89,1.55c0-15.12,5.72-28.09,12.7-38.57,15.94-23.91,65.68-83.25,69.78-83.25,1.69,0,6.09-5.12,9.79-11.38,3.79-6.42,13.37-14,21.93-17.36l15.21-6c6.44,16.78-.24,29.27-14,35.82-7.59,3.62-13.8,9-13.8,12s5.86,18,13,33.51l13,28.11c6.27-7.92,13.6-21.9,20.33-36.17s20.17-34.76,29.84-45.52c11.34-12.61,17.6-23.19,17.6-29.75V57.6c33.93,0,47.34,5.25,62.67,20.12,15.68,15.22,15.68,15.22,37.66,8.83,28.73-8.35,55-5.62,65,6.76,6,7.36,7.09,13.86,5.83,33.54-1.3,20.44-3.39,26.34-12.86,36.22-17.17,17.93-39.23,26.57-74.32,29.1l-31.27,2.26c12.12-5.66,19.22-7.42,23.59-7.57,9.59-.33,56.79-35.16,65.35-48.21a44.59,44.59,0,0,0,7.28-29.26l-.46-4.89c-55.68,0-65.46,3.29-70.07,16.52l-4.09,11.72a188.47,188.47,0,0,0-21.53-7.07l-9-2.26c-4.05,6.55-9.52,8.45-14.77,8.45H2171c0,4.64-10.55,17.07-23.45,30.63s-23.45,28.13-23.45,32.38-2.68,12.92-6,19.27c-6.5,12.55-17.4,15-26.49,5.88l-5.65-5.64c-11.11,24.64-19,33.89-25.52,37.25l-11.37,5.88c-4.67-4.66-18.82-40.9-18.82-46.08v-5.77c-5.17,3.2-7.79,14.3-9.16,26.73s-3.42,29.63-4.55,38.23l-2.06,15.63,7.41-15.63c.5,57.72-.73,64.43-6.71,69.84L2008,347Zm-992-2c-2.65-4.25-5.76-22.09-6.91-39.65-1.72-26.3-.31-38.83,8-71,15.73-60.88,33.88-90.88,53.33-88.13l9.12,1.29v19.55c-23.14-2.43-35.84,24.79-44.58,76-4.76,27.88-6.32,47.3-4.21,52.51l3.34,8.27.5-13.68h7.91c-4.24,26.46-3,33.79,2.36,42.79l7.24,12.26C1031.49,349.28,1016.22,347.3,1011.11,339.11Zm184.69,1.57c-21.71-9.14-26.4-9.69-63.16-7.37-37.2,2.34-40.24,2-48.12-5.91-4.63-4.62-7.86-11.19-7.19-14.6l1.21-6.19c44.73-.65,58.27-2.8,61.11-5.64l4.82-4.82c-4.27-4.26-16.08-6.27-29-7.2-24.28-1.76-34.51-9.57-29.53-22.55l2.13-5.55H1076.4c-7.9-20.78-3.18-34.47,6.62-40.26,6.82-4,6.72-10.31-.28-18.07-3.06-3.39-6.14-11.33-6.83-17.63l-1.27-11.47c42.23-12.11,66.74-.61,63.42,22.37L1136.45,207l22.22,7.75c0,13.42-5.28,22.37-11.73,28.55s-11.72,13.34-11.72,15.93v4.69c28.47,5.35,37.09,13.69,33.78,22.32l-2.27,5.91-21.74.25c22.53,17.8,57.73,31.44,70,30.25l12.13-1.18c-.31-27.26-1.68-59.8-3.24-89.9-6.45-124.41-7-127.31-28.07-141.1-18.15-11.89-65.14,2.29-106.47,32.13l-8.79,6.35c0-5.71,6.16-14.56,13.69-23.36,19.36-22.62,44.4-33.8,76.26-34.06,44.56-.36,57.07,13.78,64.67,73.13,6.89,53.7,14.2,183.91,10.84,193C1240,353.7,1228.4,354.41,1195.8,340.68Zm582.38,15.2c-4.3-1-15.26-4.52-24.35-7.87l-16.53-6.09,4.53-7.33-14.46-11.35c48.59,17.83,57,17.79,69.82,7.68,7.49-5.89,10.3-11.7,10.3-21.27,0-7.24-1.49-14.09-3.31-15.21l-3.31-2.05c-24.82,25.91-41.5,27.12-49.59,14.38-7.35-11.59-11.92-47.51-7.13-56.08,2.08-3.7,9.7-8.65,16.95-11l13.17-4.26,2.51-26.15c-20.12,4.34-31,8.15-37.06,11.27s-13.69,4.68-16.86,3.46l-5.76-2.21c2.35-24.39,4.41-26.18,25.9-34.09,17.11-6.3,31.08-8.48,51.63-8,27.31.58,29.68-.16,76.92-24,48.76-24.6,57.23-31.86,48.89-41.9-6.23-7.51-40.67-17.1-61.38-17.1-17.76,0-76.46,20.85-101.68,36.12-14.49,8.77-101.87,109-117.58,134.88-5.55,9.13-11.38,16.61-13,16.61H1624c5.92-15.56,9.66-23.91,12.13-28.6,6.43-12.18,61.08-74.9,88-101,28.51-27.63,88.06-58.95,133.45-70.2,28.31-7,35-7.44,52.3-3.29,24,5.76,34.43,15.31,34.43,31.54,0,21.77-37.16,47.34-107.74,74.14-15.41,5.84-21.26,10.58-26.38,21.31-3.62,7.59-6.59,14.62-6.59,15.63v1.82h39.09c0,11.3,3.31,18.78,7.35,23.92,6.29,8,6.71,11.3,2.93,23-3.12,9.64-7.08,14-13.46,14.94l-9,1.28c5.82,26.52-1.74,55-11.48,62.91C1811,358.21,1795.43,359.79,1778.18,355.88Zm771,10.61c-5.53-4.35-15.39-19.32-21.92-33.26-10.24-21.88-15.16-27.48-36-40.92l-24.1-15.57c-52.84,57.82-84.49,64.7-115,41.76-9.28-7-16.93-14.67-17-17.06l-.12-4.36c25.95-9.91,37.42-12.78,42.24-12.78,9.37,0,43.75-29.1,43.75-37,0-2.62-4.24-9.7-9.43-15.74-17.77-20.68-14.85-41,5.89-41,19.28,0,30.91-15.05,30.84-39.88,0-11.39-2.46-30.9-5.39-43.37-4.61-19.55-4.56-23.44.34-28.33,3.12-3.12,6.41-5.68,7.32-5.68,5.86,0,26.48,36.86,33.15,59.24l8,26.75c4.34,0,7.72-3.39,10.31-7.54l4.71-7.53-9.42-3.14c33.46-30.73,37.16-31.56,46.51-21.23l6.75,7.47-13.39,7.49,6.09,9.85c5.52-9.86,8.66-12.73,10.53-12.73h3.41c10.9,33,4.36,44.81-22.6,61.64-12.84,8-23.42,16.1-23.52,17.95-.2,3.91,9.42,16.07,52.59,66.47,17.2,20.08,33.22,39.84,35.61,43.92,3.21,5.49,9.28,7.58,23.45,8.07,23,.81,62.61,7.69,75,13.06l9,3.9c-3.3,5.33-12.26,8.08-22,9.55s-26.95,5.78-38.16,9.6c-12.17,4.15-33.87,7.23-53.92,7.66C2564.36,374.28,2557.72,373.19,2549.2,366.49ZM2153.08,238.93l6.19-2.37a26.93,26.93,0,0,0-5.56-15.93l-5.3-7c-9.76,9.76-12.6,16-12.6,20.13v7.54C2144.41,241.3,2149.68,240.23,2153.08,238.93Zm32.18,128.15c-6.62-7.36-6.84-10.42-2.54-35.9,2.58-15.32,3.7-28.85,2.47-30.08l-2.23-2.23c-15,9.84-20.36,18.52-22.41,27.25L2157.06,341l-22.28,2.57c3.83-15.62,6-24.28,7.23-29.31l2.3-9.16c-28.06-11.63-31.53-16.6-34.34-37.15-2.17-15.84-1-19.48,11.89-37.45,7.87-10.94,16.42-20.62,19-21.49l4.72-1.58c.47-14.62.91-23.7,1.28-29.61l.67-10.75a57.25,57.25,0,0,1,34.19,11.46c36,26.06,49.62,61.93,32.41,85.22-7.92,10.71-15.46,44.7-17.14,77.25l-.6,11.73c55.11,2.39,89.71-3.13,98.21-10.19l4.94-4.1c-5.62-14.79-14-28.28-22.19-39.53s-18.94-27-23.84-35.1l-8.9-14.66c14.32,0,48,36.58,74.64,73,13,17.73,8.93,29.56-14,40.64-14.83,7.18-26.86,9.13-65.49,10.6C2195.75,375,2192,374.57,2185.26,367.08ZM2819,389.25c-8-4.34-18.25-13.89-22.79-21.24s-9.83-13.36-11.75-13.36-6.41-5.65-10-12.55L2768,329.54c31.09,22.35,57.23,36,61.91,34.24,6-2.3,13.41-22,13.41-35.54v-9.61c-13.63,3.39-24.65,5.5-33.28,6.87-21.29,3.39-29.26-5.63-32-36.25-2.62-28.81,3.21-36.22,28.45-36.22h17.31c0-17-13.08-31.27-21.49-31.27h-5.87c0-21.13,10.54-26.27,48.86-32.94,64.15-11.17,139.54-48.76,154.74-77.15l4-7.4c-43.11-18.1-120.57-7.13-184.11,17.73-21.82,8.54-30.19,15-59.41,46.05l-34,36.12c-.3-4.31,9.33-16.45,21.19-29.74l21.57-24.18-4.2-4.2A354.49,354.49,0,0,0,2685.11,260c-7.6,17.29-13.82,33.13-13.82,35.21s-2.41,5.77-5.34,8.21l-5.35,4.43c-11-13.27,6.24-56.69,31.48-94.81,25.47-38.45,49.66-61.44,92.8-88.23,16.26-10.09,38.94-28.46,50.4-40.82l20.85-22.47c-12.41,0-33.81,12.26-42.72,21.79-10.93,11.69-38.91,19.57-46.66,13.14-3.06-2.54-5.56-5.93-5.56-7.54V86C2850,54.78,2872,44.52,2886.7,33.41,2915,12.13,2946.08-2.91,2954.9.48l7,2.69c-8.65,8.16-24.58,18.29-41,27.77s-42.57,29-58.13,43.45l-28.3,26.2c2.25,0,12.58-3.68,24.4-8.18,58.84-22.39,130.61-24.81,150.35-5.07,32.57,32.57-63.16,94.22-175.34,112.91l-15.23,2.53c20.33,12.37,25.51,19.63,28.34,30.13,4.29,15.92,9.68,20.12,25.88,20.12h9.45v7.82h11.73v15.63h7.67c6.44,25.65.94,34.66-15.72,39.15l-15.4,4.15c0,22.9-2.66,38.49-5.91,49.43-4.89,16.48-8,20.61-18.17,24.16-6.75,2.35-12.44,4.16-12.66,4S2827,393.58,2819,389.25Zm-1301.68-149c3.33-2.6,4.89-16.24,4.89-42.67V158.75l-29.32,2.43c-1,27.26-2.53,45.48-4.08,58.07-2,16.61-1.48,23.73,2,25.91C1496.29,248.54,1509.92,246,1517.28,240.26Zm28.48,185c-7-13.07-15.08-59.24-17.94-102.47-1.52-22.89-4-43.66-5.55-46.15l-2.8-4.52c-25.72,12.26-29,12.42-38.79,7.76-6.28-3-14.57-12.09-18.71-20.57-7.37-15.11-7.36-15.41,1.22-42.08,4.89-15.16,7.53-30.38,6.09-35s-1.45-14.1-.07-21.43l2.5-13.34h11.55c-8.49-13.63-12-23.38-13.32-30.44l-2.36-12.86c12.74-4.88,40.56,6.5,47.27,14.59,2.4,2.89,5.91,5.26,7.8,5.26h3.43c.08-25.75,1.19-37.28,2.51-42.23l2.41-9c13,1.89,21.08,10.17,28.15,21.66,11.52,18.73,11.87,20.67,11.61,65.47l-.27,46.18c5.56,0,13.27-6.1,20.72-13.54,13.54-13.54,13.54-13.55,10.87-40.57-1.57-16-1.07-29.87,1.24-34l3.89-7c6.12,11.57,11,26,14.76,39.54,8.07,28.95,5.7,36-17.5,52.19a138.59,138.59,0,0,0-25.75,24.64c-10.89,14.27-10.89,14.27-11.5,95.17-.48,65.34-1.83,83.72-7,95.56l-6.4,14.65C1550.71,432.82,1548,429.42,1545.76,425.26ZM875.28,176l13.93-6.64-4.32-11.26c12.26-8.59,15.81-13.62,15.81-16.72v-5.64h7.82V128H862.63c-8.68,44.14-8.09,54.72-2.87,54.72C860.64,182.67,867.62,179.68,875.28,176ZM818.53,458c-2.1-5.51-3.82-11.09-3.82-12.39S810,431.64,804.23,417.5c-10-24.53-10.5-29-10.75-96.72-.15-39-1.66-72.41-3.37-74.12L787,243.55c-19.51,12.19-25.66,10.48-40-4.27-15-15.48-30-50.65-30-70.45V155.69c38.86,38.85,40.26,39.52,55.85,37,8.92-1.43,17.29-4.32,18.59-6.43,2.91-4.7,1.73-38.19-1.46-41.38l-2.3-2.3L754.56,159c-4.82-4.82,6.81-24.64,20.91-39.16,8.68-9,15.76-18.27,15.71-20.69s-2.48-20.25-5.4-39.6C780,21.38,781.28,17.64,799,20.43c18.7,2.94,37.28,8.58,46.34,14.07,11.61,7,24.07,31.05,24.07,46.4V92.78c75.37,5.11,90.24,7.41,106.14,16.17,9.88,5.44,17.43,12.59,18,17.11,1.16,8.46-17.91,33.16-25.6,33.16h-4.77c0,10.09-22.52,29.52-34.1,34.33-18.67,7.74-51.89,29.54-51.89,34.06v5.11c-25.94,9-26.8,14.53-29.34,119.1-1.58,64.87-3.55,88.8-8.28,100.64L833.41,468H822.34Z"/></g></g></svg>