<?xml version="1.0" encoding="utf-8"?>
<!-- Generator: Adobe Illustrator 22.1.0, SVG Export Plug-In . SVG Version: 6.00 Build 0)  -->
<svg version="1.1" xmlns="http://www.w3.org/2000/svg" xmlns:xlink="http://www.w3.org/1999/xlink" x="0px" y="0px"
	 viewBox="0 0 1195 368.6" style="enable-background:new 0 0 1195 368.6;" xml:space="preserve">
<style type="text/css">
	.st0{fill:#1B4980;}
	.st1{fill:#994B00;}
	.st2{fill:#538000;}
	.st3{fill:#5C8C00;}
	.st4{fill:none;stroke:#4D4D4D;stroke-linecap:round;stroke-miterlimit:10;}
	.st5{fill:none;stroke:#4D4D4D;stroke-linecap:round;stroke-miterlimit:10;stroke-dasharray:4.02,6.03;}
	.st6{fill:#4D4D4D;}
	.st7{fill:#BD5D00;}
	.st8{fill:#AD5500;}
	.st9{fill:#803F00;}
	.st10{fill:#75B300;}
	.st11{fill:#649900;}
	.st12{fill:#4B7300;}
	.st13{fill:#276AB8;}
	.st14{fill:#2361A8;}
	.st15{fill:#205799;}
	.st16{fill:#184273;}
	.st17{fill:none;stroke:#808080;stroke-width:2;stroke-miterlimit:10;}
	.st18{fill:none;stroke:#808080;stroke-width:2;stroke-miterlimit:10;stroke-dasharray:12,8;}
	.st19{fill:#666666;}
	.st20{fill:#FFFFFF;}
	.st21{fill:#808080;}
	.st22{fill:none;stroke:#276AB8;stroke-miterlimit:10;}
	.st23{fill:none;stroke:#205799;stroke-miterlimit:10;}
	.st24{fill:#CC6400;}
	.st25{fill:#85CC00;}
	.st26{fill:#2A75CC;}
	.st27{fill:#333333;}
	.st28{font-family:'AdobeHeitiStd-Regular-GBpc-EUC-H';}
	.st29{font-size:12px;}
	.st30{font-family:'Arial-BoldMT';}
	.st31{font-size:8px;}
</style>
<g id="Layer_1">
	<path class="st0" d="M614.1,98l10.1-13.1c-1.3-13.7-1.7-29.9-1.7-48.9l84,0l12-11.7l-12-12.3h-128l12.1,12.3L578.6,36l19.9,0
		c0,19.9,0.4,36.9,1.9,51.5L614.1,98z"/>
	<path class="st1" d="M830.9,234.4l-12.4,12.1l-11.7-11.9c-0.1,14.1,0.1,32.5,6.4,48.3c1.3,3.3,2.8,6.3,4.5,9.1l-110.4,0l12.1,12.3
		L707.6,316h191.9l12-11.7l-12-12.3h-35.2C836.2,291.4,830.9,272.1,830.9,234.4z"/>
	<path class="st2" d="M818.6,239.5l12.3-12.1c0-14.8-0.9-35.3-10.6-51.4l110.1,0l12-11.7l-12-12.3h-223l12.1,12.3L707.6,176H774
		c9.7-0.1,16.9,2.3,21.9,7.3c10.1,10.1,11,30.1,11,44.2L818.6,239.5z"/>
	<path class="st3" d="M700.4,152c-52.6-1.8-69.9-18.4-75.4-59.9l-10,13l-13.8-10.6c2.5,19,7,33.8,15.1,46.1c2.8,4.2,6,8.1,9.6,11.5
		H700.4L700.4,152z"/>
	<line class="st4" x1="155.3" y1="347.2" x2="155.3" y2="345.2"/>
	<line class="st5" x1="155.3" y1="339.2" x2="155.3" y2="40.7"/>
	<line class="st4" x1="155.3" y1="37.7" x2="155.3" y2="35.7"/>
	<rect x="152" y="346.7" class="st6" width="6.5" height="1"/>
	<line class="st4" x1="400.3" y1="347.2" x2="400.3" y2="345.2"/>
	<line class="st5" x1="400.3" y1="339.2" x2="400.3" y2="40.7"/>
	<line class="st4" x1="400.3" y1="37.7" x2="400.3" y2="35.7"/>
	<rect x="397" y="346.7" class="st6" width="6.5" height="1"/>
	<line class="st4" x1="610.3" y1="347.5" x2="610.3" y2="345.5"/>
	<line class="st5" x1="610.3" y1="339.5" x2="610.3" y2="41"/>
	<line class="st4" x1="610.3" y1="38" x2="610.3" y2="36"/>
	<rect x="607" y="347" class="st6" width="6.5" height="1"/>
	<line class="st4" x1="740.3" y1="347.5" x2="740.3" y2="345.5"/>
	<line class="st5" x1="740.3" y1="339.5" x2="740.3" y2="41"/>
	<line class="st4" x1="740.3" y1="38" x2="740.3" y2="36"/>
	<rect x="737" y="347" class="st6" width="6.5" height="1"/>
	<line class="st4" x1="944.3" y1="347.5" x2="944.3" y2="345.5"/>
	<line class="st5" x1="944.3" y1="339.5" x2="944.3" y2="41"/>
	<line class="st4" x1="944.3" y1="38" x2="944.3" y2="36"/>
	<rect x="941" y="347" class="st6" width="6.5" height="1"/>
	<polygon class="st7" points="460.6,316 472.6,304.3 460.5,292 301.5,292 313.6,304.3 301.8,316 	"/>
	<polygon class="st8" points="700.5,316 712.5,304.3 700.4,292 467.5,292 479.6,304.3 467.8,316 	"/>
	<polygon class="st9" points="1072.7,292 906.4,292 918.5,304.3 906.6,316 1072.8,316 1084.7,304 	"/>
	<polygon class="st10" points="419.5,176 431.5,164.3 419.4,152 260.4,152 272.5,164.3 260.6,176 	"/>
	<polygon class="st11" points="564.5,176 576.5,164.3 564.4,152 426.4,152 438.5,164.3 426.6,176 	"/>
	<polygon class="st3" points="700.5,176 712.5,164.3 700.4,152 571.4,152 583.5,164.3 571.6,176 	"/>
	<polygon class="st12" points="1072.7,152 937.4,152 949.5,164.3 937.6,176 1072.8,176 1084.7,164.3 	"/>
	<polygon class="st13" points="341.5,36 353.5,24.3 341.4,12 248.4,12 260.5,24.3 248.6,36 	"/>
	<polygon class="st14" points="439.5,36 451.5,24.3 439.4,12 348.4,12 360.5,24.3 348.6,36 	"/>
	<polygon class="st15" points="571.5,36 583.5,24.3 571.4,12 446.4,12 458.5,24.3 446.6,36 	"/>
	<polygon class="st16" points="1072.7,12 713.4,12 725.5,24.3 713.6,36 1072.8,36 1084.7,24 	"/>
	<path class="st13" d="M96.6,26c4.6,0,8.3,3.8,8.4,8.4V37c0,1.7-1.3,3-3,3H80c-1.7,0-3-1.3-3-3v-2.6c0-4.6,3.8-8.4,8.4-8.4h1.1
		c2.9,1.3,6.2,1.3,9.1,0H96.6z M96.6,21.7c-3.1,3.1-8.2,3.1-11.3-0.1C83.8,20.1,83,18.1,83,16c0-4.4,3.6-8,8-8s8,3.6,8,8
		C99,18.1,98.2,20.2,96.6,21.7L96.6,21.7z"/>
	<path class="st10" d="M96.6,166c4.6,0,8.3,3.8,8.4,8.4v2.6c0,1.7-1.3,3-3,3H80c-1.7,0-3-1.3-3-3v-2.6c0-4.6,3.8-8.4,8.4-8.4h1.1
		c2.9,1.3,6.2,1.3,9.1,0H96.6z M96.6,161.7c-3.1,3.1-8.2,3.1-11.3-0.1c-3.1-3.1-3.1-8.2,0.1-11.3s8.2-3.1,11.3,0.1
		c1.5,1.5,2.3,3.5,2.3,5.7C99,158.1,98.2,160.2,96.6,161.7L96.6,161.7z"/>
	<path class="st7" d="M96.6,306c4.6,0,8.3,3.8,8.4,8.4v2.6c0,1.7-1.3,3-3,3H80c-1.7,0-3-1.3-3-3v-2.6c0-4.6,3.8-8.4,8.4-8.4h1.1
		c2.9,1.3,6.2,1.3,9.1,0H96.6z M96.6,301.7c-3.1,3.1-8.2,3.1-11.3-0.1c-3.1-3.1-3.1-8.2,0.1-11.3s8.2-3.1,11.3,0.1
		c1.5,1.5,2.3,3.5,2.3,5.7C99,298.1,98.2,300.2,96.6,301.7L96.6,301.7z"/>
	<line class="st17" x1="1117" y1="304" x2="1117" y2="298"/>
	<line class="st18" x1="1117" y1="290" x2="1117" y2="34"/>
	<line class="st17" x1="1117" y1="30" x2="1117" y2="24"/>
	<path class="st19" d="M1127.8,46c-1.3,0-2.4-1-2.5-2.4c0,0,0,0,0,0c0.2-0.4-0.1-0.9-0.5-1.1c-0.4-0.2-0.9,0.1-1.1,0.5
		c-0.1,0.2-0.1,0.4,0,0.6c0,1.3-1.1,2.4-2.5,2.4c0,0,0,0,0,0h-0.9c-1.3,0-2.4-1-2.5-2.4c0,0,0,0,0,0c0.2-0.4-0.1-0.9-0.5-1.1
		c-0.4-0.2-0.9,0.1-1.1,0.5c-0.1,0.2-0.1,0.4,0,0.6c0,1.3-1.1,2.4-2.5,2.4c0,0,0,0,0,0h-0.9c-1.3,0-2.4-1-2.5-2.4c0,0,0,0,0,0
		c0.2-0.4-0.1-0.9-0.5-1.1c-0.4-0.2-0.9,0.1-1.1,0.5c-0.1,0.2-0.1,0.4,0,0.6c0,1.3-1.1,2.4-2.5,2.4c0,0,0,0,0,0h-0.9
		c-1.3,0-2.4-1-2.5-2.4c0,0,0,0,0,0c-0.6-0.5-1-1.2-0.9-2v-3.1h-1.1c-3.2,0-5.7-2.6-5.8-5.7c0,0,0,0,0,0V15.3c0-3.2,2.6-5.7,5.7-5.8
		c0,0,0,0,0,0h1.1V6.3c0-0.8,0.3-1.5,0.9-2c0-1.3,1.1-2.4,2.5-2.3h0.9c1.3,0,2.4,1,2.5,2.4c0,0,0,0,0,0c-0.2,0.4,0.1,0.9,0.5,1.1
		c0.4,0.2,0.9-0.1,1.1-0.5c0.1-0.2,0.1-0.4,0-0.6c0-1.3,1.1-2.4,2.5-2.4c0,0,0,0,0,0h0.9c1.3,0,2.4,1,2.5,2.4c0,0,0,0,0,0
		c-0.2,0.4,0.1,0.9,0.5,1.1c0.4,0.2,0.9-0.1,1.1-0.5c0.1-0.2,0.1-0.4,0-0.6c0-1.3,1.1-2.4,2.5-2.4c0,0,0,0,0,0h0.9
		c1.3,0,2.4,1,2.5,2.4c0,0,0,0,0,0c-0.2,0.4,0.1,0.9,0.5,1.1c0.4,0.2,0.9-0.1,1.1-0.5c0.1-0.2,0.1-0.4,0-0.6c0-1.3,1.1-2.4,2.5-2.4
		c0,0,0,0,0,0h0.9c1.3,0,2.4,1,2.5,2.4c0,0,0,0,0,0c0.6,0.5,1,1.2,0.9,2v3.1h1.1c3.2,0,5.7,2.6,5.8,5.7c0,0,0,0,0,0v17.5
		c0,3.2-2.6,5.7-5.7,5.8c0,0,0,0,0,0h-1.1v3.2c0,0.8-0.3,1.5-0.9,2c0,1.3-1.1,2.4-2.5,2.4c0,0,0,0,0,0L1127.8,46z"/>
	<path class="st20" d="M1128.7,4c0.2,0,0.4,0.1,0.5,0.4c0,0,0,0.1,0,0.1v1.4h0.5c0.2,0,0.4,0.1,0.5,0.3c0,0,0,0.1,0,0.1v3.3h-3.8
		V6.3c0-0.2,0.1-0.4,0.3-0.5c0,0,0.1,0,0.1,0h0.5V4.5c0-0.2,0.1-0.4,0.4-0.5c0,0,0.1,0,0.1,0L1128.7,4 M1121.2,4
		c0.2,0,0.4,0.1,0.5,0.4c0,0,0,0.1,0,0.1v1.4h0.5c0.2,0,0.4,0.1,0.5,0.3c0,0,0,0.1,0,0.1v3.3h-3.8V6.3c0-0.2,0.1-0.4,0.3-0.5
		c0,0,0.1,0,0.1,0h0.5V4.5c0-0.2,0.1-0.4,0.4-0.5c0,0,0.1,0,0.1,0H1121.2 M1113.7,4c0.2,0,0.4,0.1,0.5,0.4c0,0,0,0.1,0,0.1v1.4h0.5
		c0.2,0,0.4,0.1,0.5,0.3c0,0,0,0.1,0,0.1v3.3h-3.8V6.3c0-0.2,0.1-0.4,0.3-0.5c0,0,0.1,0,0.1,0h0.5V4.5c0-0.2,0.1-0.4,0.4-0.5
		c0,0,0.1,0,0.1,0H1113.7 M1106.2,4c0.2,0,0.4,0.1,0.5,0.4c0,0,0,0.1,0,0.1v1.4h0.5c0.2,0,0.4,0.1,0.5,0.3c0,0,0,0.1,0,0.1v3.3h-3.8
		V6.3c0-0.2,0.1-0.4,0.3-0.5c0,0,0.1,0,0.1,0h0.5V4.5c0-0.2,0.1-0.4,0.4-0.5c0,0,0.1,0,0.1,0H1106.2 M1133.2,11.5c1,0,2,0.4,2.7,1.1
		c0.7,0.7,1.1,1.7,1.1,2.7v17.5c0,2.1-1.6,3.7-3.7,3.8c0,0,0,0-0.1,0h-32.5c-2.1,0-3.7-1.6-3.8-3.7c0,0,0,0,0-0.1V15.3
		c0-1,0.4-2,1.1-2.7c0.7-0.7,1.7-1.1,2.7-1.1H1133.2 M1130.1,38.4v3.3c0,0.2-0.1,0.4-0.4,0.5c0,0-0.1,0-0.1,0h-0.5v1.4
		c0,0.2-0.1,0.4-0.4,0.5c0,0-0.1,0-0.1,0h-0.9c-0.2,0-0.4-0.1-0.5-0.4c0,0,0-0.1,0-0.1v-1.4h-0.5c-0.2,0-0.4-0.1-0.5-0.4
		c0,0,0-0.1,0-0.1v-3.3L1130.1,38.4 M1122.6,38.4v3.3c0,0.2-0.1,0.4-0.4,0.5c0,0-0.1,0-0.1,0h-0.5v1.4c0,0.2-0.1,0.4-0.4,0.5
		c0,0-0.1,0-0.1,0h-0.9c-0.2,0-0.4-0.1-0.5-0.4c0,0,0-0.1,0-0.1v-1.4h-0.5c-0.2,0-0.4-0.1-0.5-0.4c0,0,0-0.1,0-0.1v-3.3H1122.6
		 M1115.1,38.4v3.3c0,0.2-0.1,0.4-0.4,0.5c0,0-0.1,0-0.1,0h-0.5v1.4c0,0.2-0.1,0.4-0.4,0.5c0,0-0.1,0-0.1,0h-0.9
		c-0.2,0-0.4-0.1-0.5-0.4c0,0,0-0.1,0-0.1v-1.4h-0.5c-0.2,0-0.4-0.1-0.5-0.4c0,0,0-0.1,0-0.1v-3.3H1115.1 M1107.6,38.4v3.3
		c0,0.2-0.1,0.4-0.4,0.5c0,0-0.1,0-0.1,0h-0.5v1.4c0,0.2-0.1,0.4-0.4,0.5c0,0-0.1,0-0.1,0h-0.9c-0.2,0-0.4-0.1-0.5-0.4
		c0,0,0-0.1,0-0.1v-1.4h-0.5c-0.2,0-0.4-0.1-0.5-0.4c0,0,0-0.1,0-0.1v-3.3H1107.6 M1128.7,0h-0.9c-1.7,1.8-4.6,1.9-6.4,0.2
		c-0.1-0.1-0.1-0.1-0.2-0.2h-0.9c-1.7,1.8-4.6,1.9-6.4,0.2c-0.1-0.1-0.1-0.1-0.2-0.2h-0.9c-1.7,1.8-4.6,1.9-6.4,0.2
		c-0.1-0.1-0.1-0.1-0.2-0.2h-0.9c-2.1,0-3.9,1.4-4.3,3.4c-0.7,0.8-1,1.9-1,2.9v1.2c-1.7,0.2-3.4,1-4.6,2.2c-1.5,1.4-2.3,3.4-2.3,5.5
		v17.5c0,2.1,0.8,4,2.3,5.5c1.2,1.3,2.9,2,4.6,2.2v1.2c0,1.1,0.3,2.1,1,2.9c0.5,2,2.3,3.5,4.3,3.4h0.9c1.7-1.8,4.6-1.9,6.4-0.2
		c0.1,0.1,0.1,0.1,0.2,0.2h0.9c1.7-1.8,4.6-1.9,6.4-0.2c0.1,0.1,0.1,0.1,0.2,0.2h0.9c1.7-1.8,4.6-1.9,6.4-0.2
		c0.1,0.1,0.1,0.1,0.2,0.2h0.9c2.1,0,3.9-1.4,4.3-3.4c0.7-0.8,1.1-1.8,1.1-2.9v-1.2c1.7-0.2,3.4-1,4.6-2.2c1.5-1.4,2.3-3.4,2.3-5.5
		V15.3c0-3.9-3-7.3-6.9-7.7V6.3c0-1.1-0.4-2.1-1.1-2.9C1132.6,1.4,1130.8,0,1128.7,0z"/>
	<circle class="st21" cx="1117" cy="164" r="10"/>
	<path class="st20" d="M1117,156c4.4,0,8,3.6,8,8s-3.6,8-8,8s-8-3.6-8-8S1112.6,156,1117,156 M1117,152c-6.6,0-12,5.4-12,12
		s5.4,12,12,12s12-5.4,12-12S1123.6,152,1117,152z"/>
	<circle class="st21" cx="1117" cy="304" r="10"/>
	<path class="st20" d="M1117,296c4.4,0,8,3.6,8,8s-3.6,8-8,8s-8-3.6-8-8S1112.6,296,1117,296 M1117,292c-6.6,0-12,5.4-12,12
		s5.4,12,12,12s12-5.4,12-12S1123.6,292,1117,292z"/>
	<path class="st20" d="M615.3,43c-0.1,0-0.3,0-0.4,0c-0.7-0.1-1.3-0.6-1.6-1.3l-3.3-8.1l-3.3,8.1c-0.2,0.7-0.8,1.2-1.6,1.3
		c-0.1,0-0.3,0-0.4,0c-0.6,0-1.1-0.2-1.5-0.6L601,40l-3.2,0.1c-0.7,0-1.4-0.3-1.8-0.9c-0.4-0.6-0.5-1.3-0.3-2l3.8-9.2l1,0.9
		c0.4,0.4,0.9,0.6,1.4,0.8c0.2,0,0.3,0.1,0.5,0.1c0.6,0.1,1.1,0.4,1.5,0.8l0.2,0.2c0.8,0.8,1.9,1.2,3,1.2c0.7,0,1.4-0.2,2-0.6
		l0.2-0.1l-0.1-0.1c-0.6,0.4-1.3,0.5-2,0.5c-0.1,0-0.3,0-0.5,0c-0.9-0.1-1.7-0.5-2.3-1.1l-0.3-0.4l-0.2-0.1l-0.3-0.2l-0.1-0.1l0,0
		h-0.1l-0.4-0.1l-0.3-0.1c-0.3-0.1-0.5-0.1-0.6-0.2c-1.3-0.3-2.3-1.4-2.6-2.7c-0.1-0.5-0.3-1.1-0.5-1.6c-0.3-0.4-0.7-0.8-1.1-1.2
		c-1-0.9-1.4-2.4-1-3.7c0.2-0.5,0.3-1.1,0.4-1.6c-0.1-0.5-0.2-1-0.4-1.5c-0.4-1.4,0-2.8,1-3.8c0.4-0.4,0.7-0.7,1.1-1.2
		c0.2-0.5,0.4-1.1,0.5-1.6c0.3-1.3,1.4-2.4,2.7-2.7c0.6-0.1,1.1-0.3,1.6-0.5c0.4-0.3,0.8-0.7,1.1-1.1c0.7-0.7,1.6-1.2,2.7-1.2
		c0.4,0,0.7,0.1,1,0.2c0.5,0.2,1,0.3,1.6,0.4c0.5-0.1,1-0.2,1.5-0.4c0.3-0.1,0.7-0.1,1.1-0.2c1,0,2,0.4,2.7,1.2
		c0.4,0.4,0.8,0.8,1.2,1.1c0.5,0.2,1,0.3,1.5,0.4c1.3,0.4,2.4,1.4,2.7,2.7c0.1,0.6,0.3,1.1,0.5,1.6c0.3,0.4,0.7,0.8,1.1,1.1
		c1,1,1.4,2.4,1,3.8c-0.2,0.5-0.3,1.1-0.4,1.6c0,0,0,0.3,0.4,1.6c0.4,1.3,0,2.8-1,3.7c-0.4,0.4-0.7,0.8-1.1,1.2
		c-0.2,0.5-0.4,1-0.5,1.6c-0.3,1.3-1.3,2.4-2.7,2.7c-0.2,0.1-0.4,0.1-0.6,0.2l-0.3,0.1l-0.3,0.1c-0.1,0.1-0.3,0.1-0.4,0.2
		c-0.1,0.1-0.2,0.2-0.2,0.3l-0.4,0.4c-0.6,0.6-1.4,1-2.3,1.1c-0.1,0-0.3,0-0.5,0c-0.7,0-1.4-0.2-2-0.5l0,0l-0.1,0.1l0.2,0.1
		c0.6,0.4,1.2,0.6,1.9,0.6c1.1,0,2.2-0.4,3-1.2c0.2-0.3,0.5-0.6,0.9-0.8l1.3-0.3c0.5-0.2,1-0.4,1.4-0.8l1-0.9l3.8,9.1
		c0.3,0.7,0.2,1.4-0.3,2c-0.4,0.6-1.1,0.9-1.8,0.9L619,40l-2.3,2.3C616.4,42.8,615.8,43,615.3,43z M610,12.7c-1.5,0-3,0.6-4,1.7
		c-1.1,1.1-1.7,2.6-1.6,4.1c0,1.5,0.6,3,1.6,4.1c2.1,2.2,5.6,2.2,7.8,0.1c0,0,0.1-0.1,0.1-0.1c1.1-1.1,1.7-2.5,1.6-4.1
		c0.1-1.5-0.5-3-1.6-4.1C613,13.2,611.5,12.6,610,12.7z"/>
	<path class="st0" d="M612.6,6c0.8,0,1.5,0.3,2,0.9c0.4,0.5,0.9,0.9,1.4,1.3c0.6,0.2,1.2,0.4,1.8,0.5c1,0.3,1.7,1,2,2
		c0.2,0.6,0.3,1.3,0.6,1.9c0.3,0.5,0.7,1,1.2,1.4c0.8,0.7,1.1,1.8,0.8,2.8c-0.2,0.6-0.3,1.2-0.4,1.8c0.1,0.6,0.2,1.3,0.4,1.9
		c0.3,1,0,2.1-0.8,2.7c-0.4,0.4-0.9,0.9-1.2,1.4c-0.2,0.6-0.4,1.2-0.6,1.8c-0.2,1-1,1.8-2,2c-0.2,0.1-0.4,0.1-0.6,0.1l-0.5,0.1
		l-0.3,0.1L616,29c-0.1,0-0.2,0.1-0.3,0.2c-0.1,0.1-0.2,0.2-0.3,0.3l-0.4,0.4c-0.5,0.5-1,0.7-1.7,0.8h-0.3c-0.5,0-1-0.1-1.5-0.4
		c-0.9-0.6-2.1-0.6-3,0c-0.4,0.3-1,0.4-1.5,0.4h-0.3c-0.6-0.1-1.2-0.3-1.7-0.8l-0.3-0.4c-0.1-0.1-0.2-0.2-0.3-0.3l-0.3-0.2l-0.2-0.1
		l-0.3-0.1l-0.3-0.1l-0.4-0.1c-0.2,0-0.4-0.1-0.5-0.1c-1-0.2-1.8-1-2-2c-0.2-0.6-0.4-1.2-0.6-1.8c-0.4-0.5-0.8-1-1.2-1.4
		c-0.8-0.7-1.1-1.8-0.8-2.7c0.2-0.6,0.3-1.2,0.4-1.9c-0.1-0.6-0.2-1.2-0.4-1.8c-0.3-1,0-2.1,0.8-2.8c0.5-0.4,0.9-0.9,1.2-1.4
		c0.2-0.6,0.4-1.2,0.6-1.9c0.3-1,1-1.7,2-2c0.6-0.1,1.2-0.3,1.8-0.5c0.5-0.4,1-0.8,1.4-1.3c0.5-0.6,1.2-0.9,2-0.9
		c0.3,0,0.5,0,0.8,0.1c0.6,0.2,1.2,0.3,1.8,0.4c0.6-0.1,1.2-0.2,1.8-0.4C612.1,6.1,612.3,6.1,612.6,6 M610,25.1c1.8,0,3.5-0.7,4.7-2
		c1.3-1.3,2-3,1.9-4.8c0-1.8-0.7-3.5-1.9-4.8c-2.5-2.6-6.6-2.6-9.2-0.1c0,0-0.1,0.1-0.1,0.1c-1.3,1.3-2,3-1.9,4.8
		c0,1.8,0.7,3.5,1.9,4.8C606.5,24.4,608.2,25.2,610,25.1 M620.2,29.7l3.2,7.9c0.1,0.3,0.1,0.7-0.1,1c-0.2,0.3-0.6,0.5-1,0.5
		l-3.6-0.1l-2.6,2.7c-0.2,0.2-0.5,0.3-0.8,0.3H615c-0.4-0.1-0.7-0.3-0.8-0.7l-3.7-9c0.7,0.4,1.6,0.7,2.5,0.7c1.4,0,2.7-0.5,3.7-1.5
		c0.2-0.2,0.3-0.4,0.5-0.5c0.1,0,0.5-0.1,1.2-0.3C619.1,30.5,619.7,30.1,620.2,29.7 M599.8,29.7c0.5,0.4,1.1,0.8,1.8,1
		c0.2,0.1,0.4,0.1,0.6,0.1c0.3,0.1,0.7,0.2,0.9,0.5l0.2,0.2c1,1,2.3,1.5,3.7,1.5c0.9,0,1.7-0.2,2.5-0.7l-3.7,9
		c-0.1,0.4-0.4,0.6-0.8,0.7h-0.2c-0.3,0-0.6-0.1-0.8-0.3l-2.6-2.6l-3.7,0.1c-0.4,0-0.8-0.2-1-0.5c-0.2-0.3-0.3-0.7-0.1-1L599.8,29.7
		 M612.6,4L612.6,4c-0.4,0-0.9,0.1-1.3,0.2c-0.8,0.2-1.1,0.3-1.3,0.3s-0.5-0.1-1.3-0.3c-0.4-0.1-0.9-0.2-1.3-0.2
		c-1.3,0-2.5,0.5-3.4,1.5l0,0l0,0c-0.5,0.5-0.8,0.8-0.9,0.9s-0.5,0.2-1.3,0.3h-0.1h-0.1c-1.6,0.5-2.9,1.8-3.3,3.4
		c-0.2,0.9-0.4,1.3-0.4,1.4s-0.3,0.4-0.9,1c-1.3,1.2-1.8,3-1.3,4.7c0.2,0.8,0.3,1.2,0.3,1.3s-0.1,0.6-0.3,1.4
		c-0.5,1.7-0.1,3.5,1.2,4.7c0.6,0.6,0.8,0.9,0.9,1s0.2,0.5,0.4,1.4c0,0.2,0.1,0.3,0.2,0.5L598,29l-3.2,7.9v0
		c-0.6,1.6,0.2,3.4,1.9,4.1c0.4,0.1,0.8,0.2,1.1,0.2h0.1l2.8-0.1l2,2c0.6,0.6,1.4,0.9,2.2,0.9c0.2,0,0.4,0,0.6,0c1-0.2,1.9-1,2.2-2
		l2.3-5.8l2.3,5.8c0.4,1,1.2,1.8,2.3,2c0.2,0,0.4,0,0.6,0c0.8,0,1.6-0.3,2.2-0.9l2-2.1l2.8,0.1h0.1c1.7,0,3.2-1.4,3.2-3.1
		c0-0.4-0.1-0.8-0.2-1.1v0L622,29l-0.6-1.4c0.1-0.2,0.1-0.4,0.2-0.5c0.2-0.8,0.4-1.2,0.4-1.3s0.3-0.4,0.9-1c1.3-1.2,1.8-3,1.3-4.7
		c-0.2-0.8-0.3-1.2-0.3-1.4s0.1-0.5,0.3-1.3c0.5-1.7,0-3.5-1.3-4.8c-0.6-0.6-0.8-0.8-0.9-1s-0.2-0.5-0.4-1.4
		c-0.4-1.6-1.7-2.9-3.3-3.4h-0.1h-0.1c-0.7-0.2-1.1-0.3-1.3-0.3s-0.4-0.4-0.9-0.9l0,0l0,0C615.1,4.6,613.9,4,612.6,4z M610,23.1
		c-1.2,0-2.4-0.5-3.2-1.4c-0.9-0.9-1.4-2.1-1.4-3.4c0-1.3,0.4-2.5,1.3-3.4c1.8-1.8,4.6-1.8,6.4-0.1c0,0,0.1,0.1,0.1,0.1
		c0.9,0.9,1.4,2.1,1.3,3.4c0,1.3-0.5,2.5-1.3,3.4C612.4,22.7,611.2,23.2,610,23.1z"/>
	<path class="st20" d="M741,177.2v-12h14v9c0,1.7-1.3,3-3,3H741z M728,177.2c-1.7,0-3-1.3-3-3v-9h14v12H728z M725,165.2
		c-0.5,0-1-0.2-1.4-0.6c-0.4-0.4-0.6-0.9-0.6-1.4v-5c0-1.7,1.3-3,3-3h1.3c-0.1-0.5-0.2-1-0.2-1.5c0-3.6,2.9-6.5,6.5-6.5
		c1.4,0,2.7,0.4,3.9,1.2c1,0.7,1.8,1.5,2.5,2.5c0.7-0.9,1.6-1.8,2.6-2.5c1.1-0.8,2.5-1.2,3.9-1.2c3.6,0,6.5,2.9,6.5,6.5
		c0,0.5-0.1,1-0.2,1.5h1.2c1.7,0,3,1.3,3,3v5c0,0.5-0.2,1-0.6,1.4c-0.4,0.4-0.9,0.6-1.4,0.6H725z M746.5,155.2
		c0.4,0,0.8-0.1,1.1-0.4c0.6-0.6,0.6-1.5,0-2.1c-0.3-0.3-0.7-0.4-1.1-0.4c-0.3,0-0.6,0-0.9,0.1c-0.5,0.3-0.8,0.7-1.2,1.1
		c-0.4,0.4-0.8,1-1.4,1.8H746.5z M733.6,152.2c-0.4,0-0.8,0.1-1.1,0.4c-0.6,0.6-0.6,1.5,0,2.1c0.3,0.3,0.7,0.5,1.1,0.4h3.5
		c-0.6-0.9-1.2-1.7-2-2.4C734.7,152.5,734.2,152.2,733.6,152.2z"/>
	<path class="st2" d="M746.5,148.2c3,0,5.5,2.5,5.5,5.5c0,0.9-0.2,1.7-0.6,2.5h2.6c1.1,0,2,0.9,2,2v5c0,0.3-0.1,0.5-0.3,0.7
		c-0.2,0.2-0.5,0.3-0.7,0.3h-30c-0.3,0-0.5-0.1-0.7-0.3c-0.2-0.2-0.3-0.5-0.3-0.7v-5c0-1.1,0.9-2,2-2h2.8c-1.1-2.1-0.7-4.7,1-6.4
		c1-1.1,2.4-1.6,3.9-1.6c1.2,0,2.3,0.3,3.3,1c1.2,0.9,2.3,2,3.1,3.3c0.9-1.2,1.9-2.3,3.1-3.3C744.2,148.5,745.3,148.2,746.5,148.2
		 M741.1,156.2h5.4c0.7,0,1.3-0.2,1.8-0.7c1-1,1-2.6,0-3.5c-0.5-0.5-1.1-0.7-1.8-0.7c-0.4,0-0.9,0.1-1.3,0.2
		c-0.6,0.3-1.1,0.8-1.5,1.4C742.8,153.9,741.9,155,741.1,156.2 M733.6,156.2h5.4c-0.9-1.5-2-2.9-3.2-4.1c-0.6-0.5-1.4-0.8-2.2-0.9
		c-1.4,0-2.5,1.1-2.5,2.5S732.2,156.2,733.6,156.2 M754,166.2v8c0,0.5-0.2,1-0.6,1.4c-0.4,0.4-0.9,0.6-1.4,0.6h-10v-10H754
		 M738,166.2v10h-10c-0.5,0-1-0.2-1.4-0.6c-0.4-0.4-0.6-0.9-0.6-1.4v-8H738 M746.5,146.2c-1.6,0-3.1,0.5-4.5,1.4
		c-0.7,0.5-1.4,1.1-2,1.8c-0.6-0.7-1.3-1.2-2-1.8c-1.3-0.9-2.9-1.4-4.5-1.4c-4.1,0-7.5,3.4-7.5,7.5c0,0.2,0,0.3,0,0.5H726
		c-2.2,0-4,1.8-4,4v5c0,0.8,0.3,1.6,0.9,2.1c0.3,0.3,0.7,0.6,1.1,0.7v8.2c0,2.2,1.8,4,4,4h24c2.2,0,4-1.8,4-4V166
		c0.4-0.1,0.8-0.4,1.1-0.7c0.6-0.6,0.9-1.3,0.9-2.1v-5c0-2.2-1.8-4-4-4l0,0c0-0.2,0-0.3,0-0.5C754,149.5,750.6,146.2,746.5,146.2
		L746.5,146.2z M746,153.3c0.2,0,0.3-0.1,0.5-0.1c0.1,0,0.3,0,0.4,0.1c0.1,0.1,0.1,0.2,0.1,0.4c0,0.1,0,0.3-0.1,0.4
		c-0.1,0.1-0.2,0.1-0.4,0.1h-1.4l0.1-0.1C745.4,153.8,745.7,153.5,746,153.3L746,153.3z M733.6,154.2c-0.2,0-0.5-0.1-0.5-0.4
		c0,0,0-0.1,0-0.1c0-0.1,0-0.3,0.1-0.4c0.1-0.1,0.2-0.2,0.4-0.1c0.3,0,0.6,0.2,0.9,0.4c0.2,0.2,0.4,0.4,0.6,0.6H733.6z"/>
	<path class="st20" d="M955.4,321c-0.9,0-1.7-0.4-2.4-1l-7.3-7.3c-0.4-0.4-0.7-0.9-1-1.4v0.1l-8.2,8.1c-1.7,2.2-4.8,2.7-7,1
		s-2.7-4.8-1-7c0.3-0.4,0.6-0.7,1-1l10.2-10.3l-1.2-1.2h-4l-6.8-9.1l5.2-5.2l9.1,6.8v4l0.1,0.1v-0.4c-0.1-2.7,0.9-5.3,2.8-7.2
		c1.2-1.2,2.7-2.1,4.4-2.6c0.9-0.3,1.8-0.4,2.7-0.4c0.8,0,1.6,0.1,2.4,0.3c0.6,0.2,1.1,0.7,1.3,1.3c0.2,0.6,0,1.2-0.5,1.6l-4.2,4.3
		l0.5,3l3,0.5l4.3-4.3c0.3-0.3,0.8-0.5,1.2-0.5c0.1,0,0.3,0,0.4,0c0.6,0.1,1.1,0.6,1.3,1.2c0.4,1.7,0.4,3.4-0.1,5.1
		c-0.4,1.7-1.3,3.2-2.6,4.4c-0.9,0.8-1.9,1.5-3.1,2l-0.6,0.3l-1.7-1.7c-1-1-2.4-1.6-3.8-1.6c0.2,0,0.4,0,0.7,0.1
		c1.2,0.2,2.3,0.7,3.1,1.6l7.3,7.3c0.6,0.6,1,1.4,1,2.3c0,0.9-0.4,1.7-1,2.3l-3.3,3.4C957.1,320.7,956.3,321,955.4,321z M933,315.5
		c-0.1,0-0.3,0-0.4,0.1c-0.1,0.1-0.1,0.2-0.1,0.4c0,0.3,0.2,0.5,0.5,0.5c0,0,0,0,0,0c0.1,0,0.3,0,0.3-0.1c0.1-0.1,0.2-0.2,0.2-0.4
		C933.5,315.7,933.3,315.5,933,315.5z M944.3,307.1c0-0.1,0-0.1,0.1-0.2l0,0L944.3,307.1z M947.9,303.4l0.1,0L947.9,303.4
		L947.9,303.4z"/>
	<path class="st9" d="M952,288c0.7,0,1.5,0.1,2.2,0.3c0.3,0.1,0.5,0.3,0.5,0.6c0.1,0.3,0,0.5-0.2,0.7l-4.6,4.7l0.7,4.3l4.3,0.7
		l4.7-4.6c0.1-0.2,0.3-0.2,0.5-0.2h0.2c0.3,0.1,0.5,0.3,0.5,0.5c0.8,3.1-0.1,6.3-2.4,8.5c-0.8,0.8-1.7,1.4-2.8,1.8l-1.2-1.2
		c-1.2-1.3-2.9-2-4.7-1.9c-0.5,0-1.1,0.1-1.6,0.2l-5.1-5.1c-0.1-2.4,0.8-4.8,2.6-6.5c1.1-1.1,2.5-1.9,4-2.3
		C950.4,288.1,951.2,288,952,288 M933,288l8,6v3.9l6.7,6.7c0.6-0.3,1.3-0.5,2-0.5c0.3,0,0.5,0,0.8,0.1c1,0.2,1.9,0.6,2.6,1.3
		l7.3,7.3c0.9,0.9,0.9,2.3,0,3.2c0,0,0,0,0,0l-3.3,3.3c-0.4,0.5-1,0.7-1.6,0.7c-0.6,0-1.2-0.2-1.7-0.7l-7.3-7.3
		c-0.7-0.7-1.2-1.6-1.3-2.6c-0.2-0.9,0-1.9,0.4-2.8l-6.7-6.7H935l-6-8L933,288 M939.7,303.6l3.6,3.6c-0.3,1.3-0.2,2.7,0.3,3.9
		l-7.8,7.7c-0.7,0.8-1.7,1.2-2.8,1.2c-1.1,0-2.1-0.4-2.8-1.2c-0.8-0.7-1.2-1.8-1.2-2.8c0-1.1,0.4-2.1,1.2-2.8L939.7,303.6
		 M933,317.5c0.4,0,0.8-0.2,1.1-0.4c0.3-0.3,0.4-0.7,0.4-1.1c0-0.8-0.7-1.5-1.5-1.5c-0.4,0-0.8,0.2-1.1,0.4
		c-0.3,0.3-0.4,0.7-0.4,1.1c0,0.4,0.1,0.8,0.4,1.1C932.2,317.3,932.6,317.5,933,317.5 M932.8,285.4l-1.2,1.2l-4,4l-1.2,1.2l1,1.4
		l6,8l0.6,0.8h4l0.2,0.2l-9.5,9.5c-2.5,2.1-2.9,5.9-0.8,8.5s5.9,2.9,8.5,0.8c0.3-0.2,0.5-0.5,0.8-0.8l7.3-7.3
		c0.1,0.2,0.3,0.3,0.5,0.5l7.3,7.3c0.8,0.8,1.9,1.3,3.1,1.3c1.1,0,2.2-0.5,3-1.3l3.3-3.3c1.7-1.7,1.7-4.4,0-6c0,0,0,0,0,0l-4.6-4.6
		c1-0.5,1.9-1.1,2.7-1.9l0,0l0,0c2.7-2.7,3.8-6.7,2.9-10.5v-0.1c-0.3-1.2-1.4-2-2.6-2c-0.7,0-1.4,0.3-2,0.8l-4,3.9l-1.8-0.3
		l-0.3-1.8l3.8-3.9c0.7-0.6,1-1.6,0.8-2.6c-0.2-1-0.9-1.8-1.9-2.1h-0.1c-0.8-0.2-1.6-0.3-2.4-0.4c-4.3,0-8.1,2.5-9.9,6.3l-7.8-5.9
		L932.8,285.4L932.8,285.4z"/>
	<polyline class="st22" points="285,36 285,108.9 308.9,108.9 	"/>
	<line class="st22" x1="309" y1="74.8" x2="309" y2="142.8"/>
	<circle class="st20" cx="285" cy="36" r="3.5"/>
	<path class="st13" d="M285,33c1.7,0,3,1.3,3,3s-1.3,3-3,3s-3-1.3-3-3S283.3,33,285,33 M285,32c-2.2,0-4,1.8-4,4s1.8,4,4,4
		s4-1.8,4-4S287.2,32,285,32z"/>
	<polyline class="st23" points="506,36 506,78 517.9,78 	"/>
	<circle class="st20" cx="506" cy="35.9" r="3.5"/>
	<path class="st15" d="M506,32.9c1.7,0,3,1.3,3,3s-1.3,3-3,3s-3-1.3-3-3S504.3,32.9,506,32.9 M506,31.9c-2.2,0-4,1.8-4,4s1.8,4,4,4
		s4-1.8,4-4S508.2,31.9,506,31.9z"/>
	<polyline class="st22" points="321.5,36 321.5,60.5 408,60.5 	"/>
	<line class="st22" x1="408" y1="50.5" x2="408" y2="118.5"/>
	<circle class="st20" cx="321.5" cy="36" r="3.5"/>
	<path class="st13" d="M321.5,33c1.7,0,3,1.3,3,3s-1.3,3-3,3s-3-1.3-3-3S319.8,33,321.5,33 M321.5,32c-2.2,0-4,1.8-4,4s1.8,4,4,4
		s4-1.8,4-4S323.7,32,321.5,32z"/>
	<polygon class="st24" points="294.5,292 128,292 140,304.3 128,316 294.6,316 306.6,304.3 	"/>
	<polygon class="st25" points="253.4,152 128,152 140,164.3 128,176 253.5,176 265.5,164.3 	"/>
	<polygon class="st26" points="241.4,12 128,12 140,24.3 128,36 241.5,36 253.5,24.3 	"/>
</g>
<g id="Text">
	<text transform="matrix(1 0 0 1 635.92 96.7)" class="st27 st28 st29">交付代码</text>
	<text transform="matrix(1 0 0 1 136.26 364.9)" class="st6 st28 st29">7月7日</text>
	<text transform="matrix(1 0 0 1 377.88 364.9)" class="st6 st28 st29">9月15日</text>
	<text transform="matrix(1 0 0 1 587.88 365.2)" class="st6 st28 st29">10月7日</text>
	<text transform="matrix(1 0 0 1 717.88 365.2)" class="st6 st28 st29">11月4日</text>
	<text transform="matrix(1 0 0 1 918.51 365.2)" class="st6 st28 st29">11月30日</text>
	<text transform="matrix(1 0 0 1 150.0044 308.58)" class="st20 st28 st29">学习 IC 后端设计相关知识</text>
	<text transform="matrix(1 0 0 1 318.11 308.58)" class="st20 st28 st29">完成 3 ~ 4 个虚拟训练项目</text>
	<text transform="matrix(1 0 0 1 556.0039 308.58)" class="st20 st28 st29">设计 IC 后端</text>
	<text transform="matrix(1 0 0 1 760 308.58)" class="st20 st28 st29">生成可供生产的版图</text>
	<text transform="matrix(1 0 0 1 988 308.58)" class="st20 st28 st29">交付生产</text>
	<text transform="matrix(1 0 0 1 148.7563 168.58)" class="st20 st28 st29">学习 SoC 相关知识</text>
	<text transform="matrix(1 0 0 1 277 168.58)" class="st20 st28 st29">完成 3 ~ 4 个虚拟训练项目</text>
	<text transform="matrix(1 0 0 1 443 168.58)" class="st20 st28 st29">制定处理器核接口标准</text>
	<text transform="matrix(1 0 0 1 606 168.58)" class="st20 st28 st29">集成处理器核</text>
	<text transform="matrix(1 0 0 1 761.44 168.58)" class="st20 st28 st29">完成 SoC集成和验证，交付定稿</text>
	<text transform="matrix(1 0 0 1 985 168.58)" class="st20 st28 st29">项目结束</text>
	<text transform="matrix(1 0 0 1 153 28.58)" class="st20 st28 st29">发布任务列表</text>
	<text transform="matrix(1 0 0 1 267 28.58)" class="st20 st28 st29">学习架构设计</text>
	<text transform="matrix(1 0 0 1 365 28.58)" class="st20 st28 st29">首次代码提交</text>
	<text transform="matrix(1 0 0 1 463 28.58)" class="st20 st28 st29">进阶学习，优化设计</text>
	<text transform="matrix(1 0 0 1 629 28.58)" class="st20 st28 st29">处理器核定稿</text>
	<text transform="matrix(1 0 0 1 739.7441 28.58)" class="st20 st28 st29">继续学习与架构设计有关的进阶知识，或了解SOC和后端知识</text>
	<text transform="matrix(1 0 0 1 24 22.2)" class="st28 st29">处理器核</text>
	<text transform="matrix(1 0 0 1 0 36.6)" class="st28 st29">前端架构团队</text>
	<text transform="matrix(1 0 0 1 48 162.2)" class="st30 st29">SoC</text>
	<text transform="matrix(1 0 0 1 0 176.8651)" class="st28 st29">集成验证团队</text>
	<text transform="matrix(1 0 0 1 59.04 302.2)" class="st30 st29">IC</text>
	<text transform="matrix(1 0 0 1 0 316.8651)" class="st28 st29">后端设计团队</text>
	<text transform="matrix(1 0 0 1 1147 28.58)" class="st19 st28 st29">回片调试</text>
	<text transform="matrix(1 0 0 1 314 81.39)" class="st13 st28 st31">Verilator 介绍</text>
	<text transform="matrix(1 0 0 1 314 93.39)" class="st13 st28 st31">单周期处理器设计</text>
	<text transform="matrix(1 0 0 1 314 105.39)" class="st13 st28 st31">Git 使用介绍</text>
	<text transform="matrix(1 0 0 1 314 117.39)" class="st13 st28 st31">Chisel 介绍</text>
	<text transform="matrix(1 0 0 1 314 129.39)" class="st13 st28 st31">Abstract Machine 介绍</text>
	<text transform="matrix(1 0 0 1 314 141.39)" class="st13 st28 st31">Difftest 介绍</text>
	<text transform="matrix(1 0 0 1 520.25 80.39)" class="st15 st28 st31">外部专家报告（2次）</text>
	<text transform="matrix(1 0 0 1 413 57.14)" class="st13 st28 st31">Chisel 使用经验</text>
	<text transform="matrix(1 0 0 1 413 69.14)" class="st13 st28 st31">AXI 总线</text>
	<text transform="matrix(1 0 0 1 413 81.14)" class="st13 st28 st31">中断异常</text>
	<text transform="matrix(1 0 0 1 413 93.14)" class="st13 st28 st31">Chisel 在果壳中的使用</text>
	<text transform="matrix(1 0 0 1 413 105.14)" class="st13 st28 st31">流水线设计</text>
	<text transform="matrix(1 0 0 1 413 117.14)" class="st13 st28 st31">SoC 集成</text>
	<text transform="matrix(1 0 0 1 839.5867 239.4637)" class="st27 st28 st29">交付定稿</text>
</g>
</svg>
