<svg xmlns="http://www.w3.org/2000/svg" viewBox="0 0 1771.98 206.71"><defs><style>.cls-1{fill:#2462a8;}.cls-2{fill:#819949;}.cls-3{isolation:isolate;}.cls-4{fill:#5e5e5e;}.cls-5,.cls-8{fill:none;}.cls-5{stroke:#5e5e5e;stroke-width:5px;}.cls-6{fill:#b51700;}.cls-7{fill:#fff;}</style></defs><title>Proc_Outline</title><g id="Layer_2" data-name="Layer 2"><g id="Layer_1-2" data-name="Layer 1"><g id="Layer_2-2" data-name="Layer 2"><g id="Layer_1-2-2" data-name="Layer 1-2"><path class="cls-1" d="M1662.5,43.94a39.93,39.93,0,0,0-5.78,79.46c-.23-7.93-.36-15.57.46-19.15a1.57,1.57,0,0,1,1.47-1.16V77.84h-1.22s-.76-6.28-5.46-6.28-8.38,5.15-12.66,8.69a.55.55,0,0,1-.78,0,.54.54,0,0,1-.06-.64c7.61-14.43,17.7-18,27.18-18.34,1.36,0,2.68,0,4,0,5.45,6.93,10.41,1.56,10.41,1.56h6.53V73.22h-6.44s-.66-2-6-2-7.06,6.59-7.06,6.59h-1.22v25.25a1.58,1.58,0,0,1,1.5,1.16c.82,3.59.7,11.24.47,19.19a39.93,39.93,0,0,0-5.31-79.5Z"/><path class="cls-2" d="M88.38,43.94A40.06,40.06,0,1,0,124.7,67.38L84.45,107.62a.35.35,0,0,1-.5,0h0l-2.18-2.18-5.07-5.06L62,85.62a.33.33,0,0,1,0-.47l0,0,7-7a.35.35,0,0,1,.49,0h0L84,92.62a.33.33,0,0,0,.47,0l0,0,34.38-34.4c-.72-.86-1.32-1.79-2.13-2.6A39.85,39.85,0,0,0,88.38,43.94Z"/><g class="cls-3"><path d="M27.06,148v2.7c-1.8-.18-3.78-.24-12.24-.27a16,16,0,0,1-.93,2.58c3.78,0,7.41-.09,9-.27a20.43,20.43,0,0,0-.24,3.24v9.84c0,1.62.09,3.33.24,4.92H20v-2.19H6.9v2.25H4.2a48,48,0,0,0,.27-5V156a16.88,16.88,0,0,0-.24-3.3c1.53.12,4.23.24,7.35.27a9.45,9.45,0,0,0,.63-2.58c-6.72,0-9.45.09-12.21.27V148c3.21.21,7.32.27,14.85.27a14.23,14.23,0,0,0,2.4-4.8,10.85,10.85,0,0,0,2.73,1c.36.06.42.33,0,.63a14.05,14.05,0,0,0-2.67,3.18C23.49,148.21,25.47,148.12,27.06,148Zm-7,7H6.9v2.46H20Zm0,4.44H6.9v2.52H20Zm0,4.5H6.9v2.67H20ZM9,148.15a11.71,11.71,0,0,0-2-3.69l2.52-.84a22.23,22.23,0,0,0,2,3.6Z"/><path d="M36.42,153a18.54,18.54,0,0,0,2.67.21c.45,0,.48.21.06.51a1.28,1.28,0,0,0-.39,1.08v2.43a12.08,12.08,0,0,0,3.51-.39,7.65,7.65,0,0,0-.09,2.46c-.9-.06-2.1-.09-3.42-.09v3.63c1.53-.3,3.57-.78,4.08-1a6.05,6.05,0,0,0-.12,2.49,37.78,37.78,0,0,0-4,.57,57.8,57.8,0,0,0,.33,6.18H36.21c.18-1.92.27-3.66.3-5.73a30.86,30.86,0,0,0-5.46,1.41,18.64,18.64,0,0,0-.75-3,30.31,30.31,0,0,0,6.21-.54v-4a22.79,22.79,0,0,0-5,.48,7.84,7.84,0,0,0-1-2.31c.81-.51,1.17-1.05,3.3-7.05a33.28,33.28,0,0,0-3.45.24v-2.61c1.14.12,2.43.21,4.17.24.39-1.32.84-3.24,1-4.29a8.65,8.65,0,0,0,3.06.87c.45,0,.51.18.06.42s-.84,1-1.65,3a47,47,0,0,0,5.82-.27v2.61a58.21,58.21,0,0,0-6.6-.3l-2.7,7h2.91C36.51,154.24,36.48,153.46,36.42,153Zm5.73,2.85a5.1,5.1,0,0,0-1.89-1.26,21.84,21.84,0,0,0,4.92-6.36,24.83,24.83,0,0,0,1.92-4.59,16.36,16.36,0,0,0,3.09.9c.51.06.45.36.09.57a4.1,4.1,0,0,0-.9.66c1.89,3.48,4.08,5.85,8,7.14a8.83,8.83,0,0,0-2,2.88,17.32,17.32,0,0,1-7.11-8.34A39.23,39.23,0,0,1,42.15,155.83Zm10.68.87a9.28,9.28,0,0,0,1.83,2.19c.36.24.3.36-.24.45s-2.76,1-7.29,3.45v3.33c0,1.59.06,1.74,2.49,1.74,2.88,0,3.21-.21,3.51-3.87A3.94,3.94,0,0,0,56,165.73c-1.32,4.38-1.74,4.53-6.18,4.53-4.77,0-5-.15-5-3.6v-9.3a20.77,20.77,0,0,0-.21-3.3,16.29,16.29,0,0,0,2.94.18c.48,0,.57.24.12.66a1.08,1.08,0,0,0-.51,1v4.53A20,20,0,0,0,52.83,156.7Z"/><path d="M65,152a34.91,34.91,0,0,0-5,.27v-2.58a35.75,35.75,0,0,0,5,.24c0-4.59-.06-5.31-.27-6.18a14.24,14.24,0,0,0,2.88.18c.84,0,.9.21.33.66a1.17,1.17,0,0,0-.51,1.11v4.2a28.47,28.47,0,0,0,3.3-.21v2.58a29,29,0,0,0-3.3-.24v4.71a35.53,35.53,0,0,0,3.42-1.47,6.94,6.94,0,0,0,.3,2.58c-1.47.45-2.67.87-3.72,1.26v8c0,2.64-.33,3-5.16,3.75a5.38,5.38,0,0,0-1.44-3c4,.06,4.17-.15,4.17-1.71V160a47.21,47.21,0,0,0-4.35,2,18.36,18.36,0,0,0-.75-3.21c1.86-.39,3.54-.81,5.1-1.26Zm9.84,19H72.21c.15-2.64.18-4.41.18-6.87v-15.9c0-1.11,0-2.37-.09-2.91,1.14.06,3.36.09,6.06.09,3,0,4.92,0,6.06-.09a40,40,0,0,1-.51,5.16c-.33,1.77-1.32,2.52-5.13,3.24A5.68,5.68,0,0,0,77.31,151c2.82,0,3.72-.15,4.11-1.17a7,7,0,0,0,.24-2.4H74.88v7.59H81a32.77,32.77,0,0,0,3.78-.21c-.81,5.64-1.77,7.92-3,10a10,10,0,0,0,5.16,2.7,4.79,4.79,0,0,0-1.71,2.61,14.72,14.72,0,0,1-4.86-3.63,13.25,13.25,0,0,1-4.11,3.75,4.14,4.14,0,0,0-1.38-1.44ZM79,165c-1.26-1.38-2.46-4.65-3-7.95H74.88v11.31A16.94,16.94,0,0,0,79,165Zm1.32-1.74A12.55,12.55,0,0,0,81.87,157H78.09A14.89,14.89,0,0,0,80.28,163.24Z"/><path d="M109.35,147.52c2.73,0,3.63,0,5.31-.15-2,3.75-5.61,7.65-11.43,11.31h7.23a19.75,19.75,0,0,0,4.2-.24,7.67,7.67,0,0,0-.21,2.37v6a29.6,29.6,0,0,0,.21,3.66h-2.85v-2.16H100.23V171H97.29a18,18,0,0,0,.36-3.75v-5.43c-1.47.69-3.09,1.38-4.89,2.07a6.14,6.14,0,0,0-2.13-2.34,35,35,0,0,0,12-5.07,24,24,0,0,0-4.95-3.36c-.75.87-1.53,1.65-2.43,2.55a8.32,8.32,0,0,0-2.7-1.5,22.36,22.36,0,0,0,8.28-10.23,9.11,9.11,0,0,0,3,1.11c.51,0,.6.18.24.39a6.89,6.89,0,0,0-2,2.13Zm.78,2.19h-9.72c-.42.57-.84,1.08-1.23,1.56a43.78,43.78,0,0,1,5.52,3.6A40.36,40.36,0,0,0,110.13,149.71Zm1.68,11.37H100.23v4.83h11.58Z"/><path d="M121.71,160.75a5.36,5.36,0,0,0-1.68-1.26,12.21,12.21,0,0,0,3-3,16.56,16.56,0,0,0,1.92-3.78,9.07,9.07,0,0,0,1.86.81c.63.12.63.27.06.69a9.22,9.22,0,0,0-1.32,1.41h4a15.49,15.49,0,0,0-1-2l2.19-.54a21.59,21.59,0,0,0,.93,2.49,31.76,31.76,0,0,0,3.93-.12v1.74a43.85,43.85,0,0,0-4.71-.12v2A34.89,34.89,0,0,0,135,159v1.74a36,36,0,0,0-4.17-.12v2a36.51,36.51,0,0,0,4.29-.12v1.71a37.61,37.61,0,0,0-4.29-.12v2.07a37.89,37.89,0,0,0,4.35-.12v1.86c-.87-.09-1.74-.12-5.28-.12h-4.77v3.06h-2.34c.18-1.71.33-4.44.33-6.6v-5.28C122.7,159.49,122.22,160.09,121.71,160.75Zm.66-12.39v-2c1.17.09,2.94.18,5,.21a16.19,16.19,0,0,0-.12-2.64,22,22,0,0,0,2.52.09c.48,0,.54.24.12.48a.83.83,0,0,0-.39.75v1.32c2.19,0,4.17-.09,5.37-.21v2c-1.2-.12-3.18-.18-5.37-.21v2.19h6.87c-.09-3.42-.12-5-.18-6.57A17,17,0,0,0,139,144c.66,0,.63.24.21.69s-.48,1.2-.54,5.67c3,0,5.88-.21,7.68-.39v2.49c-1.77-.18-4.59-.27-7.68-.27a34.63,34.63,0,0,0,1.62,10.23,31.49,31.49,0,0,0,2.22-8.25,7.15,7.15,0,0,0,2.58.51c.54,0,.63.24.15.54a3.15,3.15,0,0,0-1.14,2,29.49,29.49,0,0,1-2.79,7.23c2.19,3.9,3.21,3.45,3.36.33a4.33,4.33,0,0,0,2,1.68c-1.53,4.41-2.16,4.83-3.54,3.75a11.46,11.46,0,0,1-3.21-3.66,19.66,19.66,0,0,1-5.67,4.86,8,8,0,0,0-1.92-1.65,16.89,16.89,0,0,0,6.57-5.16,33.94,33.94,0,0,1-2.49-12.45H129c-3.27,0-6.39.09-8.31.27V150c1.59.15,4,.33,6.69.36v-2.16C125.31,148.18,123.51,148.24,122.37,148.36Zm2.79,10.71h3.78v-2h-3.78Zm0,3.48h3.78v-2h-3.78Zm0,3.54h3.78V164h-3.78Zm17.4-16.89a11.15,11.15,0,0,0-1.74-3.54l2.22-1c.6,1.17,1.35,2.46,2,3.48Z"/><path d="M174.36,152.53v2.82c-1.38-.12-3.3-.27-8.61-.27v11.58c5.07,0,8.88-.15,11-.36v3.12c-2.25-.15-6-.3-13.38-.3-7.62,0-10.83.09-13.23.3V166.3c1.56.18,3.21.27,4.65.3V153.94a22.47,22.47,0,0,0-.27-3.93,31,31,0,0,0,3.24.18c.48,0,.54.3.12.51s-.42.54-.42,1v14.94h5.61V150a25.43,25.43,0,0,0-.42-5.28,22.59,22.59,0,0,0,3.75.18c.54,0,.63.33.09.6a1.83,1.83,0,0,0-.75,1.56v5.76A63.13,63.13,0,0,0,174.36,152.53Z"/></g><g class="cls-3"><path d="M39,194.11v1.78a13.81,13.81,0,0,0-2.68-.16v6.5l2.42-.6a4.45,4.45,0,0,0,0,1.46,66,66,0,0,0-8.82,2.58,7,7,0,0,0-.7-2,10,10,0,0,0,1.8-.24v-8.92a15.24,15.24,0,0,0-.14-2.56,13.38,13.38,0,0,0,2,.18c.32,0,.38.12.12.3s-.38.56-.38,1.38v9.28l2.08-.46V191.07a14.34,14.34,0,0,0-.16-2.71,11.14,11.14,0,0,0,2,.14c.34,0,.4.08.14.34a2.17,2.17,0,0,0-.4,1.53v3.88A16.47,16.47,0,0,0,39,194.11Zm6.62-1.58a6.76,6.76,0,0,0,1.24,1.8c.2.18.18.36-.12.42-.8.18-2.1.68-5.12,2.5v5.92c0,.64.22.88,1.74.88s1.76-.16,2.14-2.38a4.07,4.07,0,0,0,1.8,1.06c-.78,2.68-.86,2.84-4,2.84-2.82,0-3.38-.44-3.38-2.54V191a17.29,17.29,0,0,0-.18-2.64,10.48,10.48,0,0,0,2.24.18c.46,0,.54.1.12.38s-.52.5-.52,1.26v5.37A14.91,14.91,0,0,0,45.58,192.53Z"/><path d="M51,205.55a3.3,3.3,0,0,0-1.84-1c1.74-1.74,2.52-4.8,2.62-8.64a53.89,53.89,0,0,0-.24-6.2,44.86,44.86,0,0,0,12.72-1.43,8.44,8.44,0,0,0,1,1.9c.2.27.14.39-.1.35a14.46,14.46,0,0,0-3.16.1c-2.18.17-6.4.4-8.5.48v2.7h9.84c1.38,0,2.72-.06,3.56-.14v1.78c-.84-.08-2.18-.14-3.56-.14H53.54C53.46,200.25,52.44,203.21,51,205.55Zm5.38-1.34v2.12H54.6c.08-.9.1-1.64.1-2.56v-4.1a16.46,16.46,0,0,0-.08-1.88c.68,0,2.42.08,5.18.08s4.62,0,5.2-.08a11.12,11.12,0,0,0-.1,1.88v4c0,.92.06,1.72.12,2.56H63.24v-2Zm6.82-1.44v-3.44H56.42v3.44Z"/><path d="M73.8,195.77a7.22,7.22,0,0,1,1.62,3.64c-.06,2.06-.8,2.64-2.86,3.08a4.57,4.57,0,0,0-.68-2.06c1.52.2,1.84.06,2-1,.1-.9-.24-1.92-1.46-3.5l1.48-5.39h-2.2v15.69H70.08c.1-1.8.14-2.94.14-4.62v-9.14a29.68,29.68,0,0,0-.14-3.3,25.46,25.46,0,0,0,2.9.12,21.69,21.69,0,0,0,2.8-.12Zm12.68,10.08c-5.22-.14-6.78-.38-8.1-1.28s-1.48-.78-2.94,1.22a4.86,4.86,0,0,0-1.26-1.22,11,11,0,0,1,2.26-1.64v-6.16a5.68,5.68,0,0,0-1.24.08v-1.48a8.7,8.7,0,0,0,2.88,0,13.37,13.37,0,0,0-.18,2.44v5a3.91,3.91,0,0,1,1.26.7c1,.74,3.08,1,8,.4A4.21,4.21,0,0,0,86.48,205.85Zm-9.62-12a16.08,16.08,0,0,0-1.14-3.35L77,190a33,33,0,0,1,1.2,3.36Zm1.8-1.82v-1.61a23.93,23.93,0,0,0,2.58.16,8.18,8.18,0,0,0,1-2.58,12.71,12.71,0,0,0,1.76.58c.3.06.34.26,0,.42s-.66.5-1.24,1.58a24.09,24.09,0,0,0,4-.16V192a36.11,36.11,0,0,0-4.72-.16,18,18,0,0,1-1.14,1.68h1.4a20.22,20.22,0,0,0,3.8-.2c-.06.46-.1,1.34-.1,1.76v6.28c0,1.14-.3,1.5-2.54,1.82a3.12,3.12,0,0,0-.5-1.56c1.36.26,1.58,0,1.58-.82v-.54h-3.5v2.64h-1.6c.08-1.06.18-2,.18-2.84v-5c-.2.24-.4.46-.62.7A2.23,2.23,0,0,0,77.7,195a9.32,9.32,0,0,0,2.82-3.08A16.45,16.45,0,0,0,78.66,192Zm5.9,2.78h-3.5v1.6h3.5Zm-3.5,4.2h3.5v-1.38h-3.5Z"/><path d="M96.12,192.91l1.26-.76c.7,1.16,1.66,2.64,2.5,3.86l-1.38.8c-.12-.26-.26-.52-.4-.78l-2.8.26V199a31.59,31.59,0,0,0,3.62-.2v1.62a27.67,27.67,0,0,0-3.62-.08v2.54c1.82-.28,3.52-.6,4.38-.82a4.56,4.56,0,0,0-.08,1.56c-1.42.18-3.1.44-4.66.72a24.15,24.15,0,0,0-4.74,1.18,7.12,7.12,0,0,0-.54-1.92c1-.08,2.48-.26,4.06-.48v-2.76a25.74,25.74,0,0,0-3.32.22v-1.7a22.52,22.52,0,0,0,3.32.12v-2.56a13.1,13.1,0,0,0-3.38.54,2.79,2.79,0,0,0-.48-1.58,3,3,0,0,0,1.36-.78c1.4-1.7,1.76-2.4,2-3.42a7.71,7.71,0,0,0,1.74.64c.5.1.54.32,0,.54-.4.16-.84.58-2.62,3l5.18-.44C97.06,194.25,96.62,193.59,96.12,192.91ZM90,191.21v-1.75a45.66,45.66,0,0,0,4.64.21,41.78,41.78,0,0,0,4.72-.21v1.75a42.57,42.57,0,0,0-4.76-.21A39.45,39.45,0,0,0,90,191.21Zm12.32,1.66v6.38c0,.78,0,1.54.1,2.46h-1.7a21.7,21.7,0,0,0,.12-2.46V194c0-1,0-2.26-.14-3.15a4.41,4.41,0,0,0,1.64.16c.34,0,.4.09.1.45C102.32,191.58,102.3,191.81,102.3,192.87Zm3.62-2.18v13c0,2.12-.12,2.28-3.24,2.7a4.18,4.18,0,0,0-1-2c2.42.18,2.7,0,2.7-.94V192c0-1.53,0-2.78-.1-3.53a7.29,7.29,0,0,0,1.7.1c.4,0,.46.15.18.42S105.92,189.46,105.92,190.69Z"/><path d="M113.8,195.77a7.22,7.22,0,0,1,1.62,3.64c-.06,2.06-.8,2.64-2.86,3.08a4.57,4.57,0,0,0-.68-2.06c1.52.2,1.84.06,2-1,.1-.9-.24-1.92-1.46-3.5l1.48-5.39h-2.2v15.69h-1.58c.1-1.8.14-2.94.14-4.62v-9.14a29.68,29.68,0,0,0-.14-3.3,25.46,25.46,0,0,0,2.9.12,21.69,21.69,0,0,0,2.8-.12Zm12.68,10.08c-5.22-.14-6.78-.38-8.1-1.28s-1.48-.78-2.94,1.22a4.86,4.86,0,0,0-1.26-1.22,11,11,0,0,1,2.26-1.64v-6.16a5.68,5.68,0,0,0-1.24.08v-1.48a8.7,8.7,0,0,0,2.88,0,13.37,13.37,0,0,0-.18,2.44v5a3.91,3.91,0,0,1,1.26.7c1,.74,3.08,1,8,.4A4.21,4.21,0,0,0,126.48,205.85Zm-9.62-12a16.08,16.08,0,0,0-1.14-3.35L117,190a33,33,0,0,1,1.2,3.36Zm1.8-1.82v-1.61a23.93,23.93,0,0,0,2.58.16,8.18,8.18,0,0,0,1-2.58,12.71,12.71,0,0,0,1.76.58c.3.06.34.26,0,.42s-.66.5-1.24,1.58a24.09,24.09,0,0,0,4-.16V192a36.11,36.11,0,0,0-4.72-.16,18,18,0,0,1-1.14,1.68h1.4a20.22,20.22,0,0,0,3.8-.2c-.06.46-.1,1.34-.1,1.76v6.28c0,1.14-.3,1.5-2.54,1.82a3.12,3.12,0,0,0-.5-1.56c1.36.26,1.58,0,1.58-.82v-.54h-3.5v2.64h-1.6c.08-1.06.18-2,.18-2.84v-5c-.2.24-.4.46-.62.7a2.23,2.23,0,0,0-1.32-.86,9.32,9.32,0,0,0,2.82-3.08A16.45,16.45,0,0,0,118.66,192Zm5.9,2.78h-3.5v1.6h3.5Zm-3.5,4.2h3.5v-1.38h-3.5Z"/><path d="M130,201.61v-1.9c2,.14,4.26.2,7.78.2v-1.4a13.51,13.51,0,0,0,2.78-1.32h-4.64c-1.22,0-2.16,0-2.84.06v-1.5c1.56.1,2.56.12,5.26.12,3.34,0,4.56,0,5.3-.12v1.8c-.68,0-1.58.28-4.08,1.66v.7c3.18,0,5.34-.08,7.16-.2v1.9c-1.82-.12-4-.2-7.16-.22v2.92c0,1.2-.44,1.52-3.54,2a5.44,5.44,0,0,0-.68-2c2.1.18,2.44,0,2.44-.66v-2.26C134.22,201.39,131.9,201.47,130,201.61Zm16.64-9.38V196h-1.66v-2.16h-13.2v2.32h-1.66v-3.9c1.08.08,2.56.12,4.56.12h6.14a24.53,24.53,0,0,0,2.28-4.29,9,9,0,0,0,1.8,1c.32.14.3.25-.08.42a15.51,15.51,0,0,0-2.38,2.89C144.24,192.35,145.58,192.31,146.6,192.23Zm-13.22-.32a17.4,17.4,0,0,0-1.2-2.53l1.64-.74c.4.69,1,1.77,1.36,2.63Zm4.3-.53a24.77,24.77,0,0,0-.58-2.8l1.76-.36a26.5,26.5,0,0,1,.68,2.73Z"/></g><g class="cls-3"><path d="M341.82,148v2.7c-1.8-.18-3.78-.24-12.24-.27a16,16,0,0,1-.93,2.58c3.78,0,7.41-.09,9-.27a20.43,20.43,0,0,0-.24,3.24v9.84c0,1.62.09,3.33.24,4.92H334.8v-2.19H321.66v2.25H319a48,48,0,0,0,.27-5V156a16.88,16.88,0,0,0-.24-3.3c1.53.12,4.23.24,7.35.27a9.45,9.45,0,0,0,.63-2.58c-6.72,0-9.45.09-12.21.27V148c3.21.21,7.32.27,14.85.27a14.23,14.23,0,0,0,2.4-4.8,10.85,10.85,0,0,0,2.73,1c.36.06.42.33,0,.63a14.05,14.05,0,0,0-2.67,3.18C338.25,148.21,340.23,148.12,341.82,148Zm-7,7H321.66v2.46H334.8Zm0,4.44H321.66v2.52H334.8Zm0,4.5H321.66v2.67H334.8Zm-11-15.72a11.71,11.71,0,0,0-2-3.69l2.52-.84a22.23,22.23,0,0,0,2,3.6Z"/><path d="M349.53,152.74a26.92,26.92,0,0,0-4.32.27v-2.64a27.53,27.53,0,0,0,4.32.24,41.6,41.6,0,0,0-.33-6.36,13.33,13.33,0,0,0,2.76.21c.93,0,1.08.24.45.75a1.57,1.57,0,0,0-.54,1.32v4.05a23.32,23.32,0,0,0,2.88-.21V153a22.61,22.61,0,0,0-2.88-.24v4.53A28.81,28.81,0,0,0,354.6,156a8.22,8.22,0,0,0,.21,2.4c-.9.3-1.89.69-2.94,1.11v8.28c0,2.25-.06,2.37-4.23,3.15a5.44,5.44,0,0,0-1.47-3.06c2.94.36,3.36.21,3.36-1.38v-6a37.24,37.24,0,0,0-3.87,2.13,11.63,11.63,0,0,0-.87-3,44.31,44.31,0,0,0,4.74-1.44Zm8.91,13.47,2.85-2.22c-.09,1.2.12,1.86.69,2.28l-3.51,2.55a16.24,16.24,0,0,0-2,1.77,8.09,8.09,0,0,0-1.56-2.46,2.79,2.79,0,0,0,1.14-2.46V149.29a36.49,36.49,0,0,0-.18-4.68,12,12,0,0,0,2.73.24c.39,0,.45.09.15.57a11.22,11.22,0,0,0-.36,3v4.77a26.18,26.18,0,0,0,3.39-.18v2.34c-.81-.09-2.13-.15-3.39-.15Zm6.78-.06c0,1.08.48,1.23,1.53,1.23,1.68,0,1.95-.21,2.52-3.3a6.53,6.53,0,0,0,2.52,1.68c-1,3.6-1.74,3.87-5.4,3.87-3.3,0-3.48-.33-3.48-3.45v-17.4a28,28,0,0,0-.21-4.62,5.2,5.2,0,0,0,2.88,0c.36-.12.54.24.15.57a5.83,5.83,0,0,0-.51,2.82v7.65a27.17,27.17,0,0,0,4-4.44,6,6,0,0,0,1.86,1.86c.36.21.45.45-.33.72a32.5,32.5,0,0,0-5.58,4.35Z"/><path d="M384.57,160a4.38,4.38,0,0,0,0,2.49,64.62,64.62,0,0,0-9.15,2.67,6.72,6.72,0,0,0-.72-3c1.23-.18,2.52-.39,3.78-.63V148.75a24.89,24.89,0,0,0-3.6.27v-2.73a24.86,24.86,0,0,0,4.26.27,35.1,35.1,0,0,0,5-.27V149a25.31,25.31,0,0,0-3.24-.24v12.27A34.51,34.51,0,0,0,384.57,160Zm9.63-3.12a27.51,27.51,0,0,1-1,6.63c-1.2,3.57-3.21,5.1-9,8a6.26,6.26,0,0,0-2.19-2.25c4.86-1.47,7.74-3,8.88-6.36.69-1.89.84-3.27.75-7.71a25,25,0,0,0,2.76.42c.33,0,.33.06.06.21S394.23,156.31,394.2,156.91Zm-8.94-9.36-.12-2.46c2,.18,4.65.24,8.37.24s5.82-.06,7.8-.24v2.46c-1.83-.18-3.78-.24-7-.24-.27,1.08-.6,2.37-.93,3.51,3.15,0,4.44,0,6-.12-.06.69-.06,1.56-.06,3.6v5.94a33.89,33.89,0,0,0,.18,4.14h-2.79V152.86h-8.07V165H386.1a33.89,33.89,0,0,0,.18-4.14V154.3c0-2.19,0-2.88,0-3.6,1.26.06,2.73.09,4.92.12.18-1,.42-2.37.54-3.51C389,147.34,386.91,147.4,385.26,147.55Zm14.13,23.64a53.78,53.78,0,0,0-6.24-5.76l1.56-1.53a64,64,0,0,1,6.6,5.19Z"/><path d="M412.29,170.29h-2.76a36,36,0,0,0,.24-4.59V149.2a28.37,28.37,0,0,0-.24-3.63c1.44.18,5,.33,8.94.33s8.34-.21,9.54-.33a29.31,29.31,0,0,0-.24,3.63v16.44a36.3,36.3,0,0,0,.24,4.59h-2.79V168H412.29Zm12.93-22.2H412.29v4.47h12.93Zm-12.93,11.16h12.93v-4.59H412.29Zm0,6.6h12.93v-4.5H412.29Z"/><path d="M446.34,144.16l2.73-.84a21.54,21.54,0,0,1,1.59,3.93c4.2,0,7-.12,7.86-.21-.09,1-.12,2.7-.12,4.44s.06,3.36.12,4.38c-.69-.09-2.34-.15-6-.15H440.88c0,6.45-1.14,11.4-4.38,15a8.48,8.48,0,0,0-2.28-2.07,13.51,13.51,0,0,0,4-9.18,111.52,111.52,0,0,0-.15-12.42c1.14.15,4.41.21,9.75.21A12.35,12.35,0,0,0,446.34,144.16Zm9.54,5.28h-15v4.11h15Zm-10.29,19.11v2.58h-3a19.33,19.33,0,0,0,.42-3.87v-5.94a12.6,12.6,0,0,0-.18-2.4,68.84,68.84,0,0,0,8.13.21,68.82,68.82,0,0,0,8.16-.21,10.33,10.33,0,0,0-.21,2.4v5.19a16.46,16.46,0,0,0,.45,3.87h-3v-1.83Zm10.83-2V161.2H445.59v5.31Z"/><path d="M464.82,155.86V153.4a45.84,45.84,0,0,0,6.27.27c2.25,0,4.05-.06,5.91-.24v2.43c-1.38-.12-3-.21-4.92-.24a60,60,0,0,1-3.66,8.4l6.18-1.44a19.74,19.74,0,0,0-1.44-3l2.13-1c.57,1.59,2,4.53,2.82,6.18l-2.4,1.14a13.07,13.07,0,0,0-.48-1.62c-5.73,1.41-7.89,2.34-9,3.21a11.68,11.68,0,0,0-1.29-2.94c1.11-.48,1.62-1.11,2.49-3.12a40.39,40.39,0,0,0,2-5.85C467.31,155.68,465.84,155.74,464.82,155.86Zm6.84-6.63a33.62,33.62,0,0,0-5.25.24v-2.64a29.68,29.68,0,0,0,5.28.27,32.24,32.24,0,0,0,4.59-.24v2.61A34,34,0,0,0,471.66,149.23Zm10-5.52a11.76,11.76,0,0,0,3.15.42c.6,0,.66.12.24.6s-.66,1.23-.87,5.07a67.16,67.16,0,0,0,6.78-.48,18.09,18.09,0,0,0-.48,3.66L490,164.41c-.21,4.65-1,5.4-5.22,6.09a6.31,6.31,0,0,0-1.65-3.27c3.39.27,4.26,0,4.38-2l.78-13.47h-4.2c-.12,2.52-.3,4.59-.63,7-.72,5.19-2,8-7.26,12a5.29,5.29,0,0,0-2.91-1.8c4.71-2.49,6.66-4.32,7.53-8.79a67.11,67.11,0,0,0,.93-8.4c-1.8.06-3.93.24-5.13.39v-2.58a47.3,47.3,0,0,0,5.25.21A33.8,33.8,0,0,0,481.68,143.71Z"/></g><g class="cls-3"><path d="M276.78,193.87a18.43,18.43,0,0,0-2.48.18v-1.68a19,19,0,0,0,2.48.16,26.16,26.16,0,0,0-.22-4.15,8.71,8.71,0,0,0,1.82.14c.62,0,.72.16.3.5a.79.79,0,0,0-.36.73v2.78a17.12,17.12,0,0,0,2.34-.16v1.68a14.41,14.41,0,0,0-2.34-.16V197c.6-.3,1.22-.62,1.88-1a4.72,4.72,0,0,0,.24,1.72c-.76.28-1.46.56-2.12.84v5.3c0,1.18-.18,1.64-2.8,2.08a3.94,3.94,0,0,0-.74-2c1.78.22,2,0,2-.74v-3.94c-.66.34-1.34.72-2.1,1.2a6.76,6.76,0,0,0-.42-2c1-.28,1.76-.54,2.52-.84ZM290.7,200v1.68a21.3,21.3,0,0,0-3.6-.18v2.3a28.15,28.15,0,0,0,5.2.06,3.92,3.92,0,0,0-.72,1.88,16.48,16.48,0,0,1-5.26-.52,6.4,6.4,0,0,1-3.84-2.42,7.53,7.53,0,0,1-1.84,3,3.86,3.86,0,0,0-1.72-.84c1.62-1.16,2.36-2.94,3-5.72a6.43,6.43,0,0,0,1.66.38c.24,0,.28.1.08.28a3.55,3.55,0,0,0-.72,1.34,5.17,5.17,0,0,0,2.52,2.24v-5.16c-1.9,0-3.22.08-4.32.16v-1.7c1.34.12,2.9.16,5.4.16s4.08,0,5.4-.16v1.7c-1.22-.1-2.64-.16-4.88-.16v1.9A19.66,19.66,0,0,0,290.7,200Zm-.22-9.37v3.25a11.31,11.31,0,0,0,.18,1.88,36.86,36.86,0,0,0-4.5-.16,33.08,33.08,0,0,0-4.52.16,8.69,8.69,0,0,0,.18-1.88v-3.25a7.92,7.92,0,0,0-.18-1.86,37,37,0,0,0,4.52.16,32.91,32.91,0,0,0,4.5-.16A9.39,9.39,0,0,0,290.48,190.58Zm-1.62-.41h-5.48v1.4h5.48Zm-5.48,4.12h5.48v-1.48h-5.48Z"/><path d="M295,198.27a4.23,4.23,0,0,0-1.28-1.24,19.54,19.54,0,0,0,3-4.82,21.87,21.87,0,0,0,1.16-4.23,8.87,8.87,0,0,0,2,.7c.42.08.44.18,0,.61a17.16,17.16,0,0,0-1.6,2.75v14.25h-1.8c.12-1.14.22-2.86.22-4.3v-6.56A21.75,21.75,0,0,1,295,198.27Zm10,3.86c-.3.14-.92.74-4.1,4.3a2.82,2.82,0,0,0-1.72-1,14.67,14.67,0,0,0,4.16-4.58,12.53,12.53,0,0,0,1.78.76C305.56,201.71,305.58,201.87,305,202.13Zm-2.18-8.06c-1,0-1.78.08-2.62.16v-1.76c.84.08,1.66.14,2.62.18v-1.42a27.16,27.16,0,0,0-.08-3.13,8.6,8.6,0,0,0,1.82.12c.34,0,.36.16.08.32s-.28.5-.28,1.17v2.94h2.86v-1.44c0-1.73,0-2.69-.08-3.13a9.93,9.93,0,0,0,1.8.12c.34,0,.36.16.08.32s-.28.5-.28,1.16v3c1.18,0,2.12-.1,2.94-.18v1.76c-.8-.08-1.76-.16-2.94-.18v4.5a30.08,30.08,0,0,0,3.6-.18v1.82c-1.48-.14-3.58-.2-6.32-.2s-4.82.06-6.3.2v-1.82c.88.1,1.86.16,3.1.18Zm1.54,4.48h2.86v-4.5h-2.86Zm6.24,7.62A26.81,26.81,0,0,0,307,202l1.36-1a38.9,38.9,0,0,1,3.82,3.88Z"/><path d="M315.78,195.29a6.75,6.75,0,0,0-1.58-1,14.74,14.74,0,0,0,4.7-6.47,5.73,5.73,0,0,0,2.12.85c.26,0,.26.27-.08.37s-.62.42-1.12,1.06l8.52,0c1.16,0,2.18-.08,2.92-.13v1.68a27.35,27.35,0,0,0-2.92-.09h-9.48A38.14,38.14,0,0,1,315.78,195.29Zm2.16-2.3c1.38.06,3.18.1,5.64.1s4.52,0,6-.12l-.12,4.62a24,24,0,0,0,2.74-.14v1.6a22.66,22.66,0,0,0-2.78-.1l-.1,3.38a9.59,9.59,0,0,0,1.88-.16v1.66a16.39,16.39,0,0,0-1.92-.1c-.12,2.18-.56,2.38-3.44,2.72a4.43,4.43,0,0,0-.74-1.86c1.8.12,2.3.08,2.48-.86h-5.8c-2.72,0-3.36,0-4.5.06l.32-4.84c-1.16,0-2.78,0-3.36.08v-1.58c.58.08,2.28.12,3.44.14Zm1.2,6-.2,3.4h8.68l.1-3.4Zm8.62-1.36.08-3.14h-8.42l-.2,3.14Zm-4.28,4.52a12.2,12.2,0,0,0-2-2l1.36-.94a18.56,18.56,0,0,1,1.9,1.86Zm.28-4.6a14.12,14.12,0,0,0-1.86-1.94l1.34-.92a24,24,0,0,1,1.94,1.82Z"/><path d="M350.74,193.05v10.86c0,1.92-.32,2.16-3.18,2.54a3.5,3.5,0,0,0-1-2c2.18.32,2.56.16,2.56-.9V190.65h-11v5.9c0,4.8-.68,7.22-2.22,9.68a4.16,4.16,0,0,0-1.86-1c1.64-1.3,2.5-4.1,2.5-8.76V189.1c2.14.11,4,.12,7.1.12s5,0,7.16-.12C350.8,189.88,350.74,192.31,350.74,193.05Zm-10.9,1.22v-1.44c.74.06,1.64.1,2.82.12a9.9,9.9,0,0,0-.14-1.72c.58.06,1.26.08,1.84.08.32,0,.38.15.1.27s-.26.29-.26.71V193c1.44,0,2.5,0,3.32-.12v1.44c-.82-.06-1.88-.1-3.32-.12V196c1.68,0,2.88,0,3.84-.12v1.44c-1.06-.06-2.44-.12-4.44-.12s-3.38.06-4.44.12v-1.44c.9.06,2,.1,3.5.12v-1.86C341.46,194.17,340.56,194.23,339.84,194.27Zm3.7,9.14a31.68,31.68,0,0,0-3.6.14,21.5,21.5,0,0,0,.12-2.5,21.78,21.78,0,0,0-.12-2.54,46.36,46.36,0,0,0,7.2,0c-.06.62-.1,1.58-.1,2.54s0,1.9.1,2.5C346.28,203.47,345.26,203.41,343.54,203.41Zm2-3.46h-4v2.14h4Z"/><path d="M354.76,198.49a8.83,8.83,0,0,0-1-1.68,21.6,21.6,0,0,0,2.82-4.7,40.21,40.21,0,0,0,1.48-3.85,10.67,10.67,0,0,0,1.94.56c.46.08.5.24,0,.6a12.64,12.64,0,0,0-1.94,3.23v13.56h-1.86a22.07,22.07,0,0,0,.22-3.74v-6.72C355.86,196.81,355.36,197.59,354.76,198.49Zm6.22-6.38a6.38,6.38,0,0,0-.5-1.57,45.79,45.79,0,0,0,9.32-1.64,13.73,13.73,0,0,0,.94,1.64c.22.37.14.45-.14.37a5.71,5.71,0,0,0-2.14.08l-1.84.32v5c2.38,0,4.1-.08,5.46-.16v1.88c-1.36-.1-3.08-.16-5.46-.18v6c2,0,3.46-.08,4.64-.16v1.86c-1.34-.12-3-.18-5.54-.18s-4.2.06-5.54.18v-1.86c1.22.08,2.64.14,4.74.16v-6c-2.5,0-4.26.08-5.66.18v-1.88c1.42.1,3.16.14,5.66.16v-4.77C363,191.91,361.66,192.07,361,192.11Z"/><path d="M384.88,190c1.78,0,4-.12,4.82-.21a14.41,14.41,0,0,1-4.46,5.12,20.07,20.07,0,0,0,7.22,1.58,5.31,5.31,0,0,0-.76,2,21,21,0,0,1-7.9-2.64A25.15,25.15,0,0,1,375,199a3.51,3.51,0,0,0-.76-1.62,23.79,23.79,0,0,0,8.24-2.42,12.07,12.07,0,0,1-2.66-3.1,26,26,0,0,1-2.38,3.16,2.64,2.64,0,0,0-1.68-.9,11.79,11.79,0,0,0,4.08-6.43,8,8,0,0,0,2.24.8c.38.06.36.32,0,.38s-.6.33-1.2,1.2Zm-8.38,16.47a4.51,4.51,0,0,0-1.26-1.76c3.64-.5,5.68-1.42,6.44-3.7a37.55,37.55,0,0,0-4.54.18v-1.8a46.39,46.39,0,0,0,4.84.18,12.86,12.86,0,0,0,.08-2.5,9,9,0,0,0,2.2.32c.26,0,.3.06,0,.28a4.9,4.9,0,0,0-.66,1.9,54.06,54.06,0,0,0,6.12-.18l-.24,3.5c-.18,2.5-1.08,3.16-4,3.36a4.58,4.58,0,0,0-1.12-2.06c2.38.32,3.3.06,3.4-1.32l.14-1.86h-4.54C382.62,203.85,381,205,376.5,206.51Zm10.36-15.18h-5.74a12.43,12.43,0,0,0,2.72,2.78A21.21,21.21,0,0,0,386.86,191.33Z"/><path d="M403.6,193.63a21.38,21.38,0,0,1-1.94,7.24,15.49,15.49,0,0,1-5.38,5.12,6.1,6.1,0,0,0-1.48-1.38,12.51,12.51,0,0,0,5-3.76,17.45,17.45,0,0,0-2.42-2.28l1.16-1.14c.72.58,1.38,1.18,2.1,1.86a12.18,12.18,0,0,0,1.16-4.2h-3.24a19.53,19.53,0,0,1-2.9,4.78,3,3,0,0,0-1.48-1A13,13,0,0,0,398,191c-1.5,0-2.58.09-3.5.19v-1.82a62.25,62.25,0,0,0,9.72,0v1.82a36,36,0,0,0-4.6-.2,13.78,13.78,0,0,1-.6,2.6Zm3.24-1.78v6.88c0,.8,0,1.6.1,2.54h-1.76c.06-1,.08-1.74.08-2.54V193a20.76,20.76,0,0,0-.08-2.22,6.74,6.74,0,0,0,1.78.05c.34,0,.4.2.1.41A.82.82,0,0,0,406.84,191.85Zm3.82-2.55v14.11c0,2-.32,2.36-3.4,2.9a4.64,4.64,0,0,0-1-2.14c2.52.12,2.78-.1,2.78-1.22V191.46c0-1.55,0-2.68-.1-3.32a9.14,9.14,0,0,0,1.78.14c.4,0,.44.18.18.43S410.66,188.94,410.66,189.3Z"/><path d="M415,191.89v-1.64c1.94.09,3.82.13,7.26.13a21.71,21.71,0,0,0-.14-2.3,14.88,14.88,0,0,0,2,.18c.42,0,.46.06.12.34a1.89,1.89,0,0,0-.34,1v.74c3.6,0,5.56,0,7.3-.13v1.64c-1.74-.1-4.18-.14-7.3-.16v1.66c3,0,4.3-.06,6-.18v1.56c-1.74-.12-3.06-.14-6-.14v1.58c4.5,0,5.38,0,8-.18v1.58c-2.84-.12-3.54-.14-8.6-.14a16,16,0,0,1-2.82,3v4a11.58,11.58,0,0,0,3.62-1.38,10.29,10.29,0,0,0,.14,1.66,25,25,0,0,0-5.18,2,5.61,5.61,0,0,0-.9-1.54c.6-.22.78-.52.78-1.34v-2.24a21.67,21.67,0,0,1-3.76,2.06,3.8,3.8,0,0,0-1.14-1.72,12.93,12.93,0,0,0,7.3-4.46c-4,0-4.68,0-7,.14V196c2.52.16,3,.18,7.94.18v-1.58c-2.9,0-4.32,0-6,.14v-1.56c1.74.12,3.14.18,6,.18v-1.66C418.86,191.73,416.92,191.77,415,191.89Zm14.14,6.6c.38.26,1.32,1,1.52,1.14s.2.32-.18.36-1,.32-3.82,1.9a11.56,11.56,0,0,0,5.68,2.26,4.19,4.19,0,0,0-1.42,1.9,12.1,12.1,0,0,1-5.68-3.5,20.38,20.38,0,0,1-2.38-3.72l1.4-.72a18.59,18.59,0,0,0,1.64,3A12.79,12.79,0,0,0,429.18,198.49Z"/><path d="M435.48,191.25a2.81,2.81,0,0,0-.74-1.5,24.55,24.55,0,0,0,4.4-.62,8.59,8.59,0,0,0,2.68-1,4.11,4.11,0,0,0,1,1.7c.42.41.36.5-.06.42a7.35,7.35,0,0,0-2.72.23V194a28,28,0,0,0,3.08-.16v1.66c-.62-.08-1.86-.12-3.08-.14v7.6c0,1,.08,2.24.18,3.44H438.3c.1-1.2.16-2.46.16-3.44v-5.34a20.53,20.53,0,0,1-3.1,5.68,9.06,9.06,0,0,0-1.34-1.56,20.62,20.62,0,0,0,4.14-6.4,23.67,23.67,0,0,0-3.5.16v-1.66a21.94,21.94,0,0,0,3.8.16v-3.22C437.12,191,436.34,191.15,435.48,191.25ZM442,201a18.39,18.39,0,0,0-1.84-3l1.1-.94c.74,1,1.54,2.16,2.08,3Zm3.7,3.2h-1.8a20.85,20.85,0,0,0,.16-2.72v-9.62a6.78,6.78,0,0,0-.12-1.58c1.54.09,2.38.12,3.7.12,1,0,2.56,0,3.68-.12a7.11,7.11,0,0,0-.12,1.58V201a22.13,22.13,0,0,0,.14,2.72h-1.78v-1.78H445.7Zm3.86-12.36H445.7v8.68h3.86Z"/><path d="M456.2,195.87c-.66.12-1.24.28-1.6.38a3.65,3.65,0,0,0-.5-1.56c.86-.32,2.68-3.35,3.7-6.67a6.68,6.68,0,0,0,1.82.74c.36.08.34.38.06.5-.6.26-1,.81-3.58,5.35l2.66-.4a10,10,0,0,0,1.1-2.5,6.53,6.53,0,0,0,1.82.82c.32.08.32.38-.08.48-.14,0-.28.12-.62.56a12.2,12.2,0,0,0,2.8-.32c0-1.58-.08-3.37-.12-5.12a7.46,7.46,0,0,0,1.92.15c.3,0,.44.2.16.47a2.41,2.41,0,0,0-.34,1c0,.86-.08,2.29-.1,3.2,2.2-.46,4.4-1,5.56-1.32l.32,1.54c-1.26.16-3.62.62-5.84,1.08.06.8.12,1.54.22,2.24,2.28-.5,4.66-1,5.88-1.34l.32,1.54c-1.3.16-3.7.66-6,1.1a12.32,12.32,0,0,0,.94,3,14.56,14.56,0,0,0,2.38-2.86,11.14,11.14,0,0,0,1.56,1c.24.12.24.34,0,.36a5.45,5.45,0,0,0-2,1.68,12.71,12.71,0,0,1-1.16,1.14,7.85,7.85,0,0,0,1.88,1.76c.68.46.86.42,1.1-1.84a2.75,2.75,0,0,0,1.78,1.16c-.94,3.1-1.42,3.42-2.7,2.74a8,8,0,0,1-3.22-2.84,28.51,28.51,0,0,1-4.54,2.92,4.09,4.09,0,0,0-1.22-1.44c1.52-.42,2.24-.76,4.92-2.82a14,14,0,0,1-1.26-3.66c-1.3.3-1.92.44-2.88.72l-.32-1.58c1-.16,1.62-.26,3-.5-.08-.68-.16-1.4-.2-2.18-1.16.28-1.7.42-2.6.7l-.38-1.54c-.6.8-1.64,2.34-3.78,5.56a21.11,21.11,0,0,0,3.92-.64,3.28,3.28,0,0,0,0,1.4l-3.68.62a10,10,0,0,0-2.12.46,4.36,4.36,0,0,0-.52-1.84c.9-.36,1.66-1,3.34-3.76Zm5,7.32c-3.72.8-5.08,1.28-6.22,1.9a6.07,6.07,0,0,0-.6-2c1.14,0,2.8-.28,6.76-1.42A3.19,3.19,0,0,0,461.16,203.19Zm7.06-11.5a12.71,12.71,0,0,0-1.38-2.05l1.56-.78c.54.77,1,1.47,1.4,1.93Z"/><path d="M492,203v2c-2.16-.14-4.74-.2-8.72-.2s-6.64.06-8.78.2v-2c1.84.12,4,.18,7,.2v-9.68a39.19,39.19,0,0,0-.16-5.05,14,14,0,0,0,2.32.19c.36,0,.42.17.08.41a3,3,0,0,0-.38,1.83v2.64H486c1.8,0,3.16-.06,4.24-.16v2a39.94,39.94,0,0,0-4.24-.16h-2.64v8C487.28,203.17,489.82,203.11,492,203Z"/><path d="M500,197.41h6.54v1.4c-.8-.06-1.52-.08-3.4-.08-1.54,0-2.34,0-3.2.08v-1.34a27.23,27.23,0,0,1-4.72,2.72,3.65,3.65,0,0,0-1.34-1.36c2.9-1,6.26-2.92,7.64-4.46a9,9,0,0,0,1.38-2,12.42,12.42,0,0,0,1.78.48c.22,0,.3.22.08.3a1,1,0,0,0-.36.24,10.22,10.22,0,0,0,7.7,4.1,6.15,6.15,0,0,0-.9,1.86,11.85,11.85,0,0,1-7.56-5.06A23.42,23.42,0,0,1,500,197.41Zm-4.34-3.14a3.4,3.4,0,0,0-1.38-.88A12.46,12.46,0,0,0,498,188.3a9.46,9.46,0,0,0,1.78.68c.28.06.32.19,0,.31s-.44.29-.9,1h1.46a18.28,18.28,0,0,0,3.28-.17v1.5a17.76,17.76,0,0,0-3-.16c.26.66.52,1.37.7,2l-1.72.4a13.58,13.58,0,0,0-.38-2.39h-1.1A13,13,0,0,1,495.7,194.27Zm3.84,10.64v1.36H497.9a25.83,25.83,0,0,0,.12-2.6v-1.94a17.15,17.15,0,0,0-.08-1.88c.64.08,3.52.16,5.42.16,2.1,0,5-.08,5.48-.16a17.15,17.15,0,0,0-.08,1.88v1.68a25.13,25.13,0,0,0,.12,2.66h-1.64v-1.16Zm7.7-1.22v-2.4h-7.7v2.4ZM505,193a3.73,3.73,0,0,0-1.4-.68,8.92,8.92,0,0,0,2.52-4.21,9.21,9.21,0,0,0,1.84.7c.28.06.34.2.06.32a3.66,3.66,0,0,0-1,1h2a14.48,14.48,0,0,0,3-.16v1.54a18.52,18.52,0,0,0-3.34-.15c.34.8.72,1.72.92,2.3l-1.74.46a13.8,13.8,0,0,0-.62-2.76h-1.12C505.52,192.25,505.24,192.63,505,193Z"/><path d="M521.82,203.65l-1.22,1.22a13.77,13.77,0,0,0-2.24-2.56,9.21,9.21,0,0,1-2.9,3.82,5,5,0,0,0-1.32-1.06,6.63,6.63,0,0,0,3.44-4.72,26.52,26.52,0,0,0-2.88.18V199a22.54,22.54,0,0,0,3.1.1c.1-.66.16-1.28.2-1.88h-1.36c-.24.48-.48.92-.8,1.48a3.56,3.56,0,0,0-1.28-.66,7,7,0,0,0,1.46-3.26,7.65,7.65,0,0,0,1.66.46c.2,0,.2.12-.14.36a1,1,0,0,0-.28.34h2a19.18,19.18,0,0,0,2.52-.12v1.52a16.23,16.23,0,0,0-2.38-.12,11,11,0,0,1-.1,1.88c1.18,0,2.28-.08,3-.14v1.54c-.74-.08-1.88-.16-3.24-.18a8.17,8.17,0,0,1-.32,1A31.83,31.83,0,0,1,521.82,203.65Zm-4.66-11.16c0,.54.14.72,1.76.72s1.76-.14,1.88-1.48a2.76,2.76,0,0,0,1.52,1c-.64,1.72-.88,1.82-3.4,1.82-3,0-3.16-.22-3.16-1.58v-2.24c0-1,0-1.69-.06-2.11a7.54,7.54,0,0,0,1.7.1c.32,0,.38.14.06.38a.64.64,0,0,0-.3.61v.83a17,17,0,0,0,4.18-1.4,10.07,10.07,0,0,0,1.06,1.57c.2.2.16.29-.2.24-.76-.11-2.22.08-5,.82Zm9.38,11v-7.34a26.71,26.71,0,0,0-3.7.18v-1.52a76.63,76.63,0,0,0,9.26,0l-1.24,3.12-1.5-.22.68-1.56h-2v3.06h1.52a9.91,9.91,0,0,0,1.52-.1v1.5a10.31,10.31,0,0,0-1.52-.1H528V204a13.79,13.79,0,0,0,4.06.12,4.24,4.24,0,0,0-.46,1.78,13.61,13.61,0,0,1-4.7-.64,5,5,0,0,1-2.54-2.78,12.11,12.11,0,0,1-1.74,3.58,3.43,3.43,0,0,0-1.46-.7c2.16-2,2.42-4.38,2.32-7.82a5.52,5.52,0,0,0,1.58.14c.36,0,.38.06.18.26a4.34,4.34,0,0,0-.44,2.08c0,.24,0,.46-.06.68A7.45,7.45,0,0,0,526.54,203.47Zm2.14-9.4-1.24.72a30.54,30.54,0,0,0-3.18-2.32l.74-1c.24.14,1,.64,1.74,1.16l2.1-2.52h-2.1a24.59,24.59,0,0,0-3.44.17v-1.52a30.66,30.66,0,0,0,4.12.16,30.14,30.14,0,0,0,4.08-.16l-3.58,4.69A9.07,9.07,0,0,1,528.68,194.07Z"/></g><path class="cls-2" d="M403.18,43.94a40.06,40.06,0,1,0,36.28,23.44l-40.25,40.25a.35.35,0,0,1-.5,0h0l-2.18-2.18-5.07-5.07L376.74,85.62a.36.36,0,0,1,0-.5h0l7-7a.35.35,0,0,1,.49,0h0l14.5,14.5a.33.33,0,0,0,.47,0l0,0,34.38-34.4c-.73-.86-1.32-1.79-2.13-2.6A39.84,39.84,0,0,0,403.18,43.94Z"/><g class="cls-3"><path class="cls-4" d="M47.87,10.54a4.93,4.93,0,0,1,3.94-1.87c2.9,0,5,2.18,5,5.73,0,3.36-2.13,6.36-5.71,6.36-3.84,0-6.1-3.14-6.1-7.63A11.68,11.68,0,0,1,47.92,5a10.07,10.07,0,0,1,7.25-2.81l0,2.21c-5.14,0-7,3.5-7.37,6.17Zm6.17,4c0-2.35-1.2-3.91-3.1-3.91a3.33,3.33,0,0,0-3.17,3.14c0,2.83,1.23,4.87,3.34,4.87C52.93,18.67,54,17,54,14.57Z"/><path class="cls-4" d="M65.92,14.07a12.23,12.23,0,0,1-3.65,8.18,4.59,4.59,0,0,0-2.33-1.34c2.86-2.19,4-4.78,4-10.3V4.85c0-1.51,0-2.43-.1-3.12,1.18.07,2.52.09,6.91.09s5.79,0,6.89-.09c-.07.69-.09,1.61-.09,3.12V18.94c0,2.4-.22,2.71-4.11,3.09a4,4,0,0,0-1.05-2.66c2.85.5,2.92.38,2.92-1.82V14.07Zm9.38-7V3.63H66V7.1ZM66,8.79v3.52H75.3V8.79Z"/><path class="cls-4" d="M89.63,10.75a4.55,4.55,0,0,1,3.79,4.59c0,2.95-2.25,5.42-6.36,5.42a8.5,8.5,0,0,1-4.41-1.13l.72-2.13a7.08,7.08,0,0,0,3.57,1c2.57,0,3.63-1.68,3.63-3.29,0-2.33-2-3.41-4.11-3.41H85.24v-2h1.17C88,9.84,90,8.91,90,6.91c0-1.41-.91-2.54-2.83-2.54A6.05,6.05,0,0,0,84,5.45l-.7-2a8.13,8.13,0,0,1,4.54-1.32c3.38,0,5,2,5,4.34a4.53,4.53,0,0,1-3.22,4.23Z"/><path class="cls-4" d="M96,11.5c0-5.91,2.24-9.36,6-9.36s5.74,3.69,5.74,9.17c0,6.12-2.21,9.45-5.93,9.45S96,17,96,11.5Zm8.91-.1c0-4.3-.91-7.06-3-7.06-1.82,0-3.07,2.55-3.07,7.06s1.11,7.13,3,7.13C104.2,18.53,104.92,15.15,104.92,11.4Z"/><path class="cls-4" d="M115.74,21.34h-2.4c.15-1.61.19-2.88.19-4.42V5.67a24,24,0,0,0-.21-3.37c1.44.12,2.66.17,7.46.17s6.2-.05,7.44-.17A22.93,22.93,0,0,0,128,5.67V17.26c0,1.32.07,2.52.19,3.91H125.8V19.59H115.74Zm10.06-17H115.74V9.91H125.8ZM115.74,17.71H125.8V11.79H115.74Z"/></g><g class="cls-3"><path class="cls-4" d="M367,2.42H378V4.18L370.79,20.5h-2.86l7.18-15.72v0H367Z"/><path class="cls-4" d="M387.42,14.07a12.23,12.23,0,0,1-3.65,8.18,4.59,4.59,0,0,0-2.33-1.34c2.86-2.19,4-4.78,4-10.3V4.85c0-1.51,0-2.43-.1-3.12,1.18.07,2.52.09,6.91.09s5.79,0,6.89-.09c-.07.69-.09,1.61-.09,3.12V18.94c0,2.4-.22,2.71-4.11,3.09a4,4,0,0,0-1.05-2.66c2.85.5,2.92.38,2.92-1.82V14.07Zm9.38-7V3.63h-9.31V7.1Zm-9.31,1.69v3.52h9.31V8.79Z"/><path class="cls-4" d="M407.39,11a4.58,4.58,0,0,1-2.69-4c0-2.88,2.33-4.8,5.35-4.8,3.46,0,5.06,2.28,5.06,4.46a4.67,4.67,0,0,1-2.78,4.18v.07a5.07,5.07,0,0,1,3.38,4.66c0,3.14-2.49,5.25-5.9,5.25-3.7,0-5.74-2.3-5.74-4.85A5.29,5.29,0,0,1,407.39,11Zm5.52,4.8c0-2-1.35-3.14-3.32-3.79a3.75,3.75,0,0,0-2.71,3.6,3,3,0,0,0,3,3.21A2.88,2.88,0,0,0,412.91,15.77Zm-5.57-9c0,1.65,1.17,2.64,2.88,3.22a3.47,3.47,0,0,0,2.25-3.12A2.49,2.49,0,0,0,410,4.08,2.52,2.52,0,0,0,407.34,6.77Z"/><path class="cls-4" d="M423.75,21.34h-2.4c.15-1.61.2-2.88.2-4.42V5.67a23.78,23.78,0,0,0-.22-3.37c1.44.12,2.66.17,7.46.17s6.2-.05,7.45-.17a22.64,22.64,0,0,0-.2,3.37V17.26c0,1.32.08,2.52.2,3.91h-2.43V19.59H423.75Zm10.06-17H423.75V9.91h10.06ZM423.75,17.71h10.06V11.79H423.75Z"/></g><g class="cls-3"><path class="cls-4" d="M679.81,20.5V5h0l-3,1.68-.62-2,4.08-2.19h2.35V20.5Z"/><path class="cls-4" d="M688.09,11.5c0-5.91,2.23-9.36,6-9.36s5.74,3.69,5.74,9.17c0,6.12-2.21,9.45-5.93,9.45S688.09,17,688.09,11.5Zm8.9-.1c0-4.3-.91-7.06-3-7.06-1.83,0-3.08,2.55-3.08,7.06s1.11,7.13,3,7.13C696.27,18.53,697,15.15,697,11.4Z"/><path class="cls-4" d="M709,14.07a12.27,12.27,0,0,1-3.65,8.18A4.59,4.59,0,0,0,703,20.91c2.86-2.19,4-4.78,4-10.3V4.85c0-1.51,0-2.43-.09-3.12,1.17.07,2.52.09,6.91.09s5.79,0,6.89-.09c-.07.69-.1,1.61-.1,3.12V18.94c0,2.4-.21,2.71-4.1,3.09a4,4,0,0,0-1.06-2.66c2.86.5,2.93.38,2.93-1.82V14.07Zm9.38-7V3.63H709V7.1ZM709,8.79v3.52h9.31V8.79Z"/><path class="cls-4" d="M726.08,2.42H737V4.18L729.82,20.5H727l7.17-15.72v0h-8.06Z"/><path class="cls-4" d="M745.3,21.34h-2.4c.15-1.61.19-2.88.19-4.42V5.67a24,24,0,0,0-.21-3.37c1.44.12,2.66.17,7.46.17s6.2-.05,7.44-.17a22.93,22.93,0,0,0-.19,3.37V17.26c0,1.32.07,2.52.19,3.91h-2.42V19.59H745.3Zm10.06-17H745.3V9.91h10.06ZM745.3,17.71h10.06V11.79H745.3Z"/></g><path class="cls-1" d="M713.45,59.31l33.16,24.63-33.16,24.62V91.81H694.8V76.06h18.65ZM718,43.94a40,40,0,1,0,28.29,11.71A40,40,0,0,0,718,43.94Z"/><g class="cls-3"><path d="M656.24,148.12v2.64c-3.15-.21-7.26-.3-13.11-.3s-10,.09-13.11.3v-2.64c3.18.21,5.76.3,9.45.3h5.19a37,37,0,0,0,2.31-4.86A17,17,0,0,0,650,144.7c.33.09.39.27-.18.51s-1.11.81-2.55,3.21C651,148.36,653.9,148.27,656.24,148.12Zm-21.69,22.71H632c.18-2.19.27-3.6.27-5.22V156a20.31,20.31,0,0,0-.21-3.24c1.38.12,3.81.21,5.73.21s4-.09,5.4-.21A24.68,24.68,0,0,0,643,156v11.88c0,2.34-.12,2.67-3.84,3.09a9.89,9.89,0,0,0-1.29-2.94c2.4.36,2.79.3,2.79-.84v-2.61h-6.12Zm6.12-15.78h-6.12v2.82h6.12Zm-6.12,7.59h6.12v-2.82h-6.12Zm3.36-14.76a9.48,9.48,0,0,0-1.8-3.09l2.67-1.23c.57,1,1.2,1.95,2,3.18ZM648,155.35v6.57c0,1.17.06,2.37.18,3.78h-2.67c.12-1.5.18-2.61.18-3.78V157a22.33,22.33,0,0,0-.18-3.3,11.94,11.94,0,0,0,2.58.24c.51,0,.6.3.15.57C648.08,154.69,648,154.93,648,155.35Zm5.28-1.83v14.7c0,2-.42,2.67-4.71,3.09a6.83,6.83,0,0,0-1.08-3.15c2.49.42,3.39.3,3.39-.51V156a16.51,16.51,0,0,0-.3-3.72,11.92,11.92,0,0,0,2.76.09c.63,0,.69.27.27.51S653.3,153.13,653.3,153.52Z"/><path d="M664.73,152a39.92,39.92,0,0,0-4.8.21V150c1.17.12,2.76.18,4.86.18a41.92,41.92,0,0,0,4.53-.18v2.25A35.49,35.49,0,0,0,664.73,152Zm1.53,2.13a7.28,7.28,0,0,0,2.49.48c.24,0,.33.09,0,.39-.15.15-1.26,4.62-2.43,9.72a26.39,26.39,0,0,0,3.06-1.08,6.44,6.44,0,0,0-.24,2.55,42.6,42.6,0,0,0-8.61,2.82,25.53,25.53,0,0,0-.57-3.12c1.59-.18,3.06-.42,4.47-.72A77.75,77.75,0,0,0,666.26,154.12Zm-4.56,8.31c.09-1.74-.36-6-.93-7.08l2.16-.48c.36,2,.87,5.4,1.08,7.23Zm2.13-12.84a12.29,12.29,0,0,0-1.11-4.2l2.76-.6a22.11,22.11,0,0,0,1.11,4.23Zm6.42,6.6v-2.37c1.86.18,4.35.24,7.92.24s6.12-.06,8-.24v2.37c-1.8-.18-4.14-.27-7.44-.27a22.34,22.34,0,0,0-.81,3c2.79,0,5.19-.09,7.65-.27-.09.72-.15,2-.15,2.61v7.11c0,1.62-.36,2-3.72,2.76a5.62,5.62,0,0,0-.87-2.64c2.1.06,2.4-.12,2.4-.93v-7h-2.58v4.32c0,1,0,2.19.12,3.12h-2.13a27.16,27.16,0,0,0,.15-3.12v-4.32h-2.16V165c0,1,0,2.25.12,3.12H674.6c.09-.84.15-2.1.15-3.12v-4.44h-2.13v10h-2.31a18.71,18.71,0,0,0,.21-3v-6.33a16,16,0,0,0-.21-2.58c1.65.15,3.54.21,5.64.24.24-1.17.39-2.1.54-3C673.79,156,671.78,156,670.25,156.19Zm6.42-9.66a21.63,21.63,0,0,0-.18-2.94,11.89,11.89,0,0,0,2.55.18c.42,0,.48.09.15.45a3.12,3.12,0,0,0-.33,1.71v4.38h3.69V147a9.64,9.64,0,0,0-.15-1.92,22.25,22.25,0,0,0,2.25.15c.36,0,.45.15.12.6-.18.24-.18,1.17-.18,6.36-1.62-.09-3.66-.15-6.9-.15s-5.07.06-6.45.15a15.25,15.25,0,0,0,.18-2.52V147a7.88,7.88,0,0,0-.18-1.86,11.71,11.71,0,0,0,2.28.06c.45-.06.48.15.15.51-.15.21-.27,1.26-.27,4.62h3.27Z"/><path d="M695.27,167.83a7.16,7.16,0,0,0-1.8,2.28,7.73,7.73,0,0,0-2-2.19,4.81,4.81,0,0,0,1.41-3.51v-9.36a30.88,30.88,0,0,0-3.6.15v-2.82a30.5,30.5,0,0,0,3.24.15,28,28,0,0,0,3.12-.15,18.77,18.77,0,0,0-.36,3.78v8.4a24.1,24.1,0,0,0,2.85-2.94,6.73,6.73,0,0,0,1.08,2.28Zm0-17.55A17.22,17.22,0,0,0,692,146l2.16-1.47c1.26,1.41,2.37,2.76,3.42,4.08Zm3.21,8.22v-2.58c1.95.18,4.77.24,7.77.24,2.64,0,5.34-.06,7.74-.24-1.86,4.41-3.3,7.08-5.13,9.33a20.66,20.66,0,0,0,7.86,2.07,6.91,6.91,0,0,0-1.59,3.3,30.27,30.27,0,0,1-8.07-3.69,28.52,28.52,0,0,1-8.67,4.38,12.28,12.28,0,0,0-2.13-2.58c4.11-.75,6.9-1.77,8.88-3.3a19.43,19.43,0,0,1-4.59-7.05C699.83,158.41,699.14,158.44,698.45,158.5Zm17.16-4.08c-6.24.06-6.54-.51-6.54-2.34v-5h-5.34c0,4.26-.45,6.09-3.36,8.37a4.7,4.7,0,0,0-2.34-1.71c3.36-1.8,3.72-3.39,3.06-9,1.08.12,3.12.18,5.49.18s4.08-.06,5.31-.18c-.33.84-.45,1.59-.57,6,0,1.14.51,1.92,4.89.78A5.29,5.29,0,0,0,715.61,154.42Zm-8.76,9.51a13.84,13.84,0,0,0,3.48-5.61h-7.44A13.75,13.75,0,0,0,706.85,163.93Z"/><path d="M727.07,167.38a24.86,24.86,0,0,0-2.7,3.33,16.27,16.27,0,0,0-2.1-2.46,4.17,4.17,0,0,0,1-3.15v-9.75a32.11,32.11,0,0,0-4.11.21v-2.91a25,25,0,0,0,3.54.21,30.68,30.68,0,0,0,3.51-.21,18.2,18.2,0,0,0-.39,3.9v8.76a28.2,28.2,0,0,0,3.51-4.26,9.56,9.56,0,0,0,1.2,2.88Zm-2-17.07a24.4,24.4,0,0,0-3-5.07l2.52-1.41a49.79,49.79,0,0,0,3.15,4.92Zm21.63,2.1v3c-1.8-.12-4-.24-7-.24v10.65c0,1.5.06,3.15.27,5.4h-3.33a53.85,53.85,0,0,0,.27-5.4V155.14c-3.57,0-6,.12-8,.27v-3c2,.15,4.47.24,8,.27v-4.59a23.91,23.91,0,0,0-.33-4.59,14,14,0,0,0,3.33.24c.75,0,.87.24.21.63-.33.18-.42.6-.42,2.22v6.09C742.73,152.65,744.92,152.56,746.72,152.41Z"/><path d="M751.37,159.64v-2.73c3.12.21,6.27.3,12,.3s8.94-.09,12-.3v2.73c-2.79-.21-5.49-.3-8.25-.3v6.93c0,1.14.15,1.26,2.52,1.26s2.94-.63,3.51-3.72a7.15,7.15,0,0,0,2.7,1.62c-1.11,3.81-1.92,4.38-6.3,4.38-3.72,0-4.92-.6-4.92-2.4v-8.07h-3.48c-.21,7.29-2.49,9.6-8.85,11.55a13,13,0,0,0-1.86-2.73c5.82-.93,8.22-2.79,8.22-8.82C756.38,159.37,753.89,159.46,751.37,159.64Zm10.23-16,3-.54a29.21,29.21,0,0,0,1.2,3.69c5.31,0,7.29-.06,9.18-.18v5.88h-2.49V149H754.25v4h-2.49v-6.27c2.1.12,4.26.18,11,.18A15.42,15.42,0,0,0,761.6,143.68Zm-5.55,10.83V151.9a66.41,66.41,0,0,0,7.26.27c2.94,0,5.73-.09,7.29-.27v2.61a66.68,66.68,0,0,0-7.29-.27A72.12,72.12,0,0,0,756.05,154.51Z"/><path d="M784.94,151.27v4.17a58.73,58.73,0,0,0,7.38-.27l-.42,8.07c-.18,2.19-.84,2.64-5,3.57a6.12,6.12,0,0,0-1.11-3.06c3.09.54,3.84.27,3.84-1.2l.27-5.19h-5c-.15,6.72-.75,8.73-3,12.81a6.5,6.5,0,0,0-2.64-1.23c2.91-3.6,3.63-6.9,3.15-20.16,1.08.15,4.38.3,11.22.3-.18-1.86-.33-3.93-.45-5.49a14,14,0,0,0,2.94.18c.69-.06.81.09.3.66-.27.3-.36,2-.27,4.65,5.46,0,7.86-.18,9-.3v2.79c-1.17-.12-4.11-.3-8.88-.3a34,34,0,0,0,1.86,9.66,23.59,23.59,0,0,0,2.49-7.68,14.05,14.05,0,0,0,2.82,1.17c.48.15.48.36,0,.54a4.48,4.48,0,0,0-1,1.74,24.15,24.15,0,0,1-3.09,6.66c3.54,5.64,4.41,5.55,4.86,1.29a4.9,4.9,0,0,0,2.55,1.86c-1.77,5.25-2.43,5.55-5.22,3.33a20.66,20.66,0,0,1-3.75-4.41,30.11,30.11,0,0,1-6.24,5.37,4.29,4.29,0,0,0-2-2.1,18.3,18.3,0,0,0,7.11-5.46c-1.47-3.06-1.8-4.47-2.79-12Zm15.48-2.82a12.62,12.62,0,0,0-1.77-3.33L801,144a18.35,18.35,0,0,1,1.92,3.24Z"/></g><g class="cls-3"><path d="M610.23,198.69v-1.82c2.08.14,4.18.2,8,.2s6-.06,8-.2v1.82c-1.86-.14-3.66-.2-5.5-.2v4.62c0,.76.1.84,1.68.84s2-.42,2.34-2.48a4.76,4.76,0,0,0,1.8,1.08c-.74,2.54-1.28,2.92-4.2,2.92-2.48,0-3.28-.4-3.28-1.6v-5.38h-2.32c-.14,4.86-1.66,6.4-5.9,7.7a8.65,8.65,0,0,0-1.24-1.82c3.88-.62,5.48-1.86,5.48-5.88C613.57,198.51,611.91,198.57,610.23,198.69ZM617.05,188l2-.36a19.47,19.47,0,0,0,.8,2.46c3.54,0,4.86,0,6.12-.11V194h-1.66v-2.38H612.15v2.64h-1.66V190c1.4.07,2.84.11,7.3.11A10.5,10.5,0,0,0,617.05,188Zm-3.7,7.23v-1.74a44.28,44.28,0,0,0,4.84.18c2,0,3.82-.06,4.86-.18v1.74a44.46,44.46,0,0,0-4.86-.18A48.08,48.08,0,0,0,613.35,195.27Z"/><path d="M632.61,193.11v2.78a39.15,39.15,0,0,0,4.92-.18l-.28,5.38c-.12,1.46-.56,1.76-3.34,2.38a4.08,4.08,0,0,0-.74-2c2.06.36,2.56.18,2.56-.8l.18-3.46h-3.32c-.1,4.48-.5,5.82-2,8.54a4.33,4.33,0,0,0-1.76-.82c1.94-2.4,2.42-4.6,2.1-13.44.72.09,2.92.2,7.48.2-.12-1.24-.22-2.63-.3-3.67a9.3,9.3,0,0,0,2,.12c.46,0,.54.06.2.44a8.54,8.54,0,0,0-.18,3.11c3.64,0,5.24-.12,6-.2v1.86c-.78-.08-2.74-.2-5.92-.2a22.69,22.69,0,0,0,1.24,6.44,15.73,15.73,0,0,0,1.66-5.12,9.37,9.37,0,0,0,1.88.78c.32.1.32.24,0,.36a3,3,0,0,0-.66,1.16,16.1,16.1,0,0,1-2.06,4.44c2.36,3.76,2.94,3.7,3.24.86a3.27,3.27,0,0,0,1.7,1.24c-1.18,3.5-1.62,3.7-3.48,2.22a13.77,13.77,0,0,1-2.5-2.94,20.08,20.08,0,0,1-4.16,3.58,2.86,2.86,0,0,0-1.34-1.4,12.2,12.2,0,0,0,4.74-3.64c-1-2-1.2-3-1.86-8Zm10.32-1.88a8.32,8.32,0,0,0-1.18-2.23l1.58-.76a12,12,0,0,1,1.28,2.17Z"/><path d="M656,191.81c1.34,0,2,0,2.58,0-.7,4.66-1.9,7.84-3.32,9.76,1.9,2,4.84,2.58,11.74,2.2a4.57,4.57,0,0,0-.74,2.08c-6.82.06-9.86-.82-11.94-3.2a37,37,0,0,1-3.78,3.38,6.91,6.91,0,0,0-1.76-1.58c1.34-.3,2.72-1.06,4.68-3a20.45,20.45,0,0,1-1.92-5.18,23,23,0,0,1-1.4,2.54,8.67,8.67,0,0,0-1.52-.94c2.06-2.28,3.54-6.8,3.9-9.69a14.79,14.79,0,0,0,1.8.64c.36.06.4.22.12.39a2.91,2.91,0,0,0-.76,1.54c-.1.38-.22.71-.34,1.06Zm.76,1.42h-3.92a28.88,28.88,0,0,1-1.14,2.7l1.56-.1a10.88,10.88,0,0,0,1.12,4.48A17.17,17.17,0,0,0,656.77,193.23Zm4.74-3.86v10.76a22,22,0,0,0,.18,3.08h-1.92a26.16,26.16,0,0,0,.14-3.08v-9.46a11.85,11.85,0,0,0-.18-2.49,10.56,10.56,0,0,0,1.94.18c.38,0,.44.16.08.35S661.51,189,661.51,189.37Zm3.92,8.3a39.45,39.45,0,0,0-3.6-3.92l1.2-1c1.3,1.22,2.42,2.36,3.86,3.88Z"/><path d="M669.29,191.33v-1.69a41.14,41.14,0,0,0,6.28,0v1.69c-.56-.06-1.4-.12-2.4-.16v4.28a18.91,18.91,0,0,0,2.18-.14V197c-.54-.06-1.28-.12-2.18-.14v4.76a15.23,15.23,0,0,0,2.18-.94,5.81,5.81,0,0,0,0,1.76,22.68,22.68,0,0,0-6,2.62,6.38,6.38,0,0,0-.54-2.44,14.31,14.31,0,0,0,2.8-.5v-5.26a21,21,0,0,0-2.3.14v-1.7a20.26,20.26,0,0,0,2.3.16v-4.28C670.65,191.21,669.85,191.27,669.29,191.33Zm12.4,12.56c2.28,0,4-.08,5.28-.16v1.7c-1.48-.12-3.4-.18-6.1-.18s-4.9.06-6.36.18v-1.7c1.36.08,3.26.14,5.66.16v-2.2a31,31,0,0,0-3.84.2v-1.72a35.29,35.29,0,0,0,3.84.22v-2a39.64,39.64,0,0,0-4.1.12c.06-1.12.12-3,.12-4.7s-.06-3.77-.12-4.63a31.26,31.26,0,0,0,4.94.16,29.67,29.67,0,0,0,4.92-.16c-.06.89-.1,2.79-.1,4.63,0,1.68.08,3.56.14,4.7a29.12,29.12,0,0,0-4.28-.12v2a38.14,38.14,0,0,0,4.08-.22v1.72a39.5,39.5,0,0,0-4.08-.2Zm-1.52-13.22h-2.5v2.5h2.5Zm0,3.76h-2.5v2.66h2.5Zm1.52-1.26h2.6v-2.5h-2.6Zm0,3.92h2.6v-2.66h-2.6Z"/><path d="M706.19,195.25v1.62c-1.56-.08-3.8-.14-6.52-.18,1.56,1.14,3.64,1.68,7,1.6a3.37,3.37,0,0,0-.52,1.6c-4.48-.34-6.86-1.32-8-3.2h-.28c-.82,1.8-3,2.72-7.82,3.32a4,4,0,0,0-.74-1.32c3.6-.12,5.92-.88,6.92-2-2.78,0-4.66.08-6.32.18v-1.62c1.8.1,3.8.16,6.92.16a8,8,0,0,0,.2-1.48,6.46,6.46,0,0,0,1.84.14c.32,0,.34.16.06.32s-.36.32-.62,1C701.67,195.41,704.39,195.35,706.19,195.25Zm-12.06-1.66a30.34,30.34,0,0,0-3.14.1,17.42,17.42,0,0,0,.14-2.36A15.64,15.64,0,0,0,691,189a20.15,20.15,0,0,0,3.14.16,19.08,19.08,0,0,0,3.1-.16,20.24,20.24,0,0,0-.1,2.32,21.27,21.27,0,0,0,.1,2.37A23.08,23.08,0,0,0,694.13,193.59Zm-1.44,11.18V206h-1.64a9.05,9.05,0,0,0,.1-1.48v-3a7.75,7.75,0,0,0-.1-1.52,19.43,19.43,0,0,0,3.06.14,16.61,16.61,0,0,0,3-.14,7,7,0,0,0-.1,1.52v2.86a10.46,10.46,0,0,0,.12,1.48h-1.66v-1.1Zm2.88-14.39h-2.9v2h2.9Zm-.06,13.21v-2.24h-2.82v2.24Zm4.62,1.1v1.14h-1.62a8.9,8.9,0,0,0,.1-1.48v-2.92a9.72,9.72,0,0,0-.1-1.52,23.52,23.52,0,0,0,3.3.14,18.88,18.88,0,0,0,3.3-.14,8.33,8.33,0,0,0-.1,1.52v2.86a10.7,10.7,0,0,0,.12,1.48h-1.66v-1.08Zm1.94-11.18c-1.6,0-2.48,0-3.28.1a22.63,22.63,0,0,0,.12-2.44,15.76,15.76,0,0,0-.12-2.25,22.44,22.44,0,0,0,3.28.16,21,21,0,0,0,3.24-.16c-.06.62-.1,1.42-.1,2.25a23,23,0,0,0,.1,2.46A30.4,30.4,0,0,0,702.07,193.51Zm1.4,10v-2.32h-3.34v2.32Zm.2-13.2h-3.26v2h3.26Zm-1.9,5a4.46,4.46,0,0,0-1.14-1l1.46-.76c.44.3.74.56,1.2.94Z"/><path d="M709.63,201.93a7.73,7.73,0,0,0-1-1.9,16.88,16.88,0,0,0,3.2-6.24,25.76,25.76,0,0,0-2.64.16v-1.76a21.32,21.32,0,0,0,2.64.16,30,30,0,0,0-.16-4.29,9.75,9.75,0,0,0,1.82.16c.5,0,.5.12.12.38a.56.56,0,0,0-.22.54v3.21a17,17,0,0,0,2.36-.16V194a17.5,17.5,0,0,0-2.36-.14v2.76l1.1-.48c.5.84,1,1.72,1.62,2.6l-1.44.82a18.66,18.66,0,0,0-1.28-2.64v5.76c0,1.38.06,2.46.16,3.76h-1.9c.12-1.3.18-2.4.18-3.76v-5.14A20.28,20.28,0,0,1,709.63,201.93Zm13.56-8.2a8,8,0,0,0,1.72.66c.34.08.36.28.08.34s-.44.16-.76.6a23.45,23.45,0,0,1-7.7,7.52,5.69,5.69,0,0,0-1.56-1.22,17.84,17.84,0,0,0,6-4.36,16.08,16.08,0,0,0-4.12.52,6.71,6.71,0,0,0-.42-1.5c.86-.32,1.4-.78,3.22-3.9a7.47,7.47,0,0,0,1.68.76c.34.12.32.24,0,.32s-.72.54-2.8,2.74c1,0,2.2,0,3.26-.1A18.27,18.27,0,0,0,723.19,193.73Zm3.8,10.8-1.5,1.22a25.54,25.54,0,0,0-2.88-3.2,17.68,17.68,0,0,1-6.08,3.8,4.82,4.82,0,0,0-1.26-1.44,15.84,15.84,0,0,0,7.08-4.26,10.36,10.36,0,0,0,2.18-3.46,9.28,9.28,0,0,0,1.64.7c.36.1.38.28.14.36a1.35,1.35,0,0,0-.68.62,20.56,20.56,0,0,1-2,2.6A20.68,20.68,0,0,1,727,204.53Zm-5.4-12.3c-2.18,0-4.22.06-5.4.16v-1.67c1.2.11,3.22.16,5.4.16s4.2,0,5.38-.16v1.67C725.79,192.29,723.75,192.23,721.59,192.23Zm-1.08-1.9a10.36,10.36,0,0,0-.68-2l1.68-.44c.24.66.5,1.24.84,2Z"/><path d="M746.85,196.47v1.86c-1-.06-2.92-.12-4.6-.14v4.68c0,1,.08,2.3.2,3.5h-2.2c.12-1.2.2-2.52.2-3.5v-4.7h-4.14a11.12,11.12,0,0,1-4.94,8.28,4.43,4.43,0,0,0-2-1.36,8.3,8.3,0,0,0,5.22-6.92c-2.08,0-4,.12-5.22.22v-1.86c1.32.1,3,.14,5.24.14v-5.59a34.29,34.29,0,0,0-4,.21v-1.88c1,.13,3.64.19,7.58.19a64.68,64.68,0,0,0,7.6-.19v1.88a32.56,32.56,0,0,0-3.5-.18v5.54C743.93,196.63,745.79,196.57,746.85,196.47Zm-6.4.2v-5.59h-4.12v5.59Z"/><path d="M751.07,194.93a3.27,3.27,0,0,0-.62-1.76,7,7,0,0,0,2-4.19,9.1,9.1,0,0,0,1.78.6c.22,0,.26.17.06.3a17.14,17.14,0,0,0-1.54,2.83h3.36a16.49,16.49,0,0,0,.76-4.43,11.26,11.26,0,0,0,2.28.14c.24,0,.28.08.08.22a3.75,3.75,0,0,0-.6,1.16,26.66,26.66,0,0,0-.92,2.91,60.93,60.93,0,0,0,8.48-.44v1.94c-1.24-.12-3-.14-5.72-.14h-3.1a15.08,15.08,0,0,1-.8,2.2h4c1.14,0,2.78,0,3.9-.12-1.28,3.3-2.28,4.94-3.86,6.4,1.36.78,2.78,1,6.44,1.16a4.73,4.73,0,0,0-1.14,2.1,14.22,14.22,0,0,1-6.56-2.22,18,18,0,0,1-6.68,2.62,6.25,6.25,0,0,0-1.16-1.5,21.12,21.12,0,0,0,6.46-2.18,21.72,21.72,0,0,1-3.08-3.32,19.68,19.68,0,0,1-4.44,4.48,3.17,3.17,0,0,0-1.64-1.54c2.88-1.08,5.74-4.54,6.9-8.08C753,194.11,751.85,194.39,751.07,194.93Zm8.2,6.7a9,9,0,0,0,2.56-3.9h-6l-.12.2A15.12,15.12,0,0,0,759.27,201.63Zm3.3-9.3a7.63,7.63,0,0,0-1.88-2.46l1.32-1.11a16,16,0,0,0,2.22,2.45Z"/><path d="M770.29,191.25a2.81,2.81,0,0,0-.74-1.5,24.55,24.55,0,0,0,4.4-.62,8.59,8.59,0,0,0,2.68-1,4.11,4.11,0,0,0,1,1.7c.42.41.36.5-.06.42a7.35,7.35,0,0,0-2.72.23V194a28,28,0,0,0,3.08-.16v1.66c-.62-.08-1.86-.12-3.08-.14v7.6c0,1,.08,2.24.18,3.44h-1.92c.1-1.2.16-2.46.16-3.44v-5.34a20.53,20.53,0,0,1-3.1,5.68,9.06,9.06,0,0,0-1.34-1.56,20.62,20.62,0,0,0,4.14-6.4,23.67,23.67,0,0,0-3.5.16v-1.66a21.94,21.94,0,0,0,3.8.16v-3.22C771.93,191,771.15,191.15,770.29,191.25Zm6.52,9.76a18.39,18.39,0,0,0-1.84-3l1.1-.94c.74,1,1.54,2.16,2.08,3Zm3.7,3.2h-1.8a20.85,20.85,0,0,0,.16-2.72v-9.62a6.78,6.78,0,0,0-.12-1.58c1.54.09,2.38.12,3.7.12,1,0,2.56,0,3.68-.12a7.11,7.11,0,0,0-.12,1.58V201a22.13,22.13,0,0,0,.14,2.72h-1.78v-1.78h-3.86Zm3.86-12.36h-3.86v8.68h3.86Z"/><path d="M793.47,201.77a28.88,28.88,0,0,0-4.3.8,9.46,9.46,0,0,0-.3-1.78,27.18,27.18,0,0,0,4.72-.48A3.92,3.92,0,0,0,793.47,201.77Zm2.68-4.72c-.14,2.06-.34,4.5-.46,5.58-.32,2.64-.44,2.86-3.82,3.34a5.68,5.68,0,0,0-.66-1.84c2.36.22,2.72,0,2.92-1.26.16-1,.36-3.08.42-4.24a29.7,29.7,0,0,0-4.62.18c.14-1.24.4-5.68.36-6.81a5.68,5.68,0,0,0,1.7.23c.36,0,.4.12.16.3a.83.83,0,0,0-.3.66l-.42,4.08h1.86l.8-6.58a28.64,28.64,0,0,0-4.62.22V189a31.89,31.89,0,0,0,3.2.17,29.08,29.08,0,0,0,3.06-.17l-1,8.17A6.33,6.33,0,0,0,796.15,197.05Zm2.24-3a17.3,17.3,0,0,0,2.78.16A16.09,16.09,0,0,0,804,194v1.62a23,23,0,0,0-2.86-.12,14.63,14.63,0,0,0-2.82.2v-1.64c-.46.54-1,1.08-1.6,1.66a3.93,3.93,0,0,0-1.3-1A11.94,11.94,0,0,0,799,190.5a10.17,10.17,0,0,0,1.06-2.68,13.08,13.08,0,0,0,2.12.6c.3,0,.32.25,0,.36a1.65,1.65,0,0,0-.26.14,8.63,8.63,0,0,0,5.36,4.69,5.26,5.26,0,0,0-1.22,1.78,9.55,9.55,0,0,1-4.84-5.76A24.27,24.27,0,0,1,798.39,194Zm5.18,2.86a12.81,12.81,0,0,0,2,.64c.24.06.24.16-.06.34a2.21,2.21,0,0,0-.62,1.1c-.64,2-1.24,3.64-1.78,5a17.77,17.77,0,0,0,2.88-.18v1.76a39,39,0,0,0-4.8-.18,37.29,37.29,0,0,0-4.86.18v-1.76a24.56,24.56,0,0,0,3.08.18h2.32A31.9,31.9,0,0,0,803.57,196.89Zm-5.78,5.7a32.1,32.1,0,0,0-.88-5.06l1.32-.26c.2,1.08.78,3.86,1,5Zm2.52-.9a45.29,45.29,0,0,0-.6-4.56l1.44-.24c.14,1.22.4,3.22.64,4.56Z"/><path d="M813.17,204a14.06,14.06,0,0,0-1.22,1.76,8.16,8.16,0,0,0-1.44-1.44c.58-.52.72-.8.72-2.18v-6.5a20.09,20.09,0,0,0-2.4.1v-1.82a13.14,13.14,0,0,0,2,.1,17.08,17.08,0,0,0,2.22-.1,11.52,11.52,0,0,0-.2,2.82v5.4c.66-.78,1.08-1.3,1.7-2.16a2.82,2.82,0,0,0,.92,1.42Zm-.94-11.72a11.41,11.41,0,0,0-1.88-3.23l1.58-.93c.62,1,1.38,2.25,2,3.16Zm4,4.44a13.25,13.25,0,0,0-.14-2.24,15.12,15.12,0,0,0,2.08.18c.26,0,.34.2,0,.44a.9.9,0,0,0-.24.72v7.76h2.28V191.13c-2,0-3.52.08-4.66.2v-1.85c1.28.12,3,.19,5.36.19s4.08-.09,5.34-.19v1.85c-1.08-.12-2.48-.18-4.36-.2v4.68h1.64a16.06,16.06,0,0,0,2.48-.18v1.82a24,24,0,0,0-2.48-.1h-1.64v6.24a28.41,28.41,0,0,0,5.16-.24v2a50.67,50.67,0,0,0-6.5-.18,49.94,49.94,0,0,0-6.26.18v-2a11.36,11.36,0,0,0,2,.22Z"/></g><path class="cls-1" d="M1028.3,59.31l33.16,24.63-33.16,24.62V91.81h-18.66V76.06h18.66Zm4.5-15.37a40,40,0,1,0,28.28,11.72A40,40,0,0,0,1032.8,43.94Z"/><g class="cls-3"><path d="M986.49,149.41a8.48,8.48,0,0,0-4.08-1c-2.73,0-3.87,1.59-3.87,3.06,0,2,1.29,2.91,4.2,4.17,3.69,1.62,5.46,3.63,5.46,6.78,0,3.84-2.85,6.72-8,6.72a11.17,11.17,0,0,1-5.55-1.38l.78-2.91a10,10,0,0,0,5,1.35c2.73,0,4.26-1.41,4.26-3.48s-1.17-3.15-3.9-4.29C977.34,157,975,155,975,151.84c0-3.63,2.91-6.36,7.47-6.36a10.68,10.68,0,0,1,4.83,1.05Z"/><path d="M1006,160.39c0,6.18-4,8.73-7.74,8.73-4.29,0-7.56-3.15-7.56-8.49,0-5.58,3.42-8.73,7.8-8.73S1006,155.32,1006,160.39Zm-7.62-5.88c-3,0-4.11,3.18-4.11,6,0,3.24,1.53,6,4.08,6s4.08-2.73,4.08-6C1002.42,157.75,1001.28,154.51,998.37,154.51Z"/><path d="M1024.47,168.16a13.18,13.18,0,0,1-5.4,1c-6.39,0-10.68-4.23-10.68-11.55,0-7.8,4.92-12.06,11.28-12.06a11.12,11.12,0,0,1,4.89.9l-.75,2.85a9.45,9.45,0,0,0-4-.84c-4.44,0-7.74,3-7.74,9,0,5.64,2.94,8.79,7.68,8.79a10.26,10.26,0,0,0,4.14-.81Z"/><path d="M1036,155.08a6,6,0,0,0-2.19-1.32,23.21,23.21,0,0,0,4.56-5.25,20.21,20.21,0,0,0,2-4.5,9.87,9.87,0,0,0,2.37.9c.63.12.69.27,0,.75a8.43,8.43,0,0,0-1.62,2.1h7.35c6.54,0,9.06-.06,10.11-.15v1.92c-1.11-.06-3.36-.15-9.57-.15v2c5.28,0,7-.06,7.92-.15v1.86c-1-.06-2.58-.15-7.92-.15v1.86c5.52,0,7.2-.06,8.22-.15v1.86c-1-.09-2.61-.15-8.22-.15v2c6.09,0,8.49-.06,9.57-.15v2c-1.14-.06-3.57-.15-10.2-.15h-8.31v1.29h-2.34a25.15,25.15,0,0,0,.18-3.15v-5.55A29.36,29.36,0,0,1,1036,155.08Zm-1.29,9.42v-2.13c3,.18,6,.27,11.79.27a13.61,13.61,0,0,0-.12-2,25.88,25.88,0,0,0,2.64.09c.57,0,.72.27.18.51a.66.66,0,0,0-.42.66v.72c5.43,0,8.43,0,11.31-.15v2c-2.79-.12-5.67-.18-9.06-.18,2.16,2.31,5.76,3.54,9.21,3.57a5.71,5.71,0,0,0-1.2,2.64c-3.75-.69-7.59-2.58-9.66-6.21h-.6v4.26a24.06,24.06,0,0,0,.15,2.49h-2.58a18.7,18.7,0,0,0,.18-2.49v-4.26h-.69c-1.83,2.43-5.13,4.65-9.57,6.51a6.2,6.2,0,0,0-2.07-2.19c3.39-.87,7.86-2.79,9.78-4.32C1040.7,164.29,1037.67,164.32,1034.7,164.5Zm12.21-13.14v-2h-6.81v2Zm-6.81,3.42h6.81v-1.86h-6.81Zm0,3.57h6.81v-2h-6.81Zm8.31-10.83a12.73,12.73,0,0,0-2.28-2.31l2.22-1.53a17.88,17.88,0,0,0,2.4,2.34Z"/><path d="M1069.23,151.27v4.17a58.73,58.73,0,0,0,7.38-.27l-.42,8.07c-.18,2.19-.84,2.64-5,3.57a6.12,6.12,0,0,0-1.11-3.06c3.09.54,3.84.27,3.84-1.2l.27-5.19h-5c-.15,6.72-.75,8.73-3,12.81a6.5,6.5,0,0,0-2.64-1.23c2.91-3.6,3.63-6.9,3.15-20.16,1.08.15,4.38.3,11.22.3-.18-1.86-.33-3.93-.45-5.49a14,14,0,0,0,2.94.18c.69-.06.81.09.3.66-.27.3-.36,2-.27,4.65,5.46,0,7.86-.18,9-.3v2.79c-1.17-.12-4.11-.3-8.88-.3a34,34,0,0,0,1.86,9.66,23.59,23.59,0,0,0,2.49-7.68,14.05,14.05,0,0,0,2.82,1.17c.48.15.48.36,0,.54a4.48,4.48,0,0,0-1,1.74,24.15,24.15,0,0,1-3.09,6.66c3.54,5.64,4.41,5.55,4.86,1.29a4.9,4.9,0,0,0,2.55,1.86c-1.77,5.25-2.43,5.55-5.22,3.33a20.66,20.66,0,0,1-3.75-4.41,30.11,30.11,0,0,1-6.24,5.37,4.29,4.29,0,0,0-2-2.1,18.3,18.3,0,0,0,7.11-5.46c-1.47-3.06-1.8-4.47-2.79-12Zm15.48-2.82a12.62,12.62,0,0,0-1.77-3.33l2.37-1.14a18.35,18.35,0,0,1,1.92,3.24Z"/></g><g class="cls-3"><path d="M944.89,190.17l1.26-.79a44.2,44.2,0,0,1,3.78,3l-1.26,1.2a8.71,8.71,0,0,0-.7-.8l-5.08.08c-.36.7-.66,1.22-1,1.72h4.18c2.9,0,4.62-.06,5.7-.18V196c-.92-.08-2.46-.16-4.9-.18a8.62,8.62,0,0,0,5.38,2.82,4.42,4.42,0,0,0-1.18,1.78,10.57,10.57,0,0,1-5.64-4.6h-4.36a18.47,18.47,0,0,1-5.46,4.7,13.06,13.06,0,0,0-1.18-1.24,13.49,13.49,0,0,0,5-3.46c-2.06,0-3.52.1-4.64.18v-1.56c1.26.12,2.86.18,5.48.18a9,9,0,0,0,.84-1.68c-1.44,0-3.18.18-3.68.26a6,6,0,0,0-.46-1.52,5.83,5.83,0,0,0,1.86-.68,10,10,0,0,0,2.82-3.15,7.89,7.89,0,0,0,1.78.87c.56.11.58.27,0,.54a7.17,7.17,0,0,0-1.4.87,11.5,11.5,0,0,1-2.4,1.65h7.24C946.35,191.31,945.73,190.8,944.89,190.17Zm4.44,11.28c-.16,0-.44.2-1.6,1.18-2.4,2-4.66,3.14-10.62,3.84a2.56,2.56,0,0,0-.82-1.44c6.44-.3,9-2.06,11.9-5a7.13,7.13,0,0,0,1.28.92C949.83,201.13,949.73,201.39,949.33,201.45ZM947,199.59a12.35,12.35,0,0,0-1.68,1.16,17.61,17.61,0,0,1-7,2.84,3.74,3.74,0,0,0-1.08-1.3,14,14,0,0,0,8.8-4,2.26,2.26,0,0,0,1.08.9C947.49,199.31,947.37,199.59,947,199.59Zm-2.12-1.78a6.7,6.7,0,0,0-1.78,1,17.87,17.87,0,0,1-4.38,2.12,5.76,5.76,0,0,0-.94-1.1,15.83,15.83,0,0,0,6-3.34,4.66,4.66,0,0,0,1.22,1C945.39,197.61,945.27,197.81,944.85,197.81Z"/><path d="M960.71,201.59c-2.5,0-4.26.06-5.64.18v-1.88c1.36.12,3.14.16,5.64.16s4.44-.08,5.8-.22v1.94C965.15,201.67,963.21,201.59,960.71,201.59Zm-1.26-6h6.1a36.21,36.21,0,0,0,4.82-.24c-.1,1.58-.32,4.06-.56,6.48-.36,3.64-.6,4-4.6,4.5a5.09,5.09,0,0,0-.84-2c3.52.34,3.72.22,4.06-7.24h-5.76c-1.54,0-3.42.08-5,.24a60.88,60.88,0,0,0,.18-9,7.72,7.72,0,0,0,2.2.26c.28,0,.34.08.06.42a6.17,6.17,0,0,0-.36,2h5.34c2.7,0,4.54-.08,5.88-.2v1.87c-1.18-.1-3.18-.2-5.88-.2h-5.48C959.51,193.39,959.47,194.49,959.45,195.55Z"/><path d="M984.79,192.37a1.62,1.62,0,1,1-1.62-1.62A1.61,1.61,0,0,1,984.79,192.37Zm0,9.64a1.62,1.62,0,1,1-1.62-1.62A1.61,1.61,0,0,1,984.79,202Z"/><path d="M1001.93,191.87a5.54,5.54,0,0,0-2.72-.68c-1.82,0-2.58,1.06-2.58,2,0,1.3.86,1.94,2.8,2.78,2.46,1.08,3.64,2.42,3.64,4.52,0,2.56-1.9,4.48-5.34,4.48a7.44,7.44,0,0,1-3.7-.92l.52-1.94a6.68,6.68,0,0,0,3.32.9c1.82,0,2.84-.94,2.84-2.32s-.78-2.1-2.6-2.86c-2.28-.92-3.82-2.3-3.82-4.38,0-2.42,1.94-4.24,5-4.24a7,7,0,0,1,3.22.7Z"/><path d="M1014.93,199.19c0,4.12-2.68,5.82-5.16,5.82-2.86,0-5-2.1-5-5.66,0-3.72,2.28-5.82,5.2-5.82S1014.93,195.81,1014.93,199.19Zm-5.08-3.92c-2,0-2.74,2.12-2.74,4,0,2.16,1,4,2.72,4s2.72-1.82,2.72-4C1012.55,197.43,1011.79,195.27,1009.85,195.27Z"/><path d="M1027.25,204.37a8.79,8.79,0,0,1-3.6.64c-4.26,0-7.12-2.82-7.12-7.7,0-5.2,3.28-8.05,7.52-8.05a7.22,7.22,0,0,1,3.26.61l-.5,1.9a6.15,6.15,0,0,0-2.68-.56c-3,0-5.16,2-5.16,6,0,3.76,2,5.86,5.12,5.86a6.84,6.84,0,0,0,2.76-.54Z"/><path d="M1034.93,195.65a4,4,0,0,0-1.46-.88,15.47,15.47,0,0,0,3-3.5,13.35,13.35,0,0,0,1.34-3,6.58,6.58,0,0,0,1.58.6c.42.08.46.18,0,.51a5.26,5.26,0,0,0-1.08,1.39h4.9c4.36,0,6,0,6.74-.09V192c-.74,0-2.24-.1-6.38-.1v1.32c3.52,0,4.64,0,5.28-.1v1.24c-.7,0-1.72-.1-5.28-.1v1.24c3.68,0,4.8,0,5.48-.1v1.24c-.7-.06-1.74-.1-5.48-.1v1.34c4.06,0,5.66,0,6.38-.1v1.32c-.76,0-2.38-.1-6.8-.1h-5.54v.86h-1.56a16.76,16.76,0,0,0,.12-2.1V194A19.58,19.58,0,0,1,1034.93,195.65Zm-.86,6.28v-1.42c2,.12,4,.18,7.86.18a9.07,9.07,0,0,0-.08-1.32,17.25,17.25,0,0,0,1.76.06c.38,0,.48.18.12.34a.44.44,0,0,0-.28.44v.48c3.62,0,5.62,0,7.54-.1v1.34c-1.86-.08-3.78-.12-6-.12a8.68,8.68,0,0,0,6.14,2.38,3.81,3.81,0,0,0-.8,1.76,9.09,9.09,0,0,1-6.44-4.14h-.4v2.84a16,16,0,0,0,.1,1.66h-1.72a12.47,12.47,0,0,0,.12-1.66v-2.84h-.46a15.38,15.38,0,0,1-6.38,4.34,4.13,4.13,0,0,0-1.38-1.46,21.24,21.24,0,0,0,6.52-2.88C1038.07,201.79,1036.05,201.81,1034.07,201.93Zm8.14-8.76v-1.32h-4.54v1.32Zm-4.54,2.28h4.54v-1.24h-4.54Zm0,2.38h4.54v-1.34h-4.54Zm5.54-7.22a8.22,8.22,0,0,0-1.52-1.55l1.48-1a11.92,11.92,0,0,0,1.6,1.56Z"/><path d="M1057.09,193.11v2.78a39.15,39.15,0,0,0,4.92-.18l-.28,5.38c-.12,1.46-.56,1.76-3.34,2.38a4.08,4.08,0,0,0-.74-2c2.06.36,2.56.18,2.56-.8l.18-3.46h-3.32c-.1,4.48-.5,5.82-2,8.54a4.33,4.33,0,0,0-1.76-.82c1.94-2.4,2.42-4.6,2.1-13.44.72.09,2.92.2,7.48.2-.12-1.24-.22-2.63-.3-3.67a9.3,9.3,0,0,0,2,.12c.46,0,.54.06.2.44a8.54,8.54,0,0,0-.18,3.11c3.64,0,5.24-.12,6-.2v1.86c-.78-.08-2.74-.2-5.92-.2a22.69,22.69,0,0,0,1.24,6.44,15.73,15.73,0,0,0,1.66-5.12,9.37,9.37,0,0,0,1.88.78c.32.1.32.24,0,.36a3,3,0,0,0-.66,1.16,16.1,16.1,0,0,1-2.06,4.44c2.36,3.76,2.94,3.7,3.24.86a3.27,3.27,0,0,0,1.7,1.24c-1.18,3.5-1.62,3.7-3.48,2.22a13.77,13.77,0,0,1-2.5-2.94,20.08,20.08,0,0,1-4.16,3.58,2.86,2.86,0,0,0-1.34-1.4,12.2,12.2,0,0,0,4.74-3.64c-1-2-1.2-3-1.86-8Zm10.32-1.88a8.32,8.32,0,0,0-1.18-2.23l1.58-.76a12,12,0,0,1,1.28,2.17Z"/><path d="M1074.77,191.25a2.81,2.81,0,0,0-.74-1.5,24.55,24.55,0,0,0,4.4-.62,8.59,8.59,0,0,0,2.68-1,4.11,4.11,0,0,0,1,1.7c.42.41.36.5-.06.42a7.35,7.35,0,0,0-2.72.23V194a28,28,0,0,0,3.08-.16v1.66c-.62-.08-1.86-.12-3.08-.14v7.6c0,1,.08,2.24.18,3.44h-1.92c.1-1.2.16-2.46.16-3.44v-5.34a20.53,20.53,0,0,1-3.1,5.68,9.06,9.06,0,0,0-1.34-1.56,20.62,20.62,0,0,0,4.14-6.4,23.67,23.67,0,0,0-3.5.16v-1.66a21.94,21.94,0,0,0,3.8.16v-3.22C1076.41,191,1075.63,191.15,1074.77,191.25Zm6.52,9.76a18.39,18.39,0,0,0-1.84-3l1.1-.94c.74,1,1.54,2.16,2.08,3Zm3.7,3.2h-1.8a20.85,20.85,0,0,0,.16-2.72v-9.62a6.78,6.78,0,0,0-.12-1.58c1.54.09,2.38.12,3.7.12,1,0,2.56,0,3.68-.12a7.11,7.11,0,0,0-.12,1.58V201a22.13,22.13,0,0,0,.14,2.72h-1.78v-1.78H1085Zm3.86-12.36H1085v8.68h3.86Z"/><path d="M1098,201.77a28.88,28.88,0,0,0-4.3.8,9.46,9.46,0,0,0-.3-1.78,27.18,27.18,0,0,0,4.72-.48A3.92,3.92,0,0,0,1098,201.77Zm2.68-4.72c-.14,2.06-.34,4.5-.46,5.58-.32,2.64-.44,2.86-3.82,3.34a5.68,5.68,0,0,0-.66-1.84c2.36.22,2.72,0,2.92-1.26.16-1,.36-3.08.42-4.24a29.7,29.7,0,0,0-4.62.18c.14-1.24.4-5.68.36-6.81a5.68,5.68,0,0,0,1.7.23c.36,0,.4.12.16.3a.83.83,0,0,0-.3.66l-.42,4.08h1.86l.8-6.58a28.64,28.64,0,0,0-4.62.22V189a31.89,31.89,0,0,0,3.2.17,29.08,29.08,0,0,0,3.06-.17l-1,8.17A6.33,6.33,0,0,0,1100.63,197.05Zm2.24-3a17.3,17.3,0,0,0,2.78.16,16.09,16.09,0,0,0,2.86-.16v1.62a23,23,0,0,0-2.86-.12,14.63,14.63,0,0,0-2.82.2v-1.64c-.46.54-1,1.08-1.6,1.66a3.93,3.93,0,0,0-1.3-1,11.94,11.94,0,0,0,3.54-4.29,10.17,10.17,0,0,0,1.06-2.68,13.08,13.08,0,0,0,2.12.6c.3,0,.32.25,0,.36a1.65,1.65,0,0,0-.26.14,8.63,8.63,0,0,0,5.36,4.69,5.26,5.26,0,0,0-1.22,1.78,9.55,9.55,0,0,1-4.84-5.76A24.27,24.27,0,0,1,1102.87,194Zm5.18,2.86a12.81,12.81,0,0,0,2,.64c.24.06.24.16-.06.34a2.21,2.21,0,0,0-.62,1.1c-.64,2-1.24,3.64-1.78,5a17.77,17.77,0,0,0,2.88-.18v1.76a39,39,0,0,0-4.8-.18,37.29,37.29,0,0,0-4.86.18v-1.76a24.56,24.56,0,0,0,3.08.18h2.32A31.9,31.9,0,0,0,1108.05,196.89Zm-5.78,5.7a32.1,32.1,0,0,0-.88-5.06l1.32-.26c.2,1.08.78,3.86,1,5Zm2.52-.9a45.29,45.29,0,0,0-.6-4.56l1.44-.24c.14,1.22.4,3.22.64,4.56Z"/><path d="M1117.65,204a14.06,14.06,0,0,0-1.22,1.76,8.16,8.16,0,0,0-1.44-1.44c.58-.52.72-.8.72-2.18v-6.5a20.09,20.09,0,0,0-2.4.1v-1.82a13.14,13.14,0,0,0,2,.1,17.08,17.08,0,0,0,2.22-.1,11.52,11.52,0,0,0-.2,2.82v5.4c.66-.78,1.08-1.3,1.7-2.16a2.82,2.82,0,0,0,.92,1.42Zm-.94-11.72a11.41,11.41,0,0,0-1.88-3.23l1.58-.93c.62,1,1.38,2.25,2,3.16Zm4,4.44a13.25,13.25,0,0,0-.14-2.24,15.12,15.12,0,0,0,2.08.18c.26,0,.34.2,0,.44a.9.9,0,0,0-.24.72v7.76h2.28V191.13c-2,0-3.52.08-4.66.2v-1.85c1.28.12,3,.19,5.36.19s4.08-.09,5.34-.19v1.85c-1.08-.12-2.48-.18-4.36-.2v4.68H1128a16.06,16.06,0,0,0,2.48-.18v1.82a24,24,0,0,0-2.48-.1h-1.64v6.24a28.41,28.41,0,0,0,5.16-.24v2a50.67,50.67,0,0,0-6.5-.18,49.94,49.94,0,0,0-6.26.18v-2a11.36,11.36,0,0,0,2,.22Z"/></g><g class="cls-3"><path class="cls-4" d="M994.67,20.5V5h0l-3,1.68-.62-2L995,2.42h2.35V20.5Z"/><path class="cls-4" d="M1008.15,20.5V5h0l-3.05,1.68-.63-2,4.08-2.19h2.36V20.5Z"/><path class="cls-4" d="M1023.83,14.07a12.27,12.27,0,0,1-3.65,8.18,4.59,4.59,0,0,0-2.33-1.34c2.86-2.19,4-4.78,4-10.3V4.85c0-1.51,0-2.43-.09-3.12,1.17.07,2.52.09,6.91.09s5.79,0,6.89-.09c-.07.69-.1,1.61-.1,3.12V18.94c0,2.4-.21,2.71-4.1,3.09a4,4,0,0,0-1.06-2.66c2.86.5,2.93.38,2.93-1.82V14.07Zm9.38-7V3.63h-9.31V7.1Zm-9.31,1.69v3.52h9.31V8.79Z"/><path class="cls-4" d="M1040.94,2.42h10.92V4.18l-7.18,16.32h-2.85L1049,4.78v0h-8.06Z"/><path class="cls-4" d="M1060.16,21.34h-2.4c.15-1.61.19-2.88.19-4.42V5.67a24,24,0,0,0-.21-3.37c1.44.12,2.66.17,7.46.17s6.2-.05,7.44-.17a22.93,22.93,0,0,0-.19,3.37V17.26c0,1.32.07,2.52.19,3.91h-2.42V19.59h-10.06Zm10.06-17h-10.06V9.91h10.06Zm-10.06,13.37h10.06V11.79h-10.06Z"/></g><path class="cls-1" d="M1343.15,59.31l33.15,24.63-33.15,24.62V91.81h-18.66V76.06h18.66Zm4.5-15.37a40,40,0,1,0,28.28,11.72A40,40,0,0,0,1347.65,43.94Z"/><g class="cls-3"><path d="M1261.64,169.93a5,5,0,0,0-2.76-1.5c2.61-2.61,3.78-7.2,3.93-13a80.83,80.83,0,0,0-.36-9.3c6.48.18,14.91-.75,19.08-2.13a13,13,0,0,0,1.5,2.85c.3.39.21.57-.15.51a22.79,22.79,0,0,0-4.74.15c-3.27.27-9.6.6-12.75.72v4h14.76c2.07,0,4.08-.09,5.34-.21v2.67c-1.26-.12-3.27-.21-5.34-.21h-14.76C1265.27,162,1263.74,166.42,1261.64,169.93Zm8.07-2v3.18H1267c.12-1.35.15-2.46.15-3.84v-6.15a24.69,24.69,0,0,0-.12-2.82c1,.06,3.63.12,7.77.12s6.93,0,7.8-.12a16.68,16.68,0,0,0-.15,2.82v6c0,1.38.09,2.58.18,3.84h-2.67v-3Zm10.23-2.16V160.6h-10.23v5.16Z"/><path d="M1294.43,152a39.92,39.92,0,0,0-4.8.21V150c1.17.12,2.76.18,4.86.18A41.92,41.92,0,0,0,1299,150v2.25A35.49,35.49,0,0,0,1294.43,152Zm1.53,2.13a7.28,7.28,0,0,0,2.49.48c.24,0,.33.09,0,.39-.15.15-1.26,4.62-2.43,9.72a26.39,26.39,0,0,0,3.06-1.08,6.44,6.44,0,0,0-.24,2.55,42.6,42.6,0,0,0-8.61,2.82,25.53,25.53,0,0,0-.57-3.12c1.59-.18,3.06-.42,4.47-.72A77.75,77.75,0,0,0,1296,154.12Zm-4.56,8.31c.09-1.74-.36-6-.93-7.08l2.16-.48c.36,2,.87,5.4,1.08,7.23Zm2.13-12.84a12.29,12.29,0,0,0-1.11-4.2l2.76-.6a22.11,22.11,0,0,0,1.11,4.23Zm6.42,6.6v-2.37c1.86.18,4.35.24,7.92.24s6.12-.06,8-.24v2.37c-1.8-.18-4.14-.27-7.44-.27a22.34,22.34,0,0,0-.81,3c2.79,0,5.19-.09,7.65-.27-.09.72-.15,2-.15,2.61v7.11c0,1.62-.36,2-3.72,2.76a5.62,5.62,0,0,0-.87-2.64c2.1.06,2.4-.12,2.4-.93v-7h-2.58v4.32c0,1,0,2.19.12,3.12h-2.13a27.16,27.16,0,0,0,.15-3.12v-4.32h-2.16V165c0,1,0,2.25.12,3.12h-2.16c.09-.84.15-2.1.15-3.12v-4.44h-2.13v10H1300a18.71,18.71,0,0,0,.21-3v-6.33a16,16,0,0,0-.21-2.58c1.65.15,3.54.21,5.64.24.24-1.17.39-2.1.54-3C1303.49,156,1301.48,156,1300,156.19Zm6.42-9.66a21.63,21.63,0,0,0-.18-2.94,11.89,11.89,0,0,0,2.55.18c.42,0,.48.09.15.45a3.12,3.12,0,0,0-.33,1.71v4.38h3.69V147a9.64,9.64,0,0,0-.15-1.92,22.25,22.25,0,0,0,2.25.15c.36,0,.45.15.12.6-.18.24-.18,1.17-.18,6.36-1.62-.09-3.66-.15-6.9-.15s-5.07.06-6.45.15a15.25,15.25,0,0,0,.18-2.52V147a7.88,7.88,0,0,0-.18-1.86,11.71,11.71,0,0,0,2.28.06c.45-.06.48.15.15.51-.15.21-.27,1.26-.27,4.62h3.27Z"/><path d="M1325,167.83a7.16,7.16,0,0,0-1.8,2.28,7.73,7.73,0,0,0-2-2.19,4.81,4.81,0,0,0,1.41-3.51v-9.36a30.88,30.88,0,0,0-3.6.15v-2.82a30.5,30.5,0,0,0,3.24.15,28,28,0,0,0,3.12-.15,18.77,18.77,0,0,0-.36,3.78v8.4a24.1,24.1,0,0,0,2.85-2.94,6.73,6.73,0,0,0,1.08,2.28Zm0-17.55a17.22,17.22,0,0,0-3.21-4.32l2.16-1.47c1.26,1.41,2.37,2.76,3.42,4.08Zm3.21,8.22v-2.58c1.95.18,4.77.24,7.77.24,2.64,0,5.34-.06,7.74-.24-1.86,4.41-3.3,7.08-5.13,9.33a20.66,20.66,0,0,0,7.86,2.07,6.91,6.91,0,0,0-1.59,3.3,30.27,30.27,0,0,1-8.07-3.69,28.52,28.52,0,0,1-8.67,4.38,12.28,12.28,0,0,0-2.13-2.58c4.11-.75,6.9-1.77,8.88-3.3a19.43,19.43,0,0,1-4.59-7.05C1329.53,158.41,1328.84,158.44,1328.15,158.5Zm17.16-4.08c-6.24.06-6.54-.51-6.54-2.34v-5h-5.34c0,4.26-.45,6.09-3.36,8.37a4.7,4.7,0,0,0-2.34-1.71c3.36-1.8,3.72-3.39,3.06-9,1.08.12,3.12.18,5.49.18s4.08-.06,5.31-.18c-.33.84-.45,1.59-.57,6,0,1.14.51,1.92,4.89.78A5.29,5.29,0,0,0,1345.31,154.42Zm-8.76,9.51a13.84,13.84,0,0,0,3.48-5.61h-7.44A13.75,13.75,0,0,0,1336.55,163.93Z"/><path d="M1356.77,167.38a24.86,24.86,0,0,0-2.7,3.33,16.27,16.27,0,0,0-2.1-2.46,4.17,4.17,0,0,0,1-3.15v-9.75a32.11,32.11,0,0,0-4.11.21v-2.91a25,25,0,0,0,3.54.21,30.68,30.68,0,0,0,3.51-.21,18.2,18.2,0,0,0-.39,3.9v8.76a28.2,28.2,0,0,0,3.51-4.26,9.56,9.56,0,0,0,1.2,2.88Zm-2-17.07a24.4,24.4,0,0,0-3-5.07l2.52-1.41a49.79,49.79,0,0,0,3.15,4.92Zm21.63,2.1v3c-1.8-.12-4-.24-7-.24v10.65c0,1.5.06,3.15.27,5.4h-3.33a53.85,53.85,0,0,0,.27-5.4V155.14c-3.57,0-6,.12-8,.27v-3c2,.15,4.47.24,8,.27v-4.59a23.91,23.91,0,0,0-.33-4.59,14,14,0,0,0,3.33.24c.75,0,.87.24.21.63-.33.18-.42.6-.42,2.22v6.09C1372.43,152.65,1374.62,152.56,1376.42,152.41Z"/><path d="M1381.07,159.64v-2.73c3.12.21,6.27.3,12,.3s8.94-.09,12-.3v2.73c-2.79-.21-5.49-.3-8.25-.3v6.93c0,1.14.15,1.26,2.52,1.26s2.94-.63,3.51-3.72a7.15,7.15,0,0,0,2.7,1.62c-1.11,3.81-1.92,4.38-6.3,4.38-3.72,0-4.92-.6-4.92-2.4v-8.07h-3.48c-.21,7.29-2.49,9.6-8.85,11.55a13,13,0,0,0-1.86-2.73c5.82-.93,8.22-2.79,8.22-8.82C1386.08,159.37,1383.59,159.46,1381.07,159.64Zm10.23-16,3-.54a29.21,29.21,0,0,0,1.2,3.69c5.31,0,7.29-.06,9.18-.18v5.88h-2.49V149H1384v4h-2.49v-6.27c2.1.12,4.26.18,11,.18A15.42,15.42,0,0,0,1391.3,143.68Zm-5.55,10.83V151.9a66.41,66.41,0,0,0,7.26.27c2.94,0,5.73-.09,7.29-.27v2.61a66.68,66.68,0,0,0-7.29-.27A72.12,72.12,0,0,0,1385.75,154.51Z"/><path d="M1414.64,151.27v4.17a58.73,58.73,0,0,0,7.38-.27l-.42,8.07c-.18,2.19-.84,2.64-5,3.57a6.12,6.12,0,0,0-1.11-3.06c3.09.54,3.84.27,3.84-1.2l.27-5.19h-5c-.15,6.72-.75,8.73-3,12.81a6.5,6.5,0,0,0-2.64-1.23c2.91-3.6,3.63-6.9,3.15-20.16,1.08.15,4.38.3,11.22.3-.18-1.86-.33-3.93-.45-5.49a14,14,0,0,0,2.94.18c.69-.06.81.09.3.66-.27.3-.36,2-.27,4.65,5.46,0,7.86-.18,9-.3v2.79c-1.17-.12-4.11-.3-8.88-.3a34,34,0,0,0,1.86,9.66,23.59,23.59,0,0,0,2.49-7.68,14.05,14.05,0,0,0,2.82,1.17c.48.15.48.36,0,.54a4.48,4.48,0,0,0-1,1.74,24.15,24.15,0,0,1-3.09,6.66c3.54,5.64,4.41,5.55,4.86,1.29a4.9,4.9,0,0,0,2.55,1.86c-1.77,5.25-2.43,5.55-5.22,3.33a20.66,20.66,0,0,1-3.75-4.41,30.11,30.11,0,0,1-6.24,5.37,4.29,4.29,0,0,0-2-2.1,18.3,18.3,0,0,0,7.11-5.46c-1.47-3.06-1.8-4.47-2.79-12Zm15.48-2.82a12.62,12.62,0,0,0-1.77-3.33l2.37-1.14a18.35,18.35,0,0,1,1.92,3.24Z"/></g><g class="cls-3"><path d="M1219.15,195.43v8.62c0,1.68-.46,2-4.14,2.3a3,3,0,0,0-1-2c3,.28,3.16.16,3.16-1.06v-4.7a13.55,13.55,0,0,0-.38-3.78,40.26,40.26,0,0,0,5.62-3.52c-6.2,0-10.1.2-12.54.38v-2c2.28.12,4.06.16,7.94.16,4.6,0,6.68-.07,7.82-.19v1.74C1224.43,191.63,1224,191.87,1219.15,195.43Z"/><path d="M1229.63,194.73a2.85,2.85,0,0,0-1.08-1.2,13.17,13.17,0,0,0,3.56-5.37,9.17,9.17,0,0,0,1.32.6c.36.12.4.26.06.46a4.38,4.38,0,0,0-.86,1.12,27.41,27.41,0,0,0,4.32-.16l-1.84,3.19c.94,0,1.82-.06,2.56-.12a7.4,7.4,0,0,0-.12,1.26v9.26c0,1.38-.14,1.6-2.14,2a3.25,3.25,0,0,0-.68-1.76c1.16.16,1.46-.06,1.46-.54v-2.68h-1.66c0,2,.08,3.46.14,4h-1.46a38.29,38.29,0,0,0,.12-4h-1.58a14.27,14.27,0,0,1-1.62,5.32,3.05,3.05,0,0,0-1.3-1c1.08-1.38,1.64-3.42,1.64-6.26v-5.22C1230.17,194.09,1229.89,194.43,1229.63,194.73Zm1-1.34h3l1-1.9H1232C1231.63,192,1231.15,192.73,1230.67,193.39Zm2.66,3.22v-2.08h-1.54v2.08Zm-1.54,1.1v2h1.54v-2Zm4.4-1.1v-2.08h-1.66v2.08Zm-1.66,1.1v2h1.66v-2ZM1239,196a3.16,3.16,0,0,0-1.32-1.08c1.92-1.14,2.6-1.78,2.8-4.09a18.58,18.58,0,0,0-2.44.15v-1.51a27.09,27.09,0,0,0,3.8.15,29.69,29.69,0,0,0,4.06-.15c-.14.9-.24,1.71-.46,3.77-.16,1.62-.54,1.88-3.12,2.06a2.94,2.94,0,0,0-.64-1.68c2,.4,2.28,0,2.38-.78l.16-2h-2.4A6.34,6.34,0,0,1,1239,196Zm2.88-.12a13.11,13.11,0,0,0,1.72.12c.22,0,.26.1.08.26a1,1,0,0,0-.22.58v1.4a26.25,26.25,0,0,0,2.8-.14v1.38a26.25,26.25,0,0,0-2.8-.14v2.24c1.16,0,2.44-.06,3.12-.14V203c-.68-.06-2-.12-3.12-.14a31.67,31.67,0,0,0,.14,3.44h-1.72a31.88,31.88,0,0,0,.14-3.44c-1.46,0-3,.06-3.78.14v-1.5c.86.1,2.34.14,3.78.14v-2.24h-2.22a9.14,9.14,0,0,1-.72,1.58,2.25,2.25,0,0,0-1.26-.6,8.72,8.72,0,0,0,1.5-3.88,6.57,6.57,0,0,0,1.3.44c.28,0,.3.14,0,.4a4.9,4.9,0,0,0-.52,1H1242A18.3,18.3,0,0,0,1241.83,195.89Z"/><path d="M1259.27,192.37a1.62,1.62,0,1,1-1.62-1.62A1.61,1.61,0,0,1,1259.27,192.37Zm0,9.64a1.62,1.62,0,1,1-1.62-1.62A1.61,1.61,0,0,1,1259.27,202Z"/><path d="M1269.93,198.69v-1.82c2.08.14,4.18.2,8,.2s6-.06,8-.2v1.82c-1.86-.14-3.66-.2-5.5-.2v4.62c0,.76.1.84,1.68.84s2-.42,2.34-2.48a4.76,4.76,0,0,0,1.8,1.08c-.74,2.54-1.28,2.92-4.2,2.92-2.48,0-3.28-.4-3.28-1.6v-5.38h-2.32c-.14,4.86-1.66,6.4-5.9,7.7a8.65,8.65,0,0,0-1.24-1.82c3.88-.62,5.48-1.86,5.48-5.88C1273.27,198.51,1271.61,198.57,1269.93,198.69Zm6.82-10.65,2-.36a19.47,19.47,0,0,0,.8,2.46c3.54,0,4.86,0,6.12-.11V194H1284v-2.38h-12.16v2.64h-1.66V190c1.4.07,2.84.11,7.3.11A10.5,10.5,0,0,0,1276.75,188Zm-3.7,7.23v-1.74a44.28,44.28,0,0,0,4.84.18c2,0,3.82-.06,4.86-.18v1.74a44.46,44.46,0,0,0-4.86-.18A48.08,48.08,0,0,0,1273.05,195.27Z"/><path d="M1292.31,193.11v2.78a39.15,39.15,0,0,0,4.92-.18l-.28,5.38c-.12,1.46-.56,1.76-3.34,2.38a4.08,4.08,0,0,0-.74-2c2.06.36,2.56.18,2.56-.8l.18-3.46h-3.32c-.1,4.48-.5,5.82-2,8.54a4.33,4.33,0,0,0-1.76-.82c1.94-2.4,2.42-4.6,2.1-13.44.72.09,2.92.2,7.48.2-.12-1.24-.22-2.63-.3-3.67a9.3,9.3,0,0,0,2,.12c.46,0,.54.06.2.44a8.54,8.54,0,0,0-.18,3.11c3.64,0,5.24-.12,6-.2v1.86c-.78-.08-2.74-.2-5.92-.2a22.69,22.69,0,0,0,1.24,6.44,15.73,15.73,0,0,0,1.66-5.12,9.37,9.37,0,0,0,1.88.78c.32.1.32.24,0,.36a3,3,0,0,0-.66,1.16,16.1,16.1,0,0,1-2.06,4.44c2.36,3.76,2.94,3.7,3.24.86a3.27,3.27,0,0,0,1.7,1.24c-1.18,3.5-1.62,3.7-3.48,2.22a13.77,13.77,0,0,1-2.5-2.94,20.08,20.08,0,0,1-4.16,3.58,2.86,2.86,0,0,0-1.34-1.4,12.2,12.2,0,0,0,4.74-3.64c-1-2-1.2-3-1.86-8Zm10.32-1.88a8.32,8.32,0,0,0-1.18-2.23l1.58-.76a12,12,0,0,1,1.28,2.17Z"/><path d="M1310.31,205.55a3.3,3.3,0,0,0-1.84-1c1.74-1.74,2.52-4.8,2.62-8.64a53.89,53.89,0,0,0-.24-6.2,44.86,44.86,0,0,0,12.72-1.43,8.44,8.44,0,0,0,1,1.9c.2.27.14.39-.1.35a14.46,14.46,0,0,0-3.16.1c-2.18.17-6.4.4-8.5.48v2.7h9.84c1.38,0,2.72-.06,3.56-.14v1.78c-.84-.08-2.18-.14-3.56-.14h-9.84C1312.73,200.25,1311.71,203.21,1310.31,205.55Zm5.38-1.34v2.12h-1.82c.08-.9.1-1.64.1-2.56v-4.1a16.46,16.46,0,0,0-.08-1.88c.68,0,2.42.08,5.18.08s4.62,0,5.2-.08a11.12,11.12,0,0,0-.1,1.88v4c0,.92.06,1.72.12,2.56h-1.78v-2Zm6.82-1.44v-3.44h-6.82v3.44Z"/><path d="M1332.17,193.59a26.61,26.61,0,0,0-3.2.14v-1.5c.78.08,1.84.12,3.24.12a28,28,0,0,0,3-.12v1.5A23.66,23.66,0,0,0,1332.17,193.59Zm1,1.42a4.85,4.85,0,0,0,1.66.32c.16,0,.22.06,0,.26s-.84,3.08-1.62,6.48a17.59,17.59,0,0,0,2-.72,4.29,4.29,0,0,0-.16,1.7,28.4,28.4,0,0,0-5.74,1.88,17,17,0,0,0-.38-2.08c1.06-.12,2-.28,3-.48A51.83,51.83,0,0,0,1333.19,195Zm-3,5.54a15.43,15.43,0,0,0-.62-4.72l1.44-.32c.24,1.36.58,3.6.72,4.82Zm1.42-8.56a8.24,8.24,0,0,0-.74-2.81l1.84-.4a15,15,0,0,0,.74,2.83Zm4.28,4.4v-1.58c1.24.12,2.9.16,5.28.16s4.08,0,5.34-.16v1.58c-1.2-.12-2.76-.18-5-.18a14.89,14.89,0,0,0-.54,2c1.86,0,3.46-.06,5.1-.18-.06.48-.1,1.34-.1,1.74v4.74c0,1.08-.24,1.36-2.48,1.84a3.74,3.74,0,0,0-.58-1.76c1.4,0,1.6-.08,1.6-.62v-4.68h-1.72v2.88c0,.68,0,1.46.08,2.08h-1.42a18.1,18.1,0,0,0,.1-2.08v-2.88h-1.44v3c0,.68,0,1.5.08,2.08h-1.44c.06-.56.1-1.4.1-2.08v-3h-1.42V206h-1.54a12.47,12.47,0,0,0,.14-2v-4.22a10.68,10.68,0,0,0-.14-1.72c1.1.1,2.36.14,3.76.16.16-.78.26-1.4.36-2C1338.21,196.23,1336.87,196.29,1335.85,196.39Zm4.28-6.44a14.47,14.47,0,0,0-.12-2,7.33,7.33,0,0,0,1.7.12c.28,0,.32.06.1.3a2.08,2.08,0,0,0-.22,1.14v2.93h2.46v-2.25a6.43,6.43,0,0,0-.1-1.28,14.83,14.83,0,0,0,1.5.1c.24,0,.3.1.08.4s-.12.78-.12,4.25c-1.08-.06-2.44-.1-4.6-.1s-3.38,0-4.3.1a10.21,10.21,0,0,0,.12-1.69v-1.75a5.36,5.36,0,0,0-.12-1.25,7.81,7.81,0,0,0,1.52,0c.3,0,.32.1.1.34a10.7,10.7,0,0,0-.18,3.09h2.18Z"/><path d="M1352.53,204.15a4.77,4.77,0,0,0-1.2,1.52,5.15,5.15,0,0,0-1.32-1.46,3.21,3.21,0,0,0,.94-2.34v-6.24a20.59,20.59,0,0,0-2.4.1v-1.88a20.33,20.33,0,0,0,2.16.1,18.69,18.69,0,0,0,2.08-.1,12.52,12.52,0,0,0-.24,2.52V202a16.06,16.06,0,0,0,1.9-2,4.49,4.49,0,0,0,.72,1.52Zm0-11.7a11.35,11.35,0,0,0-2.14-2.89l1.44-1c.84.94,1.58,1.84,2.28,2.73Zm2.14,5.48v-1.72c1.3.12,3.18.16,5.18.16,1.76,0,3.56,0,5.16-.16a24.52,24.52,0,0,1-3.42,6.22,13.77,13.77,0,0,0,5.24,1.38,4.61,4.61,0,0,0-1.06,2.2,20.18,20.18,0,0,1-5.38-2.46,19,19,0,0,1-5.78,2.92,8.18,8.18,0,0,0-1.42-1.72,13.48,13.48,0,0,0,5.92-2.2,13,13,0,0,1-3.06-4.7C1355.57,197.87,1355.11,197.89,1354.65,197.93Zm11.44-2.72c-4.16,0-4.36-.34-4.36-1.56v-3.32h-3.56c0,2.84-.3,4.06-2.24,5.58a3.13,3.13,0,0,0-1.56-1.14c2.24-1.2,2.48-2.26,2-6,.72.08,2.08.12,3.66.12s2.72,0,3.54-.12c-.22.57-.3,1.07-.38,4,0,.76.34,1.28,3.26.52A3.53,3.53,0,0,0,1366.09,195.21Zm-5.84,6.34a9.22,9.22,0,0,0,2.32-3.74h-5A9.17,9.17,0,0,0,1360.25,201.55Z"/><path d="M1373.73,203.85a16.57,16.57,0,0,0-1.8,2.22,10.85,10.85,0,0,0-1.4-1.64,2.78,2.78,0,0,0,.68-2.1v-6.5a21.41,21.41,0,0,0-2.74.14V194a16.64,16.64,0,0,0,2.36.14,20.45,20.45,0,0,0,2.34-.14,12.13,12.13,0,0,0-.26,2.6v5.84a18.8,18.8,0,0,0,2.34-2.84,6.38,6.38,0,0,0,.8,1.92Zm-1.32-11.38a16.58,16.58,0,0,0-2-3.39l1.68-.94a32.06,32.06,0,0,0,2.1,3.28Zm14.42,1.4v2c-1.2-.08-2.66-.16-4.66-.16v7.1c0,1,0,2.1.18,3.6h-2.22a35.9,35.9,0,0,0,.18-3.6v-7.12c-2.38,0-4,.08-5.36.18v-2c1.36.1,3,.16,5.36.18V191a16,16,0,0,0-.22-3.07,8.81,8.81,0,0,0,2.22.16c.5,0,.58.16.14.42-.22.13-.28.4-.28,1.49v4.06C1384.17,194,1385.63,194,1386.83,193.87Z"/><path d="M1390.17,193.51v-1.66c1.2.12,3.76.18,5.08.18h3.44a10.75,10.75,0,0,0,1.4-4,6.25,6.25,0,0,0,2.24.68c.34,0,.38.22,0,.4s-1,.83-2.3,2.95c3.42,0,4.18-.06,5.36-.18v1.66c-.94-.1-2.72-.16-4.08-.18v4.72c1.56,0,3.84-.08,5.22-.2v1.76c-1.38-.12-3.66-.16-5.22-.16v3c0,1.16.08,2.6.18,4h-1.9c.1-1.4.16-2.84.16-4v-3h-4.06c-.28,2.76-1.62,4.74-5,6.7a2.94,2.94,0,0,0-1.58-1.28c3.5-1.38,4.76-3.06,5-5.42-1.58,0-4,0-5.38.16v-1.76c1.34.12,3.84.2,5.44.2v-4.72C1392.83,193.37,1391.09,193.41,1390.17,193.51Zm4.22-1.82a9.82,9.82,0,0,0-1.56-2.69l1.78-.86a17.51,17.51,0,0,0,1.64,2.77Zm1.36,1.64v4.72h4v-4.72Z"/><path d="M1411.23,196.79a5.61,5.61,0,0,0-1.88-.6,13.12,13.12,0,0,0,3.34-7.19,9.9,9.9,0,0,0,2.08.75c.46.08.5.24.1.42-.2.09-.38.44-1.16,2.1h4.06v-1.78a23.46,23.46,0,0,0-.12-2.36c.7.07,1.54.11,2.16.11.34,0,.4.16.14.32a.59.59,0,0,0-.38.62v3.07c2.92,0,4.36-.06,6.08-.14V194c-2.24-.12-3.88-.14-6.08-.14v3.68c2.14,0,3.44-.08,4.72-.2v1.9a45.72,45.72,0,0,0-4.72-.22v4.28c3.16,0,4.82-.08,6.74-.2v2c-2.2-.16-4.08-.22-8.26-.22s-6.16.08-8.36.24v-2c2.16.14,4.08.18,8.08.18V199c-2.36,0-3.76.08-5.1.22v-1.9c1.36.12,2.74.18,5.1.2v-3.68H1413C1412.47,194.75,1411.83,195.87,1411.23,196.79Z"/><path d="M1432.31,193.11v2.78a39.15,39.15,0,0,0,4.92-.18l-.28,5.38c-.12,1.46-.56,1.76-3.34,2.38a4.08,4.08,0,0,0-.74-2c2.06.36,2.56.18,2.56-.8l.18-3.46h-3.32c-.1,4.48-.5,5.82-2,8.54a4.33,4.33,0,0,0-1.76-.82c1.94-2.4,2.42-4.6,2.1-13.44.72.09,2.92.2,7.48.2-.12-1.24-.22-2.63-.3-3.67a9.3,9.3,0,0,0,2,.12c.46,0,.54.06.2.44a8.54,8.54,0,0,0-.18,3.11c3.64,0,5.24-.12,6-.2v1.86c-.78-.08-2.74-.2-5.92-.2a22.69,22.69,0,0,0,1.24,6.44,15.73,15.73,0,0,0,1.66-5.12,9.37,9.37,0,0,0,1.88.78c.32.1.32.24,0,.36a3,3,0,0,0-.66,1.16,16.1,16.1,0,0,1-2.06,4.44c2.36,3.76,2.94,3.7,3.24.86a3.27,3.27,0,0,0,1.7,1.24c-1.18,3.5-1.62,3.7-3.48,2.22a13.77,13.77,0,0,1-2.5-2.94,20.08,20.08,0,0,1-4.16,3.58,2.86,2.86,0,0,0-1.34-1.4,12.2,12.2,0,0,0,4.74-3.64c-1-2-1.2-3-1.86-8Zm10.32-1.88a8.32,8.32,0,0,0-1.18-2.23l1.58-.76a12,12,0,0,1,1.28,2.17Z"/><path d="M1451.35,197.67h2.28a10.33,10.33,0,0,0,1.46-.08,7.31,7.31,0,0,0-.08,1.3v2.88c0,1,0,1.54.08,2.34h-1.66a16.74,16.74,0,0,0,.12-2.34v-2.94h-2.24a19.41,19.41,0,0,1-1.38,7.38,5.14,5.14,0,0,0-1.26-1.1c1-2.8,1.2-4,1.24-10.54,0-2.42,0-3.74-.08-5a5.84,5.84,0,0,0,1.58.08c.32,0,.34.08.18.28s-.22,1.29-.22,4.09h1.9v-3.34c0-1.11,0-1.79-.06-2.31a9.55,9.55,0,0,0,1.76.18c.32,0,.38.2.14.34a.71.71,0,0,0-.38.71v4.42a8.89,8.89,0,0,0,1.5-.1v1.54a13.27,13.27,0,0,0-2-.1h-2.9C1451.37,196.23,1451.37,197,1451.35,197.67Zm7.08-2.82c-.08,6.4-.52,8.18-2.48,11.28a3,3,0,0,0-1.54-.72c2-2.3,2.36-4.56,2.52-10a40,40,0,0,0-.14-5.68,26.91,26.91,0,0,0,8.3-1,4.39,4.39,0,0,0,.88,1.71c.3.29.22.42-.14.34a10.76,10.76,0,0,0-2.54.07,39.77,39.77,0,0,1-4.86.32v2.46h4a19.69,19.69,0,0,0,3.16-.18c-.68,4.64-1.46,7.16-2.5,8.76a7.3,7.3,0,0,0,3.92,2.06,4.43,4.43,0,0,0-1,1.88,12,12,0,0,1-3.84-2.76,20.54,20.54,0,0,1-3.3,2.86,3.42,3.42,0,0,0-1.3-1.26,10.72,10.72,0,0,0,3.64-2.72,21.35,21.35,0,0,1-2.2-7.36Zm3.66,6.18a17.28,17.28,0,0,0,1.66-6.18h-3.3A16.53,16.53,0,0,0,1462.09,201Z"/><path d="M1471.71,206.07H1470c.1-1.12.16-2.12.16-3.3V191.46a20.92,20.92,0,0,0-.12-2.5,58.41,58.41,0,0,0,7.76.22,67.67,67.67,0,0,0,7.76-.22,20.6,20.6,0,0,0-.14,2.5v11.17a32.43,32.43,0,0,0,.16,3.3h-1.82v-.8h-12Zm12-15.5h-12v13.24h12Zm-10.66,8.66a13.45,13.45,0,0,0-.84-1.38,10.1,10.1,0,0,0,4.8-1.54,8.2,8.2,0,0,1-1.64-1.82c-.38.48-.78,1-1.28,1.56a6.65,6.65,0,0,0-1.32-.76,10.63,10.63,0,0,0,3.4-4.45,3.81,3.81,0,0,0,1.36.5c.48.08.5.23.16.43a3.64,3.64,0,0,0-.72.6h5.1a11.38,11.38,0,0,1-3,3.9,12.94,12.94,0,0,0,4.42,1.22,5,5,0,0,0-.94,1.66,16.47,16.47,0,0,1-4.5-2.08A14.74,14.74,0,0,1,1473.07,199.23Zm6.72,4.3a22,22,0,0,0-5-1.84l.64-1.18a30.6,30.6,0,0,1,5.14,1.76Zm.06-10h-3.76l-.08.12a8.37,8.37,0,0,0,2,2A10.25,10.25,0,0,0,1479.85,193.53Zm-.1,7.16a28.74,28.74,0,0,0-3.54-1.34l.62-1a25.89,25.89,0,0,1,3.52,1.12Z"/></g><g class="cls-3"><path class="cls-4" d="M1302.77,20.5V5h0l-3,1.68-.62-2,4.08-2.19h2.35V20.5Z"/><path class="cls-4" d="M1316.25,20.5V5h0l-3,1.68-.63-2,4.08-2.19H1319V20.5Z"/><path class="cls-4" d="M1331.93,14.07a12.27,12.27,0,0,1-3.65,8.18,4.59,4.59,0,0,0-2.33-1.34c2.86-2.19,4-4.78,4-10.3V4.85c0-1.51,0-2.43-.09-3.12,1.17.07,2.52.09,6.91.09s5.79,0,6.89-.09c-.07.69-.1,1.61-.1,3.12V18.94c0,2.4-.21,2.71-4.1,3.09a4,4,0,0,0-1.06-2.66c2.86.5,2.93.38,2.93-1.82V14.07Zm9.38-7V3.63H1332V7.1ZM1332,8.79v3.52h9.31V8.79Z"/><path class="cls-4" d="M1355.64,10.75a4.55,4.55,0,0,1,3.79,4.59c0,2.95-2.26,5.42-6.36,5.42a8.57,8.57,0,0,1-4.42-1.13l.72-2.13a7.15,7.15,0,0,0,3.58,1c2.57,0,3.62-1.68,3.62-3.29,0-2.33-2-3.41-4.1-3.41h-1.22v-2h1.17c1.56,0,3.6-.93,3.6-2.93,0-1.41-.91-2.54-2.83-2.54A6.12,6.12,0,0,0,1350,5.45l-.69-2a8.12,8.12,0,0,1,4.53-1.32c3.39,0,5,2,5,4.34a4.52,4.52,0,0,1-3.21,4.23Z"/><path class="cls-4" d="M1362,11.5c0-5.91,2.23-9.36,6-9.36s5.74,3.69,5.74,9.17c0,6.12-2.21,9.45-5.93,9.45S1362,17,1362,11.5Zm8.91-.1c0-4.3-.92-7.06-3-7.06-1.82,0-3.07,2.55-3.07,7.06s1.1,7.13,3,7.13C1370.21,18.53,1370.93,15.15,1370.93,11.4Z"/><path class="cls-4" d="M1381.75,21.34h-2.4c.14-1.61.19-2.88.19-4.42V5.67a24,24,0,0,0-.21-3.37c1.44.12,2.66.17,7.46.17s6.19-.05,7.44-.17a22.93,22.93,0,0,0-.19,3.37V17.26c0,1.32.07,2.52.19,3.91h-2.42V19.59h-10.06Zm10.06-17h-10.06V9.91h10.06Zm-10.06,13.37h10.06V11.79h-10.06Z"/></g><g class="cls-3"><path d="M1577.21,171.28a12,12,0,0,0-2.16-2.7c6.66-1.23,10-3.18,11.7-6.3-5.34,0-9.12.09-12,.3V159.7c3,.21,6.9.3,12.9.3a58.52,58.52,0,0,0,.39-9.42,16.88,16.88,0,0,0,3.21.15c.36,0,.39.12.09.33a3.47,3.47,0,0,0-.54,1.92c-.12,2.28-.33,5.31-.57,7,4,0,7.2-.12,9.69-.3v2.94c-2.58-.18-5.85-.33-10.32-.36C1588,166.15,1584.23,168.88,1577.21,171.28Zm8.46-27.33,3.21-.57a30.07,30.07,0,0,0,1.17,3.51c5.19,0,7.41-.09,9.27-.18v5.79h-2.73v-3.39H1578v3.57h-2.52v-6c2.1.12,4.5.18,11.22.18A17.57,17.57,0,0,0,1585.67,144Zm-3.48,15.57a21.73,21.73,0,0,0-4.62-2.85l1.83-1.68a51.93,51.93,0,0,1,4.89,2.85ZM1585,156a25.69,25.69,0,0,0-4.68-3.33l1.47-1.62c1.8,1,3.36,2,4.77,2.94Zm12.33,15a43.85,43.85,0,0,0-8.07-5.22l1.44-1.95a77,77,0,0,1,8.64,4.68Z"/><path d="M1611.53,155.05a10.67,10.67,0,0,1,2.52,5.64c0,2.58-1.71,4.56-4.83,4.74a5.11,5.11,0,0,0-1.11-3c2.58.33,3.42-.06,3.42-2a9.32,9.32,0,0,0-2.37-5.1l2.28-7.38h-3.63v22.74h-2.7c.18-2.61.24-4.53.24-7.08V150.07c0-1.68-.09-3.42-.21-4.62a42.18,42.18,0,0,0,4.92.21,39.92,39.92,0,0,0,4.8-.21Zm7.68,4.74c-.24.06-.48.39-1.26,2.43a45.79,45.79,0,0,1-3.21,6.09,9.8,9.8,0,0,0-2.73-.66,17.77,17.77,0,0,0,4.38-9.24,14.3,14.3,0,0,0,3,.93C1619.69,159.4,1619.75,159.64,1619.21,159.79Zm4,8.73c0,1.5-.24,2-4.5,2.52a4.75,4.75,0,0,0-1.2-3.09c2.46.45,3.27.09,3.27-.54V155.08c-2.85,0-5,.09-6.69.21v-2.7c2,.15,4.5.21,8.07.21s6.15-.06,8-.21v2.7c-1.71-.12-3.93-.21-7-.21Zm-.72-20.25c-2.7,0-4.62.06-6.09.21v-2.76c1.53.15,3.39.21,6.09.21s4.62-.06,6.09-.21v2.76C1627.1,148.33,1625.21,148.27,1622.48,148.27Zm6.09,19.17a32.15,32.15,0,0,0-4.08-7.62l2.07-1.17a49.9,49.9,0,0,1,4.8,7.32Z"/><path d="M1650.44,147.46a26.86,26.86,0,0,0-.24-4,21.47,21.47,0,0,0,2.76.12c.36,0,.42.24.12.42s-.33.27-.33.63v2.82c3,0,5.58-.12,7.41-.27v2.58c-1.83-.15-4.41-.24-7.41-.27v4.14h-2.31V149.5h-6.39v4.41h-2.31V149.5c-2.94,0-5.55.12-7.35.27v-2.55c1.86.18,4.41.24,7.35.24a22.44,22.44,0,0,0-.24-3.57,21.47,21.47,0,0,0,2.76.12c.36,0,.42.24.12.42s-.33.27-.33.63v2.4Zm-11.28,13.83a40.73,40.73,0,0,1-1.65,6.06,13.83,13.83,0,0,0-3-.63,17.81,17.81,0,0,0,2.67-9.42,6.69,6.69,0,0,0,2.25.42c.63,0,.69.15.3.54A14.66,14.66,0,0,0,1639.16,161.29Zm11.88,8.19a32.12,32.12,0,0,1-7.35-.12c-1.44-.33-1.65-.69-1.65-3.42v-5.16a20.19,20.19,0,0,0-.27-3.72,11.3,11.3,0,0,0,2.76.15c.54-.06.63.15.24.51a1,1,0,0,0-.39.93v6.87c0,1.29,0,1.38,1,1.56a15.74,15.74,0,0,0,5.34,0c1.44-.18,1.83-.66,2.31-4.11a3.93,3.93,0,0,0,2.61,2.07C1654.49,169.06,1654.31,169.24,1651,169.48Zm-2.19-7.56a22.77,22.77,0,0,0-2.58-6.72l2.46-.84c.87,1.83,2,4.44,2.88,6.48Zm9.57,3.69a31.77,31.77,0,0,0-4.17-7.53l2.1-1.2c1.62,2.22,3.42,5,4.83,7.35Z"/><path d="M1671.86,158.53c9.57,0,10.77,0,13.08-.15a24.23,24.23,0,0,0-.18,3.87v4.89a38.17,38.17,0,0,0,.15,3.9h-3V160.93h-10.32a18.5,18.5,0,0,1-3.87,9.3,9.46,9.46,0,0,0-2.76-1.38c3.66-4.08,4.44-6.48,4.62-16.74a69.36,69.36,0,0,0-.12-7.62,14.1,14.1,0,0,0,3.15.42c.51-.06.51.09.21.48s-.48,1.74-.63,6.54h8v-4.2a27.09,27.09,0,0,0-.15-3.63,30.24,30.24,0,0,0,3.33.36c.66,0,.75.18.36.39a1.26,1.26,0,0,0-.78,1.2v5.88h4a12.78,12.78,0,0,0,2.94-.18v2.67a15.46,15.46,0,0,0-3-.18H1672.1C1672.07,155.86,1672,157.3,1671.86,158.53Z"/><path d="M1699.55,167.68c-.87,1.23-1.2,1.59-1.53,2.16a15.7,15.7,0,0,0-1.83-2.22,4,4,0,0,0,1.11-2.58v-10c-1.14,0-2.64.06-3.42.15v-2.73a29.79,29.79,0,0,0,3.24.18,17.87,17.87,0,0,0,2.85-.18,20.14,20.14,0,0,0-.3,3.84v8.16a35,35,0,0,0,2.37-3.6,11.51,11.51,0,0,0,.72,2.34Zm-1.14-17.58a30,30,0,0,0-2.4-4.47l2.28-1.29c1.14,1.83,1.56,2.55,2.58,4.29Zm8.67,2.46v-2.13a25.06,25.06,0,0,0,3,.18v-3.15h-4.59v9.66c0,8.28-.36,9.21-2.88,13.53a5.81,5.81,0,0,0-2.58-1.05c2.88-3.72,3.18-5,3.18-13V145.27c2.43.18,4.56.27,8.16.27s5.79-.09,8.31-.27a49.57,49.57,0,0,0-.24,6.15v16.5c0,2.46-.24,2.55-4.23,3.06a14.92,14.92,0,0,0-1.41-2.88c2.85.21,3.3.09,3.3-.78V147.46h-4.8v3.15c1.32,0,2.4-.09,3.18-.18v2.13a26.6,26.6,0,0,0-3.18-.21v3.06q2.25,0,3.6-.18v2.07c-1.08-.09-2.64-.18-4.62-.18s-3.54.09-4.62.18v-2.07c.84.09,2,.15,3.42.18v-3.06A25.07,25.07,0,0,0,1707.08,152.56Zm4.26,13.62c-1.83,0-3,.06-3.9.15.09-1.14.12-2.16.12-3.57,0-1.23-.06-2.73-.12-3.6.93.09,2.07.15,3.9.15a31.92,31.92,0,0,0,3.9-.15c-.06.81-.12,2.4-.12,3.6a30.71,30.71,0,0,0,.12,3.57C1714.34,166.24,1713.17,166.18,1711.34,166.18Zm1.68-5.07h-3.36v3.3H1713Z"/><path d="M1729.94,168.58a8.25,8.25,0,0,0-1.53,2.28,9.17,9.17,0,0,0-2.22-2.1,3.61,3.61,0,0,0,1.11-2.88V155.62a25.54,25.54,0,0,0-3.33.15V153a26.84,26.84,0,0,0,3.06.15,25.88,25.88,0,0,0,3-.15,21.48,21.48,0,0,0-.33,3.75v8.61a20.94,20.94,0,0,0,2.34-3.15,4.77,4.77,0,0,0,1.41,2.28Zm-1-17.73a30.55,30.55,0,0,0-3.12-4.74l2.37-1.47c1,1.38,2.25,3.09,3.12,4.47Zm11.85-7a9.15,9.15,0,0,0,3.12.06c.63-.12.75.12.15.69-.42.39-.51,2.43-.36,5.31a51.91,51.91,0,0,0,6.48-.45l.06,2.85a43.9,43.9,0,0,0-6.39-.12,40.53,40.53,0,0,0,1.68,10.11c1.44,3.78,2.31,5,2.85,4.92s.81-.93,1.05-3.42a7.4,7.4,0,0,0,2.31,2.4c-1.5,5.25-2.82,5.4-4.65,3.81-1.68-1.44-3.09-4.11-4-7.17a60.64,60.64,0,0,1-1.68-10.62l-2.31.06a63.52,63.52,0,0,0-6.69.45l-.06-2.85a53.88,53.88,0,0,0,6.72.12l2.16,0C1741,147.1,1740.8,145.15,1740.77,143.8Zm1.2,20.07a11.19,11.19,0,0,0-.12,2.43,34.07,34.07,0,0,0-8.28,2.43,19,19,0,0,0-.6-3c1.08-.15,2-.3,2.94-.45v-7.53a12.59,12.59,0,0,0-2.7.24v-2.64a18.51,18.51,0,0,0,3.6.24,16.53,16.53,0,0,0,3.63-.24V158a9,9,0,0,0-2.19-.21v7.05C1739.45,164.56,1740.65,164.26,1742,163.87Zm4.89-15a10.83,10.83,0,0,0-1.62-3.09l2.37-1.08a15.23,15.23,0,0,1,1.8,2.94Z"/></g><g class="cls-3"><path d="M1563.92,197.39a15.44,15.44,0,0,1-.74,4c-.62,1.8-3.76,4-7.56,4.86a4.79,4.79,0,0,0-1.66-2c3.26.26,6.7-1.26,7.7-3.56a14.63,14.63,0,0,0,.58-4.44,10.1,10.1,0,0,0,2.1.26c.24,0,.34.22.12.28A.66.66,0,0,0,1563.92,197.39Zm-8.18-2.82a5.65,5.65,0,0,0-1.6-1,14.68,14.68,0,0,0,6.26-5.73,14.51,14.51,0,0,0,1.9.64c.46.1.46.23,0,.38a4.26,4.26,0,0,0-1.24,1h3.84c.94,0,2.78-.07,3.6-.12l-3.1,4.08c2.14,0,3.14,0,4.42-.06a15.93,15.93,0,0,0-.08,2.12v3.7a14.88,14.88,0,0,0,.12,2.2H1568v-6.68h-9.3v6.94h-1.84a12.64,12.64,0,0,0,.16-2.2v-4c0-1.28,0-1.7,0-2.12,1.54,0,3.28.06,6.44.06l2-2.66h-5.66A47.06,47.06,0,0,1,1555.74,194.57Zm14.52,11.68a37.1,37.1,0,0,0-6.84-3.76l1-1.24c1.5.6,5,2.18,7.16,3.26Z"/><path d="M1574.72,191.38v-1.62c1.86.08,4,.12,7.22.11a12.71,12.71,0,0,0-.14-2,12.13,12.13,0,0,0,1.92.16c.36,0,.36.12.08.28a1.54,1.54,0,0,0-.36,1v.57c3.36,0,5.24,0,7.1-.11v1.62c-1.86-.11-3.74-.15-7.1-.13v1.38c2.94,0,4.06,0,5.82-.16v1.44c-1.76-.1-2.88-.12-5.82-.12v1.38c4.46,0,5.22,0,7.82-.16v1.46c-3-.1-3.46-.12-8.94-.12s-5.88,0-8.46.12V195c2.6.16,2.94.16,8.08.16v-1.38c-3.14,0-4.42,0-6.24.12v-1.44c1.84.12,3.1.16,6.24.16v-1.38C1578.72,191.21,1576.5,191.27,1574.72,191.38Zm8.34,9.69a5,5,0,0,1-1.86,3.1,13.46,13.46,0,0,1-5.66,2,3.38,3.38,0,0,0-1.14-1.66c2.92-.1,4.42-.46,6-1.68.66-.5,1.18-1.64,1.3-3.44a13.1,13.1,0,0,0,1.78.2c.32,0,.36.1,0,.3S1583.16,200.45,1583.06,201.07Zm4.06,1.56v-3.72h-9V203h-1.64a14.73,14.73,0,0,0,.1-1.9v-2a10,10,0,0,0-.08-1.5c.64.08,2.58.14,6.16.14s4.82,0,6.16-.14a10,10,0,0,0-.08,1.5v1.7a14.35,14.35,0,0,0,.1,1.9Zm1.82,3.48a40.87,40.87,0,0,0-6-2.88l.88-1.12c2.74,1,4.48,1.7,6.2,2.42Z"/><path d="M1604.12,192.37a1.62,1.62,0,1,1-1.62-1.62A1.61,1.61,0,0,1,1604.12,192.37Zm0,9.64a1.62,1.62,0,1,1-1.62-1.62A1.61,1.61,0,0,1,1604.12,202Z"/><path d="M1617,205.51h-1.84a25.82,25.82,0,0,0,.2-3.42v-9.3a22.68,22.68,0,0,0-.18-3,62.34,62.34,0,0,0,7.18.19c5.7,0,7.18-.11,7.92-.19a21.11,21.11,0,0,0-.18,3v9.34c0,1.16.06,2.24.14,3.32h-1.82v-1.14H1617Zm11.42-14H1617v11.3h11.42Zm-2.34,2.12c0,.4-.08,1.34-.08,1.94v2.68c0,.92,0,1.56.08,2.14-.78-.08-1.92-.14-3.56-.14s-2.44.06-3.42.14a16,16,0,0,0,.12-2.16v-2.66a16.44,16.44,0,0,0-.12-1.94,23.46,23.46,0,0,0,3.54.16C1624.16,193.75,1625.1,193.71,1626,193.61Zm-5.38,5.24h3.9v-3.66h-3.9Z"/><path d="M1638.74,198c6.38,0,7.18,0,8.72-.1a16.15,16.15,0,0,0-.12,2.58v3.26a25.45,25.45,0,0,0,.1,2.6h-2v-6.74h-6.88a12.33,12.33,0,0,1-2.58,6.2,6.31,6.31,0,0,0-1.84-.92c2.44-2.72,3-4.32,3.08-11.16a46.44,46.44,0,0,0-.08-5.09,9.4,9.4,0,0,0,2.1.28c.34,0,.34.06.14.32s-.32,1.16-.42,4.37h5.3v-2.8a18.14,18.14,0,0,0-.1-2.43,20.16,20.16,0,0,0,2.22.24c.44,0,.5.12.24.26a.85.85,0,0,0-.52.81v3.92h2.64a8.52,8.52,0,0,0,2-.12v1.78a10.31,10.31,0,0,0-2-.12h-9.82C1638.88,196.17,1638.82,197.13,1638.74,198Z"/><path d="M1663.26,202.47a5,5,0,0,0-.22,1.62c-5.2.5-7.44.9-8.82,1.36a9.09,9.09,0,0,0-.54-2.08c1.8,0,3.16-.08,4.42-.2v-2.82q-2.37,0-3.72.18v-1.66q1.35.15,3.72.18a11.33,11.33,0,0,0-.14-2.52,15.34,15.34,0,0,0,1.82.2c.32,0,.36.12.08.32a.92.92,0,0,0-.28.66v1.34a31,31,0,0,0,3.22-.18v1.66a27,27,0,0,0-3.22-.16V203C1660.68,202.91,1661.82,202.73,1663.26,202.47Zm-.68-11.67v1.71a28.45,28.45,0,0,0-3.1-.18v2.42c1.54,0,2.64-.08,3.58-.18v1.66a44.42,44.42,0,0,0-4.64-.18,43.55,43.55,0,0,0-4.6.18v-1.66a37.64,37.64,0,0,0,4.22.18v-2.42a33.34,33.34,0,0,0-3.4.18V190.8a33.17,33.17,0,0,0,3.4.19,20.75,20.75,0,0,0-.14-2.69,11.78,11.78,0,0,0,1.76.12c.38,0,.4.16.08.38a1,1,0,0,0-.26.7V191A28,28,0,0,0,1662.58,190.8Zm5.14.33a19.39,19.39,0,0,0-.14-3,9.61,9.61,0,0,0,1.76.12c.5,0,.56.14.26.37s-.3.39-.3.78v2.86a18.89,18.89,0,0,0,2.38-.16v1.78a23.75,23.75,0,0,0-2.38-.16v10.72c0,1.28-.24,1.56-3.4,1.84a7,7,0,0,0-.88-2.08c2.36.4,2.7,0,2.7-.66v-9.82h-1.52a21.25,21.25,0,0,0-2.6.14v-1.76a20.59,20.59,0,0,0,2.6.16h1.52Zm-2.88,9.42a20.89,20.89,0,0,0-1.14-3.7l1.46-.52c.46,1.24.92,2.48,1.36,3.64Z"/><path d="M1681.74,196.65l1.76-.26A15.77,15.77,0,0,0,1684,198c2.88,0,6.06-.2,7-.26v1.72c-1-.08-4.08-.18-7-.18h-1.92a14.36,14.36,0,0,1-1.72,1.8v3.12a16.24,16.24,0,0,0,2.66-1.78,4.6,4.6,0,0,0,.36,1.56l-2.54,1.58c-.62.38-1.4.84-1.76,1.1a4.56,4.56,0,0,0-.92-1.3,1.7,1.7,0,0,0,.88-1.38v-1.84a40.28,40.28,0,0,1-3.74,2.38,3.6,3.6,0,0,0-1.32-1.38,14.16,14.16,0,0,0,6.38-3.86c-2.16,0-4.78.08-6.06.18v-1.72c1.3.12,4.8.24,7.88.26A8.1,8.1,0,0,0,1681.74,196.65Zm-2.36-6a10.32,10.32,0,0,0-.2-2.41,9.47,9.47,0,0,0,1.84.1c.26,0,.3.1.12.35a1.47,1.47,0,0,0-.24,1v4.45c0,.9,0,1.7.1,2.56l-1.76,0a20.83,20.83,0,0,0,.14-2.28,19.11,19.11,0,0,0-4.28,2.34,6.05,6.05,0,0,0-.94-1.74,19.24,19.24,0,0,0,5.22-1.94Zm-3.5-1.21a30.39,30.39,0,0,0,2.66,2.19l-1.34,1.24a8,8,0,0,0-2.42-2.31Zm14.5,4.75v1.6a35.56,35.56,0,0,0-3.84-.16,36.1,36.1,0,0,0-3.84.16v-1.6c.76.08,1.64.14,2.84.16V192a20.05,20.05,0,0,0-3.14.18v-1.67a21.75,21.75,0,0,0,3.14.18,17.27,17.27,0,0,0-.14-2.54,9.69,9.69,0,0,0,1.72,0c.46,0,.48.12.2.34a1.94,1.94,0,0,0-.3,1v1.22a26.76,26.76,0,0,0,3.92-.18v1.67A27.33,27.33,0,0,0,1687,192v2.37C1688.5,194.35,1689.52,194.31,1690.38,194.21Zm.94,9.76a4.12,4.12,0,0,0-1,1.94,14.92,14.92,0,0,1-5-2.18,9.79,9.79,0,0,1-2.86-3.34l1.48-.46a5.76,5.76,0,0,0,1.14,2,11.17,11.17,0,0,0,2.56-2.14,8.91,8.91,0,0,0,1.48,1c.3.1.26.28,0,.3a9.49,9.49,0,0,0-3,1.64A11.09,11.09,0,0,0,1691.32,204Z"/><path d="M1695.16,205.55a3.3,3.3,0,0,0-1.84-1c1.74-1.74,2.52-4.8,2.62-8.64a53.89,53.89,0,0,0-.24-6.2,44.86,44.86,0,0,0,12.72-1.43,8.44,8.44,0,0,0,1,1.9c.2.27.14.39-.1.35a14.46,14.46,0,0,0-3.16.1c-2.18.17-6.4.4-8.5.48v2.7h9.84c1.38,0,2.72-.06,3.56-.14v1.78c-.84-.08-2.18-.14-3.56-.14h-9.84C1697.58,200.25,1696.56,203.21,1695.16,205.55Zm5.38-1.34v2.12h-1.82c.08-.9.1-1.64.1-2.56v-4.1a16.46,16.46,0,0,0-.08-1.88c.68,0,2.42.08,5.18.08s4.62,0,5.2-.08a11.12,11.12,0,0,0-.1,1.88v4c0,.92.06,1.72.12,2.56h-1.78v-2Zm6.82-1.44v-3.44h-6.82v3.44Z"/><path d="M1716.28,205.51h-1.84a21.86,21.86,0,0,0,.16-2.94v-8.94a10.2,10.2,0,0,0-.14-1.82c.54.06,1.28.1,2.08.14a19.82,19.82,0,0,0,.4-3.59,12.36,12.36,0,0,0,2.16.31c.32,0,.36.19,0,.5s-.5.74-1,2.8a30.39,30.39,0,0,0,3.6-.16,10.82,10.82,0,0,0-.14,1.82v8.8a24.48,24.48,0,0,0,.16,2.92h-1.86v-1.78h-3.6Zm3.6-12.16h-3.6v3.52h3.6Zm0,4.88h-3.6v4h3.6Zm8.76-6.48a15.58,15.58,0,0,0,2.26-.17,15,15,0,0,0-.16,2l-.42,10.06c-.06,1.42-.94,2.36-3.86,2.56a3.68,3.68,0,0,0-1.1-2.22c2.7.3,3.26-.08,3.3-1.24l.38-9.44h-4.24a19.61,19.61,0,0,1-1.5,3.26,3.6,3.6,0,0,0-1.48-1,16.82,16.82,0,0,0,2.64-7.17,6.3,6.3,0,0,0,2.08.34c.38,0,.42.2,0,.5a8,8,0,0,0-1.24,2.53Zm-3.36,8.94a13.63,13.63,0,0,0-1.68-3.74l1.62-.7a23.51,23.51,0,0,0,1.82,3.52Z"/><path d="M1737.2,204.05c-.58.82-.8,1.06-1,1.44A10.47,10.47,0,0,0,1735,204a2.67,2.67,0,0,0,.74-1.72v-6.66c-.76,0-1.76,0-2.28.1v-1.82a19.86,19.86,0,0,0,2.16.12,11.91,11.91,0,0,0,1.9-.12,13.42,13.42,0,0,0-.2,2.56v5.44a23.31,23.31,0,0,0,1.58-2.4,7.67,7.67,0,0,0,.48,1.56Zm-.76-11.72a20.12,20.12,0,0,0-1.6-3l1.52-.86c.76,1.23,1,1.7,1.72,2.86Zm5.78,1.64v-1.42a16.7,16.7,0,0,0,2,.12v-2.1h-3.06V197c0,5.52-.24,6.14-1.92,9a3.87,3.87,0,0,0-1.72-.7c1.92-2.48,2.12-3.34,2.12-8.64V189.1c1.62.12,3,.19,5.44.19s3.86-.07,5.54-.19a33.25,33.25,0,0,0-.16,4.11v11c0,1.64-.16,1.7-2.82,2a9.94,9.94,0,0,0-.94-1.92c1.9.14,2.2.06,2.2-.52V190.57h-3.2v2.1c.88,0,1.6-.06,2.12-.12V194a17.73,17.73,0,0,0-2.12-.14v2q1.5,0,2.4-.12v1.38c-.72-.06-1.76-.12-3.08-.12s-2.36.06-3.08.12v-1.38c.56.06,1.34.1,2.28.12v-2A16.71,16.71,0,0,0,1742.22,194Zm2.84,9.08c-1.22,0-2,0-2.6.1.06-.76.08-1.44.08-2.38s0-1.82-.08-2.4c.62.06,1.38.1,2.6.1a21.28,21.28,0,0,0,2.6-.1c0,.54-.08,1.6-.08,2.4a20.47,20.47,0,0,0,.08,2.38C1747.06,203.09,1746.28,203.05,1745.06,203.05Zm1.12-3.38h-2.24v2.2h2.24Z"/><path d="M1757.46,204.65a5.5,5.5,0,0,0-1,1.52,6.11,6.11,0,0,0-1.48-1.4,2.41,2.41,0,0,0,.74-1.92V196a17,17,0,0,0-2.22.1v-1.82a17.9,17.9,0,0,0,2,.1,17.25,17.25,0,0,0,2-.1,14.32,14.32,0,0,0-.22,2.5v5.74a14,14,0,0,0,1.56-2.1,3.18,3.18,0,0,0,.94,1.52Zm-.68-11.82a20.36,20.36,0,0,0-2.08-3.16l1.58-1c.68.92,1.5,2.07,2.08,3Zm7.9-4.7a6.35,6.35,0,0,0,2.08,0c.42-.08.5.08.1.47s-.34,1.62-.24,3.54a36.7,36.7,0,0,0,4.32-.3l0,1.9a29.27,29.27,0,0,0-4.26-.08,27,27,0,0,0,1.12,6.74c1,2.52,1.54,3.32,1.9,3.28s.54-.62.7-2.28A4.94,4.94,0,0,0,1772,203c-1,3.5-1.88,3.6-3.1,2.54a10.67,10.67,0,0,1-2.7-4.78,40.43,40.43,0,0,1-1.12-7.08l-1.54,0a42.35,42.35,0,0,0-4.46.3l0-1.9a35.92,35.92,0,0,0,4.48.08l1.44,0C1764.8,190.33,1764.7,189,1764.68,188.13Zm.8,13.38a7.46,7.46,0,0,0-.08,1.62,22.71,22.71,0,0,0-5.52,1.62,12.64,12.64,0,0,0-.4-2c.72-.1,1.36-.2,2-.3v-5a8.39,8.39,0,0,0-1.8.16v-1.76a12.34,12.34,0,0,0,2.4.16,11,11,0,0,0,2.42-.16v1.76a6,6,0,0,0-1.46-.14v4.7C1763.8,202,1764.6,201.77,1765.48,201.51Zm3.26-10a7.28,7.28,0,0,0-1.08-2.07l1.58-.71a9.86,9.86,0,0,1,1.2,2Z"/></g><g class="cls-3"><path class="cls-4" d="M1599.25,20.69a9.82,9.82,0,0,0-2-1.94,28.56,28.56,0,0,0,4.3-7.44,5.75,5.75,0,0,0,1.7,1.65C1601.94,15.22,1600.67,17.67,1599.25,20.69ZM1601,8.62a31.38,31.38,0,0,0-3.07-5l1.61-1a34,34,0,0,1,3.31,4.85Zm2,13.82a8.31,8.31,0,0,0-2-1.65c4.78-1.44,7.2-4.68,7.78-8.48a28,28,0,0,0,0-4,17,17,0,0,0,2.18.19c.58,0,.75.17.41.51a3.31,3.31,0,0,0-.57,1.63c.09,4.94,2.8,7.63,8,9.19a7.44,7.44,0,0,0-1.49,2.3c-4.35-2.23-6.39-4-7.18-8.13C1609.17,18,1607,20.5,1603,22.44Zm1.85-11.83a4.82,4.82,0,0,0-2-.67A20.18,20.18,0,0,0,1607,.5a19.75,19.75,0,0,0,2.59.68c.39,0,.6.26.24.48a2.27,2.27,0,0,0-1,1.32c-.33.74-.65,1.34-1,2h5.64c1.63,0,3.89-.09,4.56-.19L1616,10.56l-2-.36,1.32-3.57H1607C1606.21,8.26,1605.49,9.53,1604.85,10.61Z"/><path class="cls-4" d="M1633.77,3.72c3.4,0,5.59-.05,7.34-.19V5.67c-1.8-.15-3.94-.2-7.22-.2V9.19c2.47,0,4.39-.07,6.09-.19v2c-1.8-.09-3.81-.16-6.09-.19V15c5.66,0,7.39-.07,8.66-.21V17c-1.13-.12-2.57-.2-8.66-.22,0,2.18,0,4,.19,5.93h-2.42c.14-2,.19-3.75.19-5.93-7.11,0-9.29.1-10.71.22V14.79c1.08.12,2.5.16,4.11.19V11.21a13,13,0,0,0-.17-2.21c1.94.15,4,.19,6.77.19V5.47h-5.12a31.33,31.33,0,0,1-2.78,4,7.28,7.28,0,0,0-2.09-.88,22,22,0,0,0,5-8.16,15.94,15.94,0,0,0,2.11.69c.65.15.72.27.24.51-.24.12-.62.55-1.53,2.06Zm-6.58,7.08V15h4.66V10.8Z"/><path class="cls-4" d="M1654.46,20.5h-2.62V15.72h-7.56v-1.8l7.08-11.5h3.1V13.61h2.25v2.11h-2.25Zm-7.57-6.89h4.95V8.18c0-1,.05-2.11.12-3.14h-.1c-.55,1.15-1,2-1.51,3l-3.46,5.52Z"/><path class="cls-4" d="M1665.52,14.07a12.23,12.23,0,0,1-3.65,8.18,4.59,4.59,0,0,0-2.33-1.34c2.86-2.19,4-4.78,4-10.3V4.85c0-1.51,0-2.43-.1-3.12,1.18.07,2.52.09,6.91.09s5.79,0,6.89-.09c-.07.69-.09,1.61-.09,3.12V18.94c0,2.4-.22,2.71-4.11,3.09a4,4,0,0,0-1.06-2.66c2.86.5,2.93.38,2.93-1.82V14.07Zm9.38-7V3.63h-9.31V7.1Zm-9.31,1.69v3.52h9.31V8.79Z"/><path class="cls-4" d="M1694.29,14.33v3.5c0,1.08.1,3,.25,4.32H1692c.12-1.15.24-3.24.24-4.32v-3.5h-5.57V16h-2.21c.1-1,.17-2.56.17-3.57V7.27a17.51,17.51,0,0,0-.17-2.47,76.57,76.57,0,0,0,7.78.26V3.94A13.65,13.65,0,0,0,1692,.36a21.86,21.86,0,0,0,2.54.14c.38,0,.46.1.07.44-.19.16-.29.6-.29,1.32v2.8c4.21,0,6.85-.12,8-.26,0,.62-.12,2.11-.12,3v4.61c0,1,.07,2.43.12,3.43H1700V14.33Zm-2.08-1.8V6.87h-5.57v5.66Zm7.82,0V6.87h-5.74v5.66Z"/><path class="cls-4" d="M1723.33,3.5a17.66,17.66,0,0,0,3.77-.33l-.6,14.4c-.14,3.43-.64,4.18-4.34,4.78a5,5,0,0,0-.94-2.38c2.81,0,3.07-.22,3.2-3l.52-11.72h-12.79a34.68,34.68,0,0,1-3.94,5.6,4.69,4.69,0,0,0-1.94-1.2A25.21,25.21,0,0,0,1712.34,0a14.07,14.07,0,0,0,2.45,1c.41.12.41.34,0,.46s-.79.58-1.66,2.06ZM1712.92,18v1.77h-2.09a26.42,26.42,0,0,0,.17-3.28V10.23a16.18,16.18,0,0,0-.17-2.57,35.22,35.22,0,0,0,5.11.24,33.61,33.61,0,0,0,5.07-.24,20.16,20.16,0,0,0-.12,2.57V16a21.58,21.58,0,0,0,.24,3.33H1719V18Zm6.07-6V9.58h-6.07V12Zm-6.07,1.56v2.83H1719V13.59Z"/></g><polyline class="cls-5" points="147.36 82.94 328.86 82.94 331.36 82.94"/><polygon class="cls-4" points="323.76 93.14 344.16 82.94 323.76 72.74 328.86 82.94 323.76 93.14"/><polyline class="cls-5" points="462.17 83.93 643.67 83.93 646.17 83.93"/><polygon class="cls-4" points="638.57 94.13 658.97 83.93 638.57 73.73 643.67 83.93 638.57 94.13"/><polyline class="cls-5" points="777.02 82.94 958.53 82.94 961.03 82.94"/><polygon class="cls-4" points="953.43 93.14 973.83 82.94 953.43 72.74 958.53 82.94 953.43 93.14"/><polyline class="cls-5" points="1091.82 83.93 1273.33 83.93 1275.83 83.93"/><polygon class="cls-4" points="1268.23 94.13 1288.63 83.93 1268.23 73.73 1273.33 83.93 1268.23 94.13"/><polyline class="cls-5" points="1406.67 82.94 1588.17 82.94 1590.67 82.94"/><polygon class="cls-4" points="1583.07 93.14 1603.47 82.94 1583.07 72.74 1588.17 82.94 1583.07 93.14"/><path class="cls-6" d="M505.43,6.31a11.25,11.25,0,0,0-11.25,11.25h0v32.5a11.25,11.25,0,0,0,11.25,11.25h35.75L558,81.56l16.81-20.25h32.94A11.25,11.25,0,0,0,619,50.06h0V17.56A11.25,11.25,0,0,0,607.71,6.31H505.43Z"/><g class="cls-3"><path class="cls-7" d="M525.67,33.29H514.14a35.11,35.11,0,0,0-4.4.27V31.41c1.15.13,3.7.25,8.13.28v-4.9c0-1.88-.08-3.25-.15-4.1a19,19,0,0,0,2.65.15c.45,0,.5.1.17.37a2.72,2.72,0,0,0-.47,1.73v6.75c4.1,0,6.62-.15,7.82-.28-.08.93-.1,2.23-.1,3.9V41c0,1.72,0,3.15.15,4.47h-2.27V43.68h-12.5a28.79,28.79,0,0,0-3.7.18V41.71a31,31,0,0,0,3.7.17h12.5v-3.5H514.09c-1.45,0-2.72,0-3.7.13V36.56c1,.07,2.25.13,3.7.13h11.58Zm-11.95-3a31,31,0,0,0-3.5-4.68l1.7-1.07c1.27,1.45,2.67,3.15,3.7,4.47ZM528.09,26c-.38.12-1.08.7-4.22,4.32a6.14,6.14,0,0,0-1.55-1.17c2.07-2.3,2.95-3.43,3.62-5.05a12.86,12.86,0,0,0,2.35,1.5C528.51,25.69,528.51,25.84,528.09,26Z"/><path class="cls-7" d="M555.14,26.09v2.2c-2.63-.18-6-.25-10.92-.25s-8.3.07-10.93.25v-2.2c2.65.17,4.8.25,7.88.25h4.32a31.21,31.21,0,0,0,1.93-4.05,13.88,13.88,0,0,0,2.55.95c.27.07.32.22-.15.42s-.93.68-2.13,2.68C550.79,26.29,553.19,26.21,555.14,26.09ZM537.07,45H535c.15-1.83.22-3,.22-4.35v-8A17,17,0,0,0,535,30c1.15.1,3.17.17,4.77.17s3.35-.07,4.5-.17a21.64,21.64,0,0,0-.17,2.7v9.89c0,2-.1,2.23-3.2,2.58a8.21,8.21,0,0,0-1.08-2.45c2,.3,2.33.25,2.33-.7V39.83h-5.1Zm5.1-13.15h-5.1v2.35h5.1Zm-5.1,6.32h5.1V35.83h-5.1Zm2.8-12.29a8.11,8.11,0,0,0-1.5-2.58l2.22-1c.48.8,1,1.62,1.7,2.65Zm8.42,6.22v5.47c0,1,.05,2,.15,3.15h-2.22c.1-1.25.15-2.17.15-3.15V33.51a18.7,18.7,0,0,0-.15-2.75,9.65,9.65,0,0,0,2.15.2c.42,0,.5.25.12.48C548.34,31.56,548.29,31.76,548.29,32.11Zm4.4-1.52V42.83c0,1.68-.35,2.23-3.92,2.58a5.75,5.75,0,0,0-.9-2.63c2.07.35,2.82.25,2.82-.42V32.61a13.79,13.79,0,0,0-.25-3.1,10.23,10.23,0,0,0,2.3.08c.52,0,.57.22.22.42S552.69,30.26,552.69,30.59Z"/><path class="cls-7" d="M564.09,32c1.73,2.1,2.13,3.37,2.13,5.07,0,2.3-1,3.37-3.65,3.77a4.75,4.75,0,0,0-1.23-2.5c2.53.1,2.75-.22,2.83-1.6a6.17,6.17,0,0,0-2.1-4.49l2-6.43h-3.15v19h-2.25c.13-1.85.15-2.73.15-4.83V26.31c0-.95,0-2-.07-2.47,1,.05,2.3.07,4,.07s3.05,0,4-.07Zm7,3.05c-.3,5-.92,7.22-4,10a6.87,6.87,0,0,0-2.1-1.57c3.88-2.28,4.28-5.33,4.2-11.82a14,14,0,0,0,2.4.15c.35,0,.35.07.15.32A8.31,8.31,0,0,0,571.09,35.09Zm-3.65-2a6.19,6.19,0,0,0-2-.92,16.21,16.21,0,0,0,4.2-5,12.47,12.47,0,0,0,1.58-4.85,12.37,12.37,0,0,0,2.6.55c.3,0,.37.27.1.5a1.73,1.73,0,0,0-.4.5,9.38,9.38,0,0,0,7.32,6.2,6.45,6.45,0,0,0-1.53,2.6,12.6,12.6,0,0,1-6.69-7A28.37,28.37,0,0,1,567.44,33.11Zm9,1.18v5.94c0,1.13.1,3.18.19,4.58h-2.42c.13-1.45.2-3.45.2-4.58v-4.7a31.07,31.07,0,0,0-.2-3.87,10.87,10.87,0,0,0,2.37.23c.45,0,.6.17.13.5C576.49,32.56,576.42,33.06,576.42,34.29Z"/><path class="cls-7" d="M591.59,28.86v1.8a36.84,36.84,0,0,0-4.72-.12v3.2a23,23,0,0,0,4.72-.23v1.93a36,36,0,0,0-4.72-.13v4l5-1.17a9,9,0,0,0,.05,1.75L586.87,41c0,1.6,0,3,.15,4.17h-2.4a21.08,21.08,0,0,0,.3-3.72,7.1,7.1,0,0,0-1.85.67,5.9,5.9,0,0,0-.48-2.25,13.67,13.67,0,0,0,2.33-.2V28.76a19.37,19.37,0,0,0-.2-3.92,15.36,15.36,0,0,0,5.82-1.6A9.14,9.14,0,0,0,592,25.11c.4.35.35.53-.25.43a8.74,8.74,0,0,0-1.65.17c-1.2.25-2.42.48-3.22.58V29A27.64,27.64,0,0,0,591.59,28.86Zm1.08,5.8V32.71c1.5.13,3,.15,5.32.15s3.6,0,5.32-.15c-1.35,3.8-2.19,5.57-3.89,7.4a12.78,12.78,0,0,0,6.17,2.27A4.63,4.63,0,0,0,604.14,45a18.19,18.19,0,0,1-6-3.53A24,24,0,0,1,592,45.21a3.53,3.53,0,0,0-1.8-1.83,20.92,20.92,0,0,0,6.5-3.22,16.31,16.31,0,0,1-2.9-5.6C593.44,34.59,593,34.61,592.67,34.66Zm9-6.65c0,1,.35,1.18,1.55,1.1a8.36,8.36,0,0,0,1.85-.27,3.24,3.24,0,0,0-.1,2.22,21.16,21.16,0,0,1-2.85.05c-2-.15-2.27-.37-2.27-2.8V25.69h-3.55c0,3.67-.53,4.67-2.65,6.72a4.71,4.71,0,0,0-1.45-1.62,4.31,4.31,0,0,0,2.17-3.4,15.07,15.07,0,0,0-.05-3.55c1.08.1,2.15.12,3.58.12s3,0,4-.12A30.5,30.5,0,0,0,601.64,28ZM598,39a11.74,11.74,0,0,0,2.47-4.48l-4.67,0A11.19,11.19,0,0,0,598,39Z"/></g><rect class="cls-8" x="485.78" y="6.31" width="141.58" height="54.99"/></g></g></g></g></svg>