<svg xmlns="http://www.w3.org/2000/svg" xmlns:xlink="http://www.w3.org/1999/xlink" viewBox="0 0 1195 368.6"><defs><style>.cls-1{fill:url(#linear-gradient);}.cls-10,.cls-14,.cls-16,.cls-2,.cls-24,.cls-8{font-size:12px;}.cls-2{fill:#333;}.cls-10,.cls-14,.cls-18,.cls-2,.cls-24,.cls-28,.cls-8{font-family:AdobeHeitiStd-Regular-GBpc-EUC-H, Adobe Heiti Std;}.cls-11,.cls-22,.cls-23,.cls-3,.cls-32,.cls-34,.cls-5,.cls-6{fill:none;}.cls-3{stroke:#fff;stroke-linecap:square;stroke-miterlimit:8;stroke-width:5px;}.cls-4{fill:url(#linear-gradient-2);}.cls-5,.cls-6{stroke:#4d4d4d;stroke-linecap:round;}.cls-22,.cls-23,.cls-32,.cls-34,.cls-5,.cls-6{stroke-miterlimit:10;}.cls-6{stroke-dasharray:4.02 6.03;}.cls-7,.cls-8{fill:#4d4d4d;}.cls-9{fill:url(#linear-gradient-3);}.cls-10,.cls-26{fill:#fff;}.cls-12{fill:url(#linear-gradient-4);}.cls-13{fill:url(#linear-gradient-5);}.cls-15{fill:#205899;}.cls-16{font-family:Arial-BoldMT, Arial;}.cls-17,.cls-20{font-weight:700;}.cls-19{fill:#649900;}.cls-20{letter-spacing:0.08em;}.cls-21{fill:#b35800;}.cls-22,.cls-23{stroke:gray;stroke-width:2px;}.cls-23{stroke-dasharray:12 8;}.cls-24,.cls-25{fill:#666;}.cls-27{fill:gray;}.cls-28{font-size:8px;fill:#2c77d6;}.cls-29{fill:#2568b8;}.cls-30{fill:#569620;}.cls-31{fill:#944900;}.cls-32{stroke:#2e7ed9;}.cls-33{fill:#2e7ed9;}.cls-34{stroke:#2e70c4;}.cls-35{fill:#2e70c4;}</style><linearGradient id="linear-gradient" x1="654.75" y1="151.81" x2="654.75" y2="25" gradientUnits="userSpaceOnUse"><stop offset="0" stop-color="#5e9c26"/><stop offset="0.99" stop-color="#2568b8"/></linearGradient><linearGradient id="linear-gradient-2" x1="818.99" y1="292.42" x2="818.99" y2="176" gradientUnits="userSpaceOnUse"><stop offset="0" stop-color="#a35400"/><stop offset="1" stop-color="#4b9521"/></linearGradient><linearGradient id="linear-gradient-3" x1="109.27" y1="304" x2="1084.73" y2="304" gradientUnits="userSpaceOnUse"><stop offset="0" stop-color="#fff"/><stop offset="0" stop-color="#faf5ed"/><stop offset="0.02" stop-color="#ecd9bb"/><stop offset="0.03" stop-color="#e0bf8f"/><stop offset="0.05" stop-color="#d5a968"/><stop offset="0.07" stop-color="#cc9748"/><stop offset="0.09" stop-color="#c5882e"/><stop offset="0.11" stop-color="#bf7c19"/><stop offset="0.13" stop-color="#bb740b"/><stop offset="0.15" stop-color="#b96f03"/><stop offset="0.2" stop-color="#b86e00"/><stop offset="1" stop-color="#944900"/></linearGradient><linearGradient id="linear-gradient-4" x1="109.27" y1="164" x2="1084.73" y2="164" gradientUnits="userSpaceOnUse"><stop offset="0" stop-color="#fff"/><stop offset="0.01" stop-color="#edf4df"/><stop offset="0.03" stop-color="#d6e5b4"/><stop offset="0.04" stop-color="#c0d78d"/><stop offset="0.06" stop-color="#afcc6d"/><stop offset="0.08" stop-color="#a0c353"/><stop offset="0.1" stop-color="#95bc3e"/><stop offset="0.12" stop-color="#8db730"/><stop offset="0.15" stop-color="#88b428"/><stop offset="0.2" stop-color="#87b325"/><stop offset="1" stop-color="#2f811b"/></linearGradient><linearGradient id="linear-gradient-5" x1="109.27" y1="24" x2="1084.73" y2="24" gradientUnits="userSpaceOnUse"><stop offset="0" stop-color="#fff"/><stop offset="0.01" stop-color="#e7f0fa"/><stop offset="0.02" stop-color="#bcd4f1"/><stop offset="0.04" stop-color="#95bce8"/><stop offset="0.06" stop-color="#75a7e1"/><stop offset="0.08" stop-color="#5b97dc"/><stop offset="0.1" stop-color="#468ad7"/><stop offset="0.12" stop-color="#3881d4"/><stop offset="0.15" stop-color="#307cd3"/><stop offset="0.2" stop-color="#2d7ad2"/><stop offset="1" stop-color="#1b4a81"/></linearGradient></defs><title>Process_Full</title><g id="Layer_2" data-name="Layer 2"><g id="Back"><path class="cls-1" d="M711,176c-49.31,0-78.52-10.95-94.71-35.51-15-22.7-17.79-54.23-17.79-104.49h24c0,87.66,6.86,116,88.5,116Z"/><text class="cls-2" transform="translate(635.92 96.7)">交付代码</text><polyline class="cls-3" points="628.48 83.41 614.56 101.53 596.79 87.87"/><path class="cls-4" d="M863.62,316c-24.55-.57-42-12-50.32-33.07-6.63-16.69-6.5-36.35-6.4-50.71.1-14.07.26-37.62-11-48.91-5-5-12.15-7.38-21.87-7.31l-.18-24h.6c16,0,28.89,4.82,38.41,14.33,18.41,18.39,18.2,48.23,18.08,66.06-.27,39,4.8,59,33.28,59.61Z"/><line class="cls-5" x1="155.26" y1="347.2" x2="155.26" y2="345.2"/><line class="cls-6" x1="155.26" y1="339.17" x2="155.26" y2="40.71"/><line class="cls-5" x1="155.26" y1="37.7" x2="155.26" y2="35.7"/><rect class="cls-7" x="152.01" y="346.7" width="6.5" height="1"/><text class="cls-8" transform="translate(136.26 364.9)">7月7日</text><line class="cls-5" x1="400.26" y1="347.2" x2="400.26" y2="345.2"/><line class="cls-6" x1="400.26" y1="339.17" x2="400.26" y2="40.71"/><line class="cls-5" x1="400.26" y1="37.7" x2="400.26" y2="35.7"/><rect class="cls-7" x="397.01" y="346.7" width="6.5" height="1"/><text class="cls-8" transform="translate(377.88 364.9)">9月15日</text><line class="cls-5" x1="610.26" y1="347.5" x2="610.26" y2="345.5"/><line class="cls-6" x1="610.26" y1="339.47" x2="610.26" y2="41.01"/><line class="cls-5" x1="610.26" y1="38" x2="610.26" y2="36"/><rect class="cls-7" x="607.01" y="347" width="6.5" height="1"/><text class="cls-8" transform="translate(587.88 365.2)">10月7日</text><line class="cls-5" x1="740.26" y1="347.5" x2="740.26" y2="345.5"/><line class="cls-6" x1="740.26" y1="339.47" x2="740.26" y2="41.01"/><line class="cls-5" x1="740.26" y1="38" x2="740.26" y2="36"/><rect class="cls-7" x="737.01" y="347" width="6.5" height="1"/><text class="cls-8" transform="translate(717.88 365.2)">11月4日</text><line class="cls-5" x1="944.26" y1="347.5" x2="944.26" y2="345.5"/><line class="cls-6" x1="944.26" y1="339.47" x2="944.26" y2="41.01"/><line class="cls-5" x1="944.26" y1="38" x2="944.26" y2="36"/><rect class="cls-7" x="941.01" y="347" width="6.5" height="1"/><text class="cls-8" transform="translate(918.51 365.2)">11月30日</text></g><g id="Axis_3" data-name="Axis 3"><polyline class="cls-9" points="109.27 316 1072.78 316 1084.73 304 1072.69 292 109.27 292"/><text class="cls-10" transform="translate(149 308.58)">学习 IC 后端设计相关知识</text><polyline class="cls-3" points="294.11 288 310.11 304.3 294.11 320"/><text class="cls-10" transform="translate(318.11 308.58)">完成 3 ~ 4 个虚拟训练项目</text><polyline class="cls-3" points="460.11 288 476.11 304.3 460.11 320"/><text class="cls-10" transform="translate(577 308.58)">设计 IC 后端</text><polyline class="cls-3" points="745 288 761 304.3 745 320"/><text class="cls-10" transform="translate(782 308.58)">生成可供生产的版图</text><polygon class="cls-11" points="1084.46 304.27 1072.42 292 109 292 109 316 1072.51 316 1084.46 304.27"/><polyline class="cls-3" points="899 288 915 304.3 899 320"/><text class="cls-10" transform="translate(988 308.58)">交付生产</text></g><g id="Axis_2" data-name="Axis 2"><polygon class="cls-12" points="1084.73 164.27 1072.69 152 109.27 152 109.27 176 1072.78 176 1084.73 164.27"/><text class="cls-10" transform="translate(150 168.58)">学习 SoC 相关知识</text><polyline class="cls-3" points="253 148 269 164.3 253 180"/><text class="cls-10" transform="translate(277 168.58)">完成 3 ~ 4 个虚拟训练项目</text><polyline class="cls-3" points="419 148 435 164.3 419 180"/><text class="cls-10" transform="translate(443 168.58)">制定处理器核接口标准</text><polyline class="cls-3" points="564 148 580 164.3 564 180"/><text class="cls-10" transform="translate(606 168.58)">集成处理器核</text><polyline class="cls-3" points="700 148 716 164.3 700 180"/><text class="cls-10" transform="translate(761.44 168.58)">完成 SoC集成和验证，交付定稿</text><polyline class="cls-3" points="930 148 946 164.3 930 180"/><text class="cls-10" transform="translate(985 168.58)">项目结束</text></g><g id="Axis_1" data-name="Axis 1"><polyline class="cls-13" points="109.27 36 1072.78 36 1084.73 24 1072.69 12 109.27 12"/><text class="cls-10" transform="translate(149 28.58)">发布任务列表</text><polyline class="cls-3" points="241 8 257 24.3 241 40"/><text class="cls-10" transform="translate(267 28.58)">学习架构设计</text><polyline class="cls-3" points="341 8 357 24.3 341 40"/><text class="cls-10" transform="translate(365 28.58)">首次代码提交</text><polyline class="cls-3" points="439 8 455 24.3 439 40"/><text class="cls-10" transform="translate(463 28.58)">进阶学习，优化设计</text><polyline class="cls-3" points="571 8 587 24.3 571 40"/><text class="cls-10" transform="translate(629 28.58)">处理器核定稿</text><polyline class="cls-3" points="701 8 717 24.3 701 40"/><text class="cls-10" transform="translate(733 28.58)">继续学习与架构设计有关的进阶知识，或了解SOC和后端知识</text></g><g id="Front"><text class="cls-14" transform="translate(24 22.2)">处理器核<tspan x="-24" y="14.4">前端架构团队</tspan></text><path class="cls-15" d="M96.63,26A8.43,8.43,0,0,1,105,34.38V37a3,3,0,0,1-3,3H80a3,3,0,0,1-3-3V34.38A8.43,8.43,0,0,1,85.38,26h1.06a10.9,10.9,0,0,0,9.12,0Zm0-4.34A8,8,0,0,1,83,16a8,8,0,1,1,16,0A7.73,7.73,0,0,1,96.66,21.66Z"/><text class="cls-16" transform="translate(48 162.2)"><tspan class="cls-17">SoC</tspan><tspan class="cls-18"><tspan x="-48" y="14.4">集成验证团队</tspan></tspan></text><path class="cls-19" d="M96.63,166a8.43,8.43,0,0,1,8.37,8.38V177a3,3,0,0,1-3,3H80a3,3,0,0,1-3-3v-2.62A8.43,8.43,0,0,1,85.38,166h1.06a10.9,10.9,0,0,0,9.12,0Zm0-4.34A8,8,0,1,1,99,156,7.73,7.73,0,0,1,96.66,161.66Z"/><text class="cls-16" transform="translate(59.04 302.2)"><tspan class="cls-20">IC</tspan><tspan class="cls-18"><tspan x="-59.04" y="14.4">后端设计团队</tspan></tspan></text><path class="cls-21" d="M96.63,306a8.43,8.43,0,0,1,8.37,8.38V317a3,3,0,0,1-3,3H80a3,3,0,0,1-3-3v-2.62A8.43,8.43,0,0,1,85.38,306h1.06a10.9,10.9,0,0,0,9.12,0Zm0-4.34A8,8,0,1,1,99,296,7.73,7.73,0,0,1,96.66,301.66Z"/><line class="cls-22" x1="1117" y1="304" x2="1117" y2="298"/><line class="cls-23" x1="1117" y1="290" x2="1117" y2="34"/><line class="cls-22" x1="1117" y1="30" x2="1117" y2="24"/><text class="cls-24" transform="translate(1147 28.58)">回片调试</text><path class="cls-25" d="M1127.78,46a2.42,2.42,0,0,1-2.47-2.38.86.86,0,1,0-1.62,0,2.42,2.42,0,0,1-2.47,2.38h-.94a2.42,2.42,0,0,1-2.47-2.38.86.86,0,1,0-1.62,0,2.42,2.42,0,0,1-2.47,2.38h-.94a2.42,2.42,0,0,1-2.47-2.38.86.86,0,1,0-1.62,0,2.42,2.42,0,0,1-2.47,2.38h-.94a2.42,2.42,0,0,1-2.47-2.38,2.44,2.44,0,0,1-.93-2V38.5h-1.13a5.74,5.74,0,0,1-5.75-5.75V15.25a5.74,5.74,0,0,1,5.75-5.75h1.13V6.34a2.44,2.44,0,0,1,.93-2A2.42,2.42,0,0,1,1105.28,2h.94a2.42,2.42,0,0,1,2.47,2.38.86.86,0,1,0,1.62,0A2.42,2.42,0,0,1,1112.78,2h.94a2.42,2.42,0,0,1,2.47,2.38.86.86,0,1,0,1.62,0A2.42,2.42,0,0,1,1120.28,2h.94a2.42,2.42,0,0,1,2.47,2.38.86.86,0,1,0,1.62,0A2.42,2.42,0,0,1,1127.78,2h.94a2.42,2.42,0,0,1,2.47,2.38,2.45,2.45,0,0,1,.94,2V9.5h1.12a5.74,5.74,0,0,1,5.75,5.75v17.5a5.74,5.74,0,0,1-5.75,5.75h-1.12v3.16a2.45,2.45,0,0,1-.94,2,2.42,2.42,0,0,1-2.47,2.38Z"/><path class="cls-26" d="M1128.72,4a.42.42,0,0,1,.47.47V5.88h.47a.41.41,0,0,1,.47.46V9.63h-3.75V6.34a.4.4,0,0,1,.46-.46h.47V4.47a.42.42,0,0,1,.47-.47h.94m-7.5,0a.42.42,0,0,1,.47.47V5.88h.47a.41.41,0,0,1,.47.46V9.63h-3.75V6.34a.4.4,0,0,1,.46-.46h.47V4.47a.42.42,0,0,1,.47-.47h.94m-7.5,0a.42.42,0,0,1,.47.47V5.88h.47a.41.41,0,0,1,.47.46V9.63h-3.75V6.34a.4.4,0,0,1,.46-.46h.47V4.47a.42.42,0,0,1,.47-.47h.94m-7.5,0a.42.42,0,0,1,.47.47V5.88h.47a.41.41,0,0,1,.47.46V9.63h-3.75V6.34a.4.4,0,0,1,.46-.46h.47V4.47a.42.42,0,0,1,.47-.47h.94m27,7.5a3.66,3.66,0,0,1,2.66,1.09,3.62,3.62,0,0,1,1.09,2.66v17.5a3.72,3.72,0,0,1-3.75,3.75h-32.5a3.72,3.72,0,0,1-3.75-3.75V15.25a3.62,3.62,0,0,1,1.09-2.66,3.66,3.66,0,0,1,2.66-1.09h32.5m-3.12,26.88v3.28a.42.42,0,0,1-.47.47h-.47v1.4a.42.42,0,0,1-.47.47h-.94a.42.42,0,0,1-.47-.47v-1.4h-.47a.41.41,0,0,1-.46-.47V38.38h3.75m-7.5,0v3.28a.42.42,0,0,1-.47.47h-.47v1.4a.42.42,0,0,1-.47.47h-.94a.42.42,0,0,1-.47-.47v-1.4h-.47a.41.41,0,0,1-.46-.47V38.38h3.75m-7.5,0v3.28a.42.42,0,0,1-.47.47h-.47v1.4a.42.42,0,0,1-.47.47h-.94a.42.42,0,0,1-.47-.47v-1.4h-.47a.41.41,0,0,1-.46-.47V38.38h3.75m-7.5,0v3.28a.42.42,0,0,1-.47.47h-.47v1.4a.42.42,0,0,1-.47.47h-.94a.42.42,0,0,1-.47-.47v-1.4h-.47a.41.41,0,0,1-.46-.47V38.38h3.75M1128.72,0h-.94a4.52,4.52,0,0,1-6.56,0h-.94a4.52,4.52,0,0,1-6.56,0h-.94a4.52,4.52,0,0,1-6.56,0h-.94a4.41,4.41,0,0,0-4.35,3.43,4.47,4.47,0,0,0-1,2.91V7.55a7.52,7.52,0,0,0-4.61,2.21,7.61,7.61,0,0,0-2.27,5.49v17.5a7.59,7.59,0,0,0,2.27,5.49,7.52,7.52,0,0,0,4.61,2.21v1.21a4.47,4.47,0,0,0,1,2.91,4.41,4.41,0,0,0,4.35,3.43h.94a4.52,4.52,0,0,1,6.56,0h.94a4.52,4.52,0,0,1,6.56,0h.94a4.52,4.52,0,0,1,6.56,0h.94a4.41,4.41,0,0,0,4.35-3.43,4.48,4.48,0,0,0,1.06-2.91V40.45a7.48,7.48,0,0,0,4.6-2.22,7.55,7.55,0,0,0,2.27-5.48V15.25a7.73,7.73,0,0,0-6.87-7.7V6.34a4.48,4.48,0,0,0-1.06-2.91A4.41,4.41,0,0,0,1128.72,0Z"/><circle class="cls-27" cx="1117" cy="164" r="10"/><path class="cls-26" d="M1117,156a8,8,0,1,1-8,8,8,8,0,0,1,8-8m0-4a12,12,0,1,0,12,12,12,12,0,0,0-12-12Z"/><circle class="cls-27" cx="1117" cy="304" r="10"/><path class="cls-26" d="M1117,296a8,8,0,1,1-8,8,8,8,0,0,1,8-8m0-4a12,12,0,1,0,12,12,12,12,0,0,0-12-12Z"/><text class="cls-28" transform="translate(314 81.39)">Verilator 介绍<tspan x="0" y="12">单周期处理器设计</tspan><tspan x="0" y="24">Git 使用介绍</tspan><tspan x="0" y="36">Chisel 介绍</tspan><tspan x="0" y="48">Abstract Machine 介绍</tspan><tspan x="0" y="60">Difftest 介绍</tspan></text><polyline class="cls-3" points="834.9 227 818.6 243 802.9 227"/><path class="cls-26" d="M615.25,43a1.87,1.87,0,0,1-.4,0,2,2,0,0,1-1.57-1.3L610,33.59l-3.29,8.1A2,2,0,0,1,605.15,43a1.9,1.9,0,0,1-.41,0,2.08,2.08,0,0,1-1.49-.63L601,40l-3.21.12a2.15,2.15,0,0,1-1.83-.91,2.07,2.07,0,0,1-.27-2l3.77-9.16,1,.87a4.2,4.2,0,0,0,1.41.8,3.36,3.36,0,0,0,.5.1,2.59,2.59,0,0,1,1.49.81l.17.17A4.12,4.12,0,0,0,607,32a3.74,3.74,0,0,0,1.95-.56l.16-.1-.06-.15a3.92,3.92,0,0,1-2,.54,3.39,3.39,0,0,1-.45,0,3.74,3.74,0,0,1-2.29-1.09l-.35-.36-.17-.15-.28-.21-.09-.06a0,0,0,0,1,0,0l-.13,0-.4-.13-.31-.07c-.25-.06-.46-.11-.63-.17a3.62,3.62,0,0,1-2.61-2.73,13,13,0,0,0-.51-1.57,12.7,12.7,0,0,0-1.08-1.23,3.63,3.63,0,0,1-1-3.69,14.22,14.22,0,0,0,.39-1.65,15.72,15.72,0,0,0-.39-1.54,3.77,3.77,0,0,1,1-3.79,9.34,9.34,0,0,0,1.07-1.16,13.52,13.52,0,0,0,.5-1.63A3.8,3.8,0,0,1,602,7.76a8.89,8.89,0,0,0,1.62-.46,11.07,11.07,0,0,0,1.11-1.1A3.74,3.74,0,0,1,607.39,5a3.92,3.92,0,0,1,1.05.15,9.68,9.68,0,0,0,1.57.38,10.46,10.46,0,0,0,1.54-.38A4,4,0,0,1,612.61,5a3.68,3.68,0,0,1,2.66,1.18,10.4,10.4,0,0,0,1.17,1.14,11,11,0,0,0,1.52.42,3.83,3.83,0,0,1,2.7,2.74,13.38,13.38,0,0,0,.51,1.65,10.72,10.72,0,0,0,1.06,1.14,3.74,3.74,0,0,1,1,3.77,13,13,0,0,0-.39,1.59s0,.33.39,1.62a3.64,3.64,0,0,1-1,3.71,11.39,11.39,0,0,0-1.06,1.22,11.34,11.34,0,0,0-.51,1.58A3.66,3.66,0,0,1,618,29.49a5.41,5.41,0,0,1-.63.16l-.35.07-.26.11a4.46,4.46,0,0,1-.43.17,2.71,2.71,0,0,1-.24.25l-.38.39a3.74,3.74,0,0,1-2.29,1.09,3.39,3.39,0,0,1-.45,0,3.92,3.92,0,0,1-2-.54h0l-.06.15.16.1A3.74,3.74,0,0,0,613,32a4.08,4.08,0,0,0,3-1.2,2.15,2.15,0,0,1,.9-.75l1.31-.34a4.07,4.07,0,0,0,1.36-.78l1-.87,3.75,9.13a2.06,2.06,0,0,1-.25,2,2.14,2.14,0,0,1-1.79.91L619.05,40l-2.29,2.35A2.1,2.1,0,0,1,615.25,43ZM610,12.66a5.31,5.31,0,0,0-4,1.67,5.54,5.54,0,0,0-1.64,4.08A5.52,5.52,0,0,0,606,22.48a5.53,5.53,0,0,0,7.92,0,5.52,5.52,0,0,0,1.64-4.07A5.54,5.54,0,0,0,614,14.33,5.31,5.31,0,0,0,610,12.66Z"/><path class="cls-29" d="M612.61,6a2.75,2.75,0,0,1,2,.88,8.46,8.46,0,0,0,1.37,1.3,9.31,9.31,0,0,0,1.79.53,2.82,2.82,0,0,1,2,2,13.28,13.28,0,0,0,.59,1.86A9.85,9.85,0,0,0,621.52,14a2.75,2.75,0,0,1,.78,2.81,9.42,9.42,0,0,0-.43,1.83,10.65,10.65,0,0,0,.43,1.89,2.66,2.66,0,0,1-.78,2.74,12,12,0,0,0-1.23,1.44,13.82,13.82,0,0,0-.59,1.8,2.67,2.67,0,0,1-2,2,3.49,3.49,0,0,1-.56.14l-.46.11-.35.14-.35.14a.79.79,0,0,0-.28.18,3.38,3.38,0,0,0-.35.31l-.39.39a2.73,2.73,0,0,1-1.69.81l-.34,0a2.87,2.87,0,0,1-1.48-.41,2.82,2.82,0,0,0-3,0,2.87,2.87,0,0,1-1.48.41l-.34,0a2.73,2.73,0,0,1-1.69-.81l-.35-.35a2.1,2.1,0,0,0-.28-.25l-.28-.21-.21-.14-.32-.11-.35-.1-.42-.11a3.61,3.61,0,0,1-.53-.14,2.67,2.67,0,0,1-2-2,13.82,13.82,0,0,0-.59-1.8,12,12,0,0,0-1.23-1.44,2.66,2.66,0,0,1-.78-2.74,10.65,10.65,0,0,0,.43-1.89,9.42,9.42,0,0,0-.43-1.83,2.75,2.75,0,0,1,.78-2.81,9.85,9.85,0,0,0,1.23-1.37,13.28,13.28,0,0,0,.59-1.86,2.82,2.82,0,0,1,2-2,9.06,9.06,0,0,0,1.79-.53,8.46,8.46,0,0,0,1.37-1.3,2.75,2.75,0,0,1,2-.88,3.12,3.12,0,0,1,.78.11,10.27,10.27,0,0,0,1.83.42,10.27,10.27,0,0,0,1.83-.42,3.12,3.12,0,0,1,.78-.11M610,25.15a6.27,6.27,0,0,0,4.67-2,6.54,6.54,0,0,0,1.93-4.77,6.55,6.55,0,0,0-1.93-4.78,6.52,6.52,0,0,0-9.34,0,6.55,6.55,0,0,0-1.93,4.78,6.54,6.54,0,0,0,1.93,4.77,6.27,6.27,0,0,0,4.67,2m10.19,4.57,3.23,7.87a1.08,1.08,0,0,1-.14,1,1.14,1.14,0,0,1-1,.49L618.64,39,616,41.66a1.05,1.05,0,0,1-.78.34L615,42a1,1,0,0,1-.8-.67l-3.66-9A4.79,4.79,0,0,0,613,33a5.08,5.08,0,0,0,3.65-1.48,2.65,2.65,0,0,1,.53-.52c.07,0,.48-.13,1.23-.32a5.07,5.07,0,0,0,1.76-1m-20.38,0a5.07,5.07,0,0,0,1.76,1,3.38,3.38,0,0,0,.63.14,1.59,1.59,0,0,1,.91.49l.22.21A5.08,5.08,0,0,0,607,33a4.79,4.79,0,0,0,2.46-.7l-3.66,9a1,1,0,0,1-.8.67l-.24,0a1,1,0,0,1-.78-.34L601.36,39l-3.66.14a1.12,1.12,0,0,1-1-.49,1.08,1.08,0,0,1-.14-1l3.23-7.87M612.61,4h0a5,5,0,0,0-1.31.18c-.76.22-1.14.31-1.3.34s-.53-.12-1.28-.33A4.85,4.85,0,0,0,607.39,4,4.73,4.73,0,0,0,604,5.47l0,0,0,0c-.51.54-.78.8-.9.91s-.52.16-1.26.33l-.07,0-.08,0a4.85,4.85,0,0,0-3.29,3.42c-.23.87-.36,1.25-.41,1.4s-.34.39-.9,1a4.76,4.76,0,0,0-1.29,4.73c.22.78.31,1.16.34,1.32s-.11.56-.33,1.37A4.64,4.64,0,0,0,597,24.64c.59.63.83.92.92,1s.18.5.42,1.36c0,.17.1.34.16.51L598,29l-3.23,7.87v.05a3.15,3.15,0,0,0,3,4.25h.08l2.77-.11,2,2a3.11,3.11,0,0,0,2.22.94,3.68,3.68,0,0,0,.58,0A3,3,0,0,0,607.65,42L610,36.25,612.35,42A3,3,0,0,0,614.68,44a3.68,3.68,0,0,0,.58,0,3.09,3.09,0,0,0,2.2-.92l2-2.06,2.77.11h.08a3.15,3.15,0,0,0,3-4.25v-.05L622,29l-.58-1.42c.06-.17.12-.36.17-.55.24-.83.36-1.18.41-1.31s.33-.4.92-1A4.66,4.66,0,0,0,624.23,20c-.23-.81-.31-1.2-.34-1.37s.11-.53.33-1.28a4.78,4.78,0,0,0-1.28-4.77c-.56-.56-.8-.83-.9-1s-.18-.53-.41-1.4a4.86,4.86,0,0,0-3.29-3.42l-.08,0-.07,0c-.74-.17-1.1-.28-1.26-.33s-.39-.37-.9-.91l0,0,0,0A4.73,4.73,0,0,0,612.61,4ZM610,23.15a4.24,4.24,0,0,1-3.24-1.37,4.56,4.56,0,0,1-1.36-3.37A4.61,4.61,0,0,1,606.75,15a4.54,4.54,0,0,1,6.5,0,4.61,4.61,0,0,1,1.35,3.38,4.59,4.59,0,0,1-1.35,3.37A4.28,4.28,0,0,1,610,23.15Z"/><path class="cls-26" d="M741,177.2v-12h14v9a3,3,0,0,1-3,3Zm-13,0a3,3,0,0,1-3-3v-9h14v12Zm-3-12a2,2,0,0,1-1.43-.57,2,2,0,0,1-.57-1.43v-5a3,3,0,0,1,3-3h1.31a6.22,6.22,0,0,1-.18-1.5,6.54,6.54,0,0,1,6.5-6.5,6.69,6.69,0,0,1,3.88,1.18,13.11,13.11,0,0,1,2.55,2.46,13.41,13.41,0,0,1,2.56-2.46,6.67,6.67,0,0,1,3.88-1.18,6.56,6.56,0,0,1,6.5,6.5,5.88,5.88,0,0,1-.19,1.5H754a3,3,0,0,1,3,3v5a2,2,0,0,1-.57,1.43,2,2,0,0,1-1.43.57Zm21.5-10a1.42,1.42,0,0,0,1.07-.42,1.51,1.51,0,0,0-1.07-2.58,2.28,2.28,0,0,0-.9.15,4.38,4.38,0,0,0-1.17,1.08c-.39.44-.85,1-1.39,1.77Zm-12.87-3a1.43,1.43,0,0,0-1.08.43,1.5,1.5,0,0,0,1.08,2.57h3.48a13.25,13.25,0,0,0-2-2.38A2.43,2.43,0,0,0,733.63,152.2Z"/><path class="cls-30" d="M746.5,148.2a5.55,5.55,0,0,1,5.5,5.5,5.6,5.6,0,0,1-.62,2.5H754a2,2,0,0,1,2,2v5a.94.94,0,0,1-.28.72,1,1,0,0,1-.72.28H725a1,1,0,0,1-.72-.28.94.94,0,0,1-.28-.72v-5a2,2,0,0,1,2-2h2.75a5.4,5.4,0,0,1,1-6.37,5.31,5.31,0,0,1,3.88-1.63,5.7,5.7,0,0,1,3.31,1,14.61,14.61,0,0,1,3.12,3.25,14.85,14.85,0,0,1,3.13-3.25,5.7,5.7,0,0,1,3.31-1m-5.37,8h5.37a2.4,2.4,0,0,0,1.78-.71,2.51,2.51,0,0,0-1.78-4.29,3.45,3.45,0,0,0-1.28.22,5.28,5.28,0,0,0-1.53,1.35,34,34,0,0,0-2.56,3.43m-7.5,0H739a21.78,21.78,0,0,0-3.22-4.15,3.38,3.38,0,0,0-2.15-.85,2.5,2.5,0,1,0,0,5m20.37,10v8a1.94,1.94,0,0,1-.59,1.41,1.92,1.92,0,0,1-1.41.59H742v-10h12m-16,0v10H728a1.92,1.92,0,0,1-1.41-.59,1.94,1.94,0,0,1-.59-1.41v-8h12m8.5-20a7.63,7.63,0,0,0-4.45,1.36,12.89,12.89,0,0,0-2,1.76,12.41,12.41,0,0,0-2-1.76,7.67,7.67,0,0,0-4.45-1.36,7.56,7.56,0,0,0-7.5,7.5c0,.17,0,.34,0,.5H726a4,4,0,0,0-4,4v5a3,3,0,0,0,.87,2.14,2.9,2.9,0,0,0,1.13.7v8.16a4,4,0,0,0,4,4h24a4,4,0,0,0,4-4V166a2.83,2.83,0,0,0,1.13-.7,3,3,0,0,0,.87-2.14v-5a4,4,0,0,0-4-4h0c0-.16,0-.33,0-.5a7.56,7.56,0,0,0-7.5-7.5Zm-.47,7.05a1.84,1.84,0,0,1,.47-.05.43.43,0,0,1,.37.14.43.43,0,0,1,.13.36.46.46,0,0,1-.13.37.43.43,0,0,1-.37.13h-1.41l.09-.1a6.37,6.37,0,0,1,.85-.85Zm-12.4.95a.45.45,0,0,1-.5-.5.42.42,0,0,1,.13-.36.43.43,0,0,1,.37-.14,1.3,1.3,0,0,1,.88.4,4.83,4.83,0,0,1,.58.6Z"/><path class="cls-26" d="M955.39,321a3.28,3.28,0,0,1-2.36-1l-7.31-7.31a5.56,5.56,0,0,1-1-1.4l0,.07-8.21,8.14a5,5,0,1,1-7-7l10.19-10.26L938.46,301h-4l-6.82-9.09,5.22-5.22,9.09,6.81v4l.07.07v-.39a9.74,9.74,0,0,1,2.84-7.21,10,10,0,0,1,4.42-2.58A10.16,10.16,0,0,1,952,287a10.53,10.53,0,0,1,2.42.29,1.72,1.72,0,0,1,1.27,1.33,1.63,1.63,0,0,1-.51,1.63l-4.24,4.29.49,3,3,.49,4.32-4.27a1.77,1.77,0,0,1,1.24-.53,1.92,1.92,0,0,1,.41.05,1.71,1.71,0,0,1,1.27,1.23,10,10,0,0,1-.06,5.1,9.86,9.86,0,0,1-2.57,4.44,10.64,10.64,0,0,1-3.06,2l-.62.28-1.67-1.68a5.38,5.38,0,0,0-3.79-1.64,5,5,0,0,1,.66.08,5.62,5.62,0,0,1,3.11,1.59l7.3,7.31a3.19,3.19,0,0,1,1,2.33,3.25,3.25,0,0,1-1,2.33L957.69,320A3,3,0,0,1,955.39,321ZM933,315.5a.46.46,0,0,0-.36.15.45.45,0,0,0-.14.35.48.48,0,0,0,.5.5.45.45,0,0,0,.35-.14.46.46,0,0,0,.15-.36.51.51,0,0,0-.5-.5Zm11.28-8.37c0-.07.05-.14.08-.22l0,0Zm3.62-3.76.14-.05-.16,0Z"/><path class="cls-31" d="M952,288a9,9,0,0,1,2.18.27.71.71,0,0,1,.54.56.67.67,0,0,1-.22.69l-4.63,4.68.69,4.25,4.25.69,4.68-4.63a.75.75,0,0,1,.54-.24l.18,0a.7.7,0,0,1,.53.54,9.06,9.06,0,0,1-2.37,8.55,9.61,9.61,0,0,1-2.75,1.82L954.42,304a6.38,6.38,0,0,0-4.68-1.94,6.17,6.17,0,0,0-1.56.19l-5.12-5.12a8.71,8.71,0,0,1,2.56-6.5,8.84,8.84,0,0,1,4-2.31A9.09,9.09,0,0,1,952,288m-19,0,8,6v3.88l6.69,6.68a4,4,0,0,1,2-.5,5.32,5.32,0,0,1,.78.06,4.68,4.68,0,0,1,2.56,1.31l7.31,7.31a2.28,2.28,0,0,1,0,3.25L957,319.31a2.07,2.07,0,0,1-1.6.69,2.25,2.25,0,0,1-1.65-.69L946.43,312a4.52,4.52,0,0,1-1.31-2.56,4.17,4.17,0,0,1,.43-2.75L938.87,300H935l-6-8,4-4m6.68,15.61,3.56,3.56a6.78,6.78,0,0,0,.32,3.94l-7.75,7.68A3.88,3.88,0,0,1,933,320a3.82,3.82,0,0,1-2.81-1.16A3.78,3.78,0,0,1,929,316a3.88,3.88,0,0,1,1.19-2.84l9.49-9.56M933,317.5a1.46,1.46,0,0,0,1.06-.44,1.44,1.44,0,0,0,.44-1.06,1.5,1.5,0,0,0-1.5-1.5,1.44,1.44,0,0,0-1.06.44,1.42,1.42,0,0,0-.44,1.06,1.4,1.4,0,0,0,.44,1.06,1.44,1.44,0,0,0,1.06.44m-.19-32.12-1.23,1.22-4,4-1.23,1.23,1,1.38,6,8,.6.8h4l.22.22-9.49,9.55a6,6,0,1,0,8.45,8.45l7.35-7.29q.21.24.45.48l7.3,7.31a4.29,4.29,0,0,0,3.07,1.27,4.06,4.06,0,0,0,3-1.3l3.28-3.28a4.27,4.27,0,0,0,0-6.08l-4.63-4.63a11.59,11.59,0,0,0,2.66-1.87l0,0v0a11.08,11.08,0,0,0,2.9-10.46v-.07a2.79,2.79,0,0,0-2.64-2,2.77,2.77,0,0,0-1.95.83l-4,3.9-1.82-.3-.3-1.82,3.85-3.9a2.63,2.63,0,0,0,.81-2.57,2.71,2.71,0,0,0-1.93-2.07h-.08A11.51,11.51,0,0,0,952,286a11,11,0,0,0-9.94,6.3l-7.85-5.88-1.39-1Z"/><polyline class="cls-32" points="285 36 285 108.88 308.92 108.88"/><line class="cls-32" x1="309" y1="74.75" x2="309" y2="142.75"/><circle class="cls-26" cx="285" cy="36" r="3.5"/><path class="cls-33" d="M285,33a3,3,0,1,1-3,3,3,3,0,0,1,3-3m0-1a4,4,0,1,0,4,4,4,4,0,0,0-4-4Z"/><text class="cls-28" transform="translate(520.25 80.39)">外部专家报告（2次）</text><polyline class="cls-34" points="506 36 506 78 517.92 78"/><circle class="cls-26" cx="506" cy="35.86" r="3.5"/><path class="cls-35" d="M506,32.86a3,3,0,1,1-3,3,3,3,0,0,1,3-3m0-1a4,4,0,1,0,4,4,4,4,0,0,0-4-4Z"/><text class="cls-28" transform="translate(413 57.14)">Chisel 使用经验<tspan x="0" y="12">AXI 总线</tspan><tspan x="0" y="24">中断异常</tspan><tspan x="0" y="36">Chisel 在果壳中的使用</tspan><tspan x="0" y="48">流水线设计</tspan><tspan x="0" y="60">SoC 集成</tspan></text><polyline class="cls-34" points="321.46 36 321.46 60.5 408 60.5"/><line class="cls-34" x1="408" y1="50.5" x2="408" y2="118.5"/><circle class="cls-26" cx="321.46" cy="36" r="3.5"/><path class="cls-35" d="M321.46,33a3,3,0,1,1-3,3,3,3,0,0,1,3-3m0-1a4,4,0,1,0,4,4,4,4,0,0,0-4-4Z"/></g></g></svg>