<?xml version="1.0" encoding="utf-8"?>
<!-- Generator: Adobe Illustrator 25.3.1, SVG Export Plug-In . SVG Version: 6.00 Build 0)  -->
<svg version="1.1" id="Layer_1" xmlns="http://www.w3.org/2000/svg" xmlns:xlink="http://www.w3.org/1999/xlink" x="0px" y="0px"
	 viewBox="0 0 550.4 105.4" style="enable-background:new 0 0 550.4 105.4;" xml:space="preserve">
<style type="text/css">
	.st0{fill-rule:evenodd;clip-rule:evenodd;fill:#336666;}
	.st1{clip-path:url(#SVGID_2_);}
	.st2{fill-rule:evenodd;clip-rule:evenodd;fill:#DAE8E8;}
	.st3{fill:#DAE8E8;}
	.st4{fill-rule:evenodd;clip-rule:evenodd;fill:#FFFFFF;}
	.st5{fill-rule:evenodd;clip-rule:evenodd;fill:#79A6A6;}
	.st6{fill:#336666;}
	.st7{font-family:'PingFangSC-Light-GBpc-EUC-H';}
	.st8{font-size:50.5315px;}
</style>
<path class="st0" d="M16.4,5.5h54.5c6,0,10.9,4.9,10.9,10.9v54.5c0,6-4.9,10.9-10.9,10.9H16.4c-6,0-10.9-4.9-10.9-10.9V16.4
	C5.5,10.3,10.3,5.5,16.4,5.5 M0,0h87.3v35.1l-5.5,3.1v14.1l5.5,3.1v31.9H0V0z"/>
<g>
	<defs>
		<path id="SVGID_1_" d="M16.4,5.5h54.5c6,0,10.9,4.9,10.9,10.9v54.5c0,6-4.9,10.9-10.9,10.9H16.4c-6,0-10.9-4.9-10.9-10.9V16.4
			C5.5,10.3,10.3,5.5,16.4,5.5"/>
	</defs>
	<clipPath id="SVGID_2_">
		<use xlink:href="#SVGID_1_"  style="overflow:visible;"/>
	</clipPath>
	<g class="st1">
		<path class="st2" d="M63.2,73.6c-0.3,0-0.6-0.3-0.6-0.6s0.3-0.6,0.6-0.6c0.3,0,0.6,0.3,0.6,0.6v0C63.9,73.3,63.6,73.6,63.2,73.6
			 M63.2,74.2c-0.7,0-1.2-0.5-1.2-1.2c0-0.7,0.5-1.2,1.2-1.2s1.2,0.5,1.2,1.2c0,0,0,0,0,0C64.5,73.6,63.9,74.2,63.2,74.2z"/>
		<path class="st2" d="M53.6,75.8l-1.9,1.9h-4.2l-2.3-2.3H30.9l-1.3,1.3H3.5l-5.4-5.3h-14.2l-1.3,1.3h-31.4V72h31.2l0.6-0.7l0.6-0.6
			h14.7L3.8,76h25.6l0.7-0.7l0.6-0.6h14.7l2.3,2.3h3.7l1.9-1.9h7.3l1.8-1.8c0.1,0.2,0.2,0.4,0.4,0.4l-2,2L53.6,75.8z"/>
		<path class="st2" d="M58.8,73.5c-0.3,0.1-0.7-0.2-0.7-0.5c-0.1-0.3,0.2-0.7,0.5-0.7c0.1,0,0.1,0,0.2,0c0.3,0.1,0.6,0.4,0.5,0.7
			C59.3,73.2,59.1,73.4,58.8,73.5 M58.8,74.1c-0.7,0-1.2-0.5-1.3-1.2c0-0.7,0.5-1.2,1.2-1.3c0.7,0,1.2,0.5,1.3,1.2c0,0,0,0,0,0
			C60.1,73.5,59.5,74.1,58.8,74.1z"/>
		<path class="st2" d="M57.1,71.5h-0.9L54,73.8h-2.6l-2.2-2.2H34.3l-2.8-2.8h-6.3L23.9,70H6l-5.5-5.3h-16.1l-1.3,1.3h-29.5v-0.6
			h29.2l0.7-0.7l0.6-0.6H0.8l5.4,5.3h17.4l1.3-1.3h6.8l2.8,2.8h14.8l2.2,2.2h2.2l2.2-2.2h1.4l1.1,1.1c-0.2,0.1-0.3,0.2-0.4,0.4
			L57.1,71.5z"/>
		<path class="st2" d="M52.7,71.7c-0.3,0-0.6-0.3-0.6-0.6l0,0c-0.1-0.3,0.2-0.7,0.5-0.7c0.3-0.1,0.7,0.2,0.7,0.5c0,0.1,0,0.1,0,0.2
			C53.3,71.4,53,71.7,52.7,71.7C52.7,71.7,52.7,71.7,52.7,71.7 M52.7,72.3c-0.7,0-1.2-0.6-1.2-1.2c0-0.7,0.6-1.2,1.2-1.2
			c0.7,0,1.2,0.6,1.2,1.2C53.9,71.7,53.4,72.3,52.7,72.3C52.7,72.3,52.7,72.3,52.7,72.3z"/>
		<path class="st2" d="M51.2,69.9H35.1l-2.8-2.9h-8.4l-1.3,1.3H7.4L2,63h-18.9l-1.3,1.3h-27.5v-0.6h27.2l0.6-0.6l0.6-0.6H2.2
			l5.5,5.3h14.6l1.3-1.3h8.9l2.9,2.8h16.1l1.1,1.1c-0.2,0.1-0.4,0.2-0.4,0.4L51.2,69.9z"/>
		<path class="st2" d="M49.1,75.5c-0.3,0-0.6-0.3-0.6-0.6l0,0c0-0.3,0.3-0.6,0.6-0.6c0.3,0,0.6,0.3,0.6,0.6
			C49.7,75.3,49.5,75.5,49.1,75.5 M49.1,76.2c-0.7,0-1.2-0.5-1.3-1.2c0-0.7,0.5-1.2,1.2-1.3c0.7,0,1.2,0.5,1.3,1.2c0,0,0,0,0,0
			C50.4,75.6,49.9,76.2,49.1,76.2C49.2,76.2,49.1,76.2,49.1,76.2L49.1,76.2z"/>
		<path class="st2" d="M47.6,73.8H33.2l-2.8-2.9H26l-1.3,1.3H4.9l-5.4-5.3h-14.2l-1.3,1.3h-31.4v-0.6h31.2l0.7-0.7l0.6-0.6h14.7
			l5.4,5.3h19.3l1.3-1.3h4.9l2.9,2.9h14.4l1.1,1.1c-0.2,0.1-0.3,0.2-0.4,0.4L47.6,73.8z"/>
		<path class="st2" d="M28.2,74.1c-0.3,0-0.6-0.3-0.6-0.6c0-0.3,0.3-0.6,0.6-0.6s0.6,0.3,0.6,0.6c0,0,0,0,0,0
			C28.8,73.8,28.5,74.1,28.2,74.1C28.2,74.1,28.2,74.1,28.2,74.1 M28.2,74.7c-0.7,0-1.2-0.6-1.2-1.2c0-0.7,0.6-1.2,1.2-1.2
			c0.7,0,1.2,0.6,1.2,1.2C29.4,74.2,28.9,74.7,28.2,74.7C28.2,74.7,28.2,74.7,28.2,74.7z"/>
		<path class="st2" d="M67.6,68.5c-0.3-0.1-0.6-0.4-0.5-0.7c0-0.3,0.2-0.5,0.5-0.5c0.3-0.1,0.7,0.2,0.7,0.5c0.1,0.3-0.2,0.7-0.5,0.7
			C67.8,68.5,67.7,68.5,67.6,68.5 M67.6,69.1c-0.7,0-1.2-0.6-1.2-1.2c0-0.7,0.6-1.2,1.2-1.2s1.2,0.6,1.2,1.2c0,0,0,0,0,0
			C68.9,68.5,68.4,69.1,67.6,69.1C67.7,69.1,67.7,69.1,67.6,69.1L67.6,69.1z"/>
		<path class="st2" d="M72.7,67.2c-0.3-0.1-0.7,0.2-0.7,0.5s0.2,0.7,0.5,0.7c0.1,0,0.1,0,0.2,0c0.3-0.1,0.6-0.4,0.5-0.7
			C73.1,67.5,72.9,67.3,72.7,67.2 M72.7,66.6c-0.7,0-1.3,0.6-1.3,1.3c0,0.7,0.6,1.3,1.3,1.3c0.7-0.1,1.2-0.7,1.1-1.4
			C73.7,67.2,73.2,66.7,72.7,66.6L72.7,66.6z"/>
		<polygon class="st2" points="-7.6,58.8 -9.1,58.8 -42.8,58.8 -42.8,58.2 -9.1,58.2 -7.6,58.2 -5.8,58.2 -3.4,60.5 1.8,60.5 
			3.7,60.5 5.1,60.5 10.1,65.5 13.6,65.5 17.3,65.5 20.7,65.5 21.7,64.6 23.6,64.6 25,64.6 34.5,64.6 36.5,66.5 43.7,66.5 
			45.1,66.5 46.1,67.5 53.3,67.5 57.5,67.5 59.8,69.8 65.5,69.8 67,68.2 67.3,68.9 65.7,70.4 59.6,70.4 57.3,68.1 53.3,68.1 
			45.8,68.1 44.8,67.1 43.7,67.1 36.3,67.1 34.3,65.2 25,65.2 23.6,65.2 22,65.2 21,66.1 17.3,66.1 13.6,66.1 9.8,66.1 4.8,61.2 
			3.7,61.2 1.8,61.2 -3.7,61.2 -6.1,58.8 		"/>
		<polygon class="st2" points="-7.6,56.7 -8.3,56.7 -42.8,56.7 -42.8,56.1 -8.3,56.1 -7.6,56.1 -5,56.1 -2.6,58.5 3,58.5 4.6,58.5 
			6.2,58.5 11.3,63.5 13.1,63.5 18.4,63.5 20.3,63.5 21.3,62.5 23.6,62.5 25,62.5 34.5,62.5 36.5,64.5 37.7,64.5 43.7,64.5 
			45.6,64.5 46.9,65.8 50.5,65.8 54.1,65.8 59.3,65.8 61.1,67.6 63.7,67.6 63.8,67.6 66.2,65.3 70.7,65.3 72.2,66.8 71.9,67.4 
			70.4,65.9 66.4,65.9 64.1,68.2 63.7,68.2 60.9,68.2 59,66.4 54.1,66.4 50.5,66.4 46.7,66.4 45.3,65.1 43.7,65.1 37.7,65.1 
			36.3,65.1 34.3,63.1 25,63.1 23.6,63.1 21.6,63.1 20.6,64.1 18.4,64.1 13.1,64.1 11,64.1 6,59.1 4.6,59.1 3,59.1 -2.9,59.1 
			-5.3,56.7 		"/>
		<path class="st2" d="M67.5,62.7c-0.3,0-0.6,0.3-0.6,0.6c0,0.3,0.3,0.6,0.6,0.6c0.3,0,0.6-0.3,0.6-0.6
			C68.1,62.9,67.9,62.7,67.5,62.7 M67.5,62.1c-0.7,0-1.2,0.5-1.2,1.2s0.5,1.2,1.2,1.2c0.7,0,1.2-0.5,1.2-1.2c0,0,0,0,0,0
			C68.8,62.6,68.2,62.1,67.5,62.1C67.5,62,67.5,62,67.5,62.1L67.5,62.1z"/>
		<polygon class="st2" points="65,63.6 62.9,65.7 61.3,65.7 60.1,64.2 48.1,64.2 46.5,62.3 36.4,62.3 34.6,60.2 12.5,60.2 9,55.8 
			-0.9,55.8 -3.3,52.8 -37.6,52.8 -37.6,52.2 -3,52.2 -0.6,55.2 9.3,55.2 12.8,59.5 34.9,59.5 36.7,61.7 46.8,61.7 48.3,63.6 
			60.4,63.6 61.6,65.1 62.6,65.1 64.8,63 66.7,63 66.7,63.6 		"/>
		<polygon class="st2" points="65,59.7 62.6,62.1 49.1,62.1 47.4,60 37.7,60 35.6,57.4 14.3,57.4 10.8,53.3 0.2,53.3 -2.7,49.7 
			-37,49.7 -37,49.1 -2.4,49.1 0.4,52.6 11.2,52.6 14.6,56.8 35.9,56.8 38,59.4 47.7,59.4 49.4,61.5 62.4,61.5 64.8,59.1 66.7,59.1 
			66.7,59.7 		"/>
		<path class="st2" d="M67.5,58.8c-0.3-0.1-0.7,0.2-0.7,0.5C66.7,59.7,67,60,67.3,60c0.1,0,0.1,0,0.2,0c0.3-0.1,0.6-0.4,0.5-0.7
			C68,59.1,67.8,58.9,67.5,58.8 M67.5,58.2c-0.7,0-1.2,0.5-1.3,1.2c0,0.7,0.5,1.2,1.2,1.3s1.2-0.5,1.3-1.2c0,0,0,0,0,0
			C68.7,58.8,68.2,58.2,67.5,58.2z"/>
		<path class="st2" d="M72.7,62.7c-0.3,0-0.6,0.3-0.6,0.6c0,0.3,0.3,0.6,0.6,0.6s0.6-0.3,0.6-0.6C73.3,62.9,73,62.7,72.7,62.7
			 M72.7,62c-0.7,0-1.2,0.5-1.2,1.2c0,0.7,0.5,1.2,1.2,1.2l0,0c0.7,0,1.2-0.5,1.2-1.2C73.9,62.6,73.4,62,72.7,62z"/>
		<path class="st2" d="M60.1,58.8c-0.3,0.1-0.6,0.4-0.5,0.7c0,0.3,0.2,0.5,0.5,0.5c0.3,0.1,0.7-0.2,0.7-0.5c0.1-0.3-0.2-0.7-0.5-0.7
			C60.3,58.8,60.2,58.8,60.1,58.8 M60.1,58.2c-0.7,0-1.2,0.5-1.3,1.2c0,0.7,0.5,1.2,1.2,1.3c0.7,0,1.2-0.5,1.3-1.2c0,0,0,0,0,0
			C61.3,58.8,60.8,58.2,60.1,58.2C60.1,58.2,60.1,58.2,60.1,58.2z"/>
		<path class="st2" d="M55.6,58.8c-0.3,0-0.6,0.3-0.6,0.6c0,0.3,0.3,0.6,0.6,0.6c0.3,0,0.6-0.3,0.6-0.6l0,0
			C56.2,59.1,55.9,58.8,55.6,58.8 M55.6,58.2c-0.7,0-1.2,0.5-1.3,1.2c0,0.7,0.5,1.2,1.2,1.3c0.7,0,1.2-0.5,1.3-1.2c0,0,0,0,0,0
			C56.8,58.8,56.2,58.2,55.6,58.2C55.6,58.2,55.6,58.2,55.6,58.2z"/>
		<polygon class="st2" points="45.2,49.7 20.8,49.7 17.5,45.7 7.9,45.7 4.3,41.2 -31.7,41.2 -31.7,40.6 4.5,40.6 8.2,45.1 
			17.8,45.1 21.1,49.1 45.5,49.1 53.6,59.1 54.7,59.1 54.7,59.7 53.3,59.7 		"/>
		<path class="st2" d="M49.4,57.7c-0.3,0-0.6,0.3-0.6,0.6c0,0.3,0.3,0.6,0.6,0.6s0.6-0.3,0.6-0.6c0,0,0,0,0,0
			C50,57.9,49.8,57.7,49.4,57.7 M49.4,57.1c-0.7,0-1.2,0.5-1.2,1.2c0,0.7,0.5,1.2,1.2,1.2c0.7,0,1.2-0.5,1.2-1.2l0,0
			C50.7,57.6,50.1,57.1,49.4,57.1z"/>
		<polygon class="st2" points="47.9,56.9 39.8,56.9 38.4,55.1 16.7,55.1 13.4,51.1 3.9,51.1 0.2,46.5 -35.8,46.5 -35.8,45.9 
			0.5,45.9 4.1,50.5 13.7,50.5 17,54.5 38.7,54.5 40.1,56.2 48.2,56.2 49.1,57.4 48.6,57.8 		"/>
		<path class="st2" d="M42.5,53.2c-0.3,0-0.6,0.3-0.6,0.6c0,0.3,0.3,0.6,0.6,0.6s0.6-0.3,0.6-0.6C43.2,53.4,42.9,53.2,42.5,53.2
			 M42.5,52.6c-0.7,0-1.2,0.5-1.3,1.2c0,0.7,0.5,1.2,1.2,1.3c0.7,0,1.2-0.5,1.3-1.2c0,0,0,0,0,0C43.8,53.1,43.2,52.6,42.5,52.6
			L42.5,52.6z"/>
		<polygon class="st2" points="41,52.4 19.3,52.4 16,48.3 6.5,48.3 2.8,43.8 -33.1,43.8 -33.1,43.2 3.1,43.2 6.7,47.7 16.3,47.7 
			19.6,51.8 41.3,51.8 42.2,52.9 41.7,53.3 		"/>
		<path class="st2" d="M29.8,45.5c-0.3,0-0.6,0.3-0.6,0.6c0,0.3,0.3,0.6,0.6,0.6c0.3,0,0.6-0.3,0.6-0.6S30.2,45.5,29.8,45.5
			L29.8,45.5 M29.8,44.8c-0.7,0-1.2,0.6-1.2,1.2c0,0.7,0.6,1.2,1.2,1.2c0.7,0,1.2-0.6,1.2-1.2C31.1,45.4,30.5,44.8,29.8,44.8
			C29.8,44.8,29.8,44.8,29.8,44.8z"/>
		<path class="st2" d="M24.4,44.3h-3L13.8,35h-25.9c-0.7,0-1.2-0.5-1.2-1.2c0,0,0,0,0,0c0-0.7,0.5-1.2,1.2-1.2c0,0,0,0,0,0h6.6
			c0.3,0,0.6-0.3,0.6-0.6c0,0,0,0,0,0c0-0.3-0.3-0.6-0.6-0.6h-7.8l-3.3,4.1h-16.9v-0.7h16.6l3.3-4h8.1c0.7,0,1.2,0.5,1.2,1.2
			c0,0,0,0,0,0c0,0.7-0.5,1.2-1.2,1.2c0,0,0,0,0,0h-6.6c-0.3,0-0.6,0.3-0.6,0.6l0,0c0,0.3,0.3,0.6,0.6,0.6c0,0,0,0,0,0H14l7.6,9.3h3
			l1.6,2H29v0.6h-3L24.4,44.3z"/>
		<path class="st2" d="M22.6,46.3c-0.3,0-0.6,0.3-0.6,0.6l0,0c0,0.3,0.3,0.6,0.6,0.6c0.3,0,0.6-0.3,0.6-0.6l0,0
			C23.2,46.6,22.9,46.3,22.6,46.3 M22.6,45.7c-0.7,0-1.2,0.5-1.2,1.2c0,0.7,0.5,1.2,1.2,1.2c0.7,0,1.2-0.5,1.2-1.2
			S23.3,45.7,22.6,45.7L22.6,45.7z"/>
		<polygon class="st2" points="13.1,37.8 -30.7,37.8 -30.7,37.2 13.4,37.2 21,46.6 21.8,46.6 21.8,47.2 20.7,47.2 		"/>
		<path class="st2" d="M67.5,54.2c-0.3-0.1-0.7,0.2-0.7,0.5c-0.1,0.3,0.2,0.7,0.5,0.7c0.1,0,0.1,0,0.2,0c0.3-0.1,0.6-0.4,0.5-0.7
			C68,54.4,67.8,54.2,67.5,54.2 M67.5,53.5c-0.7,0-1.2,0.5-1.3,1.2c0,0.7,0.5,1.2,1.2,1.3c0.7,0,1.2-0.5,1.3-1.2c0,0,0,0,0,0
			C68.7,54.1,68.2,53.5,67.5,53.5z"/>
		<polygon class="st2" points="7.9,27.1 -30.7,27.1 -30.4,26.5 8.2,26.5 9.8,28.5 12.6,28.5 12.6,29.1 9.5,29.1 		"/>
		<path class="st2" d="M72.7,54c-0.3,0-0.6,0.3-0.6,0.6c0,0.3,0.3,0.6,0.6,0.6c0.3,0,0.6-0.3,0.6-0.6l0,0C73.3,54.3,73,54,72.7,54
			 M72.7,53.4c-0.7-0.1-1.3,0.4-1.4,1.1c-0.1,0.7,0.4,1.3,1.1,1.4c0.1,0,0.2,0,0.3,0c0.7-0.1,1.2-0.7,1.1-1.4
			C73.7,53.9,73.2,53.4,72.7,53.4z"/>
		<polygon class="st2" points="30.9,38.5 36.1,38.5 39.4,42.6 49.7,42.6 57.9,52.8 64.2,52.8 66,50.6 67.8,50.6 70.9,54.3 
			71.8,54.3 71.8,54.9 70.6,54.9 67.5,51.2 66.3,51.2 64.5,53.4 57.6,53.4 49.4,43.2 39.1,43.2 35.8,39.1 30.6,39.1 22.4,29.1 
			11,29.1 11,28.5 22.7,28.5 		"/>
		<path class="st2" d="M63.2,49.4c-0.3,0-0.6,0.3-0.6,0.6l0,0c-0.1,0.3,0.2,0.7,0.5,0.7c0.3,0.1,0.7-0.2,0.7-0.5c0-0.1,0-0.1,0-0.2
			C63.8,49.7,63.5,49.4,63.2,49.4C63.2,49.4,63.2,49.4,63.2,49.4 M63.2,48.8c-0.7,0-1.2,0.6-1.2,1.2c0,0.7,0.6,1.2,1.2,1.2
			c0.7,0,1.2-0.6,1.2-1.2c0,0,0,0,0,0C64.4,49.4,63.9,48.8,63.2,48.8C63.2,48.8,63.2,48.8,63.2,48.8z"/>
		<path class="st2" d="M76.9,54c-0.3,0-0.6,0.3-0.6,0.6c0,0.3,0.3,0.6,0.6,0.6l0,0c0.3,0,0.6-0.3,0.6-0.6C77.5,54.3,77.3,54,76.9,54
			 M76.9,53.4c-0.7,0-1.2,0.5-1.3,1.2c0,0.7,0.5,1.2,1.2,1.3c0.7,0,1.2-0.5,1.3-1.2c0,0,0,0,0,0C78.1,53.9,77.6,53.4,76.9,53.4
			C76.9,53.4,76.9,53.4,76.9,53.4z"/>
		<polygon class="st2" points="71.3,48.2 57.6,48.2 51,40.1 44.8,40.1 44.8,27.8 35.5,16.4 35.5,9.1 24.4,-4.6 24.9,-5 36.1,8.8 
			36.1,16.2 45.4,27.6 45.4,39.5 51.3,39.5 57.9,47.6 71.6,47.6 76.6,53.8 76.2,54.2 		"/>
		<path class="st2" d="M68.4,33.3c-0.3,0-0.6,0.3-0.6,0.6c0,0.3,0.3,0.6,0.6,0.6c0.3,0,0.6-0.3,0.6-0.6l0,0
			C69,33.6,68.7,33.3,68.4,33.3 M68.4,32.7c-0.7,0-1.2,0.5-1.2,1.2s0.5,1.2,1.2,1.2c0.7,0,1.2-0.5,1.2-1.2l0,0
			C69.6,33.3,69.1,32.7,68.4,32.7z"/>
		<path class="st2" d="M42.2,12l8.5,10.5V32h5.9l6.6,8.1h13.7l4.4,5.3v25.6l2.6,3.2l-0.5,0.4l-2.7-3.4V45.7l-4.1-5H62.9l-6.6-8.1
			h-6.2v-9.9l-8.5-10.5V2.5L29.7-12.1l0.4-0.4L42.2,2.3V12z M44,9.9l8.5,10.5v9.5h5.9L65,38h13.7l4.4,5.3V69l2.6,3.2l-0.5,0.4
			l-2.8-3.4V43.7l-4.1-5H64.6l-6.6-8.1h-6.2v-9.9l-8.5-10.5V0.4L31.5-14.2l0.4-0.3l12,14.7L44,9.9z M45.9,7.8l8.5,10.5v9.5h5.9
			l6.6,8.1h13.7l4.4,5.3v25.6l2.6,3.2l-0.5,0.4l-2.7-3.4V41.6l-4.1-5H66.5L60,28.5h-6.2v-9.9L45.2,8v-9.7L33.4-16.2l0.5-0.4l12,14.8
			L45.9,7.8z M40.6,14.2l8.5,10.5v9.5H55l6.6,8.1h13.7l4.4,5.3v25.6l2.6,3.2l-0.5,0.4L79,73.4V47.9l-4-5H61.3l-6.6-8.1h-6.2v-10
			L40,14.4V4.7L28.1-9.9l0.5-0.4l12,14.7V14.2z"/>
		<path class="st2" d="M75.7,58.6c-0.3,0-0.6,0.3-0.6,0.6c0.1,0.3,0.4,0.6,0.7,0.5c0.3,0,0.5-0.2,0.5-0.5
			C76.3,58.9,76.1,58.6,75.7,58.6 M75.7,58c-0.7,0-1.2,0.6-1.2,1.2c0,0.7,0.6,1.2,1.2,1.2c0.7,0,1.2-0.6,1.2-1.2
			C77,58.6,76.4,58,75.7,58C75.7,58,75.7,58,75.7,58z"/>
		<path class="st2" d="M32.2,35.5c-0.3,0-0.6,0.3-0.6,0.6l0,0c0,0.3,0.3,0.6,0.6,0.6c0.3,0,0.6-0.3,0.6-0.6S32.6,35.5,32.2,35.5
			L32.2,35.5 M32.2,34.9c-0.7,0-1.2,0.5-1.2,1.2c0,0.7,0.5,1.2,1.2,1.2c0.7,0,1.2-0.5,1.2-1.2C33.5,35.4,33,34.8,32.2,34.9
			C32.3,34.8,32.2,34.8,32.2,34.9L32.2,34.9z"/>
		<path class="st2" d="M40.5,38.8c-0.3,0-0.6,0.3-0.6,0.6c0,0.3,0.3,0.6,0.6,0.6l0,0c0.3,0,0.6-0.3,0.6-0.6
			C41.1,39.1,40.8,38.8,40.5,38.8L40.5,38.8 M40.5,38.2c-0.7,0-1.2,0.6-1.2,1.2c0,0.7,0.6,1.2,1.2,1.2c0.7,0,1.2-0.6,1.2-1.2
			C41.7,38.7,41.2,38.2,40.5,38.2C40.5,38.2,40.5,38.2,40.5,38.2z"/>
		<polygon class="st2" points="40.2,37.3 33.3,28.8 33.3,26.4 22.7,13.5 -37.8,13.5 -37.8,12.9 23,12.9 33.9,26.2 33.9,28.5 
			40.8,37 40.8,38.5 40.2,38.5 		"/>
		<path class="st2" d="M5.3,29.3h-36.5v-0.6H5.3c0.7,0,1.2,0.5,1.2,1.2c0,0.7-0.5,1.2-1.2,1.2c0,0,0,0,0,0h-6.7
			c-0.3,0-0.6,0.3-0.6,0.6c0,0.3,0.3,0.6,0.6,0.6c0,0,0,0,0,0h20.4l8.2,10h5.3l3.3,4.1h10.2l8.3,10.2h16.5v4l1.6,2L72,63l-1.8-2.2
			v-3.5H54l-8.3-10.2H35.5l-3.3-4h-5.3l-8.1-10H-1.4c-0.7,0-1.2-0.5-1.2-1.2l0,0c0-0.7,0.5-1.2,1.2-1.2c0,0,0,0,0,0h6.7
			c0.3,0,0.6-0.3,0.6-0.6S5.7,29.3,5.3,29.3"/>
		<polygon class="st2" points="25.1,27.7 12.7,27.7 10,24.3 -31.8,24.3 -31.8,23.7 10.3,23.7 13,27.1 25.4,27.1 31.9,35.1 
			31.4,35.5 		"/>
		<polygon class="st2" points="26.8,25.7 13.6,25.7 10.9,22.3 -30.9,22.3 -30.9,21.7 11.2,21.7 13.9,25.1 27.1,25.1 31.9,31 
			31.4,31.4 		"/>
		<polygon class="st2" points="22.2,17 9.3,17 7.5,18.8 -35.7,18.8 -35.7,18.2 7.3,18.2 9.1,16.4 22.5,16.4 26.6,21.4 26.1,21.8 		
			"/>
		<path class="st2" d="M32.2,31.2c-0.3,0-0.6,0.3-0.6,0.6c0,0.3,0.3,0.6,0.6,0.6l0,0c0.3,0,0.6-0.3,0.6-0.6
			C32.8,31.5,32.5,31.2,32.2,31.2L32.2,31.2 M32.2,30.6c-0.7,0-1.2,0.6-1.2,1.2c0,0.7,0.6,1.2,1.2,1.2c0.7,0,1.2-0.6,1.2-1.2
			C33.4,31.2,32.9,30.6,32.2,30.6C32.2,30.6,32.2,30.6,32.2,30.6z"/>
		<path class="st2" d="M18.6,19.7c-0.3,0-0.6,0.3-0.6,0.6c0,0.3,0.3,0.6,0.6,0.6h0c0.3,0,0.6-0.3,0.6-0.6
			C19.2,19.9,18.9,19.7,18.6,19.7L18.6,19.7 M18.6,19.1c-0.7,0-1.2,0.5-1.3,1.2c0,0.7,0.5,1.2,1.2,1.3c0.7,0,1.2-0.5,1.3-1.2
			c0,0,0,0,0,0C19.8,19.6,19.2,19.1,18.6,19.1z"/>
		<rect x="-35" y="20" class="st3" width="52.7" height="0.6"/>
		<path class="st2" d="M26.9,21.6c-0.3,0-0.6,0.3-0.6,0.6l0,0c0,0.3,0.3,0.6,0.6,0.6c0.3,0,0.6-0.3,0.6-0.6v0
			C27.5,21.9,27.2,21.6,26.9,21.6 M26.9,21c-0.7,0-1.2,0.5-1.2,1.2s0.5,1.2,1.2,1.2c0.7,0,1.2-0.5,1.2-1.2v0
			C28.1,21.6,27.6,21,26.9,21z"/>
		<path class="st2" d="M5.5,14.8c-0.3,0-0.6,0.3-0.6,0.6c0,0.3,0.3,0.6,0.6,0.6h0c0.3,0,0.6-0.3,0.6-0.6C6.1,15.1,5.8,14.8,5.5,14.8
			L5.5,14.8 M5.5,14.2c-0.7,0-1.2,0.5-1.3,1.2c0,0.7,0.5,1.2,1.2,1.3c0.7,0,1.2-0.5,1.3-1.2c0,0,0,0,0,0C6.7,14.8,6.2,14.2,5.5,14.2
			C5.5,14.2,5.5,14.2,5.5,14.2L5.5,14.2z"/>
		<path class="st2" d="M36.1,26.6c-0.3,0-0.6,0.3-0.6,0.6c0.1,0.3,0.4,0.6,0.7,0.5c0.3,0,0.5-0.2,0.5-0.5
			C36.7,26.9,36.5,26.6,36.1,26.6L36.1,26.6 M36.1,26c-0.7,0-1.2,0.6-1.2,1.2c0.1,0.7,0.7,1.2,1.4,1.1c0.6-0.1,1-0.5,1.1-1.1
			C37.4,26.5,36.8,26,36.1,26L36.1,26z"/>
		<path class="st2" d="M41.2,29c-0.3,0-0.6,0.3-0.6,0.6c0,0.3,0.3,0.6,0.6,0.6l0,0c0.3,0,0.6-0.3,0.6-0.6C41.9,29.3,41.6,29,41.2,29
			L41.2,29 M41.2,28.4c-0.7,0-1.2,0.5-1.3,1.2c0,0.7,0.5,1.2,1.2,1.3c0.7,0,1.2-0.5,1.3-1.2c0,0,0,0,0,0
			C42.5,28.9,42,28.4,41.2,28.4C41.3,28.4,41.3,28.4,41.2,28.4L41.2,28.4z"/>
		<polygon class="st2" points="35.8,25.6 28.6,16.7 28.6,9.7 21.9,1.5 3.8,1.5 -0.1,6.3 -13.5,6.3 -15.3,4.5 -58.3,4.5 -58.3,3.9 
			-15.1,3.9 -13.3,5.7 -0.4,5.7 3.5,0.8 22.1,0.8 29.2,9.5 29.2,16.5 36.4,25.3 36.4,26.6 35.8,26.6 		"/>
		<polygon class="st2" points="-0.9,2.7 -11.9,2.7 -13.7,0.9 -57,0.9 -57,1.5 -14,1.5 -12.2,3.3 -0.6,3.3 3.3,-1.5 24.1,-1.5 
			33.7,10.3 33.7,19.1 40.9,28 40.9,29 41.6,29 41.6,27.8 34.3,18.9 34.3,10.1 24.4,-2.2 3,-2.2 		"/>
		<path class="st2" d="M53.4,13.1c-0.3,0-0.6,0.3-0.6,0.6c0,0.3,0.3,0.6,0.6,0.6c0.3,0,0.6-0.3,0.6-0.6
			C54.1,13.4,53.8,13.1,53.4,13.1 M53.4,12.5c-0.7,0-1.2,0.5-1.2,1.2c0,0.7,0.5,1.2,1.2,1.2c0.7,0,1.2-0.5,1.2-1.2
			S54.1,12.5,53.4,12.5C53.4,12.5,53.4,12.5,53.4,12.5z"/>
		<polygon class="st2" points="49.9,5.1 56.8,13.6 56.8,15.9 61.9,22.2 61.9,23.2 56.2,16.1 56.2,13.8 49.3,5.3 49.3,3.8 49.9,3.8 
					"/>
		<polygon class="st2" points="47.9,7.4 47.9,-17.9 48.5,-17.9 48.5,7.2 53.1,12.9 52.7,13.3 		"/>
		<path class="st2" d="M66.3,30.3c-0.3,0-0.6,0.3-0.6,0.6c0.1,0.3,0.4,0.6,0.7,0.5c0.3,0,0.5-0.2,0.5-0.5
			C67,30.6,66.7,30.3,66.3,30.3 M66.3,29.7c-0.7,0-1.2,0.6-1.2,1.2s0.6,1.2,1.2,1.2c0.7,0,1.2-0.6,1.2-1.2
			C67.6,30.3,67,29.7,66.3,29.7C66.3,29.7,66.3,29.7,66.3,29.7z"/>
		<path class="st2" d="M66,30.1V13.2c0.1-0.7,0.7-1.2,1.4-1.1c0.6,0.1,1,0.5,1.1,1.1v6.6c0,0.3,0.3,0.6,0.6,0.6
			c0.3,0,0.6-0.3,0.6-0.6V12l-4-3.3V-8.2h0.6V8.4l4,3.3v8.1c-0.1,0.7-0.7,1.2-1.4,1.1c-0.6-0.1-1-0.5-1.1-1.1v-6.6
			c0-0.3-0.3-0.6-0.6-0.6c-0.3,0-0.6,0.3-0.6,0.6c0,0,0,0,0,0v16.9H66z"/>
		<path class="st2" d="M71.8,30.6V-5.8h0.6v36.4c-0.1,0.7-0.7,1.2-1.4,1.1c-0.6-0.1-1-0.5-1.1-1.1V24c0-0.3-0.3-0.6-0.6-0.6
			c-0.3,0-0.6,0.3-0.6,0.6v9.2L68.1,33v-8.9c0.1-0.7,0.7-1.2,1.4-1.1c0.6,0.1,1,0.5,1.1,1.1v6.6c0.1,0.3,0.4,0.6,0.7,0.5
			C71.5,31.2,71.7,31,71.8,30.6"/>
		<path class="st2" d="M62.5,22.1c-0.3,0-0.6,0.3-0.6,0.6s0.3,0.6,0.6,0.6c0.3,0,0.6-0.3,0.6-0.6v0C63.2,22.3,62.9,22.1,62.5,22.1
			C62.5,22.1,62.5,22.1,62.5,22.1 M62.5,21.4c-0.7,0-1.2,0.6-1.2,1.2c0,0.7,0.6,1.2,1.2,1.2c0.7,0,1.2-0.6,1.2-1.2
			C63.8,22,63.2,21.4,62.5,21.4C62.5,21.4,62.5,21.4,62.5,21.4z"/>
		<polygon class="st2" points="74.3,31.8 76,33.9 89.7,33.9 94.1,39.3 94.1,64.8 96.7,68 96.2,68.4 93.5,65.1 93.5,39.5 89.4,34.5 
			75.7,34.5 73.7,32.1 73.7,-0.3 74.3,-0.3 		"/>
		<polygon class="st2" points="64.4,14.3 64.4,1.3 62.6,-0.4 62.6,-43.7 63.3,-43.7 63.3,-0.7 65.1,1.1 65.1,14.6 63,16.2 
			62.7,15.7 		"/>
		<path class="st2" d="M62.8,16.5c0-0.3-0.3-0.6-0.6-0.6c-0.3,0.1-0.6,0.4-0.5,0.7c0,0.3,0.2,0.5,0.5,0.5
			C62.6,17.1,62.8,16.8,62.8,16.5 M63.4,16.5c0-0.7-0.5-1.2-1.2-1.2S61,15.8,61,16.5c0,0.7,0.5,1.2,1.2,1.2l0,0
			C62.9,17.7,63.4,17.1,63.4,16.5z"/>
		<polygon class="st2" points="53.6,79.1 51.6,81 47.4,81 45.1,78.7 30.9,78.7 29.7,80 3.6,80 -1.9,74.6 -16.1,74.6 -17.3,75.9 
			-48.8,75.9 -48.8,75.3 -17.6,75.3 -16.9,74.6 -16.3,74 -1.6,74 3.8,79.4 29.4,79.4 30.1,78.7 30.7,78.1 45.4,78.1 47.7,80.4 
			51.4,80.4 53.3,78.5 53.3,78.5 53.3,78.5 63.1,78.5 66.3,75.2 70.1,75.2 75.4,69.9 75.4,60.1 76,60.1 76,70.1 70.3,75.9 
			66.6,75.9 63.3,79.1 		"/>
		<path class="st2" d="M79.8,30.5c-0.1-0.3,0.2-0.7,0.5-0.7c0.3-0.1,0.7,0.2,0.7,0.5c0,0.1,0,0.1,0,0.2c-0.1,0.3-0.4,0.6-0.7,0.5
			C80,31,79.8,30.7,79.8,30.5 M79.1,30.5c0-0.7,0.5-1.2,1.2-1.3c0.7,0,1.2,0.5,1.3,1.2c0,0.7-0.5,1.2-1.2,1.3c0,0,0,0,0,0
			C79.7,31.7,79.2,31.1,79.1,30.5L79.1,30.5z"/>
		<path class="st2" d="M77.6,20.8l-1.9-1.9v-4.2l2.3-2.3V-1.8L76.7-3v-26.1l5.3-5.4v-14.2l-1.3-1.3v-31.5h0.6v31.2l0.7,0.7l0.6,0.6
			v14.7L77.3-29v25.6L78-2.7l0.6,0.6v14.7l-2.3,2.3v3.7l1.9,1.9v7.3l1.8,1.8c-0.2,0.1-0.3,0.2-0.4,0.4l-2-2L77.6,20.8z"/>
		<path class="st2" d="M79.4,26.4c0-0.3,0.3-0.6,0.6-0.6c0.3,0,0.6,0.3,0.6,0.6c0,0.3-0.3,0.6-0.6,0.6l0,0
			C79.7,27,79.4,26.8,79.4,26.4 M78.8,26.4c0-0.7,0.5-1.2,1.2-1.2s1.2,0.5,1.2,1.2c0,0.7-0.5,1.2-1.2,1.2l0,0
			C79.3,27.6,78.8,27.1,78.8,26.4z"/>
		<polygon class="st2" points="79.6,25.6 79.6,18.6 81.8,16.4 81.8,1.6 84.7,-1.3 84.7,-7.5 83.4,-8.8 83.4,-26.7 88.8,-32.2 
			88.8,-48.3 87.5,-49.6 87.5,-79.1 88.1,-79.1 88.1,-49.8 88.8,-49.2 89.4,-48.6 89.4,-31.9 84,-26.5 84,-9.1 85.3,-7.8 85.3,-1 
			82.5,1.8 82.5,16.6 80.2,18.8 80.2,25.4 		"/>
		<path class="st2" d="M77.9,16.4c0-0.3,0.3-0.6,0.6-0.6s0.6,0.3,0.6,0.6l0,0c0,0.3-0.3,0.6-0.6,0.6S77.9,16.7,77.9,16.4 M77.3,16.4
			c0-0.7,0.5-1.2,1.2-1.2c0.7,0,1.2,0.5,1.2,1.2c0,0.7-0.5,1.2-1.2,1.2l0,0C77.8,17.6,77.3,17.1,77.3,16.4z"/>
		<path class="st2" d="M79.6,14.9V0.5l2.9-2.8v-4.4L81.2-8v-19.8l5.3-5.5v-14.2l-1.3-1.3v-31.4h0.6V-49l0.7,0.7l0.6,0.6v14.7
			l-5.3,5.4v19.3L83.1-7v4.9l-2.8,2.8v14.4l-1.1,1.1c-0.1-0.2-0.2-0.4-0.4-0.4L79.6,14.9z"/>
		<path class="st2" d="M23.2,9.5c-0.3-0.1-0.7,0.2-0.7,0.5c-0.1,0.3,0.2,0.7,0.5,0.7c0.1,0,0.1,0,0.2,0c0.3-0.1,0.6-0.4,0.5-0.7
			C23.7,9.7,23.5,9.5,23.2,9.5 M23.2,8.8c-0.7,0-1.2,0.5-1.3,1.2c0,0.7,0.5,1.2,1.2,1.3s1.2-0.5,1.3-1.2c0,0,0,0,0,0
			C24.5,9.4,23.9,8.9,23.2,8.8L23.2,8.8z"/>
		<polygon class="st2" points="1.6,10.5 8.8,10.5 13.1,10.5 15.4,8.2 21,8.2 22.6,9.7 22.8,9.1 21.3,7.5 15.2,7.5 12.9,9.9 8.8,9.9 
			1.4,9.9 		"/>
		<polygon class="st2" points="62,10.5 62,-2.4 60.2,-4.2 60.2,-47.5 60.8,-47.5 60.8,-4.4 62.6,-2.7 62.6,10.8 60.6,12.4 
			60.2,11.9 		"/>
		<path class="st2" d="M60.4,12.7c0.1-0.3-0.2-0.7-0.5-0.7c-0.3-0.1-0.7,0.2-0.7,0.5c0,0.1,0,0.1,0,0.2c0.1,0.3,0.4,0.6,0.7,0.5
			C60.2,13.2,60.4,13,60.4,12.7 M61,12.7c0-0.7-0.5-1.2-1.2-1.3c-0.7,0-1.2,0.5-1.3,1.2c0,0.7,0.5,1.2,1.2,1.3c0,0,0,0,0,0
			C60.5,13.9,61,13.4,61,12.7C61,12.7,61,12.7,61,12.7z"/>
		<polygon class="st2" points="59.6,6.7 59.6,-6.2 57.8,-8 57.8,-51.2 58.5,-51.2 58.5,-8.2 60.3,-6.4 60.3,7 58.2,8.7 57.9,8.2 		
			"/>
		<path class="st2" d="M58,8.9c0-0.3-0.3-0.6-0.6-0.6c-0.3,0-0.6,0.3-0.6,0.6c0,0.3,0.3,0.6,0.6,0.6c0,0,0,0,0,0
			C57.8,9.5,58,9.2,58,8.9 M58.7,8.9c0-0.7-0.5-1.2-1.2-1.2s-1.2,0.5-1.2,1.2c0,0.7,0.5,1.2,1.2,1.2l0,0
			C58.1,10.1,58.7,9.5,58.7,8.9z"/>
		<path class="st2" d="M76.9,72.1c-0.3,0-0.6,0.3-0.6,0.6c0,0.3,0.3,0.6,0.6,0.6s0.6-0.3,0.6-0.6C77.5,72.4,77.3,72.1,76.9,72.1
			 M76.9,71.5c-0.7,0-1.2,0.5-1.2,1.2c0,0.7,0.5,1.2,1.2,1.2s1.2-0.5,1.2-1.2c0,0,0,0,0,0C78.1,72,77.6,71.5,76.9,71.5z"/>
		<polygon class="st2" points="53.9,80.9 52,82.8 46.9,82.8 44.6,80.5 30.4,80.5 29.2,81.7 3.1,81.7 -2.4,76.4 -15.5,76.4 
			-16.8,77.7 -49.3,77.7 -49.3,77.1 -17,77.1 -16.4,76.4 -15.8,75.8 -2.1,75.8 3.3,81.1 28.9,81.1 29.6,80.5 30.2,79.9 44.9,79.9 
			47.2,82.2 51.7,82.2 53.6,80.2 53.6,80.2 53.6,80.2 65.4,80.2 67,78.6 70.8,78.6 76.1,73.3 76.7,73.5 71,79.2 67.3,79.2 
			65.7,80.9 		"/>
	</g>
</g>
<polygon class="st4" points="2.7,84.6 10.9,84.6 2.7,76.4 "/>
<path class="st5" d="M70.9,49.1v21.8H51.8V52.3l-5.4-3.2v21.8c0,3,2.4,5.4,5.4,5.5h19.1c3,0,5.5-2.4,5.5-5.5c0,0,0,0,0,0V49.1H70.9z
	 M70.9,10.9H51.8c-3,0-5.4,2.4-5.4,5.4v21.8h5.4V16.4h19.1v18.7l5.5,3.1V16.4C76.3,13.4,73.9,10.9,70.9,10.9z"/>
<polygon class="st5" points="76.4,49.1 73,53.5 46.4,38.2 49.8,33.8 "/>
<path class="st6" d="M83.3,103.3c0.5,0,1-0.2,1.4-0.5c0.4-0.4,0.6-0.9,0.5-1.4V101h2.2v0.4l0,0c0,0.5-0.1,1.1-0.3,1.5
	c-0.2,0.5-0.5,0.9-0.9,1.3c-0.4,0.4-0.8,0.7-1.3,0.9c-0.5,0.2-1,0.3-1.5,0.3h-6.9c-0.5,0-1.1-0.1-1.5-0.3c-0.5-0.2-0.9-0.5-1.2-0.9
	c-0.4-0.4-0.6-0.8-0.9-1.3c-0.2-0.5-0.3-1-0.3-1.5v-5.7c0-0.5,0.1-1,0.3-1.5c0.2-0.5,0.5-0.9,0.9-1.3c0.3-0.4,0.8-0.7,1.2-0.9
	c0.5-0.2,1-0.3,1.5-0.3h6.8c0.5,0,1,0.1,1.5,0.3c0.5,0.2,0.9,0.5,1.3,0.9c0.4,0.4,0.6,0.8,0.9,1.3c0.2,0.5,0.3,1,0.3,1.5v0.5h-2.2
	v-0.5c0-0.5-0.2-1-0.5-1.4c-0.4-0.4-0.8-0.6-1.4-0.6h-6.5c-0.5,0-1,0.2-1.4,0.6c-0.2,0.2-0.3,0.4-0.4,0.6c-0.1,0.2-0.2,0.5-0.2,0.8
	v5.6c0,0.3,0.1,0.5,0.2,0.8c0.1,0.2,0.2,0.4,0.4,0.6c0.4,0.4,0.9,0.6,1.4,0.5L83.3,103.3z M58.6,97.6c0.5,0,1,0.1,1.5,0.3
	c0.5,0.2,0.9,0.5,1.2,0.8c0.3,0.4,0.6,0.8,0.8,1.2c0.2,0.5,0.3,1,0.3,1.5c0,1-0.4,2-1.1,2.7c-0.4,0.4-0.8,0.6-1.2,0.8
	c-0.5,0.2-1,0.3-1.5,0.3h-9.9v-2h9.9c0.2,0,0.5,0,0.7-0.1c0.2-0.1,0.4-0.2,0.6-0.4c0.2-0.2,0.3-0.4,0.4-0.6c0.3-0.7,0.1-1.5-0.4-2
	c-0.3-0.4-0.8-0.5-1.3-0.5h-6.9c-0.5,0-1-0.1-1.5-0.3c-0.5-0.2-0.9-0.5-1.3-0.9c-0.4-0.4-0.6-0.8-0.9-1.3c-0.2-0.5-0.3-1-0.3-1.5
	c0-0.5,0.1-1,0.3-1.5c0.2-0.5,0.5-0.9,0.9-1.3c0.4-0.4,0.8-0.6,1.3-0.9c0.5-0.2,1-0.3,1.5-0.3h9.8v2h-9.8c-0.5,0-0.9,0.3-1.3,0.6
	c-0.2,0.2-0.3,0.4-0.4,0.6c-0.1,0.2-0.1,0.5-0.1,0.7c0,0.2,0,0.5,0.1,0.7c0.1,0.2,0.2,0.4,0.4,0.6c0.3,0.4,0.8,0.6,1.3,0.6
	L58.6,97.6z M35.5,95.7c0-0.3-0.1-0.5-0.2-0.8c-0.1-0.2-0.2-0.4-0.4-0.6c-0.2-0.2-0.4-0.3-0.6-0.4c-0.2-0.1-0.5-0.2-0.7-0.2H27
	c-0.3,0-0.5,0.1-0.7,0.2c-0.2,0.1-0.4,0.2-0.6,0.4c-0.4,0.4-0.6,0.9-0.6,1.4v5.6c0,0.5,0.2,1,0.6,1.4c0.2,0.2,0.4,0.3,0.6,0.4
	c0.2,0.1,0.5,0.1,0.7,0.1h6.6c0.3,0,0.5,0,0.7-0.1c0.2-0.1,0.4-0.2,0.6-0.4c0.2-0.2,0.3-0.4,0.4-0.6c0.1-0.2,0.2-0.5,0.2-0.8
	L35.5,95.7z M36.4,92.9c0.8,0.7,1.2,1.7,1.2,2.8v5.7c0,0.5-0.1,1.1-0.3,1.5c-0.4,0.9-1.2,1.7-2.1,2.1c-0.5,0.2-1,0.3-1.5,0.3h-6.8
	c-0.5,0-1.1-0.1-1.5-0.3c-0.5-0.2-0.9-0.5-1.2-0.9c-0.7-0.7-1.2-1.7-1.2-2.8v-5.7c0-0.5,0.1-1,0.3-1.5c0.2-0.5,0.5-0.9,0.9-1.2
	c0.7-0.8,1.7-1.2,2.8-1.2h6.8c0.5,0,1.1,0.1,1.5,0.3C35.7,92.3,36.1,92.6,36.4,92.9L36.4,92.9z M2.1,97.2h5.7c0.4,0,0.9-0.2,1.2-0.5
	c0.6-0.8,0.5-1.9-0.2-2.5c-0.3-0.2-0.6-0.4-0.9-0.4H2.1V97.2z M2.1,103.3h6.6c0.5,0,1-0.2,1.4-0.5c0.2-0.2,0.3-0.4,0.4-0.6
	c0.1-0.3,0.2-0.5,0.1-0.8v-0.3c0-0.3-0.1-0.5-0.2-0.7c-0.1-0.2-0.2-0.4-0.4-0.6c-0.4-0.3-0.8-0.5-1.3-0.5H2.1V103.3z M10.8,97.7
	c0.5,0.3,0.9,0.6,1.3,1.1c0.2,0.3,0.4,0.7,0.5,1.1c0.1,0.4,0.2,0.8,0.2,1.2v0.3c0,0.5-0.1,1.1-0.3,1.5c-0.2,0.5-0.5,0.9-0.9,1.3
	c-0.4,0.4-0.8,0.6-1.3,0.9c-0.5,0.2-1,0.3-1.5,0.3H0V91.8h7.8c0.5,0,1,0.1,1.4,0.3c0.4,0.2,0.8,0.5,1.2,0.8c0.3,0.3,0.6,0.7,0.8,1.2
	c0.2,0.5,0.3,1,0.3,1.5C11.5,96.3,11.3,97.1,10.8,97.7z"/>
<path class="st5" d="M35.5,70.9H16.4V16.4h19.1V70.9 M35.5,10.9H16.4c-3,0-5.4,2.4-5.4,5.4v54.5c0,3,2.4,5.5,5.4,5.5h19.1
	c3,0,5.5-2.5,5.5-5.5c0,0,0,0,0,0V16.4C40.9,13.4,38.5,10.9,35.5,10.9z"/>
<text transform="matrix(1 0 0 1 98.3066 70.9063)" class="st6 st7 st8">北京开源芯片研究院</text>
</svg>
