<svg version="1.0" xmlns="http://www.w3.org/2000/svg" width="1151px" height="295px" viewBox="0 0 11510 2950" preserveAspectRatio="xMidYMid meet">
<g id="layer101" fill="#325ab4" stroke="none">
<path d="M6068 2388 l-3 -553 -192 -3 -193 -2 0 -80 0 -80 748 0 c728 0 748 1 780 20 18 11 41 34 52 52 19 32 20 52 20 561 l0 527 -220 0 -220 0 0 -80 0 -80 140 0 140 0 0 -403 c0 -379 -1 -405 -18 -420 -17 -15 -62 -17 -445 -17 l-427 0 0 555 0 555 -80 0 -80 0 -2 -552z"/>
<path d="M4150 2840 l0 -80 205 0 205 0 0 -255 0 -255 -465 0 -465 0 0 -80 0 -80 456 0 456 0 174 -162 c108 -100 174 -167 172 -177 -3 -14 -56 -16 -506 -19 l-502 -2 0 -80 0 -80 570 0 c629 0 622 -1 660 62 24 39 26 88 5 127 -7 15 -83 92 -167 171 -84 78 -154 146 -156 151 -2 5 125 9 292 9 l296 0 0 80 0 80 -330 0 -330 0 0 335 0 335 -285 0 -285 0 0 -80z"/>
<path d="M7570 2814 l0 -84 45 -11 45 -11 0 -379 0 -379 80 0 80 0 0 356 0 356 36 -7 c20 -3 47 -10 60 -15 l24 -10 0 -400 0 -400 -155 0 -155 0 0 -380 0 -380 283 0 c256 0 286 2 324 20 25 11 51 33 63 52 19 31 20 50 20 361 l0 327 -110 0 -110 0 0 110 0 110 110 0 110 0 0 80 0 80 -110 0 -110 0 0 190 c0 105 3 190 8 190 7 0 176 -44 215 -56 15 -5 17 3 17 79 l0 84 -217 56 c-120 31 -293 77 -385 101 l-168 44 0 -84z m590 -1348 c0 -200 0 -205 -22 -220 -18 -13 -54 -16 -185 -16 l-163 0 0 213 c0 118 3 217 7 220 3 4 87 7 185 7 l178 0 0 -204z"/>
<path d="M8450 2810 l0 -80 64 0 c78 0 113 -12 126 -42 7 -18 61 -1433 60 -1590 l0 -38 80 0 80 0 0 54 c0 84 -49 1554 -54 1618 -9 118 -69 157 -243 158 l-113 0 0 -80z"/>
<path d="M8980 1975 l0 -915 80 0 80 0 2 833 3 832 133 3 132 3 0 79 0 80 -215 0 -215 0 0 -915z"/>
<path d="M11060 2800 l0 -80 140 0 140 0 0 -658 c0 -626 -1 -660 -18 -675 -16 -15 -45 -17 -195 -17 -97 0 -177 3 -177 6 0 9 -188 1402 -196 1447 l-6 37 -84 0 -85 0 6 -32 c3 -18 48 -341 100 -718 52 -377 97 -697 100 -712 l5 -28 -95 0 -95 0 0 -80 0 -80 105 0 104 0 6 -32 c3 -18 9 -53 13 -78 l8 -45 83 -3 c67 -2 82 0 78 11 -3 7 -8 44 -12 80 l-7 67 206 0 c227 0 242 3 290 60 l26 32 0 789 0 789 -220 0 -220 0 0 -80z"/>
<path d="M9660 2843 c0 -19 147 -1017 155 -1050 5 -23 4 -23 -105 -23 l-110 0 0 -80 0 -80 460 0 460 0 0 80 0 80 -269 0 -269 0 -6 33 c-10 53 -126 868 -126 883 0 12 37 14 209 14 196 0 210 -1 235 -21 l26 -20 0 -175 0 -174 80 0 80 0 0 226 c0 210 -2 229 -20 259 -39 64 -49 65 -444 65 -324 0 -356 -1 -356 -17z"/>
<path d="M10 1649 c0 -588 3 -1069 8 -1069 4 0 109 26 234 57 l228 58 0 953 c0 523 -2 952 -4 952 -3 0 -109 27 -235 59 l-231 59 0 -1069z"/>
<path d="M8400 2448 c0 -18 11 -152 25 -298 14 -146 25 -275 25 -287 0 -22 4 -23 80 -23 57 0 80 4 80 13 0 6 -12 150 -27 320 l-28 307 -77 0 -78 0 0 -32z"/>
<path d="M9260 2474 c0 -11 -50 -541 -55 -586 l-6 -48 80 0 80 0 5 33 c5 31 56 574 56 596 0 7 -28 11 -80 11 -44 0 -80 -3 -80 -6z"/>
<path d="M8466 1628 c-8 -45 -46 -381 -46 -402 0 -13 13 -16 80 -16 57 0 80 4 80 13 0 14 36 329 45 395 l6 42 -80 0 -80 0 -5 -32z"/>
<path d="M9205 1623 c10 -69 45 -378 45 -395 0 -16 11 -18 80 -18 67 0 80 3 80 16 0 21 -38 357 -46 402 l-5 32 -80 0 -79 0 5 -37z"/>
<path d="M5918 1448 l-3 -113 -157 -3 -158 -3 0 -79 0 -80 160 0 160 0 0 -55 0 -55 80 0 80 0 0 55 0 55 400 0 400 0 0 -55 0 -55 80 0 80 0 0 55 0 55 185 0 185 0 0 80 0 80 -185 0 -185 0 0 115 0 115 -80 0 -79 0 -3 -112 -3 -113 -397 -3 -398 -2 0 115 0 115 -80 0 -79 0 -3 -112z"/>
<path d="M3630 1340 l0 -170 400 0 400 0 0 -55 0 -55 80 0 80 0 0 55 0 54 358 3 c336 3 359 4 391 23 57 34 71 73 71 202 l0 113 -80 0 -80 0 0 -74 c0 -66 -3 -77 -22 -90 -20 -14 -106 -16 -730 -16 l-708 0 0 90 0 90 -80 0 -80 0 0 -170z"/>
<path d="M9690 1180 l0 -80 370 0 370 0 0 80 0 80 -370 0 -370 0 0 -80z"/>
<path d="M4349 813 c11 -27 29 -70 40 -96 l21 -49 -91 -216 c-50 -120 -93 -223 -96 -229 -4 -10 10 -13 49 -13 l54 0 70 176 c64 162 70 174 79 148 6 -15 37 -93 70 -173 l60 -146 93 -3 92 -3 0 -54 0 -55 50 0 50 0 0 55 0 55 35 0 c34 0 35 1 35 40 0 39 -1 40 -35 40 l-35 0 0 149 c0 158 1 161 51 161 16 0 19 7 19 46 l0 47 -56 -7 c-31 -3 -64 -11 -75 -16 -29 -16 -39 -74 -39 -232 l0 -148 -58 0 -58 0 -125 285 -124 285 -47 0 -48 0 19 -47z"/>
<path d="M5215 683 c-89 -21 -142 -59 -178 -127 -30 -57 -29 -174 1 -233 53 -102 171 -147 297 -112 82 22 155 128 155 223 l0 36 -190 0 c-209 0 -209 0 -173 60 49 83 178 92 260 18 23 -21 46 -16 73 17 11 13 9 20 -15 45 -51 53 -164 89 -230 73z m170 -305 c-19 -62 -95 -105 -166 -93 -46 8 -109 63 -109 95 0 19 7 20 141 20 l140 0 -6 -22z"/>
<path d="M7370 681 c-74 -15 -136 -66 -164 -133 -10 -22 -16 -67 -16 -111 0 -65 4 -79 33 -127 71 -119 233 -147 356 -62 12 9 9 16 -15 44 l-30 34 -44 -24 c-80 -42 -156 -16 -192 65 -23 51 -20 111 7 164 36 68 131 90 198 45 l35 -24 26 27 c14 15 26 31 26 37 0 25 -137 81 -179 73 -3 -1 -22 -4 -41 -8z"/>
<path d="M7830 681 c-115 -23 -190 -118 -190 -242 0 -136 99 -238 229 -239 141 0 234 81 248 216 l6 54 -192 0 -191 0 0 26 c0 17 12 38 35 60 60 57 146 58 223 4 l43 -30 30 20 c16 12 29 25 29 29 0 4 -12 19 -27 34 -55 52 -166 83 -243 68z m179 -311 c-23 -66 -106 -103 -179 -81 -42 12 -90 61 -90 92 0 18 9 19 139 19 l140 0 -10 -30z"/>
<path d="M6314 657 c-95 -46 -142 -133 -131 -247 7 -77 43 -141 100 -174 78 -46 184 -46 252 0 44 30 45 30 45 -1 0 -22 4 -25 40 -25 l40 0 0 230 0 230 -45 0 c-38 0 -45 -3 -45 -20 0 -25 -5 -25 -47 1 -54 34 -145 36 -209 6z m195 -84 c90 -68 86 -212 -9 -267 -41 -24 -119 -25 -155 -2 -66 44 -88 159 -42 227 45 68 143 88 206 42z"/>
<path d="M3730 334 l0 -337 142 6 c122 5 148 9 187 30 98 50 123 179 50 256 -14 15 -19 26 -12 28 51 17 102 99 103 163 0 53 -38 120 -88 155 l-44 30 -169 3 -169 3 0 -337z m341 208 c18 -20 29 -43 29 -62 0 -19 -11 -42 -29 -62 -29 -33 -30 -33 -135 -36 l-106 -4 0 102 0 102 106 -4 c105 -3 106 -3 135 -36z m-78 -265 c45 -19 60 -41 60 -88 0 -31 -7 -47 -26 -67 -23 -22 -36 -26 -111 -30 l-86 -5 0 102 0 101 65 0 c36 0 80 -6 98 -13z"/>
<path d="M5610 335 l0 -335 68 0 c325 0 462 110 450 361 -10 214 -133 309 -399 309 l-119 0 0 -335z m306 217 c80 -41 114 -105 114 -212 0 -84 -17 -130 -64 -175 -47 -46 -88 -61 -193 -71 l-73 -7 0 248 0 247 88 -4 c63 -3 98 -10 128 -26z"/>
<path d="M6750 440 l0 -230 45 0 c34 0 45 4 45 16 0 9 3 14 8 12 112 -58 194 -47 255 33 29 39 37 92 37 252 l0 147 -45 0 -45 0 0 -132 c-1 -208 -19 -253 -106 -253 -39 0 -50 5 -75 33 l-29 32 0 160 0 160 -45 0 -45 0 0 -230z"/>
</g>
<g id="layer102" fill="#00c8d2" stroke="none">
<path d="M1753 2413 l-213 -56 0 -511 0 -511 228 -58 c125 -32 230 -58 235 -57 4 0 7 281 7 625 l0 625 -22 -1 c-13 0 -119 -26 -235 -56z"/>
</g>
<g id="layer103" fill="#3c8cff" stroke="none">
<path d="M760 2156 c0 -344 3 -626 8 -626 4 -1 109 25 235 57 l227 58 -2 509 -3 509 -204 53 c-112 29 -217 56 -232 59 l-29 7 0 -626z"/>
</g>
<g id="layer104" fill="#78e6dc" stroke="none">
<path d="M2290 1645 c0 -1135 1 -1196 18 -1191 9 3 98 26 197 51 99 26 197 51 218 56 l37 10 -2 1076 -3 1077 -203 52 c-111 29 -216 55 -232 59 l-30 7 0 -1197z"/>
</g>
</svg>