<svg xmlns="http://www.w3.org/2000/svg" viewBox="0 0 979.06 165.66"><defs><style>.cls-1{fill:#d32027;}.cls-2{fill:#26326c;}.cls-2,.cls-3{fill-rule:evenodd;}.cls-3{fill:#ecad23;}.cls-4{fill:#231f20;}</style></defs><title>CRVA</title><g id="Layer_2" data-name="Layer 2"><g id="Layer_1-2" data-name="Layer 1"><path class="cls-1" d="M188.74,123c-4.42,11.71-12.61,29.28-17.33,36.84-9.14,1.22-33.72,5.86-57.66,5.86C38.44,165.66,0,125.4,0,84.17,0,32,49.78,0,121,0c25.84,0,47.58,4.64,58,5.61,1.26,11,3.46,25.86,6,38.06l-9.77,1.71c-6.3-16.35-14.5-27.08-30.57-32.21C136.43,10.25,125.09,9,113.12,9c-52.94,0-80.35,32.69-80.35,70,0,47.08,35,77.34,82.87,77.34,32.14,0,47.57-11.47,63.64-35.87Z"/><path class="cls-2" d="M87.36,94.87v-.29c6.83.07,15,1.06,16.85-3.87,1.63-4.36,1.55-20.95,1.35-23.79a8.93,8.93,0,0,0-3-5.36c-3.7-2.9-10.47-2.38-16.85-2.37H49.58v57.1l12-.3V94.58H73s20.93,21.61,20.93,21.71H111ZM61.54,84.76V69h22c2.5,0,7.19,0,8.7.89a3.45,3.45,0,0,1,1.63,1.79c.52,1.59.54,9.43.17,10.83s-1,1.89-1.8,2C88,84.84,71.68,84.78,61.54,84.76Z"/><path class="cls-2" d="M184.38,59.19H172.69c-9.78,18.83-29.35,56.9-29.35,57.1h12l6-12.49h32.88l6.25,12.49H214C213.48,114.14,184.67,60.41,184.38,59.19ZM189,93.39H166.71l11.14-22.9S189,93.19,189,93.39Z"/><path class="cls-3" d="M153.67,79.41s-18.4,36.21-19,36.58h-6L108.83,79.41h9.24l13.86,26.47,13.31-26.47Z"/><path class="cls-4" d="M260.49,23.36q-.21,6.34-.2,12h17.77q-.21,4.53-.21,12.46,0,7.71.21,11.55h-4.49V56H260.29v9.74c0,1.81.06,5.21.2,10.19h-4.9c.27-2.71.41-5.89.41-9.51V56H242.72v3.39h-4.49q.2-3.39.2-11.55,0-8.38-.2-12.46H256q0-6.12-.21-12Zm-4.49,29V39H242.72V52.36Zm17.57,0V39H260.29V52.36Z"/><path class="cls-4" d="M331.37,38.09V62.33q0,7,.21,13.82h-4.09V73H293.58v3.4H289.5q.19-7,.2-14.5V38.09q0-6.8-.2-12.69h42.08Q331.37,31.07,331.37,38.09Zm-3.88,31.49V28.8H293.58V69.58ZM316.87,34.92q3.06,0,6.54-.23v4.08q-3.06-.23-6.54-.23h-5.11V46h3.68q3.68,0,6.95-.23v4.08q-3.27-.23-6.95-.23h-3.68v10.2h5.72c2.46,0,4.77-.08,6.95-.23v4.08q-3.06-.22-6.95-.23H303.59c-2.31,0-4.63.08-6.94.23V59.61c2.31.15,4.63.23,6.94.23h4.5V49.64h-2.86q-3.48,0-6.54.23V45.79q3.06.23,6.54.23h2.86V38.54H305q-3.67,0-7.15.23V34.69q3.48.23,7.15.23ZM321.57,56c-1.36.9-2.52,1.73-3.47,2.49q-.62-.9-3.48-4.76c1.09-.91,2.05-1.73,2.86-2.49C318.16,52,319.53,53.57,321.57,56Z"/><path class="cls-4" d="M343.22,30.38V25.85c3.4.16,6.54.23,9.4.23h22.06c2.72,0,5.65-.07,8.78-.23v4.53c-3-.14-6.33-.22-10-.22V46.92h3.88q4.08,0,8.78-.22v4.53q-4.69-.45-8.78-.45h-3.88V63c0,3.78.06,8,.2,12.69H369c.14-4.69.21-8.91.21-12.69V50.78H359a66,66,0,0,1-1.63,8,32.06,32.06,0,0,1-3.27,7.59q-2.25,3.86-8.38,9.29a16.21,16.21,0,0,0-4.9-3.85,20.92,20.92,0,0,0,7.05-5.1,25.26,25.26,0,0,0,4.7-7.7,26.92,26.92,0,0,0,1.94-8.27h-4.7a73.15,73.15,0,0,0-10.21.68V46.7q5.1.22,10.21.22h4.9V30.16C350.58,30.16,346.76,30.24,343.22,30.38Zm25.95,16.54V30.16H359V46.92Z"/><path class="cls-4" d="M407.16,69.24c.95-.37,1.53-2.15,1.74-5.32s.37-7.78.51-13.82h-7.36a59.56,59.56,0,0,1-2.24,14.38,39.48,39.48,0,0,1-5.52,11.22,20.78,20.78,0,0,0-3.68-3,25.73,25.73,0,0,0,4.6-7.36A57.4,57.4,0,0,0,397.56,57q1-4.87.82-18.24c-2.05,0-4.29.08-6.74.22v-4.3q3.67.23,5.92.23h11c2,0,4-.08,5.92-.23V39c-1.9-.14-3.88-.22-5.92-.22h-6.33v7.7h10.82q-.4,13.37-.71,17.9a35.06,35.06,0,0,1-.82,6.34,3.93,3.93,0,0,1-2.24,2.61,19.17,19.17,0,0,1-5.21,1.24,18,18,0,0,0-1.64-5A11.68,11.68,0,0,0,407.16,69.24Zm-1.23-37.72a31.73,31.73,0,0,0-3.88,2A47.06,47.06,0,0,0,398.17,25a23.65,23.65,0,0,0,3.68-2.27Q404.1,27.23,405.93,31.52Zm12.26,14.72c-.68,1.36-1.29,2.57-1.84,3.63a11.32,11.32,0,0,0-3.06-3.4q2.25-2.94,4.49-9.63a91.53,91.53,0,0,0,3.48-13.93,27.94,27.94,0,0,0,5.1,2,21.61,21.61,0,0,0-2.24,4.64q-1,2.83-1.84,5.55h9.6q3.06,0,6.53-.22v4.3c-2-.15-3.61-.23-4.69-.23a103.83,103.83,0,0,1-1.64,14,51.14,51.14,0,0,1-3.47,11.33,21.25,21.25,0,0,0,10.62,7.48A14,14,0,0,0,437,76.38a24.16,24.16,0,0,1-10.82-9.07,49.54,49.54,0,0,1-11.24,9.07,8.25,8.25,0,0,0-2.86-4.08,26.59,26.59,0,0,0,11.65-8.16A95,95,0,0,1,418.19,46.24Zm3.27-3.62q2,11.33,4.7,17Q428.82,53,429.83,39h-8.78l-1.84,4.08Z"/><path class="cls-4" d="M450.88,70.15a2.48,2.48,0,0,0,.81-2.16V55.31a22.56,22.56,0,0,0-2.86,1.24c-.68.38-1.91,1.17-3.67,2.38a20.72,20.72,0,0,0-2.05-4.76A46,46,0,0,0,448,52.59c1.08-.46,2.31-.91,3.67-1.36V40.58h-1.43c-1.77,0-3.54.08-5.31.23V36.73c1.64.15,3.4.23,5.31.23h1.43v-6.8q0-3.16-.2-6.12h4.29c-.14,1.67-.21,3.7-.21,6.12V37c1.77,0,3.61-.08,5.52-.23v4.08c-2-.15-3.88-.23-5.52-.23v8.84a15,15,0,0,0,2.25-.91l2.86-1.36a22,22,0,0,0,0,4.31c-.82.3-1.67.64-2.55,1s-1.74.8-2.56,1.25V69.58a6.17,6.17,0,0,1-1.43,4c-.81.82-3.26,1.39-7.35,1.69a22.78,22.78,0,0,0-1.43-5Q450.06,70.71,450.88,70.15ZM468.44,25q-.19,3.16-.2,8.15a63.79,63.79,0,0,0,9.91-2.6A40.33,40.33,0,0,0,484,27.67a11.6,11.6,0,0,0,2.86,4.3c-.69.15-1.6.38-2.76.68l-4.19,1.13c-1.63.46-3.51.95-5.62,1.48s-4.12,1-6,1.47v5c-.14,1.51.95,2.27,3.27,2.27h10q3.06,0,3.78-1.47a20.58,20.58,0,0,0,1.32-4.65,10,10,0,0,0,4.09,2.72q-1.84,5.22-2.86,6a6.64,6.64,0,0,1-3.47,1H468.65c-1.64,0-2.76-.48-3.37-1.47a5,5,0,0,1-.92-2.6V33.1q0-5.88-.21-8.15ZM487,58.25v9.52q0,4.76.21,7.47h-4.09V71.62H468.24v4.53h-4.09c.14-2,.21-4.76.21-8.38V58.25c0-3.47-.07-6.12-.21-7.93h23.09C487.1,52.13,487,54.78,487,58.25Zm-3.88.91V54H468.24v5.21Zm0,8.83V62.56H468.24V68Z"/><path class="cls-4" d="M544.23,44.21a26.26,26.26,0,0,0-3.27,5A63.73,63.73,0,0,1,518.9,29.93a78.12,78.12,0,0,1-20.22,20.39A27.94,27.94,0,0,0,495.2,46q5.52-2.49,12.05-8.84a48.9,48.9,0,0,0,10.42-14.72c1.77.75,3.41,1.51,4.91,2.26a6.57,6.57,0,0,0-1.43,1.81A53.53,53.53,0,0,0,544.23,44.21Zm-6.74,7.47v4.76A41.13,41.13,0,0,0,529.93,62a78.53,78.53,0,0,0-7.15,7.36l5.52,4.08q-1.65,2-3.07,4.08a68,68,0,0,0-16.55-10.88l2.46-4.07a75.06,75.06,0,0,1,8,4.75q5.52-6.11,10.83-11.55H510.11c-2.86,0-5.71.08-8.57.23V51.46q4.48.23,8.57.22Zm-13.28-5.89-3.68,3.63a61.89,61.89,0,0,0-6.13-8.16,17.62,17.62,0,0,0,3.07-3.4Q519.51,40.13,524.21,45.79Z"/><path class="cls-4" d="M559.14,32.31q-.82,2.38-1.63,4.65h12.25V29c0-2-.07-3.86-.2-5.67h4.7c-.14,1.67-.21,3.55-.21,5.67V37h9q3.27,0,7.35-.23v4.53c-2.58-.15-5-.23-7.35-.23h-9v10.2h6.34q2.85,0,6.94-.23v4.53q-3.89-.22-6.94-.22h-6.34V68.9h12.26c2.18,0,4.7-.07,7.56-.23V73q-4.1-.23-7.56-.23H556.89q-3.46,0-7.15.23V68.67c2.59.16,5,.23,7.15.23h12.87V55.31H562.2c-1.9,0-3.88.07-5.92.22V51c2,.15,4,.23,5.92.23h7.56V41H556.08a71.12,71.12,0,0,1-3.68,8.16,17.72,17.72,0,0,0-4.9-1.59,37.53,37.53,0,0,0,4.8-8.72,52.53,52.53,0,0,0,3.57-12.8l5.31,2.27A13.62,13.62,0,0,0,559.14,32.31Z"/><path class="cls-4" d="M619.2,31.29a45.82,45.82,0,0,0,1.22-8.38,19.23,19.23,0,0,0,5.11,1.36,31.47,31.47,0,0,0-2,7h15.73a54.43,54.43,0,0,0,6.53-.45V35.6c-2.59-.15-4.83-.23-6.74-.23h-8.37a22.77,22.77,0,0,0,4.9,8,22.52,22.52,0,0,0,5.51,4.19,28,28,0,0,0,7,2.27,9.91,9.91,0,0,0-3.47,4.53,36.91,36.91,0,0,1-9.4-5.78,30.86,30.86,0,0,1-5.11-6,28.13,28.13,0,0,1-3.26-7.25h-4.29A38.13,38.13,0,0,1,616,46.13a52.1,52.1,0,0,1-11.95,9.63,8.49,8.49,0,0,0-3.47-4.08,32.81,32.81,0,0,0,9.91-6.12A26.88,26.88,0,0,0,618,35.37h-9.19c-2.18,0-4.49.08-6.95.23V30.84a54.06,54.06,0,0,0,6.95.45ZM604.9,73.43a8.77,8.77,0,0,0-4.09-1.81A38.18,38.18,0,0,0,605.31,58a46.38,46.38,0,0,0,4.49,1.81Q607.76,66.41,604.9,73.43Zm13.68-8.15c0,1.66,0,2.94.11,3.85s.85,1.36,2.35,1.36h8.37a4.12,4.12,0,0,0,2.86-.57q1.23-.8,1.84-5.1a12.77,12.77,0,0,0,4.7,2.27A22.79,22.79,0,0,1,636,73.32q-1.23,1.47-5.11,1.24H618.58c-2.45-.3-3.77-1.17-4-2.6a39.43,39.43,0,0,1-.31-5.33q0-3.39-.2-8.38h4.7Q618.58,62.55,618.58,65.28Zm8.18-15.86a16.64,16.64,0,0,0-3.27,3.17A30,30,0,0,0,617.36,46l2.86-3.17A61.09,61.09,0,0,1,626.76,49.42Zm2.65,12.68a41.44,41.44,0,0,1-3.68,2.27,31.83,31.83,0,0,0-3.47-7.7,12.08,12.08,0,0,0,3.47-2A76.07,76.07,0,0,1,629.41,62.1Zm18.18,5.21a44.65,44.65,0,0,0-3.68,3.18A63,63,0,0,0,637,59.16a10.17,10.17,0,0,0,3.47-2.49Q643.92,61.88,647.59,67.31Z"/><path class="cls-4" d="M674.39,72.3l-2.49,2.49a39.62,39.62,0,0,1-8.5-11.33,30.4,30.4,0,0,1-2.83-13.36,30.45,30.45,0,0,1,2.83-13.37,42.77,42.77,0,0,1,8.5-11.56l2.49,2.5A36.89,36.89,0,0,0,666.57,38,27.23,27.23,0,0,0,664,50.1a27.18,27.18,0,0,0,2.6,12.12A34,34,0,0,0,674.39,72.3Z"/><path class="cls-4" d="M680.08,70.49V29h16.28q5.08,0,7.52,1.16a9.18,9.18,0,0,1,4,3.86,12.4,12.4,0,0,1,1.55,6.27,10.94,10.94,0,0,1-2.64,7.62,12.64,12.64,0,0,1-7.68,3.7,12.43,12.43,0,0,1,3.12,2.31,29.3,29.3,0,0,1,3.81,5.3l6.42,11.3h-6.11l-4.9-8.64A52.55,52.55,0,0,0,697.15,55a8.29,8.29,0,0,0-2.8-2.37,9.46,9.46,0,0,0-3.8-.61h-5.61V70.49Zm4.86-23.2h10.44a13.65,13.65,0,0,0,5.19-.76,6.1,6.1,0,0,0,2.81-2.41,7,7,0,0,0,1-3.82,6.32,6.32,0,0,0-2-4.94c-1.32-1.2-3.29-1.8-5.89-1.8h-11.6Z"/><path class="cls-4" d="M718,70.49V29h4.86V70.49Z"/><path class="cls-4" d="M729.73,57.12l4.58-.45A11.57,11.57,0,0,0,736,62a9.12,9.12,0,0,0,3.71,3.08,12.43,12.43,0,0,0,5.43,1.16,10.37,10.37,0,0,0,6.74-2,6.29,6.29,0,0,0,2.39-5.1,5.83,5.83,0,0,0-.87-3.2,6.3,6.3,0,0,0-2.62-2.25,51.17,51.17,0,0,0-7.59-2.48,28,28,0,0,1-7.39-2.87,10.06,10.06,0,0,1-4.64-8.7,10.65,10.65,0,0,1,3.51-8.24q3.51-3.19,9.47-3.2a16.16,16.16,0,0,1,7.16,1.5A11.18,11.18,0,0,1,756,34a13.35,13.35,0,0,1,1.81,6.6l-4.67.39a8.59,8.59,0,0,0-2.61-6,9.28,9.28,0,0,0-6.3-2q-4.12,0-6.29,1.71a5.38,5.38,0,0,0-2.17,4.43,4.92,4.92,0,0,0,1.59,3.91q1.59,1.38,7.14,2.81a48.42,48.42,0,0,1,7.63,2.42,12,12,0,0,1,5.07,4.18,10.93,10.93,0,0,1,1.71,6.18,12.13,12.13,0,0,1-1.8,6.49,11.73,11.73,0,0,1-4.9,4.46,16.68,16.68,0,0,1-7.46,1.52q-6.81,0-10.86-3.79T729.73,57.12Z"/><path class="cls-4" d="M791.61,55.93l4.89,1.39q-1.62,7-5.67,10.43A14.63,14.63,0,0,1,781,71.19a15.86,15.86,0,0,1-8.72-2.31,16.38,16.38,0,0,1-5.92-7.41,29,29,0,0,1-2.31-12,26.33,26.33,0,0,1,2.31-11.6,16.66,16.66,0,0,1,6.25-7.17,16.44,16.44,0,0,1,8.8-2.43,14.12,14.12,0,0,1,9.14,3.07,16.29,16.29,0,0,1,5.35,9l-4.77,1.27q-2.45-8.64-9.81-8.64A11.44,11.44,0,0,0,775,34.68a11.87,11.87,0,0,0-4.3,5.43,23.42,23.42,0,0,0-1.6,9.32q0,8.53,3.24,12.8a10.26,10.26,0,0,0,8.61,4.26,9.83,9.83,0,0,0,6.85-2.62Q790.63,61.26,791.61,55.93Z"/><path class="cls-4" d="M800.22,58V52.9h13.83V58Z"/><path class="cls-4" d="M830.16,70.49,815.91,29h5.26l9.57,30.16q1.1,3.51,1.92,6.8c.57-2.29,1.22-4.55,2-6.8L844.55,29h5L835.15,70.49Z"/><path class="cls-4" d="M865.75,50.1a30.4,30.4,0,0,1-2.83,13.36,39.62,39.62,0,0,1-8.5,11.33l-2.49-2.49a34.15,34.15,0,0,0,7.82-10.08,27.32,27.32,0,0,0,2.6-12.12A27.36,27.36,0,0,0,859.75,38a37.09,37.09,0,0,0-7.82-10.3l2.49-2.5a42.77,42.77,0,0,1,8.5,11.56A30.45,30.45,0,0,1,865.75,50.1Z"/><path class="cls-4" d="M895.73,26.53c1.63,0,3.39-.07,5.28-.22v3.85c-1.49-.15-2.84-.23-4.06-.23V60.06c1.49-.45,2.85-.82,4.06-1.13a13.64,13.64,0,0,0-.2,3.85,35.88,35.88,0,0,0-3.86.91V68.9c0,2.27.07,4.83.2,7.7h-4.27c.27-2.87.41-5.43.41-7.7V64.6a48.57,48.57,0,0,0-5.59,1.58c-2.23.76-4.64,1.67-7.21,2.72a31.81,31.81,0,0,0-1.43-5.21,23.39,23.39,0,0,0,4.27-.68V29.93a16.13,16.13,0,0,0-3.86.45V26.31c1.63.15,3.32.22,5.08.22Zm-2.44,11.33V29.93H887v7.93Zm0,12.46V41.49H887v8.83Zm0,3.63H887v8.38q2.24-.45,6.3-1.36ZM918.8,29.82c-.48,1.13-1.32,2.91-2.54,5.32,2.84,0,5.49-.07,7.93-.22V39a52.86,52.86,0,0,0-6.31-.45h-4.06q-.21,8.39-.41,11.78h5.9c1.62,0,3.59-.07,5.89-.22v4.07c-2.3-.14-4.27-.22-5.89-.22H914a25.92,25.92,0,0,0,4.88,10.87q3.66,4.75,8.13,5.89a11.76,11.76,0,0,0-2.13,2.61,7.55,7.55,0,0,0-.92,2.83,35.72,35.72,0,0,1-7.11-7.48,35.31,35.31,0,0,1-4.68-10.19A48.34,48.34,0,0,1,908.54,68a52.69,52.69,0,0,1-5.7,8.61,12.06,12.06,0,0,0-1.83-2c-.81-.75-1.42-1.13-1.82-1.13A20.15,20.15,0,0,0,904.57,67a35.13,35.13,0,0,0,3.36-7.25A42.82,42.82,0,0,0,909.14,54h-2.43c-2.17,0-4.48.08-6.91.22V50.1c2.43.15,4.74.22,6.91.22h2.84q.41-6.57.41-11.78h-2a58.94,58.94,0,0,0-6.71.45V34.92q3.85.22,6.71.22H913a82.48,82.48,0,0,0,3.66-12,30.94,30.94,0,0,0,4.47,2.5A26.81,26.81,0,0,0,918.8,29.82ZM910,32a8.28,8.28,0,0,0-3.25,2.27,76.21,76.21,0,0,0-4.27-8.61,16.28,16.28,0,0,0,2.84-2Q908.94,29.94,910,32Z"/><path class="cls-4" d="M972.76,64.82v6.8q3.66,0,6.3-.23v4.08c-3.79-.15-7.59-.23-11.38-.23H941.06q-6.91,0-10.17.23V71.39c2,.15,4.2.23,6.51.23v-6.8q0-2.94-.41-7.25h36.18C972.9,60.6,972.76,63,972.76,64.82ZM950.4,39q0,4.77.21,12H934.14q.4-6.33.41-12.91,0-6.8-.41-12.24h16.47Q950.4,34,950.4,39Zm-3.65-2V29.48h-8.54V37Zm0,10.64v-7h-8.54v7Zm1.62,24V61.42h-7.31v10.2ZM974.8,32.88V48.51q0,3.63-1.83,4.87a15.53,15.53,0,0,1-5.9,1.93,6.83,6.83,0,0,0-2-5c3-.15,4.71-.37,5.18-.68a2,2,0,0,0,.71-1.81V45.56H958.74a30,30,0,0,1-1.93,5.67,51.47,51.47,0,0,1-2.54,5,9.86,9.86,0,0,0-4.07-2.49,14.61,14.61,0,0,0,3.86-6.23,29.51,29.51,0,0,0,1.43-7.7c.13-2.64.16-5.33.1-8s-.17-5-.31-6.79H975C974.86,27.82,974.8,30.46,974.8,32.88ZM958.54,71.62V61.42h-6.71v10.2Zm12.39-29.68V37.41H959.35q0,2.27-.21,4.53Zm0-8.16V28.57H959.55v5.21ZM969.1,71.62V61.42H962v10.2Z"/><path class="cls-4" d="M399.23,132.92l4.53,1.39c-1,4.67-2.75,8.14-5.25,10.44a13.05,13.05,0,0,1-9.14,3.44,13.9,13.9,0,0,1-8.08-2.31,16.36,16.36,0,0,1-5.5-7.41,31.13,31.13,0,0,1-2.13-12,28.13,28.13,0,0,1,2.14-11.61,16.44,16.44,0,0,1,5.79-7.17,14.51,14.51,0,0,1,8.17-2.42,12.51,12.51,0,0,1,8.47,3.06,16.55,16.55,0,0,1,5,9l-4.41,1.28q-2.28-8.64-9.11-8.64a10.07,10.07,0,0,0-5.9,1.74,11.73,11.73,0,0,0-4,5.43,25.16,25.16,0,0,0-1.49,9.32q0,8.54,3,12.8a9.31,9.31,0,0,0,8,4.27,8.79,8.79,0,0,0,6.36-2.62C397.43,139.12,398.63,136.47,399.23,132.92Z"/><path class="cls-4" d="M408.8,147.48V106H413v14.9a10.29,10.29,0,0,1,3.32-3.1,8.27,8.27,0,0,1,4.1-1,8,8,0,0,1,6.21,2.5c1.52,1.67,2.28,4.74,2.28,9.19v19.06h-4.16V128.42q0-3.9-1.39-5.61a4.66,4.66,0,0,0-3.82-1.69,5.9,5.9,0,0,0-4.63,2.18c-1.28,1.45-1.91,4-1.91,7.73v16.45Z"/><path class="cls-4" d="M435.25,111.83V106h4.17v5.87Zm0,35.65V117.41h4.17v30.07Z"/><path class="cls-4" d="M445.82,147.48V117.41h3.76v4.24a9.82,9.82,0,0,1,3.33-3.7,8.3,8.3,0,0,1,4.5-1.22,8.81,8.81,0,0,1,3.67.77,7.55,7.55,0,0,1,2.71,2,8.29,8.29,0,0,1,1.54,3.27,27.37,27.37,0,0,1,.51,6.18v18.49h-4.16V129.17a15,15,0,0,0-.57-4.85,4.88,4.88,0,0,0-1.77-2.37,4.74,4.74,0,0,0-2.79-.83,5.79,5.79,0,0,0-4.79,2.24Q450,125.6,450,131v16.44Z"/><path class="cls-4" d="M488.33,143.77a15.64,15.64,0,0,1-4.37,3.29,10.66,10.66,0,0,1-4.7,1.1,8.24,8.24,0,0,1-6.14-2.32,8.53,8.53,0,0,1-2.3-6.26A9.61,9.61,0,0,1,471.9,135a8,8,0,0,1,3-3.14,15.53,15.53,0,0,1,5.66-1.67,31.84,31.84,0,0,0,7.48-1.78l0-1.31c0-2-.36-3.5-1.1-4.33a6,6,0,0,0-4.79-1.81,6.67,6.67,0,0,0-4.36,1.21c-1,.8-1.67,2.32-2.12,4.54l-4.11-.68c.59-3.23,1.77-5.58,3.56-7.06s4.33-2.2,7.66-2.2a11,11,0,0,1,6.09,1.45,6.33,6.33,0,0,1,2.79,3.62,26,26,0,0,1,.58,6.28v6.8a87.57,87.57,0,0,0,.26,9,13.36,13.36,0,0,0,1.07,3.61h-4.36A12.36,12.36,0,0,1,488.33,143.77ZM488,132.39a26.83,26.83,0,0,1-6.83,1.92,12.58,12.58,0,0,0-3.68,1,4,4,0,0,0-1.63,1.64,5,5,0,0,0-.58,2.45,4.56,4.56,0,0,0,1.33,3.44,5.08,5.08,0,0,0,3.68,1.29,7.48,7.48,0,0,0,4.07-1.16,7.3,7.3,0,0,0,2.73-3.1,13.91,13.91,0,0,0,.91-5.65Z"/><path class="cls-4" d="M512.51,147.48V106h15.1q4.73,0,7,1.16a8.89,8.89,0,0,1,3.69,3.87,13,13,0,0,1,1.45,6.27,10.55,10.55,0,0,1-9.58,11.32,11.48,11.48,0,0,1,2.89,2.31,29.05,29.05,0,0,1,3.54,5.29l5.95,11.3h-5.66l-4.54-8.63a54.1,54.1,0,0,0-4-6.83,7.66,7.66,0,0,0-2.6-2.36,8.18,8.18,0,0,0-3.52-.61H517v18.43Zm4.5-23.19h9.69a11.79,11.79,0,0,0,4.81-.77,5.81,5.81,0,0,0,2.61-2.4,7.46,7.46,0,0,0,1-3.83,6.59,6.59,0,0,0-1.84-4.94,7.52,7.52,0,0,0-5.46-1.8H517Z"/><path class="cls-4" d="M547.71,147.48V106h4.51v41.52Z"/><path class="cls-4" d="M558.56,134.11l4.25-.45a12.27,12.27,0,0,0,1.54,5.34,8.66,8.66,0,0,0,3.44,3.07,10.7,10.7,0,0,0,5,1.16,9.13,9.13,0,0,0,6.25-2,6.49,6.49,0,0,0,2.22-5.1,6.2,6.2,0,0,0-.81-3.21,6.11,6.11,0,0,0-2.43-2.25,45.57,45.57,0,0,0-7-2.47,24.74,24.74,0,0,1-6.85-2.88A9.9,9.9,0,0,1,561,121.7a10.89,10.89,0,0,1-1.14-5,11.05,11.05,0,0,1,3.26-8.24,12,12,0,0,1,8.78-3.2,14,14,0,0,1,6.64,1.5A10.65,10.65,0,0,1,583,111a14.08,14.08,0,0,1,1.68,6.6l-4.33.4c-.23-2.7-1-4.7-2.42-6a8.24,8.24,0,0,0-5.85-2,8.76,8.76,0,0,0-5.83,1.71,5.57,5.57,0,0,0-2,4.44,5.09,5.09,0,0,0,1.47,3.9q1.47,1.39,6.62,2.81a43.78,43.78,0,0,1,7.08,2.42,11.46,11.46,0,0,1,4.7,4.18,11.6,11.6,0,0,1,1.59,6.18,12.84,12.84,0,0,1-1.67,6.5,11.23,11.23,0,0,1-4.54,4.45,14.59,14.59,0,0,1-6.93,1.53q-6.32,0-10.07-3.8T558.56,134.11Z"/><path class="cls-4" d="M616,132.92l4.53,1.39c-1,4.67-2.76,8.14-5.26,10.44a13,13,0,0,1-9.13,3.44,13.94,13.94,0,0,1-8.09-2.31,16.42,16.42,0,0,1-5.49-7.41,30.94,30.94,0,0,1-2.14-12,28.29,28.29,0,0,1,2.14-11.61,16.46,16.46,0,0,1,5.8-7.17,14.5,14.5,0,0,1,8.16-2.42,12.54,12.54,0,0,1,8.48,3.06,16.68,16.68,0,0,1,5,9l-4.42,1.28q-2.26-8.64-9.1-8.64a10,10,0,0,0-5.9,1.74,11.73,11.73,0,0,0-4,5.43,25,25,0,0,0-1.49,9.32q0,8.54,3,12.8a9.29,9.29,0,0,0,8,4.27,8.75,8.75,0,0,0,6.36-2.62C614.17,139.12,615.36,136.47,616,132.92Z"/><path class="cls-4" d="M624,135v-5.13h12.83V135Z"/><path class="cls-4" d="M651.73,147.48,638.51,106h4.87l8.88,30.17q1,3.51,1.78,6.79c.53-2.28,1.14-4.55,1.82-6.79L665.07,106h4.59l-13.31,41.52Z"/><path class="cls-4" d="M680.56,147.48,693.69,106h4.82l13.94,41.52H707.3l-4-12.57H689l-3.71,12.57Zm9.77-17h11.6l-3.54-11.5c-1.09-3.53-1.9-6.4-2.41-8.6a62,62,0,0,1-1.86,7.93Z"/><path class="cls-4" d="M715.28,147.48V106h4.17v41.52Z"/><path class="cls-4" d="M725.85,147.48V106H730v41.52Z"/><path class="cls-4" d="M736.55,111.83V106h4.17v5.87Zm0,35.65V117.41h4.17v30.07Z"/><path class="cls-4" d="M763.17,143.77a15.46,15.46,0,0,1-4.36,3.29,10.66,10.66,0,0,1-4.7,1.1,8.22,8.22,0,0,1-6.14-2.32,8.53,8.53,0,0,1-2.3-6.26,9.61,9.61,0,0,1,1.08-4.62,8.09,8.09,0,0,1,2.94-3.14,15.65,15.65,0,0,1,5.67-1.67,31.6,31.6,0,0,0,7.47-1.78l0-1.31c0-2-.37-3.5-1.1-4.33a6,6,0,0,0-4.79-1.81,6.65,6.65,0,0,0-4.36,1.21c-1,.8-1.67,2.32-2.12,4.54l-4.11-.68q.89-4.84,3.55-7.06c1.79-1.47,4.34-2.2,7.67-2.2a11,11,0,0,1,6.08,1.45,6.25,6.25,0,0,1,2.79,3.62,25.51,25.51,0,0,1,.58,6.28v6.8a86.38,86.38,0,0,0,.27,9,13.36,13.36,0,0,0,1.07,3.61H764A13,13,0,0,1,763.17,143.77Zm-.34-11.38a26.6,26.6,0,0,1-6.82,1.92,12.58,12.58,0,0,0-3.68,1A4,4,0,0,0,750.7,137a5,5,0,0,0-.58,2.45,4.56,4.56,0,0,0,1.33,3.44,5.06,5.06,0,0,0,3.68,1.29A7.48,7.48,0,0,0,759.2,143a7.37,7.37,0,0,0,2.73-3.1,13.93,13.93,0,0,0,.9-5.65Z"/><path class="cls-4" d="M773.57,147.48V117.41h3.76v4.24a9.82,9.82,0,0,1,3.33-3.7,8.31,8.31,0,0,1,4.51-1.22,8.76,8.76,0,0,1,3.66.77,7.55,7.55,0,0,1,2.71,2,8.29,8.29,0,0,1,1.54,3.27,27.37,27.37,0,0,1,.51,6.18v18.49h-4.16V129.17a15,15,0,0,0-.57-4.85,4.88,4.88,0,0,0-1.77-2.37,4.74,4.74,0,0,0-2.79-.83,5.76,5.76,0,0,0-4.78,2.24q-1.78,2.23-1.79,7.68v16.44Z"/><path class="cls-4" d="M816.16,136.47l4.11.65q-.71,5.37-3.56,8.21a9.32,9.32,0,0,1-6.84,2.83,9.71,9.71,0,0,1-8-4q-3.12-4-3.13-11.76t3.16-11.77a9.94,9.94,0,0,1,8.11-3.92,9.27,9.27,0,0,1,6.45,2.37,11.76,11.76,0,0,1,3.35,7.14l-4.05.74a8.81,8.81,0,0,0-2.06-4.56,4.81,4.81,0,0,0-3.54-1.5,6.14,6.14,0,0,0-5.12,2.73c-1.35,1.82-2,4.72-2,8.68s.65,7.06,1.94,8.89a5.86,5.86,0,0,0,5,2.75,5.31,5.31,0,0,0,4.06-1.83A9.87,9.87,0,0,0,816.16,136.47Z"/><path class="cls-4" d="M840.66,137.8l4.3.65a13,13,0,0,1-3.89,7.26,10.29,10.29,0,0,1-7,2.45,10.4,10.4,0,0,1-8.48-4q-3.25-4-3.25-11.48,0-7.78,3.27-11.88a10.19,10.19,0,0,1,8.29-4.09,9.81,9.81,0,0,1,8,4q3.21,4,3.2,11.64l0,1.36H826.67c.17,3.38,1,5.92,2.35,7.64a6.36,6.36,0,0,0,5.1,2.58Q838.82,144,840.66,137.8Zm-13.74-8.25h13.77a11.55,11.55,0,0,0-1.67-5.83,6.09,6.09,0,0,0-9.92-.47A10.32,10.32,0,0,0,826.92,129.55Z"/></g></g></svg>