<svg xmlns="http://www.w3.org/2000/svg" viewBox="0 0 153.97 30.4"><defs><style>.cls-1{fill:#333;}.cls-2{fill:#fc011a;}</style></defs><g id="Layer_2" data-name="Layer 2"><g id="Layer_1-2" data-name="Layer 1"><path class="cls-1" d="M83.91,7.72a8.39,8.39,0,0,0-8.15,7.35,6.51,6.51,0,0,0,6.6,7.36,8.4,8.4,0,0,0,8.14-7.36A6.49,6.49,0,0,0,83.91,7.72ZM82.68,19.33a3.75,3.75,0,0,1-3.79-4.26,4.85,4.85,0,0,1,4.69-4.25,3.75,3.75,0,0,1,3.79,4.25A4.85,4.85,0,0,1,82.68,19.33Z"/><path class="cls-1" d="M147.33,7.72a8.4,8.4,0,0,0-8.15,7.35,6.52,6.52,0,0,0,6.6,7.36,8.42,8.42,0,0,0,8.15-7.36A6.51,6.51,0,0,0,147.33,7.72Zm-1.19,11.61a3.75,3.75,0,0,1-3.79-4.26A4.85,4.85,0,0,1,147,10.82a3.75,3.75,0,0,1,3.79,4.25A4.88,4.88,0,0,1,146.14,19.33Z"/><path class="cls-1" d="M122.2,3.43l-3.25,1-.5,4.69a6.12,6.12,0,0,0-3.9-1.44A8.42,8.42,0,0,0,106.4,15a6.52,6.52,0,0,0,6.6,7.35,7.17,7.17,0,0,0,4.19-1.51L117,22.39h3.13l.8-7.35Zm-8.84,15.9a3.75,3.75,0,0,1-3.78-4.26,4.84,4.84,0,0,1,4.69-4.25,3.63,3.63,0,0,1,3.6,4.25A4.69,4.69,0,0,1,113.36,19.33Z"/><path class="cls-1" d="M138.14,7.72H135l-.15,1.44A6,6,0,0,0,131,7.72a8.4,8.4,0,0,0-8.15,7.35,6.52,6.52,0,0,0,6.6,7.36,7.16,7.16,0,0,0,4.18-1.52l-.14,1.52h3.14l.75-7.36Zm-8.4,11.61A3.75,3.75,0,0,1,126,15.07a4.84,4.84,0,0,1,4.69-4.25,3.63,3.63,0,0,1,3.6,4.25A4.69,4.69,0,0,1,129.74,19.33Z"/><path class="cls-1" d="M104.1,7.72h-1.95l-.4,3.57-.54,5.26a3.54,3.54,0,0,1-3.39,2.78,2.76,2.76,0,0,1-2.77-3.1l.5-4.94.36-3.57H92.78L92,16.23a5.49,5.49,0,0,0,5.59,6.23,5.21,5.21,0,0,0,3.21-1l-.11,1h3.13l1.55-14.74Z"/><path class="cls-1" d="M73,7.72l-3.75,7.82-3-7.82H62.45L67.1,20l-3.24,6.71h3.86l9.15-19Z"/><path class="cls-2" d="M51.2,3.17l.87-1.94L48.89.07l-1.4,3.1h-2.6L44.17.07,40.75,1.19l.46,2H36.92L36.6,6.2h9.55l-.86,2a25.84,25.84,0,0,0-5.95,1l-1.3.4-1.48,14,1.3.36a26.9,26.9,0,0,0,6.85,1,29.17,29.17,0,0,0,7-1l1.37-.36,1.48-14-1.22-.4a23.2,23.2,0,0,0-4.44-.93l.94-2.06h6.85L57,3.14H51.2ZM40.93,15.76H50.3l-.18,1.91H40.75ZM45,22a22.52,22.52,0,0,1-4.65-.54l.15-1.26h9.37l-.14,1.26A23.29,23.29,0,0,1,45,22Zm5.63-8.69H41.21l.15-1.48a21.39,21.39,0,0,1,4.76-.58,20.12,20.12,0,0,1,4.65.58Z"/><path class="cls-2" d="M48.46,26.72a29.89,29.89,0,0,1-14.64-2s-.11,0-.14-.08c1.4-2.85,1.87-5.51,1.15-7.71a7.83,7.83,0,0,0-4.65-4.73l-1.44,3.32a4.78,4.78,0,0,1,2.74,2.81,7.19,7.19,0,0,1-.87,5A48.41,48.41,0,0,0,25.38,21l1.19-11.1-1.11-.44a22,22,0,0,0-8.55-1.4,28.83,28.83,0,0,0-7.1.86c.54-.94,1-1.84,1.48-2.63H28.74l.32-3.06H12.91c.58-1.09.94-1.77,1-1.88L10.78,0s-.65,1.3-1.69,3.17H3L2.63,6.24H7.39A114.11,114.11,0,0,1,0,18l2.74,1.87c1.15-1.59,2.34-3.32,3.5-5.12L4.65,29.89H8.26L9.34,19.54A26.32,26.32,0,0,1,22.21,17l-.32,3a17.25,17.25,0,0,0-4.29-.44c-2.67.11-4.33,1.45-4.91,2.78a4.49,4.49,0,0,0,2,5.66c2.78,1.84,9.63,2.42,9.63,2.42L25,24.52c2.27.86,4.36,2,6.34,2.88.33.15.8.33,1.09.44a34.91,34.91,0,0,0,12.25,2.52,26.12,26.12,0,0,0,4-.22A30.74,30.74,0,0,0,56,28.3l-1.12-3.24A23.18,23.18,0,0,1,48.46,26.72ZM21.2,26.65c-2.81-.58-5.55-1.3-5.33-2.85s4-.9,5.69-.4ZM9.7,16.05l.43-4.15a25,25,0,0,1,6.42-.79,22.74,22.74,0,0,1,6.2.79l-.18,2A29.76,29.76,0,0,0,9.7,16.05Z"/><path class="cls-2" d="M36.85,9.63a29.26,29.26,0,0,0-5.59-3.72L29.39,9a29,29,0,0,1,5.19,3.47Z"/></g></g></svg>